%TF.GenerationSoftware,KiCad,Pcbnew,9.0.6*%
%TF.CreationDate,2026-02-11T20:02:57+00:00*%
%TF.ProjectId,solderbit-segment,736f6c64-6572-4626-9974-2d7365676d65,v0.1*%
%TF.SameCoordinates,Original*%
%TF.FileFunction,AssemblyDrawing,Top*%
%FSLAX46Y46*%
G04 Gerber Fmt 4.6, Leading zero omitted, Abs format (unit mm)*
G04 Created by KiCad (PCBNEW 9.0.6) date 2026-02-11 20:02:57*
%MOMM*%
%LPD*%
G01*
G04 APERTURE LIST*
%ADD10C,0.120000*%
%ADD11C,0.150000*%
%ADD12C,0.100000*%
G04 APERTURE END LIST*
D10*
X148866667Y-90731355D02*
X148600000Y-90350402D01*
X148409524Y-90731355D02*
X148409524Y-89931355D01*
X148409524Y-89931355D02*
X148714286Y-89931355D01*
X148714286Y-89931355D02*
X148790476Y-89969450D01*
X148790476Y-89969450D02*
X148828571Y-90007545D01*
X148828571Y-90007545D02*
X148866667Y-90083736D01*
X148866667Y-90083736D02*
X148866667Y-90198021D01*
X148866667Y-90198021D02*
X148828571Y-90274212D01*
X148828571Y-90274212D02*
X148790476Y-90312307D01*
X148790476Y-90312307D02*
X148714286Y-90350402D01*
X148714286Y-90350402D02*
X148409524Y-90350402D01*
X149590476Y-89931355D02*
X149209524Y-89931355D01*
X149209524Y-89931355D02*
X149171428Y-90312307D01*
X149171428Y-90312307D02*
X149209524Y-90274212D01*
X149209524Y-90274212D02*
X149285714Y-90236117D01*
X149285714Y-90236117D02*
X149476190Y-90236117D01*
X149476190Y-90236117D02*
X149552381Y-90274212D01*
X149552381Y-90274212D02*
X149590476Y-90312307D01*
X149590476Y-90312307D02*
X149628571Y-90388498D01*
X149628571Y-90388498D02*
X149628571Y-90578974D01*
X149628571Y-90578974D02*
X149590476Y-90655164D01*
X149590476Y-90655164D02*
X149552381Y-90693260D01*
X149552381Y-90693260D02*
X149476190Y-90731355D01*
X149476190Y-90731355D02*
X149285714Y-90731355D01*
X149285714Y-90731355D02*
X149209524Y-90693260D01*
X149209524Y-90693260D02*
X149171428Y-90655164D01*
X130866667Y-94796355D02*
X130600000Y-94415402D01*
X130409524Y-94796355D02*
X130409524Y-93996355D01*
X130409524Y-93996355D02*
X130714286Y-93996355D01*
X130714286Y-93996355D02*
X130790476Y-94034450D01*
X130790476Y-94034450D02*
X130828571Y-94072545D01*
X130828571Y-94072545D02*
X130866667Y-94148736D01*
X130866667Y-94148736D02*
X130866667Y-94263021D01*
X130866667Y-94263021D02*
X130828571Y-94339212D01*
X130828571Y-94339212D02*
X130790476Y-94377307D01*
X130790476Y-94377307D02*
X130714286Y-94415402D01*
X130714286Y-94415402D02*
X130409524Y-94415402D01*
X131171428Y-94072545D02*
X131209524Y-94034450D01*
X131209524Y-94034450D02*
X131285714Y-93996355D01*
X131285714Y-93996355D02*
X131476190Y-93996355D01*
X131476190Y-93996355D02*
X131552381Y-94034450D01*
X131552381Y-94034450D02*
X131590476Y-94072545D01*
X131590476Y-94072545D02*
X131628571Y-94148736D01*
X131628571Y-94148736D02*
X131628571Y-94224926D01*
X131628571Y-94224926D02*
X131590476Y-94339212D01*
X131590476Y-94339212D02*
X131133333Y-94796355D01*
X131133333Y-94796355D02*
X131628571Y-94796355D01*
X148866667Y-94731355D02*
X148600000Y-94350402D01*
X148409524Y-94731355D02*
X148409524Y-93931355D01*
X148409524Y-93931355D02*
X148714286Y-93931355D01*
X148714286Y-93931355D02*
X148790476Y-93969450D01*
X148790476Y-93969450D02*
X148828571Y-94007545D01*
X148828571Y-94007545D02*
X148866667Y-94083736D01*
X148866667Y-94083736D02*
X148866667Y-94198021D01*
X148866667Y-94198021D02*
X148828571Y-94274212D01*
X148828571Y-94274212D02*
X148790476Y-94312307D01*
X148790476Y-94312307D02*
X148714286Y-94350402D01*
X148714286Y-94350402D02*
X148409524Y-94350402D01*
X149552381Y-93931355D02*
X149400000Y-93931355D01*
X149400000Y-93931355D02*
X149323809Y-93969450D01*
X149323809Y-93969450D02*
X149285714Y-94007545D01*
X149285714Y-94007545D02*
X149209524Y-94121831D01*
X149209524Y-94121831D02*
X149171428Y-94274212D01*
X149171428Y-94274212D02*
X149171428Y-94578974D01*
X149171428Y-94578974D02*
X149209524Y-94655164D01*
X149209524Y-94655164D02*
X149247619Y-94693260D01*
X149247619Y-94693260D02*
X149323809Y-94731355D01*
X149323809Y-94731355D02*
X149476190Y-94731355D01*
X149476190Y-94731355D02*
X149552381Y-94693260D01*
X149552381Y-94693260D02*
X149590476Y-94655164D01*
X149590476Y-94655164D02*
X149628571Y-94578974D01*
X149628571Y-94578974D02*
X149628571Y-94388498D01*
X149628571Y-94388498D02*
X149590476Y-94312307D01*
X149590476Y-94312307D02*
X149552381Y-94274212D01*
X149552381Y-94274212D02*
X149476190Y-94236117D01*
X149476190Y-94236117D02*
X149323809Y-94236117D01*
X149323809Y-94236117D02*
X149247619Y-94274212D01*
X149247619Y-94274212D02*
X149209524Y-94312307D01*
X149209524Y-94312307D02*
X149171428Y-94388498D01*
X130866667Y-90796355D02*
X130600000Y-90415402D01*
X130409524Y-90796355D02*
X130409524Y-89996355D01*
X130409524Y-89996355D02*
X130714286Y-89996355D01*
X130714286Y-89996355D02*
X130790476Y-90034450D01*
X130790476Y-90034450D02*
X130828571Y-90072545D01*
X130828571Y-90072545D02*
X130866667Y-90148736D01*
X130866667Y-90148736D02*
X130866667Y-90263021D01*
X130866667Y-90263021D02*
X130828571Y-90339212D01*
X130828571Y-90339212D02*
X130790476Y-90377307D01*
X130790476Y-90377307D02*
X130714286Y-90415402D01*
X130714286Y-90415402D02*
X130409524Y-90415402D01*
X131628571Y-90796355D02*
X131171428Y-90796355D01*
X131400000Y-90796355D02*
X131400000Y-89996355D01*
X131400000Y-89996355D02*
X131323809Y-90110640D01*
X131323809Y-90110640D02*
X131247619Y-90186831D01*
X131247619Y-90186831D02*
X131171428Y-90224926D01*
D11*
X138785714Y-96887319D02*
X138785714Y-95887319D01*
X138785714Y-95887319D02*
X139023809Y-95887319D01*
X139023809Y-95887319D02*
X139166666Y-95934938D01*
X139166666Y-95934938D02*
X139261904Y-96030176D01*
X139261904Y-96030176D02*
X139309523Y-96125414D01*
X139309523Y-96125414D02*
X139357142Y-96315890D01*
X139357142Y-96315890D02*
X139357142Y-96458747D01*
X139357142Y-96458747D02*
X139309523Y-96649223D01*
X139309523Y-96649223D02*
X139261904Y-96744461D01*
X139261904Y-96744461D02*
X139166666Y-96839700D01*
X139166666Y-96839700D02*
X139023809Y-96887319D01*
X139023809Y-96887319D02*
X138785714Y-96887319D01*
X139738095Y-96839700D02*
X139880952Y-96887319D01*
X139880952Y-96887319D02*
X140119047Y-96887319D01*
X140119047Y-96887319D02*
X140214285Y-96839700D01*
X140214285Y-96839700D02*
X140261904Y-96792080D01*
X140261904Y-96792080D02*
X140309523Y-96696842D01*
X140309523Y-96696842D02*
X140309523Y-96601604D01*
X140309523Y-96601604D02*
X140261904Y-96506366D01*
X140261904Y-96506366D02*
X140214285Y-96458747D01*
X140214285Y-96458747D02*
X140119047Y-96411128D01*
X140119047Y-96411128D02*
X139928571Y-96363509D01*
X139928571Y-96363509D02*
X139833333Y-96315890D01*
X139833333Y-96315890D02*
X139785714Y-96268271D01*
X139785714Y-96268271D02*
X139738095Y-96173033D01*
X139738095Y-96173033D02*
X139738095Y-96077795D01*
X139738095Y-96077795D02*
X139785714Y-95982557D01*
X139785714Y-95982557D02*
X139833333Y-95934938D01*
X139833333Y-95934938D02*
X139928571Y-95887319D01*
X139928571Y-95887319D02*
X140166666Y-95887319D01*
X140166666Y-95887319D02*
X140309523Y-95934938D01*
X141261904Y-96887319D02*
X140690476Y-96887319D01*
X140976190Y-96887319D02*
X140976190Y-95887319D01*
X140976190Y-95887319D02*
X140880952Y-96030176D01*
X140880952Y-96030176D02*
X140785714Y-96125414D01*
X140785714Y-96125414D02*
X140690476Y-96173033D01*
D10*
X130866667Y-98796355D02*
X130600000Y-98415402D01*
X130409524Y-98796355D02*
X130409524Y-97996355D01*
X130409524Y-97996355D02*
X130714286Y-97996355D01*
X130714286Y-97996355D02*
X130790476Y-98034450D01*
X130790476Y-98034450D02*
X130828571Y-98072545D01*
X130828571Y-98072545D02*
X130866667Y-98148736D01*
X130866667Y-98148736D02*
X130866667Y-98263021D01*
X130866667Y-98263021D02*
X130828571Y-98339212D01*
X130828571Y-98339212D02*
X130790476Y-98377307D01*
X130790476Y-98377307D02*
X130714286Y-98415402D01*
X130714286Y-98415402D02*
X130409524Y-98415402D01*
X131133333Y-97996355D02*
X131628571Y-97996355D01*
X131628571Y-97996355D02*
X131361905Y-98301117D01*
X131361905Y-98301117D02*
X131476190Y-98301117D01*
X131476190Y-98301117D02*
X131552381Y-98339212D01*
X131552381Y-98339212D02*
X131590476Y-98377307D01*
X131590476Y-98377307D02*
X131628571Y-98453498D01*
X131628571Y-98453498D02*
X131628571Y-98643974D01*
X131628571Y-98643974D02*
X131590476Y-98720164D01*
X131590476Y-98720164D02*
X131552381Y-98758260D01*
X131552381Y-98758260D02*
X131476190Y-98796355D01*
X131476190Y-98796355D02*
X131247619Y-98796355D01*
X131247619Y-98796355D02*
X131171428Y-98758260D01*
X131171428Y-98758260D02*
X131133333Y-98720164D01*
X131412664Y-67133332D02*
X131450760Y-67171428D01*
X131450760Y-67171428D02*
X131488855Y-67285713D01*
X131488855Y-67285713D02*
X131488855Y-67361904D01*
X131488855Y-67361904D02*
X131450760Y-67476190D01*
X131450760Y-67476190D02*
X131374569Y-67552380D01*
X131374569Y-67552380D02*
X131298379Y-67590475D01*
X131298379Y-67590475D02*
X131145998Y-67628571D01*
X131145998Y-67628571D02*
X131031712Y-67628571D01*
X131031712Y-67628571D02*
X130879331Y-67590475D01*
X130879331Y-67590475D02*
X130803140Y-67552380D01*
X130803140Y-67552380D02*
X130726950Y-67476190D01*
X130726950Y-67476190D02*
X130688855Y-67361904D01*
X130688855Y-67361904D02*
X130688855Y-67285713D01*
X130688855Y-67285713D02*
X130726950Y-67171428D01*
X130726950Y-67171428D02*
X130765045Y-67133332D01*
X131488855Y-66371428D02*
X131488855Y-66828571D01*
X131488855Y-66599999D02*
X130688855Y-66599999D01*
X130688855Y-66599999D02*
X130803140Y-66676190D01*
X130803140Y-66676190D02*
X130879331Y-66752380D01*
X130879331Y-66752380D02*
X130917426Y-66828571D01*
X148866667Y-98731355D02*
X148600000Y-98350402D01*
X148409524Y-98731355D02*
X148409524Y-97931355D01*
X148409524Y-97931355D02*
X148714286Y-97931355D01*
X148714286Y-97931355D02*
X148790476Y-97969450D01*
X148790476Y-97969450D02*
X148828571Y-98007545D01*
X148828571Y-98007545D02*
X148866667Y-98083736D01*
X148866667Y-98083736D02*
X148866667Y-98198021D01*
X148866667Y-98198021D02*
X148828571Y-98274212D01*
X148828571Y-98274212D02*
X148790476Y-98312307D01*
X148790476Y-98312307D02*
X148714286Y-98350402D01*
X148714286Y-98350402D02*
X148409524Y-98350402D01*
X149133333Y-97931355D02*
X149666667Y-97931355D01*
X149666667Y-97931355D02*
X149323809Y-98731355D01*
D11*
X139454819Y-72511904D02*
X140264342Y-72511904D01*
X140264342Y-72511904D02*
X140359580Y-72464285D01*
X140359580Y-72464285D02*
X140407200Y-72416666D01*
X140407200Y-72416666D02*
X140454819Y-72321428D01*
X140454819Y-72321428D02*
X140454819Y-72130952D01*
X140454819Y-72130952D02*
X140407200Y-72035714D01*
X140407200Y-72035714D02*
X140359580Y-71988095D01*
X140359580Y-71988095D02*
X140264342Y-71940476D01*
X140264342Y-71940476D02*
X139454819Y-71940476D01*
X140454819Y-70940476D02*
X140454819Y-71511904D01*
X140454819Y-71226190D02*
X139454819Y-71226190D01*
X139454819Y-71226190D02*
X139597676Y-71321428D01*
X139597676Y-71321428D02*
X139692914Y-71416666D01*
X139692914Y-71416666D02*
X139740533Y-71511904D01*
D10*
X130866667Y-102796355D02*
X130600000Y-102415402D01*
X130409524Y-102796355D02*
X130409524Y-101996355D01*
X130409524Y-101996355D02*
X130714286Y-101996355D01*
X130714286Y-101996355D02*
X130790476Y-102034450D01*
X130790476Y-102034450D02*
X130828571Y-102072545D01*
X130828571Y-102072545D02*
X130866667Y-102148736D01*
X130866667Y-102148736D02*
X130866667Y-102263021D01*
X130866667Y-102263021D02*
X130828571Y-102339212D01*
X130828571Y-102339212D02*
X130790476Y-102377307D01*
X130790476Y-102377307D02*
X130714286Y-102415402D01*
X130714286Y-102415402D02*
X130409524Y-102415402D01*
X131552381Y-102263021D02*
X131552381Y-102796355D01*
X131361905Y-101958260D02*
X131171428Y-102529688D01*
X131171428Y-102529688D02*
X131666667Y-102529688D01*
X148866667Y-102731355D02*
X148600000Y-102350402D01*
X148409524Y-102731355D02*
X148409524Y-101931355D01*
X148409524Y-101931355D02*
X148714286Y-101931355D01*
X148714286Y-101931355D02*
X148790476Y-101969450D01*
X148790476Y-101969450D02*
X148828571Y-102007545D01*
X148828571Y-102007545D02*
X148866667Y-102083736D01*
X148866667Y-102083736D02*
X148866667Y-102198021D01*
X148866667Y-102198021D02*
X148828571Y-102274212D01*
X148828571Y-102274212D02*
X148790476Y-102312307D01*
X148790476Y-102312307D02*
X148714286Y-102350402D01*
X148714286Y-102350402D02*
X148409524Y-102350402D01*
X149323809Y-102274212D02*
X149247619Y-102236117D01*
X149247619Y-102236117D02*
X149209524Y-102198021D01*
X149209524Y-102198021D02*
X149171428Y-102121831D01*
X149171428Y-102121831D02*
X149171428Y-102083736D01*
X149171428Y-102083736D02*
X149209524Y-102007545D01*
X149209524Y-102007545D02*
X149247619Y-101969450D01*
X149247619Y-101969450D02*
X149323809Y-101931355D01*
X149323809Y-101931355D02*
X149476190Y-101931355D01*
X149476190Y-101931355D02*
X149552381Y-101969450D01*
X149552381Y-101969450D02*
X149590476Y-102007545D01*
X149590476Y-102007545D02*
X149628571Y-102083736D01*
X149628571Y-102083736D02*
X149628571Y-102121831D01*
X149628571Y-102121831D02*
X149590476Y-102198021D01*
X149590476Y-102198021D02*
X149552381Y-102236117D01*
X149552381Y-102236117D02*
X149476190Y-102274212D01*
X149476190Y-102274212D02*
X149323809Y-102274212D01*
X149323809Y-102274212D02*
X149247619Y-102312307D01*
X149247619Y-102312307D02*
X149209524Y-102350402D01*
X149209524Y-102350402D02*
X149171428Y-102426593D01*
X149171428Y-102426593D02*
X149171428Y-102578974D01*
X149171428Y-102578974D02*
X149209524Y-102655164D01*
X149209524Y-102655164D02*
X149247619Y-102693260D01*
X149247619Y-102693260D02*
X149323809Y-102731355D01*
X149323809Y-102731355D02*
X149476190Y-102731355D01*
X149476190Y-102731355D02*
X149552381Y-102693260D01*
X149552381Y-102693260D02*
X149590476Y-102655164D01*
X149590476Y-102655164D02*
X149628571Y-102578974D01*
X149628571Y-102578974D02*
X149628571Y-102426593D01*
X149628571Y-102426593D02*
X149590476Y-102350402D01*
X149590476Y-102350402D02*
X149552381Y-102312307D01*
X149552381Y-102312307D02*
X149476190Y-102274212D01*
D11*
X151674819Y-80169047D02*
X150674819Y-80169047D01*
X150674819Y-80169047D02*
X150674819Y-79788095D01*
X150674819Y-79788095D02*
X150722438Y-79692857D01*
X150722438Y-79692857D02*
X150770057Y-79645238D01*
X150770057Y-79645238D02*
X150865295Y-79597619D01*
X150865295Y-79597619D02*
X151008152Y-79597619D01*
X151008152Y-79597619D02*
X151103390Y-79645238D01*
X151103390Y-79645238D02*
X151151009Y-79692857D01*
X151151009Y-79692857D02*
X151198628Y-79788095D01*
X151198628Y-79788095D02*
X151198628Y-80169047D01*
X151579580Y-78597619D02*
X151627200Y-78645238D01*
X151627200Y-78645238D02*
X151674819Y-78788095D01*
X151674819Y-78788095D02*
X151674819Y-78883333D01*
X151674819Y-78883333D02*
X151627200Y-79026190D01*
X151627200Y-79026190D02*
X151531961Y-79121428D01*
X151531961Y-79121428D02*
X151436723Y-79169047D01*
X151436723Y-79169047D02*
X151246247Y-79216666D01*
X151246247Y-79216666D02*
X151103390Y-79216666D01*
X151103390Y-79216666D02*
X150912914Y-79169047D01*
X150912914Y-79169047D02*
X150817676Y-79121428D01*
X150817676Y-79121428D02*
X150722438Y-79026190D01*
X150722438Y-79026190D02*
X150674819Y-78883333D01*
X150674819Y-78883333D02*
X150674819Y-78788095D01*
X150674819Y-78788095D02*
X150722438Y-78645238D01*
X150722438Y-78645238D02*
X150770057Y-78597619D01*
X151151009Y-77835714D02*
X151151009Y-78169047D01*
X151674819Y-78169047D02*
X150674819Y-78169047D01*
X150674819Y-78169047D02*
X150674819Y-77692857D01*
X151103390Y-77169047D02*
X151055771Y-77264285D01*
X151055771Y-77264285D02*
X151008152Y-77311904D01*
X151008152Y-77311904D02*
X150912914Y-77359523D01*
X150912914Y-77359523D02*
X150865295Y-77359523D01*
X150865295Y-77359523D02*
X150770057Y-77311904D01*
X150770057Y-77311904D02*
X150722438Y-77264285D01*
X150722438Y-77264285D02*
X150674819Y-77169047D01*
X150674819Y-77169047D02*
X150674819Y-76978571D01*
X150674819Y-76978571D02*
X150722438Y-76883333D01*
X150722438Y-76883333D02*
X150770057Y-76835714D01*
X150770057Y-76835714D02*
X150865295Y-76788095D01*
X150865295Y-76788095D02*
X150912914Y-76788095D01*
X150912914Y-76788095D02*
X151008152Y-76835714D01*
X151008152Y-76835714D02*
X151055771Y-76883333D01*
X151055771Y-76883333D02*
X151103390Y-76978571D01*
X151103390Y-76978571D02*
X151103390Y-77169047D01*
X151103390Y-77169047D02*
X151151009Y-77264285D01*
X151151009Y-77264285D02*
X151198628Y-77311904D01*
X151198628Y-77311904D02*
X151293866Y-77359523D01*
X151293866Y-77359523D02*
X151484342Y-77359523D01*
X151484342Y-77359523D02*
X151579580Y-77311904D01*
X151579580Y-77311904D02*
X151627200Y-77264285D01*
X151627200Y-77264285D02*
X151674819Y-77169047D01*
X151674819Y-77169047D02*
X151674819Y-76978571D01*
X151674819Y-76978571D02*
X151627200Y-76883333D01*
X151627200Y-76883333D02*
X151579580Y-76835714D01*
X151579580Y-76835714D02*
X151484342Y-76788095D01*
X151484342Y-76788095D02*
X151293866Y-76788095D01*
X151293866Y-76788095D02*
X151198628Y-76835714D01*
X151198628Y-76835714D02*
X151151009Y-76883333D01*
X151151009Y-76883333D02*
X151103390Y-76978571D01*
X150674819Y-75883333D02*
X150674819Y-76359523D01*
X150674819Y-76359523D02*
X151151009Y-76407142D01*
X151151009Y-76407142D02*
X151103390Y-76359523D01*
X151103390Y-76359523D02*
X151055771Y-76264285D01*
X151055771Y-76264285D02*
X151055771Y-76026190D01*
X151055771Y-76026190D02*
X151103390Y-75930952D01*
X151103390Y-75930952D02*
X151151009Y-75883333D01*
X151151009Y-75883333D02*
X151246247Y-75835714D01*
X151246247Y-75835714D02*
X151484342Y-75835714D01*
X151484342Y-75835714D02*
X151579580Y-75883333D01*
X151579580Y-75883333D02*
X151627200Y-75930952D01*
X151627200Y-75930952D02*
X151674819Y-76026190D01*
X151674819Y-76026190D02*
X151674819Y-76264285D01*
X151674819Y-76264285D02*
X151627200Y-76359523D01*
X151627200Y-76359523D02*
X151579580Y-76407142D01*
X150674819Y-75502380D02*
X150674819Y-74835714D01*
X150674819Y-74835714D02*
X151674819Y-75264285D01*
X151008152Y-74026190D02*
X151674819Y-74026190D01*
X150627200Y-74264285D02*
X151341485Y-74502380D01*
X151341485Y-74502380D02*
X151341485Y-73883333D01*
X151674819Y-73502380D02*
X150674819Y-73502380D01*
X150674819Y-73502380D02*
X151674819Y-72930952D01*
X151674819Y-72930952D02*
X150674819Y-72930952D01*
X139238095Y-76004819D02*
X139238095Y-76814342D01*
X139238095Y-76814342D02*
X139285714Y-76909580D01*
X139285714Y-76909580D02*
X139333333Y-76957200D01*
X139333333Y-76957200D02*
X139428571Y-77004819D01*
X139428571Y-77004819D02*
X139619047Y-77004819D01*
X139619047Y-77004819D02*
X139714285Y-76957200D01*
X139714285Y-76957200D02*
X139761904Y-76909580D01*
X139761904Y-76909580D02*
X139809523Y-76814342D01*
X139809523Y-76814342D02*
X139809523Y-76004819D01*
X140238095Y-76100057D02*
X140285714Y-76052438D01*
X140285714Y-76052438D02*
X140380952Y-76004819D01*
X140380952Y-76004819D02*
X140619047Y-76004819D01*
X140619047Y-76004819D02*
X140714285Y-76052438D01*
X140714285Y-76052438D02*
X140761904Y-76100057D01*
X140761904Y-76100057D02*
X140809523Y-76195295D01*
X140809523Y-76195295D02*
X140809523Y-76290533D01*
X140809523Y-76290533D02*
X140761904Y-76433390D01*
X140761904Y-76433390D02*
X140190476Y-77004819D01*
X140190476Y-77004819D02*
X140809523Y-77004819D01*
D12*
%TO.C,R5*%
X147400000Y-89567500D02*
X150600000Y-89567500D01*
X150600000Y-91167500D02*
X147400000Y-91167500D01*
%TO.C,R2*%
X129400000Y-93632500D02*
X132600000Y-93632500D01*
X132600000Y-95232500D02*
X129400000Y-95232500D01*
%TO.C,R6*%
X147400000Y-93567500D02*
X150600000Y-93567500D01*
X150600000Y-95167500D02*
X147400000Y-95167500D01*
%TO.C,R1*%
X129400000Y-89632500D02*
X132600000Y-89632500D01*
X132600000Y-91232500D02*
X129400000Y-91232500D01*
%TO.C,R3*%
X129400000Y-97632500D02*
X132600000Y-97632500D01*
X132600000Y-99232500D02*
X129400000Y-99232500D01*
%TO.C,C1*%
X130325000Y-65400000D02*
X131925000Y-65400000D01*
X130325000Y-68600000D02*
X130325000Y-65400000D01*
X130325000Y-68600000D02*
X130325000Y-65400000D01*
X131925000Y-65400000D02*
X131925000Y-68600000D01*
X131925000Y-65400000D02*
X131925000Y-68600000D01*
X131925000Y-68600000D02*
X130325000Y-68600000D01*
%TO.C,R7*%
X147400000Y-97567500D02*
X150600000Y-97567500D01*
X150600000Y-99167500D02*
X147400000Y-99167500D01*
%TO.C,U1*%
X145100000Y-74400000D02*
X135900000Y-74400000D01*
X134900000Y-73400000D01*
X134900000Y-69100000D01*
X145100000Y-69100000D01*
X145100000Y-74400000D01*
%TO.C,R4*%
X129400000Y-101632500D02*
X132600000Y-101632500D01*
X132600000Y-103232500D02*
X129400000Y-103232500D01*
%TO.C,R8*%
X147400000Y-101567500D02*
X150600000Y-101567500D01*
X150600000Y-103167500D02*
X147400000Y-103167500D01*
%TO.C,U2*%
X129840000Y-73375000D02*
X150160000Y-73375000D01*
X129840000Y-78725000D02*
X129840000Y-73375000D01*
X130840000Y-79725000D02*
X129840000Y-78725000D01*
X150160000Y-73375000D02*
X150160000Y-79725000D01*
X150160000Y-79725000D02*
X130840000Y-79725000D01*
%TD*%
M02*
