M48
; DRILL file {KiCad 9.0.6} date 2026-02-11T17:45:03+0000
; FORMAT={-:-/ absolute / metric / decimal}
; #@! TF.CreationDate,2026-02-11T17:45:03+00:00
; #@! TF.GenerationSoftware,Kicad,Pcbnew,9.0.6
; #@! TF.FileFunction,Plated,1,2,PTH
FMAT,2
METRIC
; #@! TA.AperFunction,Plated,PTH,ViaDrill
T1C0.300
; #@! TA.AperFunction,Plated,PTH,ComponentDrill
T2C1.000
%
G90
G05
T1
X129.2Y-92.432
X129.2Y-96.432
X129.2Y-100.532
X129.5Y-104.5
X132.7Y-73.5
X132.7Y-74.8
X132.7Y-76.1
X132.8Y-92.432
X134.0Y-100.5
X136.3Y-94.932
X140.0Y-86.832
X140.0Y-99.5
X144.8Y-72.3
X146.6Y-88.432
X147.0Y-96.432
X147.1Y-100.6
X150.5Y-104.5
X150.8Y-92.432
X150.8Y-96.432
X150.8Y-100.432
X151.3Y-77.8
T2
X134.92Y-67.0
X137.46Y-67.0
X140.0Y-67.0
X142.54Y-67.0
X145.08Y-67.0
M30
