%TF.GenerationSoftware,KiCad,Pcbnew,9.0.6*%
%TF.CreationDate,2026-02-11T17:45:00+00:00*%
%TF.ProjectId,solderbit-segment,736f6c64-6572-4626-9974-2d7365676d65,v0.1*%
%TF.SameCoordinates,Original*%
%TF.FileFunction,AssemblyDrawing,Top*%
%FSLAX46Y46*%
G04 Gerber Fmt 4.6, Leading zero omitted, Abs format (unit mm)*
G04 Created by KiCad (PCBNEW 9.0.6) date 2026-02-11 17:45:00*
%MOMM*%
%LPD*%
G01*
G04 APERTURE LIST*
%ADD10C,0.120000*%
%ADD11C,0.150000*%
%ADD12C,0.100000*%
G04 APERTURE END LIST*
D10*
X148866667Y-102796355D02*
X148600000Y-102415402D01*
X148409524Y-102796355D02*
X148409524Y-101996355D01*
X148409524Y-101996355D02*
X148714286Y-101996355D01*
X148714286Y-101996355D02*
X148790476Y-102034450D01*
X148790476Y-102034450D02*
X148828571Y-102072545D01*
X148828571Y-102072545D02*
X148866667Y-102148736D01*
X148866667Y-102148736D02*
X148866667Y-102263021D01*
X148866667Y-102263021D02*
X148828571Y-102339212D01*
X148828571Y-102339212D02*
X148790476Y-102377307D01*
X148790476Y-102377307D02*
X148714286Y-102415402D01*
X148714286Y-102415402D02*
X148409524Y-102415402D01*
X149590476Y-101996355D02*
X149209524Y-101996355D01*
X149209524Y-101996355D02*
X149171428Y-102377307D01*
X149171428Y-102377307D02*
X149209524Y-102339212D01*
X149209524Y-102339212D02*
X149285714Y-102301117D01*
X149285714Y-102301117D02*
X149476190Y-102301117D01*
X149476190Y-102301117D02*
X149552381Y-102339212D01*
X149552381Y-102339212D02*
X149590476Y-102377307D01*
X149590476Y-102377307D02*
X149628571Y-102453498D01*
X149628571Y-102453498D02*
X149628571Y-102643974D01*
X149628571Y-102643974D02*
X149590476Y-102720164D01*
X149590476Y-102720164D02*
X149552381Y-102758260D01*
X149552381Y-102758260D02*
X149476190Y-102796355D01*
X149476190Y-102796355D02*
X149285714Y-102796355D01*
X149285714Y-102796355D02*
X149209524Y-102758260D01*
X149209524Y-102758260D02*
X149171428Y-102720164D01*
X130866667Y-94796355D02*
X130600000Y-94415402D01*
X130409524Y-94796355D02*
X130409524Y-93996355D01*
X130409524Y-93996355D02*
X130714286Y-93996355D01*
X130714286Y-93996355D02*
X130790476Y-94034450D01*
X130790476Y-94034450D02*
X130828571Y-94072545D01*
X130828571Y-94072545D02*
X130866667Y-94148736D01*
X130866667Y-94148736D02*
X130866667Y-94263021D01*
X130866667Y-94263021D02*
X130828571Y-94339212D01*
X130828571Y-94339212D02*
X130790476Y-94377307D01*
X130790476Y-94377307D02*
X130714286Y-94415402D01*
X130714286Y-94415402D02*
X130409524Y-94415402D01*
X131171428Y-94072545D02*
X131209524Y-94034450D01*
X131209524Y-94034450D02*
X131285714Y-93996355D01*
X131285714Y-93996355D02*
X131476190Y-93996355D01*
X131476190Y-93996355D02*
X131552381Y-94034450D01*
X131552381Y-94034450D02*
X131590476Y-94072545D01*
X131590476Y-94072545D02*
X131628571Y-94148736D01*
X131628571Y-94148736D02*
X131628571Y-94224926D01*
X131628571Y-94224926D02*
X131590476Y-94339212D01*
X131590476Y-94339212D02*
X131133333Y-94796355D01*
X131133333Y-94796355D02*
X131628571Y-94796355D01*
D11*
X139238095Y-77454819D02*
X139238095Y-78264342D01*
X139238095Y-78264342D02*
X139285714Y-78359580D01*
X139285714Y-78359580D02*
X139333333Y-78407200D01*
X139333333Y-78407200D02*
X139428571Y-78454819D01*
X139428571Y-78454819D02*
X139619047Y-78454819D01*
X139619047Y-78454819D02*
X139714285Y-78407200D01*
X139714285Y-78407200D02*
X139761904Y-78359580D01*
X139761904Y-78359580D02*
X139809523Y-78264342D01*
X139809523Y-78264342D02*
X139809523Y-77454819D01*
X140809523Y-78454819D02*
X140238095Y-78454819D01*
X140523809Y-78454819D02*
X140523809Y-77454819D01*
X140523809Y-77454819D02*
X140428571Y-77597676D01*
X140428571Y-77597676D02*
X140333333Y-77692914D01*
X140333333Y-77692914D02*
X140238095Y-77740533D01*
D10*
X148866667Y-98796355D02*
X148600000Y-98415402D01*
X148409524Y-98796355D02*
X148409524Y-97996355D01*
X148409524Y-97996355D02*
X148714286Y-97996355D01*
X148714286Y-97996355D02*
X148790476Y-98034450D01*
X148790476Y-98034450D02*
X148828571Y-98072545D01*
X148828571Y-98072545D02*
X148866667Y-98148736D01*
X148866667Y-98148736D02*
X148866667Y-98263021D01*
X148866667Y-98263021D02*
X148828571Y-98339212D01*
X148828571Y-98339212D02*
X148790476Y-98377307D01*
X148790476Y-98377307D02*
X148714286Y-98415402D01*
X148714286Y-98415402D02*
X148409524Y-98415402D01*
X149552381Y-97996355D02*
X149400000Y-97996355D01*
X149400000Y-97996355D02*
X149323809Y-98034450D01*
X149323809Y-98034450D02*
X149285714Y-98072545D01*
X149285714Y-98072545D02*
X149209524Y-98186831D01*
X149209524Y-98186831D02*
X149171428Y-98339212D01*
X149171428Y-98339212D02*
X149171428Y-98643974D01*
X149171428Y-98643974D02*
X149209524Y-98720164D01*
X149209524Y-98720164D02*
X149247619Y-98758260D01*
X149247619Y-98758260D02*
X149323809Y-98796355D01*
X149323809Y-98796355D02*
X149476190Y-98796355D01*
X149476190Y-98796355D02*
X149552381Y-98758260D01*
X149552381Y-98758260D02*
X149590476Y-98720164D01*
X149590476Y-98720164D02*
X149628571Y-98643974D01*
X149628571Y-98643974D02*
X149628571Y-98453498D01*
X149628571Y-98453498D02*
X149590476Y-98377307D01*
X149590476Y-98377307D02*
X149552381Y-98339212D01*
X149552381Y-98339212D02*
X149476190Y-98301117D01*
X149476190Y-98301117D02*
X149323809Y-98301117D01*
X149323809Y-98301117D02*
X149247619Y-98339212D01*
X149247619Y-98339212D02*
X149209524Y-98377307D01*
X149209524Y-98377307D02*
X149171428Y-98453498D01*
X130866667Y-90796355D02*
X130600000Y-90415402D01*
X130409524Y-90796355D02*
X130409524Y-89996355D01*
X130409524Y-89996355D02*
X130714286Y-89996355D01*
X130714286Y-89996355D02*
X130790476Y-90034450D01*
X130790476Y-90034450D02*
X130828571Y-90072545D01*
X130828571Y-90072545D02*
X130866667Y-90148736D01*
X130866667Y-90148736D02*
X130866667Y-90263021D01*
X130866667Y-90263021D02*
X130828571Y-90339212D01*
X130828571Y-90339212D02*
X130790476Y-90377307D01*
X130790476Y-90377307D02*
X130714286Y-90415402D01*
X130714286Y-90415402D02*
X130409524Y-90415402D01*
X131628571Y-90796355D02*
X131171428Y-90796355D01*
X131400000Y-90796355D02*
X131400000Y-89996355D01*
X131400000Y-89996355D02*
X131323809Y-90110640D01*
X131323809Y-90110640D02*
X131247619Y-90186831D01*
X131247619Y-90186831D02*
X131171428Y-90224926D01*
D11*
X138785714Y-96887319D02*
X138785714Y-95887319D01*
X138785714Y-95887319D02*
X139023809Y-95887319D01*
X139023809Y-95887319D02*
X139166666Y-95934938D01*
X139166666Y-95934938D02*
X139261904Y-96030176D01*
X139261904Y-96030176D02*
X139309523Y-96125414D01*
X139309523Y-96125414D02*
X139357142Y-96315890D01*
X139357142Y-96315890D02*
X139357142Y-96458747D01*
X139357142Y-96458747D02*
X139309523Y-96649223D01*
X139309523Y-96649223D02*
X139261904Y-96744461D01*
X139261904Y-96744461D02*
X139166666Y-96839700D01*
X139166666Y-96839700D02*
X139023809Y-96887319D01*
X139023809Y-96887319D02*
X138785714Y-96887319D01*
X139738095Y-96839700D02*
X139880952Y-96887319D01*
X139880952Y-96887319D02*
X140119047Y-96887319D01*
X140119047Y-96887319D02*
X140214285Y-96839700D01*
X140214285Y-96839700D02*
X140261904Y-96792080D01*
X140261904Y-96792080D02*
X140309523Y-96696842D01*
X140309523Y-96696842D02*
X140309523Y-96601604D01*
X140309523Y-96601604D02*
X140261904Y-96506366D01*
X140261904Y-96506366D02*
X140214285Y-96458747D01*
X140214285Y-96458747D02*
X140119047Y-96411128D01*
X140119047Y-96411128D02*
X139928571Y-96363509D01*
X139928571Y-96363509D02*
X139833333Y-96315890D01*
X139833333Y-96315890D02*
X139785714Y-96268271D01*
X139785714Y-96268271D02*
X139738095Y-96173033D01*
X139738095Y-96173033D02*
X139738095Y-96077795D01*
X139738095Y-96077795D02*
X139785714Y-95982557D01*
X139785714Y-95982557D02*
X139833333Y-95934938D01*
X139833333Y-95934938D02*
X139928571Y-95887319D01*
X139928571Y-95887319D02*
X140166666Y-95887319D01*
X140166666Y-95887319D02*
X140309523Y-95934938D01*
X141261904Y-96887319D02*
X140690476Y-96887319D01*
X140976190Y-96887319D02*
X140976190Y-95887319D01*
X140976190Y-95887319D02*
X140880952Y-96030176D01*
X140880952Y-96030176D02*
X140785714Y-96125414D01*
X140785714Y-96125414D02*
X140690476Y-96173033D01*
D10*
X130866667Y-98796355D02*
X130600000Y-98415402D01*
X130409524Y-98796355D02*
X130409524Y-97996355D01*
X130409524Y-97996355D02*
X130714286Y-97996355D01*
X130714286Y-97996355D02*
X130790476Y-98034450D01*
X130790476Y-98034450D02*
X130828571Y-98072545D01*
X130828571Y-98072545D02*
X130866667Y-98148736D01*
X130866667Y-98148736D02*
X130866667Y-98263021D01*
X130866667Y-98263021D02*
X130828571Y-98339212D01*
X130828571Y-98339212D02*
X130790476Y-98377307D01*
X130790476Y-98377307D02*
X130714286Y-98415402D01*
X130714286Y-98415402D02*
X130409524Y-98415402D01*
X131133333Y-97996355D02*
X131628571Y-97996355D01*
X131628571Y-97996355D02*
X131361905Y-98301117D01*
X131361905Y-98301117D02*
X131476190Y-98301117D01*
X131476190Y-98301117D02*
X131552381Y-98339212D01*
X131552381Y-98339212D02*
X131590476Y-98377307D01*
X131590476Y-98377307D02*
X131628571Y-98453498D01*
X131628571Y-98453498D02*
X131628571Y-98643974D01*
X131628571Y-98643974D02*
X131590476Y-98720164D01*
X131590476Y-98720164D02*
X131552381Y-98758260D01*
X131552381Y-98758260D02*
X131476190Y-98796355D01*
X131476190Y-98796355D02*
X131247619Y-98796355D01*
X131247619Y-98796355D02*
X131171428Y-98758260D01*
X131171428Y-98758260D02*
X131133333Y-98720164D01*
X149287664Y-76033332D02*
X149325760Y-76071428D01*
X149325760Y-76071428D02*
X149363855Y-76185713D01*
X149363855Y-76185713D02*
X149363855Y-76261904D01*
X149363855Y-76261904D02*
X149325760Y-76376190D01*
X149325760Y-76376190D02*
X149249569Y-76452380D01*
X149249569Y-76452380D02*
X149173379Y-76490475D01*
X149173379Y-76490475D02*
X149020998Y-76528571D01*
X149020998Y-76528571D02*
X148906712Y-76528571D01*
X148906712Y-76528571D02*
X148754331Y-76490475D01*
X148754331Y-76490475D02*
X148678140Y-76452380D01*
X148678140Y-76452380D02*
X148601950Y-76376190D01*
X148601950Y-76376190D02*
X148563855Y-76261904D01*
X148563855Y-76261904D02*
X148563855Y-76185713D01*
X148563855Y-76185713D02*
X148601950Y-76071428D01*
X148601950Y-76071428D02*
X148640045Y-76033332D01*
X149363855Y-75271428D02*
X149363855Y-75728571D01*
X149363855Y-75499999D02*
X148563855Y-75499999D01*
X148563855Y-75499999D02*
X148678140Y-75576190D01*
X148678140Y-75576190D02*
X148754331Y-75652380D01*
X148754331Y-75652380D02*
X148792426Y-75728571D01*
X148866667Y-94796355D02*
X148600000Y-94415402D01*
X148409524Y-94796355D02*
X148409524Y-93996355D01*
X148409524Y-93996355D02*
X148714286Y-93996355D01*
X148714286Y-93996355D02*
X148790476Y-94034450D01*
X148790476Y-94034450D02*
X148828571Y-94072545D01*
X148828571Y-94072545D02*
X148866667Y-94148736D01*
X148866667Y-94148736D02*
X148866667Y-94263021D01*
X148866667Y-94263021D02*
X148828571Y-94339212D01*
X148828571Y-94339212D02*
X148790476Y-94377307D01*
X148790476Y-94377307D02*
X148714286Y-94415402D01*
X148714286Y-94415402D02*
X148409524Y-94415402D01*
X149133333Y-93996355D02*
X149666667Y-93996355D01*
X149666667Y-93996355D02*
X149323809Y-94796355D01*
X130866667Y-102796355D02*
X130600000Y-102415402D01*
X130409524Y-102796355D02*
X130409524Y-101996355D01*
X130409524Y-101996355D02*
X130714286Y-101996355D01*
X130714286Y-101996355D02*
X130790476Y-102034450D01*
X130790476Y-102034450D02*
X130828571Y-102072545D01*
X130828571Y-102072545D02*
X130866667Y-102148736D01*
X130866667Y-102148736D02*
X130866667Y-102263021D01*
X130866667Y-102263021D02*
X130828571Y-102339212D01*
X130828571Y-102339212D02*
X130790476Y-102377307D01*
X130790476Y-102377307D02*
X130714286Y-102415402D01*
X130714286Y-102415402D02*
X130409524Y-102415402D01*
X131552381Y-102263021D02*
X131552381Y-102796355D01*
X131361905Y-101958260D02*
X131171428Y-102529688D01*
X131171428Y-102529688D02*
X131666667Y-102529688D01*
X148866667Y-90796355D02*
X148600000Y-90415402D01*
X148409524Y-90796355D02*
X148409524Y-89996355D01*
X148409524Y-89996355D02*
X148714286Y-89996355D01*
X148714286Y-89996355D02*
X148790476Y-90034450D01*
X148790476Y-90034450D02*
X148828571Y-90072545D01*
X148828571Y-90072545D02*
X148866667Y-90148736D01*
X148866667Y-90148736D02*
X148866667Y-90263021D01*
X148866667Y-90263021D02*
X148828571Y-90339212D01*
X148828571Y-90339212D02*
X148790476Y-90377307D01*
X148790476Y-90377307D02*
X148714286Y-90415402D01*
X148714286Y-90415402D02*
X148409524Y-90415402D01*
X149323809Y-90339212D02*
X149247619Y-90301117D01*
X149247619Y-90301117D02*
X149209524Y-90263021D01*
X149209524Y-90263021D02*
X149171428Y-90186831D01*
X149171428Y-90186831D02*
X149171428Y-90148736D01*
X149171428Y-90148736D02*
X149209524Y-90072545D01*
X149209524Y-90072545D02*
X149247619Y-90034450D01*
X149247619Y-90034450D02*
X149323809Y-89996355D01*
X149323809Y-89996355D02*
X149476190Y-89996355D01*
X149476190Y-89996355D02*
X149552381Y-90034450D01*
X149552381Y-90034450D02*
X149590476Y-90072545D01*
X149590476Y-90072545D02*
X149628571Y-90148736D01*
X149628571Y-90148736D02*
X149628571Y-90186831D01*
X149628571Y-90186831D02*
X149590476Y-90263021D01*
X149590476Y-90263021D02*
X149552381Y-90301117D01*
X149552381Y-90301117D02*
X149476190Y-90339212D01*
X149476190Y-90339212D02*
X149323809Y-90339212D01*
X149323809Y-90339212D02*
X149247619Y-90377307D01*
X149247619Y-90377307D02*
X149209524Y-90415402D01*
X149209524Y-90415402D02*
X149171428Y-90491593D01*
X149171428Y-90491593D02*
X149171428Y-90643974D01*
X149171428Y-90643974D02*
X149209524Y-90720164D01*
X149209524Y-90720164D02*
X149247619Y-90758260D01*
X149247619Y-90758260D02*
X149323809Y-90796355D01*
X149323809Y-90796355D02*
X149476190Y-90796355D01*
X149476190Y-90796355D02*
X149552381Y-90758260D01*
X149552381Y-90758260D02*
X149590476Y-90720164D01*
X149590476Y-90720164D02*
X149628571Y-90643974D01*
X149628571Y-90643974D02*
X149628571Y-90491593D01*
X149628571Y-90491593D02*
X149590476Y-90415402D01*
X149590476Y-90415402D02*
X149552381Y-90377307D01*
X149552381Y-90377307D02*
X149476190Y-90339212D01*
D12*
%TO.C,R5*%
X147400000Y-101632500D02*
X150600000Y-101632500D01*
X150600000Y-103232500D02*
X147400000Y-103232500D01*
%TO.C,R2*%
X129400000Y-93632500D02*
X132600000Y-93632500D01*
X132600000Y-95232500D02*
X129400000Y-95232500D01*
%TO.C,U1*%
X142650000Y-83100000D02*
X137350000Y-83100000D01*
X137350000Y-73900000D01*
X138350000Y-72900000D01*
X142650000Y-72900000D01*
X142650000Y-83100000D01*
%TO.C,R6*%
X147400000Y-97632500D02*
X150600000Y-97632500D01*
X150600000Y-99232500D02*
X147400000Y-99232500D01*
%TO.C,R1*%
X129400000Y-89632500D02*
X132600000Y-89632500D01*
X132600000Y-91232500D02*
X129400000Y-91232500D01*
%TO.C,R3*%
X129400000Y-97632500D02*
X132600000Y-97632500D01*
X132600000Y-99232500D02*
X129400000Y-99232500D01*
%TO.C,C1*%
X148200000Y-74300000D02*
X149800000Y-74300000D01*
X148200000Y-77500000D02*
X148200000Y-74300000D01*
X148200000Y-77500000D02*
X148200000Y-74300000D01*
X149800000Y-74300000D02*
X149800000Y-77500000D01*
X149800000Y-74300000D02*
X149800000Y-77500000D01*
X149800000Y-77500000D02*
X148200000Y-77500000D01*
%TO.C,R7*%
X147400000Y-93632500D02*
X150600000Y-93632500D01*
X150600000Y-95232500D02*
X147400000Y-95232500D01*
%TO.C,R4*%
X129400000Y-101632500D02*
X132600000Y-101632500D01*
X132600000Y-103232500D02*
X129400000Y-103232500D01*
%TO.C,R8*%
X147400000Y-89632500D02*
X150600000Y-89632500D01*
X150600000Y-91232500D02*
X147400000Y-91232500D01*
%TD*%
M02*
