%TF.GenerationSoftware,KiCad,Pcbnew,9.0.6*%
%TF.CreationDate,2026-02-11T20:03:13+00:00*%
%TF.ProjectId,solderbit-segment,736f6c64-6572-4626-9974-2d7365676d65,v0.1*%
%TF.SameCoordinates,Original*%
%TF.FileFunction,Drillmap*%
%TF.FilePolarity,Positive*%
%FSLAX45Y45*%
G04 Gerber Fmt 4.5, Leading zero omitted, Abs format (unit mm)*
G04 Created by KiCad (PCBNEW 9.0.6) date 2026-02-11 20:03:13*
%MOMM*%
%LPD*%
G01*
G04 APERTURE LIST*
%ADD10C,0.050000*%
%ADD11C,0.200000*%
G04 APERTURE END LIST*
D10*
X14950000Y-10700000D02*
X13050000Y-10700000D01*
X13050000Y-10700000D02*
G75*
G02*
X12750000Y-10400000I0J300000D01*
G01*
X12750000Y-10400000D02*
X12750000Y-6000000D01*
X13050000Y-5700000D02*
X14950000Y-5700000D01*
X15250000Y-10400000D02*
G75*
G02*
X14950000Y-10700000I-300000J0D01*
G01*
X12750000Y-6000000D02*
G75*
G02*
X13050000Y-5700000I300000J0D01*
G01*
X14950000Y-5700000D02*
G75*
G02*
X15250000Y-6000000I0J-300000D01*
G01*
X15250000Y-6000000D02*
X15250000Y-10400000D01*
D11*
X13008277Y-11013984D02*
X13008277Y-10813984D01*
X13008277Y-10813984D02*
X13055896Y-10813984D01*
X13055896Y-10813984D02*
X13084467Y-10823508D01*
X13084467Y-10823508D02*
X13103515Y-10842555D01*
X13103515Y-10842555D02*
X13113039Y-10861603D01*
X13113039Y-10861603D02*
X13122562Y-10899698D01*
X13122562Y-10899698D02*
X13122562Y-10928270D01*
X13122562Y-10928270D02*
X13113039Y-10966365D01*
X13113039Y-10966365D02*
X13103515Y-10985412D01*
X13103515Y-10985412D02*
X13084467Y-11004460D01*
X13084467Y-11004460D02*
X13055896Y-11013984D01*
X13055896Y-11013984D02*
X13008277Y-11013984D01*
X13208277Y-11013984D02*
X13208277Y-10880650D01*
X13208277Y-10918746D02*
X13217801Y-10899698D01*
X13217801Y-10899698D02*
X13227324Y-10890174D01*
X13227324Y-10890174D02*
X13246372Y-10880650D01*
X13246372Y-10880650D02*
X13265420Y-10880650D01*
X13332086Y-11013984D02*
X13332086Y-10880650D01*
X13332086Y-10813984D02*
X13322562Y-10823508D01*
X13322562Y-10823508D02*
X13332086Y-10833031D01*
X13332086Y-10833031D02*
X13341610Y-10823508D01*
X13341610Y-10823508D02*
X13332086Y-10813984D01*
X13332086Y-10813984D02*
X13332086Y-10833031D01*
X13455896Y-11013984D02*
X13436848Y-11004460D01*
X13436848Y-11004460D02*
X13427324Y-10985412D01*
X13427324Y-10985412D02*
X13427324Y-10813984D01*
X13560658Y-11013984D02*
X13541610Y-11004460D01*
X13541610Y-11004460D02*
X13532086Y-10985412D01*
X13532086Y-10985412D02*
X13532086Y-10813984D01*
X13789229Y-11013984D02*
X13789229Y-10813984D01*
X13789229Y-10813984D02*
X13855896Y-10956841D01*
X13855896Y-10956841D02*
X13922562Y-10813984D01*
X13922562Y-10813984D02*
X13922562Y-11013984D01*
X14103515Y-11013984D02*
X14103515Y-10909222D01*
X14103515Y-10909222D02*
X14093991Y-10890174D01*
X14093991Y-10890174D02*
X14074943Y-10880650D01*
X14074943Y-10880650D02*
X14036848Y-10880650D01*
X14036848Y-10880650D02*
X14017801Y-10890174D01*
X14103515Y-11004460D02*
X14084467Y-11013984D01*
X14084467Y-11013984D02*
X14036848Y-11013984D01*
X14036848Y-11013984D02*
X14017801Y-11004460D01*
X14017801Y-11004460D02*
X14008277Y-10985412D01*
X14008277Y-10985412D02*
X14008277Y-10966365D01*
X14008277Y-10966365D02*
X14017801Y-10947317D01*
X14017801Y-10947317D02*
X14036848Y-10937793D01*
X14036848Y-10937793D02*
X14084467Y-10937793D01*
X14084467Y-10937793D02*
X14103515Y-10928270D01*
X14198753Y-10880650D02*
X14198753Y-11080650D01*
X14198753Y-10890174D02*
X14217801Y-10880650D01*
X14217801Y-10880650D02*
X14255896Y-10880650D01*
X14255896Y-10880650D02*
X14274943Y-10890174D01*
X14274943Y-10890174D02*
X14284467Y-10899698D01*
X14284467Y-10899698D02*
X14293991Y-10918746D01*
X14293991Y-10918746D02*
X14293991Y-10975889D01*
X14293991Y-10975889D02*
X14284467Y-10994936D01*
X14284467Y-10994936D02*
X14274943Y-11004460D01*
X14274943Y-11004460D02*
X14255896Y-11013984D01*
X14255896Y-11013984D02*
X14217801Y-11013984D01*
X14217801Y-11013984D02*
X14198753Y-11004460D01*
X14379705Y-10994936D02*
X14389229Y-11004460D01*
X14389229Y-11004460D02*
X14379705Y-11013984D01*
X14379705Y-11013984D02*
X14370182Y-11004460D01*
X14370182Y-11004460D02*
X14379705Y-10994936D01*
X14379705Y-10994936D02*
X14379705Y-11013984D01*
X14379705Y-10890174D02*
X14389229Y-10899698D01*
X14389229Y-10899698D02*
X14379705Y-10909222D01*
X14379705Y-10909222D02*
X14370182Y-10899698D01*
X14370182Y-10899698D02*
X14379705Y-10890174D01*
X14379705Y-10890174D02*
X14379705Y-10909222D01*
M02*
