%TF.GenerationSoftware,KiCad,Pcbnew,9.0.6*%
%TF.CreationDate,2026-02-11T17:44:59+00:00*%
%TF.ProjectId,solderbit-segment,736f6c64-6572-4626-9974-2d7365676d65,v0.1*%
%TF.SameCoordinates,Original*%
%TF.FileFunction,Copper,L1,Top*%
%TF.FilePolarity,Positive*%
%FSLAX46Y46*%
G04 Gerber Fmt 4.6, Leading zero omitted, Abs format (unit mm)*
G04 Created by KiCad (PCBNEW 9.0.6) date 2026-02-11 17:44:59*
%MOMM*%
%LPD*%
G01*
G04 APERTURE LIST*
G04 Aperture macros list*
%AMRoundRect*
0 Rectangle with rounded corners*
0 $1 Rounding radius*
0 $2 $3 $4 $5 $6 $7 $8 $9 X,Y pos of 4 corners*
0 Add a 4 corners polygon primitive as box body*
4,1,4,$2,$3,$4,$5,$6,$7,$8,$9,$2,$3,0*
0 Add four circle primitives for the rounded corners*
1,1,$1+$1,$2,$3*
1,1,$1+$1,$4,$5*
1,1,$1+$1,$6,$7*
1,1,$1+$1,$8,$9*
0 Add four rect primitives between the rounded corners*
20,1,$1+$1,$2,$3,$4,$5,0*
20,1,$1+$1,$4,$5,$6,$7,0*
20,1,$1+$1,$6,$7,$8,$9,0*
20,1,$1+$1,$8,$9,$2,$3,0*%
G04 Aperture macros list end*
%TA.AperFunction,SMDPad,CuDef*%
%ADD10RoundRect,0.336539X0.563461X0.538461X-0.563461X0.538461X-0.563461X-0.538461X0.563461X-0.538461X0*%
%TD*%
%TA.AperFunction,SMDPad,CuDef*%
%ADD11RoundRect,0.336539X-0.563461X-0.538461X0.563461X-0.538461X0.563461X0.538461X-0.563461X0.538461X0*%
%TD*%
%TA.AperFunction,SMDPad,CuDef*%
%ADD12RoundRect,0.200000X-1.400000X-0.200000X1.400000X-0.200000X1.400000X0.200000X-1.400000X0.200000X0*%
%TD*%
%TA.AperFunction,SMDPad,CuDef*%
%ADD13RoundRect,0.175000X-1.425000X-0.175000X1.425000X-0.175000X1.425000X0.175000X-1.425000X0.175000X0*%
%TD*%
%TA.AperFunction,SMDPad,CuDef*%
%ADD14RoundRect,0.247500X-0.577500X-1.502500X0.577500X-1.502500X0.577500X1.502500X-0.577500X1.502500X0*%
%TD*%
%TA.AperFunction,SMDPad,CuDef*%
%ADD15RoundRect,0.336539X-0.538461X0.563461X-0.538461X-0.563461X0.538461X-0.563461X0.538461X0.563461X0*%
%TD*%
%TA.AperFunction,ComponentPad*%
%ADD16O,1.600000X2.800000*%
%TD*%
%TA.AperFunction,ViaPad*%
%ADD17C,0.600000*%
%TD*%
%TA.AperFunction,Conductor*%
%ADD18C,0.400000*%
%TD*%
%TA.AperFunction,Conductor*%
%ADD19C,0.200000*%
%TD*%
G04 APERTURE END LIST*
D10*
%TO.P,R5,1*%
%TO.N,/P4*%
X150800000Y-102432500D03*
%TO.P,R5,2*%
%TO.N,Net-(DS1-E)*%
X147200000Y-102432500D03*
%TD*%
D11*
%TO.P,R2,1*%
%TO.N,/P1*%
X129200000Y-94432500D03*
%TO.P,R2,2*%
%TO.N,Net-(DS1-B)*%
X132800000Y-94432500D03*
%TD*%
D12*
%TO.P,U1,1,A0*%
%TO.N,GND*%
X135200000Y-73505000D03*
D13*
%TO.P,U1,2,A1*%
X135200000Y-74825000D03*
%TO.P,U1,3,A2*%
X135200000Y-76095000D03*
%TO.P,U1,4,P0*%
%TO.N,/P0*%
X135200000Y-77365000D03*
%TO.P,U1,5,P1*%
%TO.N,/P1*%
X135200000Y-78635000D03*
%TO.P,U1,6,P2*%
%TO.N,/P2*%
X135200000Y-79905000D03*
%TO.P,U1,7,P3*%
%TO.N,/P3*%
X135200000Y-81175000D03*
D12*
%TO.P,U1,8,GND*%
%TO.N,GND*%
X135200000Y-82495000D03*
%TO.P,U1,9,P4*%
%TO.N,/P4*%
X144800000Y-82495000D03*
D13*
%TO.P,U1,10,P5*%
%TO.N,/P5*%
X144800000Y-81175000D03*
%TO.P,U1,11,P6*%
%TO.N,/P6*%
X144800000Y-79905000D03*
%TO.P,U1,12,P7*%
%TO.N,/P7*%
X144800000Y-78635000D03*
%TO.P,U1,13,~{INT}*%
%TO.N,/~{INT}*%
X144800000Y-77365000D03*
%TO.P,U1,14,SCL*%
%TO.N,/SCL*%
X144800000Y-76095000D03*
%TO.P,U1,15,SDA*%
%TO.N,/SDA*%
X144800000Y-74825000D03*
D12*
%TO.P,U1,16,VDD*%
%TO.N,VDD*%
X144800000Y-73505000D03*
%TD*%
D10*
%TO.P,R6,1*%
%TO.N,/P5*%
X150800000Y-98432500D03*
%TO.P,R6,2*%
%TO.N,Net-(DS1-F)*%
X147200000Y-98432500D03*
%TD*%
D11*
%TO.P,R1,1*%
%TO.N,/P0*%
X129200000Y-90432500D03*
%TO.P,R1,2*%
%TO.N,Net-(DS1-A)*%
X132800000Y-90432500D03*
%TD*%
D14*
%TO.P,DS1,1,E*%
%TO.N,Net-(DS1-E)*%
X136200000Y-103682500D03*
%TO.P,DS1,2,D*%
%TO.N,Net-(DS1-D)*%
X138100000Y-103682500D03*
%TO.P,DS1,3,CA*%
%TO.N,VDD*%
X140000000Y-103682500D03*
%TO.P,DS1,4,C*%
%TO.N,Net-(DS1-C)*%
X141900000Y-103682500D03*
%TO.P,DS1,5,D.P.*%
%TO.N,Net-(DS1-D.P.)*%
X143800000Y-103682500D03*
%TO.P,DS1,6,B*%
%TO.N,Net-(DS1-B)*%
X143800000Y-89182500D03*
%TO.P,DS1,7,A*%
%TO.N,Net-(DS1-A)*%
X141900000Y-89182500D03*
%TO.P,DS1,8,CA*%
%TO.N,VDD*%
X140000000Y-89182500D03*
%TO.P,DS1,9,F*%
%TO.N,Net-(DS1-F)*%
X138100000Y-89182500D03*
%TO.P,DS1,10,G*%
%TO.N,Net-(DS1-G)*%
X136200000Y-89182500D03*
%TD*%
D11*
%TO.P,R3,1*%
%TO.N,/P2*%
X129200000Y-98432500D03*
%TO.P,R3,2*%
%TO.N,Net-(DS1-C)*%
X132800000Y-98432500D03*
%TD*%
D15*
%TO.P,C1,1*%
%TO.N,VDD*%
X149000000Y-74100000D03*
%TO.P,C1,2*%
%TO.N,GND*%
X149000000Y-77700000D03*
%TD*%
D10*
%TO.P,R7,1*%
%TO.N,/P6*%
X150800000Y-94432500D03*
%TO.P,R7,2*%
%TO.N,Net-(DS1-G)*%
X147200000Y-94432500D03*
%TD*%
D11*
%TO.P,R4,1*%
%TO.N,/P3*%
X129200000Y-102432500D03*
%TO.P,R4,2*%
%TO.N,Net-(DS1-D)*%
X132800000Y-102432500D03*
%TD*%
D10*
%TO.P,R8,1*%
%TO.N,/P7*%
X150800000Y-90432500D03*
%TO.P,R8,2*%
%TO.N,Net-(DS1-D.P.)*%
X147200000Y-90432500D03*
%TD*%
D16*
%TO.P,J1,1,Pin_1*%
%TO.N,/SDA*%
X145080000Y-67000000D03*
%TO.P,J1,2,Pin_2*%
%TO.N,/SCL*%
X142540000Y-67000000D03*
%TO.P,J1,3,Pin_3*%
%TO.N,/~{INT}*%
X140000000Y-67000000D03*
%TO.P,J1,4,Pin_4*%
%TO.N,VDD*%
X137460000Y-67000000D03*
%TO.P,J1,5,Pin_5*%
%TO.N,GND*%
X134920000Y-67000000D03*
%TD*%
D17*
%TO.N,GND*%
X150800000Y-96432500D03*
X132700000Y-73500000D03*
X132700000Y-76100000D03*
X129500000Y-104500000D03*
X129200000Y-96432500D03*
X129200000Y-92432500D03*
X132700000Y-74800000D03*
X147000000Y-96432500D03*
X132800000Y-92432500D03*
X150800000Y-92432500D03*
X136300000Y-94932500D03*
X134000000Y-100500000D03*
X146600000Y-88432500D03*
X129200000Y-100532500D03*
X147100000Y-100600000D03*
X150500000Y-104500000D03*
X151300000Y-77800000D03*
X150800000Y-100432500D03*
%TO.N,VDD*%
X140000000Y-99500000D03*
X144800000Y-72300000D03*
X140000000Y-86832500D03*
%TD*%
D18*
%TO.N,GND*%
X132725000Y-74825000D02*
X132700000Y-74800000D01*
X135200000Y-74825000D02*
X132725000Y-74825000D01*
X132705000Y-73505000D02*
X132700000Y-73500000D01*
X135200000Y-76095000D02*
X132705000Y-76095000D01*
X132705000Y-76095000D02*
X132700000Y-76100000D01*
X135200000Y-73505000D02*
X132705000Y-73505000D01*
%TO.N,VDD*%
X144800000Y-73505000D02*
X144800000Y-72300000D01*
X148405000Y-73505000D02*
X149000000Y-74100000D01*
X144800000Y-73505000D02*
X148405000Y-73505000D01*
X140000000Y-103682500D02*
X140000000Y-99500000D01*
X140000000Y-89182500D02*
X140000000Y-86832500D01*
D19*
%TO.N,/SCL*%
X141300000Y-68240000D02*
X141300000Y-74195000D01*
X141300000Y-74195000D02*
X143200000Y-76095000D01*
X143200000Y-76095000D02*
X144800000Y-76095000D01*
X142540000Y-67000000D02*
X141300000Y-68240000D01*
%TO.N,/SDA*%
X142899000Y-69181000D02*
X142899000Y-74524000D01*
X142899000Y-74524000D02*
X143200000Y-74825000D01*
X143200000Y-74825000D02*
X144800000Y-74825000D01*
X145080000Y-67000000D02*
X142899000Y-69181000D01*
%TO.N,/~{INT}*%
X140000000Y-74165000D02*
X143200000Y-77365000D01*
X140000000Y-67000000D02*
X140000000Y-74165000D01*
X143200000Y-77365000D02*
X144800000Y-77365000D01*
%TO.N,/P0*%
X133600000Y-77365000D02*
X129900000Y-81065000D01*
X129900000Y-81065000D02*
X129900000Y-89732500D01*
X135200000Y-77365000D02*
X133600000Y-77365000D01*
X129900000Y-89732500D02*
X129200000Y-90432500D01*
%TO.N,/P1*%
X130401000Y-81834000D02*
X133600000Y-78635000D01*
X133600000Y-78635000D02*
X135200000Y-78635000D01*
X130401000Y-93231500D02*
X130401000Y-81834000D01*
X129200000Y-94432500D02*
X130401000Y-93231500D01*
%TO.N,/P2*%
X129200000Y-98432500D02*
X130900000Y-96732500D01*
X130900000Y-96732500D02*
X130900000Y-82605000D01*
X130900000Y-82605000D02*
X133600000Y-79905000D01*
%TO.N,/P3*%
X129200000Y-102432500D02*
X131400000Y-100232500D01*
X131400000Y-83375000D02*
X133600000Y-81175000D01*
X131400000Y-100232500D02*
X131400000Y-83375000D01*
%TO.N,/P4*%
X146495000Y-82495000D02*
X144800000Y-82495000D01*
X148801000Y-93464274D02*
X148600000Y-93263275D01*
X150800000Y-102432500D02*
X149900001Y-102432500D01*
X149900001Y-102432500D02*
X148801000Y-101333499D01*
X148600000Y-93263275D02*
X148600000Y-84600000D01*
X148600000Y-84600000D02*
X146495000Y-82495000D01*
X148801000Y-101333499D02*
X148801000Y-93464274D01*
%TO.N,/P5*%
X149201000Y-96833500D02*
X149201000Y-93298589D01*
X149100000Y-83875000D02*
X146400000Y-81175000D01*
X149100000Y-93197589D02*
X149100000Y-83875000D01*
X149201000Y-93298589D02*
X149100000Y-93197589D01*
X150800000Y-98432500D02*
X149201000Y-96833500D01*
X146400000Y-81175000D02*
X144800000Y-81175000D01*
%TO.N,/P6*%
X150800000Y-94432500D02*
X149600000Y-93232500D01*
X149599000Y-83104000D02*
X146400000Y-79905000D01*
X149599000Y-88500128D02*
X149599000Y-83104000D01*
X146400000Y-79905000D02*
X144800000Y-79905000D01*
X149600000Y-88501129D02*
X149599000Y-88500128D01*
X149600000Y-93232500D02*
X149600000Y-88501129D01*
%TO.N,/P7*%
X150800000Y-90432500D02*
X150100000Y-89732500D01*
X146400000Y-78635000D02*
X144800000Y-78635000D01*
X150100000Y-82335000D02*
X146400000Y-78635000D01*
X150100000Y-89732500D02*
X150100000Y-82335000D01*
%TO.N,Net-(DS1-B)*%
X132800000Y-94432500D02*
X135500000Y-91732500D01*
X143000000Y-91732500D02*
X143800000Y-90932500D01*
X135500000Y-91732500D02*
X143000000Y-91732500D01*
X143800000Y-90932500D02*
X143800000Y-89182500D01*
%TO.N,Net-(DS1-C)*%
X139851739Y-98432500D02*
X141900000Y-100480761D01*
X141900000Y-100480761D02*
X141900000Y-103682500D01*
X132800000Y-98432500D02*
X139851739Y-98432500D01*
%TO.N,Net-(DS1-D)*%
X138100000Y-101932500D02*
X138100000Y-103682500D01*
X137799000Y-101631500D02*
X138100000Y-101932500D01*
X132800000Y-102432500D02*
X133601000Y-101631500D01*
X133601000Y-101631500D02*
X137799000Y-101631500D01*
%TO.N,Net-(DS1-A)*%
X133200000Y-90432500D02*
X134001000Y-91233500D01*
X132800000Y-90432500D02*
X133200000Y-90432500D01*
X134001000Y-91233500D02*
X140811556Y-91233500D01*
X140811556Y-91233500D02*
X141900000Y-90145056D01*
X141900000Y-90145056D02*
X141900000Y-89182500D01*
%TO.N,Net-(DS1-D.P.)*%
X148401000Y-93629960D02*
X147200000Y-92428960D01*
X148401000Y-99631500D02*
X148401000Y-93629960D01*
X148132500Y-99900000D02*
X148401000Y-99631500D01*
X143800000Y-103682500D02*
X143800000Y-101700000D01*
X143800000Y-101700000D02*
X145600000Y-99900000D01*
X147200000Y-92428960D02*
X147200000Y-90432500D01*
X145600000Y-99900000D02*
X148132500Y-99900000D01*
%TO.N,Net-(DS1-F)*%
X144600000Y-91245056D02*
X144926000Y-90919056D01*
X138100000Y-87432500D02*
X138100000Y-89182500D01*
X146300001Y-98432500D02*
X144600000Y-96732499D01*
X144926000Y-87445944D02*
X143613556Y-86133500D01*
X147200000Y-98432500D02*
X146300001Y-98432500D01*
X143613556Y-86133500D02*
X139399000Y-86133500D01*
X139399000Y-86133500D02*
X138100000Y-87432500D01*
X144926000Y-90919056D02*
X144926000Y-87445944D01*
X144600000Y-96732499D02*
X144600000Y-91245056D01*
%TO.N,Net-(DS1-G)*%
X147200000Y-94432500D02*
X145600000Y-92832500D01*
X145600000Y-92832500D02*
X145600000Y-87552844D01*
X143779656Y-85732500D02*
X137900000Y-85732500D01*
X145600000Y-87552844D02*
X143779656Y-85732500D01*
X137900000Y-85732500D02*
X136200000Y-87432500D01*
X136200000Y-87432500D02*
X136200000Y-89182500D01*
%TO.N,Net-(DS1-E)*%
X144307499Y-106200000D02*
X136967500Y-106200000D01*
X147200000Y-103307499D02*
X144307499Y-106200000D01*
X136200000Y-105432500D02*
X136200000Y-103682500D01*
X147200000Y-102432500D02*
X147200000Y-103307499D01*
X136967500Y-106200000D02*
X136200000Y-105432500D01*
%TD*%
%TA.AperFunction,Conductor*%
%TO.N,GND*%
G36*
X139208443Y-99052685D02*
G01*
X139254198Y-99105489D01*
X139264142Y-99174647D01*
X139255965Y-99204453D01*
X139230263Y-99266502D01*
X139230261Y-99266510D01*
X139199500Y-99421153D01*
X139199500Y-99578846D01*
X139230261Y-99733489D01*
X139230264Y-99733501D01*
X139290061Y-99877864D01*
X139299500Y-99925316D01*
X139299500Y-101343219D01*
X139292772Y-101366131D01*
X139290380Y-101389895D01*
X139283107Y-101399046D01*
X139279815Y-101410258D01*
X139261769Y-101425894D01*
X139246908Y-101444594D01*
X139230848Y-101452688D01*
X139227011Y-101456013D01*
X139215455Y-101460605D01*
X139214824Y-101460819D01*
X139104230Y-101497467D01*
X139100626Y-101499689D01*
X139089955Y-101503322D01*
X139061493Y-101504531D01*
X139033322Y-101508809D01*
X139024158Y-101506118D01*
X139020149Y-101506289D01*
X139015511Y-101503579D01*
X138997600Y-101498321D01*
X138995772Y-101497468D01*
X138995770Y-101497467D01*
X138829788Y-101442466D01*
X138829786Y-101442465D01*
X138727350Y-101432000D01*
X138727343Y-101432000D01*
X138500097Y-101432000D01*
X138470656Y-101423355D01*
X138440670Y-101416832D01*
X138435654Y-101413077D01*
X138433058Y-101412315D01*
X138412416Y-101395681D01*
X138286590Y-101269855D01*
X138286588Y-101269852D01*
X138167717Y-101150981D01*
X138167716Y-101150980D01*
X138078549Y-101099500D01*
X138030785Y-101071923D01*
X137878057Y-101030999D01*
X137719943Y-101030999D01*
X137712347Y-101030999D01*
X137712331Y-101031000D01*
X133521943Y-101031000D01*
X133440677Y-101052775D01*
X133408584Y-101057000D01*
X132163750Y-101057000D01*
X132150124Y-101057924D01*
X132122868Y-101059772D01*
X131946185Y-101103711D01*
X131783078Y-101184605D01*
X131641173Y-101298672D01*
X131641172Y-101298673D01*
X131527105Y-101440578D01*
X131446211Y-101603685D01*
X131402272Y-101780368D01*
X131399500Y-101821252D01*
X131399500Y-103043747D01*
X131402272Y-103084631D01*
X131446211Y-103261314D01*
X131527105Y-103424421D01*
X131527106Y-103424422D01*
X131641173Y-103566327D01*
X131783078Y-103680394D01*
X131946187Y-103761289D01*
X132122868Y-103805227D01*
X132122872Y-103805228D01*
X132163750Y-103808000D01*
X132163752Y-103808000D01*
X133436248Y-103808000D01*
X133436250Y-103808000D01*
X133477128Y-103805228D01*
X133653813Y-103761289D01*
X133816922Y-103680394D01*
X133958827Y-103566327D01*
X134072894Y-103424422D01*
X134153789Y-103261313D01*
X134197728Y-103084628D01*
X134200500Y-103043750D01*
X134200500Y-102356000D01*
X134220185Y-102288961D01*
X134272989Y-102243206D01*
X134324500Y-102232000D01*
X134750500Y-102232000D01*
X134817539Y-102251685D01*
X134863294Y-102304489D01*
X134874500Y-102356000D01*
X134874500Y-105234835D01*
X134874501Y-105234852D01*
X134884965Y-105337287D01*
X134884966Y-105337290D01*
X134939966Y-105503267D01*
X134939971Y-105503278D01*
X135031760Y-105652090D01*
X135031763Y-105652094D01*
X135155405Y-105775736D01*
X135155409Y-105775739D01*
X135304221Y-105867528D01*
X135304224Y-105867529D01*
X135304230Y-105867533D01*
X135470212Y-105922534D01*
X135572657Y-105933000D01*
X135799901Y-105932999D01*
X135866941Y-105952683D01*
X135887583Y-105969318D01*
X136206084Y-106287819D01*
X136239569Y-106349142D01*
X136234585Y-106418834D01*
X136192713Y-106474767D01*
X136127249Y-106499184D01*
X136118403Y-106499500D01*
X130503751Y-106499500D01*
X130496264Y-106499274D01*
X130206205Y-106481728D01*
X130191340Y-106479923D01*
X129909201Y-106428219D01*
X129894663Y-106424635D01*
X129620832Y-106339306D01*
X129606831Y-106333997D01*
X129345263Y-106216275D01*
X129332004Y-106209316D01*
X129086540Y-106060928D01*
X129074217Y-106052422D01*
X128848426Y-105875526D01*
X128837218Y-105865596D01*
X128634403Y-105662781D01*
X128624473Y-105651573D01*
X128447573Y-105425776D01*
X128439075Y-105413465D01*
X128290680Y-105167989D01*
X128283727Y-105154743D01*
X128166000Y-104893163D01*
X128160693Y-104879167D01*
X128075364Y-104605336D01*
X128071780Y-104590798D01*
X128020076Y-104308659D01*
X128018271Y-104293794D01*
X128000726Y-104003736D01*
X128000500Y-103996249D01*
X128000500Y-103789754D01*
X128020185Y-103722715D01*
X128072989Y-103676960D01*
X128142147Y-103667016D01*
X128179595Y-103678666D01*
X128183076Y-103680392D01*
X128183078Y-103680394D01*
X128346187Y-103761289D01*
X128522868Y-103805227D01*
X128522872Y-103805228D01*
X128563750Y-103808000D01*
X128563752Y-103808000D01*
X129836248Y-103808000D01*
X129836250Y-103808000D01*
X129877128Y-103805228D01*
X130053813Y-103761289D01*
X130216922Y-103680394D01*
X130358827Y-103566327D01*
X130472894Y-103424422D01*
X130553789Y-103261313D01*
X130597728Y-103084628D01*
X130600500Y-103043750D01*
X130600500Y-101932596D01*
X130620185Y-101865557D01*
X130636814Y-101844919D01*
X131758506Y-100723227D01*
X131758511Y-100723224D01*
X131768714Y-100713020D01*
X131768716Y-100713020D01*
X131880520Y-100601216D01*
X131938668Y-100500500D01*
X131959577Y-100464285D01*
X132000501Y-100311557D01*
X132000501Y-100153443D01*
X132000501Y-100145848D01*
X132000500Y-100145830D01*
X132000500Y-99929622D01*
X132020185Y-99862583D01*
X132072989Y-99816828D01*
X132132887Y-99805907D01*
X132163750Y-99808000D01*
X132163756Y-99808000D01*
X133436248Y-99808000D01*
X133436250Y-99808000D01*
X133477128Y-99805228D01*
X133653813Y-99761289D01*
X133816922Y-99680394D01*
X133958827Y-99566327D01*
X134072894Y-99424422D01*
X134153789Y-99261313D01*
X134187172Y-99127073D01*
X134222454Y-99066767D01*
X134284740Y-99035108D01*
X134307507Y-99033000D01*
X139141404Y-99033000D01*
X139208443Y-99052685D01*
G37*
%TD.AperFunction*%
%TA.AperFunction,Conductor*%
G36*
X148805703Y-102187883D02*
G01*
X148812181Y-102193915D01*
X149363181Y-102744915D01*
X149396666Y-102806238D01*
X149399500Y-102832596D01*
X149399500Y-103043747D01*
X149402272Y-103084631D01*
X149446211Y-103261314D01*
X149527105Y-103424421D01*
X149527106Y-103424422D01*
X149641173Y-103566327D01*
X149783078Y-103680394D01*
X149946187Y-103761289D01*
X150122868Y-103805227D01*
X150122872Y-103805228D01*
X150163750Y-103808000D01*
X150163752Y-103808000D01*
X151436248Y-103808000D01*
X151436250Y-103808000D01*
X151477128Y-103805228D01*
X151653813Y-103761289D01*
X151816922Y-103680394D01*
X151816923Y-103680392D01*
X151820405Y-103678666D01*
X151822433Y-103678307D01*
X151823989Y-103676960D01*
X151856674Y-103672260D01*
X151889210Y-103666514D01*
X151891109Y-103667308D01*
X151893147Y-103667016D01*
X151923189Y-103680735D01*
X151953662Y-103693490D01*
X151954830Y-103695185D01*
X151956703Y-103696041D01*
X151974560Y-103723827D01*
X151993298Y-103751029D01*
X151993715Y-103753633D01*
X151994477Y-103754819D01*
X151999500Y-103789754D01*
X151999500Y-103996249D01*
X151999274Y-104003736D01*
X151981728Y-104293794D01*
X151979923Y-104308659D01*
X151928219Y-104590798D01*
X151924635Y-104605336D01*
X151839306Y-104879167D01*
X151833997Y-104893168D01*
X151716275Y-105154736D01*
X151709316Y-105167995D01*
X151560928Y-105413459D01*
X151552422Y-105425782D01*
X151375526Y-105651573D01*
X151365596Y-105662781D01*
X151162781Y-105865596D01*
X151151573Y-105875526D01*
X150925782Y-106052422D01*
X150913459Y-106060928D01*
X150667995Y-106209316D01*
X150654736Y-106216275D01*
X150393168Y-106333997D01*
X150379167Y-106339306D01*
X150105336Y-106424635D01*
X150090798Y-106428219D01*
X149808659Y-106479923D01*
X149793794Y-106481728D01*
X149503736Y-106499274D01*
X149496249Y-106499500D01*
X145156596Y-106499500D01*
X145089557Y-106479815D01*
X145043802Y-106427011D01*
X145033858Y-106357853D01*
X145062883Y-106294297D01*
X145068915Y-106287819D01*
X147512415Y-103844319D01*
X147573738Y-103810834D01*
X147600096Y-103808000D01*
X147836248Y-103808000D01*
X147836250Y-103808000D01*
X147877128Y-103805228D01*
X148053813Y-103761289D01*
X148216922Y-103680394D01*
X148358827Y-103566327D01*
X148472894Y-103424422D01*
X148553789Y-103261313D01*
X148597728Y-103084628D01*
X148600500Y-103043750D01*
X148600500Y-102281596D01*
X148620185Y-102214557D01*
X148672989Y-102168802D01*
X148742147Y-102158858D01*
X148805703Y-102187883D01*
G37*
%TD.AperFunction*%
%TA.AperFunction,Conductor*%
G36*
X148045847Y-100500501D02*
G01*
X148053443Y-100500501D01*
X148076500Y-100500501D01*
X148143539Y-100520186D01*
X148189294Y-100572990D01*
X148200500Y-100624501D01*
X148200500Y-100981576D01*
X148180815Y-101048615D01*
X148128011Y-101094370D01*
X148058853Y-101104314D01*
X148046578Y-101101911D01*
X147925989Y-101071923D01*
X147877129Y-101059772D01*
X147877133Y-101059772D01*
X147847929Y-101057792D01*
X147836250Y-101057000D01*
X146563750Y-101057000D01*
X146550124Y-101057924D01*
X146522868Y-101059772D01*
X146346185Y-101103711D01*
X146183078Y-101184605D01*
X146041173Y-101298672D01*
X146041172Y-101298673D01*
X145927105Y-101440578D01*
X145846211Y-101603685D01*
X145802272Y-101780368D01*
X145799500Y-101821252D01*
X145799500Y-103043747D01*
X145802272Y-103084631D01*
X145846211Y-103261314D01*
X145927105Y-103424421D01*
X145994097Y-103507763D01*
X146020756Y-103572347D01*
X146008265Y-103641091D01*
X145985131Y-103673131D01*
X145337180Y-104321083D01*
X145275857Y-104354568D01*
X145206166Y-104349584D01*
X145150232Y-104307713D01*
X145125815Y-104242248D01*
X145125499Y-104233402D01*
X145125499Y-102130164D01*
X145125498Y-102130147D01*
X145115034Y-102027712D01*
X145115033Y-102027709D01*
X145099964Y-101982234D01*
X145060033Y-101861730D01*
X145060029Y-101861724D01*
X145060028Y-101861721D01*
X144968239Y-101712909D01*
X144968236Y-101712905D01*
X144889963Y-101634632D01*
X144856478Y-101573309D01*
X144861462Y-101503617D01*
X144889961Y-101459273D01*
X145812416Y-100536819D01*
X145873739Y-100503334D01*
X145900097Y-100500500D01*
X148045831Y-100500500D01*
X148045847Y-100500501D01*
G37*
%TD.AperFunction*%
%TA.AperFunction,Conductor*%
G36*
X143918834Y-91765414D02*
G01*
X143974767Y-91807286D01*
X143999184Y-91872750D01*
X143999500Y-91881596D01*
X143999500Y-96645829D01*
X143999499Y-96645847D01*
X143999499Y-96811553D01*
X143999498Y-96811553D01*
X144040424Y-96964287D01*
X144048585Y-96978422D01*
X144048587Y-96978425D01*
X144119475Y-97101208D01*
X144119481Y-97101216D01*
X144238349Y-97220084D01*
X144238355Y-97220089D01*
X145763181Y-98744915D01*
X145796666Y-98806238D01*
X145799500Y-98832596D01*
X145799500Y-99043750D01*
X145802272Y-99084628D01*
X145817428Y-99145575D01*
X145814505Y-99215382D01*
X145774305Y-99272528D01*
X145709591Y-99298869D01*
X145697094Y-99299500D01*
X145520941Y-99299500D01*
X145480800Y-99310255D01*
X145480801Y-99310256D01*
X145368214Y-99340423D01*
X145368209Y-99340426D01*
X145231290Y-99419475D01*
X145231282Y-99419481D01*
X143319481Y-101331282D01*
X143319477Y-101331287D01*
X143297127Y-101370000D01*
X143246560Y-101418216D01*
X143189746Y-101432000D01*
X143172667Y-101432000D01*
X143172646Y-101432001D01*
X143070212Y-101442465D01*
X143070209Y-101442466D01*
X142904232Y-101497466D01*
X142902400Y-101498321D01*
X142901023Y-101498529D01*
X142897375Y-101499739D01*
X142897168Y-101499115D01*
X142875219Y-101502447D01*
X142848767Y-101509930D01*
X142839614Y-101507853D01*
X142833322Y-101508809D01*
X142813884Y-101504560D01*
X142800822Y-101500583D01*
X142795770Y-101497467D01*
X142629788Y-101442466D01*
X142599911Y-101439413D01*
X142588384Y-101435904D01*
X142568846Y-101423071D01*
X142547205Y-101414241D01*
X142540189Y-101404250D01*
X142529984Y-101397547D01*
X142520485Y-101376188D01*
X142507054Y-101357060D01*
X142504155Y-101339468D01*
X142501593Y-101333706D01*
X142502372Y-101328643D01*
X142500500Y-101317280D01*
X142500500Y-100401706D01*
X142500500Y-100401704D01*
X142459577Y-100248977D01*
X142391173Y-100130496D01*
X142380524Y-100112051D01*
X142380521Y-100112047D01*
X142380520Y-100112045D01*
X142268716Y-100000241D01*
X142268715Y-100000240D01*
X142264385Y-99995910D01*
X142264374Y-99995900D01*
X140339329Y-98070855D01*
X140339327Y-98070852D01*
X140220456Y-97951981D01*
X140220455Y-97951980D01*
X140133643Y-97901860D01*
X140133643Y-97901859D01*
X140133639Y-97901858D01*
X140083524Y-97872923D01*
X139930796Y-97831999D01*
X139772682Y-97831999D01*
X139765086Y-97831999D01*
X139765070Y-97832000D01*
X134307507Y-97832000D01*
X134240468Y-97812315D01*
X134194713Y-97759511D01*
X134187172Y-97737926D01*
X134153789Y-97603687D01*
X134072894Y-97440578D01*
X133958827Y-97298673D01*
X133816922Y-97184606D01*
X133816920Y-97184605D01*
X133816921Y-97184605D01*
X133653814Y-97103711D01*
X133477129Y-97059772D01*
X133477133Y-97059772D01*
X133447929Y-97057792D01*
X133436250Y-97057000D01*
X132163750Y-97057000D01*
X132132888Y-97059092D01*
X132064673Y-97043990D01*
X132015450Y-96994403D01*
X132000500Y-96935377D01*
X132000500Y-95929622D01*
X132020185Y-95862583D01*
X132072989Y-95816828D01*
X132132887Y-95805907D01*
X132163750Y-95808000D01*
X132163756Y-95808000D01*
X133436248Y-95808000D01*
X133436250Y-95808000D01*
X133477128Y-95805228D01*
X133653813Y-95761289D01*
X133816922Y-95680394D01*
X133958827Y-95566327D01*
X134072894Y-95424422D01*
X134153789Y-95261313D01*
X134197728Y-95084628D01*
X134200500Y-95043750D01*
X134200500Y-93932597D01*
X134220185Y-93865558D01*
X134236819Y-93844916D01*
X135712417Y-92369319D01*
X135773740Y-92335834D01*
X135800098Y-92333000D01*
X142913331Y-92333000D01*
X142913347Y-92333001D01*
X142920943Y-92333001D01*
X143079054Y-92333001D01*
X143079057Y-92333001D01*
X143231785Y-92292077D01*
X143281904Y-92263139D01*
X143368716Y-92213020D01*
X143480520Y-92101216D01*
X143480520Y-92101214D01*
X143490728Y-92091007D01*
X143490729Y-92091004D01*
X143787820Y-91793914D01*
X143849142Y-91760430D01*
X143918834Y-91765414D01*
G37*
%TD.AperFunction*%
%TA.AperFunction,Conductor*%
G36*
X149606703Y-99526631D02*
G01*
X149622143Y-99542653D01*
X149641173Y-99566327D01*
X149783078Y-99680394D01*
X149946187Y-99761289D01*
X150122868Y-99805227D01*
X150122872Y-99805228D01*
X150163750Y-99808000D01*
X150163752Y-99808000D01*
X151436248Y-99808000D01*
X151436250Y-99808000D01*
X151477128Y-99805228D01*
X151653813Y-99761289D01*
X151816922Y-99680394D01*
X151816923Y-99680392D01*
X151820405Y-99678666D01*
X151889210Y-99666514D01*
X151953662Y-99693490D01*
X151993298Y-99751029D01*
X151999500Y-99789754D01*
X151999500Y-101075245D01*
X151979815Y-101142284D01*
X151927011Y-101188039D01*
X151857853Y-101197983D01*
X151820405Y-101186333D01*
X151653814Y-101103711D01*
X151477129Y-101059772D01*
X151477133Y-101059772D01*
X151447929Y-101057792D01*
X151436250Y-101057000D01*
X150163750Y-101057000D01*
X150150124Y-101057924D01*
X150122868Y-101059772D01*
X149946185Y-101103711D01*
X149783078Y-101184605D01*
X149713594Y-101240458D01*
X149711545Y-101241303D01*
X149710218Y-101243077D01*
X149679411Y-101254567D01*
X149649010Y-101267116D01*
X149646829Y-101266719D01*
X149644754Y-101267494D01*
X149612625Y-101260504D01*
X149580266Y-101254625D01*
X149577967Y-101252965D01*
X149576481Y-101252642D01*
X149548227Y-101231491D01*
X149437819Y-101121083D01*
X149404334Y-101059760D01*
X149401500Y-101033402D01*
X149401500Y-99620344D01*
X149421185Y-99553305D01*
X149473989Y-99507550D01*
X149543147Y-99497606D01*
X149606703Y-99526631D01*
G37*
%TD.AperFunction*%
%TA.AperFunction,Conductor*%
G36*
X130722245Y-99170851D02*
G01*
X130776918Y-99214356D01*
X130799391Y-99280513D01*
X130799500Y-99285703D01*
X130799500Y-99932403D01*
X130779815Y-99999442D01*
X130763181Y-100020084D01*
X129762584Y-101020681D01*
X129701261Y-101054166D01*
X129674903Y-101057000D01*
X128563750Y-101057000D01*
X128550124Y-101057924D01*
X128522868Y-101059772D01*
X128346185Y-101103711D01*
X128179595Y-101186333D01*
X128110790Y-101198485D01*
X128046338Y-101171508D01*
X128006702Y-101113969D01*
X128000500Y-101075245D01*
X128000500Y-99789754D01*
X128020185Y-99722715D01*
X128072989Y-99676960D01*
X128142147Y-99667016D01*
X128179595Y-99678666D01*
X128183076Y-99680392D01*
X128183078Y-99680394D01*
X128346187Y-99761289D01*
X128522868Y-99805227D01*
X128522872Y-99805228D01*
X128563750Y-99808000D01*
X128563752Y-99808000D01*
X129836248Y-99808000D01*
X129836250Y-99808000D01*
X129877128Y-99805228D01*
X130053813Y-99761289D01*
X130216922Y-99680394D01*
X130358827Y-99566327D01*
X130472894Y-99424422D01*
X130553789Y-99261313D01*
X130555165Y-99255778D01*
X130590446Y-99195471D01*
X130652731Y-99163811D01*
X130722245Y-99170851D01*
G37*
%TD.AperFunction*%
%TA.AperFunction,Conductor*%
G36*
X145405703Y-93487884D02*
G01*
X145412181Y-93493916D01*
X145763181Y-93844916D01*
X145796666Y-93906239D01*
X145799500Y-93932597D01*
X145799500Y-95043747D01*
X145802272Y-95084631D01*
X145846211Y-95261314D01*
X145927105Y-95424421D01*
X145927106Y-95424422D01*
X146041173Y-95566327D01*
X146183078Y-95680394D01*
X146346187Y-95761289D01*
X146522868Y-95805227D01*
X146522872Y-95805228D01*
X146563750Y-95808000D01*
X147676500Y-95808000D01*
X147743539Y-95827685D01*
X147789294Y-95880489D01*
X147800500Y-95932000D01*
X147800500Y-96933000D01*
X147780815Y-97000039D01*
X147728011Y-97045794D01*
X147676500Y-97057000D01*
X146563750Y-97057000D01*
X146550124Y-97057924D01*
X146522868Y-97059772D01*
X146346185Y-97103711D01*
X146183078Y-97184605D01*
X146113594Y-97240458D01*
X146049010Y-97267116D01*
X145980266Y-97254625D01*
X145948227Y-97231491D01*
X145236819Y-96520083D01*
X145203334Y-96458760D01*
X145200500Y-96432402D01*
X145200500Y-93581597D01*
X145220185Y-93514558D01*
X145272989Y-93468803D01*
X145342147Y-93458859D01*
X145405703Y-93487884D01*
G37*
%TD.AperFunction*%
%TA.AperFunction,Conductor*%
G36*
X128179595Y-95678666D02*
G01*
X128183076Y-95680392D01*
X128183078Y-95680394D01*
X128346187Y-95761289D01*
X128522868Y-95805227D01*
X128522872Y-95805228D01*
X128563750Y-95808000D01*
X128563752Y-95808000D01*
X129836248Y-95808000D01*
X129836250Y-95808000D01*
X129877128Y-95805228D01*
X130053813Y-95761289D01*
X130120405Y-95728261D01*
X130189210Y-95716110D01*
X130253662Y-95743086D01*
X130293298Y-95800625D01*
X130299500Y-95839350D01*
X130299500Y-96432403D01*
X130279815Y-96499442D01*
X130263181Y-96520084D01*
X129762584Y-97020681D01*
X129701261Y-97054166D01*
X129674903Y-97057000D01*
X128563750Y-97057000D01*
X128550124Y-97057924D01*
X128522868Y-97059772D01*
X128346185Y-97103711D01*
X128179595Y-97186333D01*
X128110790Y-97198485D01*
X128046338Y-97171508D01*
X128006702Y-97113969D01*
X128000500Y-97075245D01*
X128000500Y-95789754D01*
X128020185Y-95722715D01*
X128072989Y-95676960D01*
X128142147Y-95667016D01*
X128179595Y-95678666D01*
G37*
%TD.AperFunction*%
%TA.AperFunction,Conductor*%
G36*
X151953662Y-95693490D02*
G01*
X151993298Y-95751029D01*
X151999500Y-95789754D01*
X151999500Y-97075245D01*
X151979815Y-97142284D01*
X151927011Y-97188039D01*
X151857853Y-97197983D01*
X151820405Y-97186333D01*
X151653814Y-97103711D01*
X151477129Y-97059772D01*
X151477133Y-97059772D01*
X151447929Y-97057792D01*
X151436250Y-97057000D01*
X151436248Y-97057000D01*
X150325097Y-97057000D01*
X150258058Y-97037315D01*
X150237416Y-97020681D01*
X149837819Y-96621084D01*
X149804334Y-96559761D01*
X149801500Y-96533403D01*
X149801500Y-95883921D01*
X149821185Y-95816882D01*
X149873989Y-95771127D01*
X149943147Y-95761183D01*
X149955414Y-95763583D01*
X150122868Y-95805227D01*
X150122872Y-95805228D01*
X150163750Y-95808000D01*
X150163752Y-95808000D01*
X151436248Y-95808000D01*
X151436250Y-95808000D01*
X151477128Y-95805228D01*
X151653813Y-95761289D01*
X151816922Y-95680394D01*
X151816923Y-95680392D01*
X151820405Y-95678666D01*
X151889210Y-95666514D01*
X151953662Y-95693490D01*
G37*
%TD.AperFunction*%
%TA.AperFunction,Conductor*%
G36*
X128179595Y-91678666D02*
G01*
X128183076Y-91680392D01*
X128183078Y-91680394D01*
X128346187Y-91761289D01*
X128522868Y-91805227D01*
X128522872Y-91805228D01*
X128563750Y-91808000D01*
X129676500Y-91808000D01*
X129743539Y-91827685D01*
X129789294Y-91880489D01*
X129800500Y-91932000D01*
X129800500Y-92931403D01*
X129791855Y-92960843D01*
X129785332Y-92990830D01*
X129781577Y-92995845D01*
X129780815Y-92998442D01*
X129764181Y-93019084D01*
X129762584Y-93020681D01*
X129701261Y-93054166D01*
X129674903Y-93057000D01*
X128563750Y-93057000D01*
X128550124Y-93057924D01*
X128522868Y-93059772D01*
X128346185Y-93103711D01*
X128179595Y-93186333D01*
X128110790Y-93198485D01*
X128046338Y-93171508D01*
X128006702Y-93113969D01*
X128000500Y-93075245D01*
X128000500Y-91789754D01*
X128020185Y-91722715D01*
X128072989Y-91676960D01*
X128142147Y-91667016D01*
X128179595Y-91678666D01*
G37*
%TD.AperFunction*%
%TA.AperFunction,Conductor*%
G36*
X151953662Y-91693490D02*
G01*
X151993298Y-91751029D01*
X151999500Y-91789754D01*
X151999500Y-93075245D01*
X151979815Y-93142284D01*
X151927011Y-93188039D01*
X151857853Y-93197983D01*
X151820405Y-93186333D01*
X151653814Y-93103711D01*
X151477129Y-93059772D01*
X151477133Y-93059772D01*
X151447929Y-93057792D01*
X151436250Y-93057000D01*
X151436248Y-93057000D01*
X150325097Y-93057000D01*
X150295656Y-93048355D01*
X150265670Y-93041832D01*
X150260654Y-93038077D01*
X150258058Y-93037315D01*
X150237416Y-93020681D01*
X150236819Y-93020084D01*
X150203334Y-92958761D01*
X150200500Y-92932403D01*
X150200500Y-91932000D01*
X150220185Y-91864961D01*
X150272989Y-91819206D01*
X150324500Y-91808000D01*
X151436248Y-91808000D01*
X151436250Y-91808000D01*
X151477128Y-91805228D01*
X151653813Y-91761289D01*
X151816922Y-91680394D01*
X151816923Y-91680392D01*
X151820405Y-91678666D01*
X151889210Y-91666514D01*
X151953662Y-91693490D01*
G37*
%TD.AperFunction*%
%TA.AperFunction,Conductor*%
G36*
X133717222Y-91765804D02*
G01*
X133739341Y-91775829D01*
X133769212Y-91793076D01*
X133769214Y-91793076D01*
X133769215Y-91793077D01*
X133921943Y-91834000D01*
X134249902Y-91834000D01*
X134316941Y-91853685D01*
X134362696Y-91906489D01*
X134372640Y-91975647D01*
X134343615Y-92039203D01*
X134337583Y-92045681D01*
X133362584Y-93020681D01*
X133301261Y-93054166D01*
X133274903Y-93057000D01*
X132163750Y-93057000D01*
X132132888Y-93059092D01*
X132064673Y-93043990D01*
X132015450Y-92994403D01*
X132000500Y-92935377D01*
X132000500Y-91929622D01*
X132020185Y-91862583D01*
X132072989Y-91816828D01*
X132132887Y-91805907D01*
X132163750Y-91808000D01*
X132163756Y-91808000D01*
X133436248Y-91808000D01*
X133436250Y-91808000D01*
X133477128Y-91805228D01*
X133647415Y-91762880D01*
X133717222Y-91765804D01*
G37*
%TD.AperFunction*%
%TA.AperFunction,Conductor*%
G36*
X133829231Y-65520185D02*
G01*
X133874986Y-65572989D01*
X133884931Y-65611380D01*
X134790589Y-66517037D01*
X134727007Y-66534075D01*
X134612993Y-66599901D01*
X134519901Y-66692993D01*
X134454075Y-66807007D01*
X134437037Y-66870589D01*
X133654467Y-66088019D01*
X133654466Y-66088019D01*
X133652009Y-66095584D01*
X133620000Y-66297682D01*
X133620000Y-67702317D01*
X133652009Y-67904412D01*
X133652014Y-67904432D01*
X133654466Y-67911979D01*
X133654467Y-67911980D01*
X134437037Y-67129410D01*
X134454075Y-67192993D01*
X134519901Y-67307007D01*
X134612993Y-67400099D01*
X134727007Y-67465925D01*
X134790589Y-67482962D01*
X133885595Y-68387955D01*
X133885595Y-68387956D01*
X133928415Y-68446893D01*
X134073104Y-68591582D01*
X134238650Y-68711859D01*
X134420968Y-68804755D01*
X134615582Y-68867990D01*
X134817683Y-68900000D01*
X135022317Y-68900000D01*
X135224417Y-68867990D01*
X135419031Y-68804755D01*
X135601349Y-68711859D01*
X135766891Y-68591585D01*
X135911584Y-68446893D01*
X135954403Y-68387956D01*
X135954403Y-68387955D01*
X135049410Y-67482962D01*
X135112993Y-67465925D01*
X135227007Y-67400099D01*
X135320099Y-67307007D01*
X135385925Y-67192993D01*
X135402962Y-67129411D01*
X136176940Y-67903389D01*
X136207190Y-67952752D01*
X136254781Y-68099221D01*
X136347715Y-68281613D01*
X136468028Y-68447213D01*
X136612786Y-68591971D01*
X136758980Y-68698185D01*
X136778390Y-68712287D01*
X136859499Y-68753614D01*
X136960776Y-68805218D01*
X136960778Y-68805218D01*
X136960781Y-68805220D01*
X137035818Y-68829601D01*
X137155465Y-68868477D01*
X137256557Y-68884488D01*
X137357648Y-68900500D01*
X137357649Y-68900500D01*
X137562351Y-68900500D01*
X137562352Y-68900500D01*
X137764534Y-68868477D01*
X137959219Y-68805220D01*
X138141610Y-68712287D01*
X138234590Y-68644732D01*
X138307213Y-68591971D01*
X138307215Y-68591968D01*
X138307219Y-68591966D01*
X138451966Y-68447219D01*
X138451968Y-68447215D01*
X138451971Y-68447213D01*
X138572284Y-68281614D01*
X138572285Y-68281613D01*
X138572287Y-68281610D01*
X138619516Y-68188917D01*
X138667489Y-68138123D01*
X138735310Y-68121328D01*
X138801445Y-68143865D01*
X138840485Y-68188919D01*
X138887715Y-68281614D01*
X139008028Y-68447213D01*
X139008034Y-68447219D01*
X139152781Y-68591966D01*
X139318390Y-68712287D01*
X139331793Y-68719116D01*
X139382589Y-68767088D01*
X139399500Y-68829601D01*
X139399500Y-74078330D01*
X139399499Y-74078348D01*
X139399499Y-74244054D01*
X139399498Y-74244054D01*
X139399499Y-74244057D01*
X139440423Y-74396785D01*
X139468227Y-74444943D01*
X139519477Y-74533712D01*
X139519481Y-74533717D01*
X139638349Y-74652585D01*
X139638355Y-74652590D01*
X142709994Y-77724229D01*
X142732632Y-77755292D01*
X142737518Y-77764812D01*
X142754488Y-77819270D01*
X142827185Y-77939527D01*
X142829164Y-77943382D01*
X142834937Y-77973633D01*
X142842798Y-78003406D01*
X142841477Y-78007902D01*
X142842262Y-78012013D01*
X142834898Y-78030308D01*
X142824962Y-78064149D01*
X142754489Y-78180727D01*
X142754485Y-78180736D01*
X142705687Y-78337335D01*
X142705685Y-78337343D01*
X142699500Y-78405406D01*
X142699500Y-78864594D01*
X142705685Y-78932657D01*
X142705686Y-78932662D01*
X142705687Y-78932664D01*
X142754485Y-79089263D01*
X142754489Y-79089272D01*
X142824962Y-79205851D01*
X142842798Y-79273406D01*
X142824962Y-79334149D01*
X142754489Y-79450727D01*
X142754485Y-79450736D01*
X142705687Y-79607335D01*
X142705685Y-79607343D01*
X142699500Y-79675406D01*
X142699500Y-80134594D01*
X142705685Y-80202657D01*
X142705686Y-80202662D01*
X142705687Y-80202664D01*
X142754485Y-80359263D01*
X142754489Y-80359272D01*
X142824962Y-80475851D01*
X142842798Y-80543406D01*
X142824962Y-80604149D01*
X142754489Y-80720727D01*
X142754485Y-80720736D01*
X142705687Y-80877335D01*
X142705685Y-80877343D01*
X142699500Y-80945406D01*
X142699500Y-81404594D01*
X142705685Y-81472657D01*
X142705686Y-81472662D01*
X142705687Y-81472664D01*
X142754485Y-81629263D01*
X142754489Y-81629272D01*
X142830412Y-81754866D01*
X142848248Y-81822421D01*
X142830412Y-81883165D01*
X142756522Y-82005393D01*
X142705913Y-82167807D01*
X142699500Y-82238386D01*
X142699500Y-82751613D01*
X142705913Y-82822192D01*
X142756522Y-82984606D01*
X142844530Y-83130188D01*
X142964811Y-83250469D01*
X142964813Y-83250470D01*
X142964815Y-83250472D01*
X143110394Y-83338478D01*
X143272804Y-83389086D01*
X143343384Y-83395500D01*
X143343387Y-83395500D01*
X146256613Y-83395500D01*
X146256616Y-83395500D01*
X146327196Y-83389086D01*
X146417764Y-83360863D01*
X146487624Y-83359714D01*
X146542334Y-83391569D01*
X147963181Y-84812416D01*
X147996666Y-84873739D01*
X147999500Y-84900097D01*
X147999500Y-88935377D01*
X147979815Y-89002416D01*
X147927011Y-89048171D01*
X147867111Y-89059092D01*
X147836250Y-89057000D01*
X146563750Y-89057000D01*
X146552070Y-89057792D01*
X146522867Y-89059772D01*
X146354425Y-89101662D01*
X146284617Y-89098738D01*
X146227471Y-89058537D01*
X146201131Y-88993822D01*
X146200500Y-88981327D01*
X146200500Y-87473789D01*
X146200500Y-87473787D01*
X146171856Y-87366887D01*
X146159577Y-87321059D01*
X146116916Y-87247169D01*
X146080520Y-87184128D01*
X145968716Y-87072324D01*
X145968715Y-87072323D01*
X145964385Y-87067993D01*
X145964374Y-87067983D01*
X144267246Y-85370855D01*
X144267244Y-85370852D01*
X144148373Y-85251981D01*
X144148372Y-85251980D01*
X144059207Y-85200501D01*
X144059206Y-85200500D01*
X144011446Y-85172925D01*
X144011443Y-85172923D01*
X143950349Y-85156553D01*
X143858713Y-85131999D01*
X143700599Y-85131999D01*
X143693003Y-85131999D01*
X143692987Y-85132000D01*
X137979057Y-85132000D01*
X137820943Y-85132000D01*
X137668215Y-85172923D01*
X137668214Y-85172923D01*
X137668212Y-85172924D01*
X137668209Y-85172925D01*
X137620450Y-85200500D01*
X137620449Y-85200501D01*
X137575866Y-85226240D01*
X137531285Y-85251979D01*
X137531282Y-85251981D01*
X137419478Y-85363786D01*
X135887582Y-86895681D01*
X135826259Y-86929166D01*
X135799902Y-86932000D01*
X135572665Y-86932000D01*
X135572646Y-86932001D01*
X135470212Y-86942465D01*
X135470209Y-86942466D01*
X135304232Y-86997466D01*
X135304221Y-86997471D01*
X135155409Y-87089260D01*
X135155405Y-87089263D01*
X135031763Y-87212905D01*
X135031760Y-87212909D01*
X134939971Y-87361721D01*
X134939967Y-87361730D01*
X134884966Y-87527712D01*
X134884966Y-87527713D01*
X134884965Y-87527713D01*
X134874500Y-87630149D01*
X134874500Y-87630157D01*
X134874500Y-89113969D01*
X134874501Y-90509000D01*
X134854816Y-90576039D01*
X134802013Y-90621794D01*
X134750501Y-90633000D01*
X134324500Y-90633000D01*
X134257461Y-90613315D01*
X134211706Y-90560511D01*
X134200500Y-90509000D01*
X134200500Y-89821252D01*
X134200500Y-89821250D01*
X134197728Y-89780372D01*
X134153789Y-89603687D01*
X134072894Y-89440578D01*
X133958827Y-89298673D01*
X133816922Y-89184606D01*
X133816920Y-89184605D01*
X133816921Y-89184605D01*
X133653814Y-89103711D01*
X133477129Y-89059772D01*
X133477133Y-89059772D01*
X133447929Y-89057792D01*
X133436250Y-89057000D01*
X132163750Y-89057000D01*
X132132888Y-89059092D01*
X132064673Y-89043990D01*
X132015450Y-88994403D01*
X132000500Y-88935377D01*
X132000500Y-83675096D01*
X132020185Y-83608057D01*
X132036814Y-83587420D01*
X132893854Y-82730380D01*
X132955172Y-82696898D01*
X133024863Y-82701882D01*
X133080797Y-82743753D01*
X133105021Y-82806840D01*
X133106408Y-82822103D01*
X133106409Y-82822107D01*
X133156981Y-82984396D01*
X133244927Y-83129877D01*
X133365122Y-83250072D01*
X133510604Y-83338019D01*
X133510603Y-83338019D01*
X133672894Y-83388590D01*
X133672893Y-83388590D01*
X133743427Y-83394999D01*
X134949999Y-83394999D01*
X135450000Y-83394999D01*
X136656581Y-83394999D01*
X136727102Y-83388591D01*
X136727107Y-83388590D01*
X136889396Y-83338018D01*
X137034877Y-83250072D01*
X137155072Y-83129877D01*
X137243019Y-82984395D01*
X137293590Y-82822106D01*
X137300000Y-82751572D01*
X137300000Y-82745000D01*
X135450000Y-82745000D01*
X135450000Y-83394999D01*
X134949999Y-83394999D01*
X134950000Y-83394998D01*
X134950000Y-82619000D01*
X134969685Y-82551961D01*
X135022489Y-82506206D01*
X135074000Y-82495000D01*
X135200000Y-82495000D01*
X135200000Y-82369000D01*
X135219685Y-82301961D01*
X135272489Y-82256206D01*
X135324000Y-82245000D01*
X137299999Y-82245000D01*
X137299999Y-82238417D01*
X137293591Y-82167897D01*
X137293590Y-82167892D01*
X137243019Y-82005605D01*
X137169294Y-81883650D01*
X137151458Y-81816095D01*
X137169293Y-81755352D01*
X137245512Y-81629270D01*
X137294315Y-81472657D01*
X137300500Y-81404594D01*
X137300500Y-80945406D01*
X137294315Y-80877343D01*
X137245512Y-80720730D01*
X137175036Y-80604149D01*
X137157201Y-80536595D01*
X137175037Y-80475850D01*
X137245512Y-80359270D01*
X137294315Y-80202657D01*
X137300500Y-80134594D01*
X137300500Y-79675406D01*
X137294315Y-79607343D01*
X137245512Y-79450730D01*
X137175036Y-79334149D01*
X137157201Y-79266595D01*
X137175037Y-79205850D01*
X137245512Y-79089270D01*
X137294315Y-78932657D01*
X137300500Y-78864594D01*
X137300500Y-78405406D01*
X137294315Y-78337343D01*
X137245512Y-78180730D01*
X137175036Y-78064149D01*
X137157201Y-77996595D01*
X137175037Y-77935850D01*
X137245512Y-77819270D01*
X137294315Y-77662657D01*
X137300500Y-77594594D01*
X137300500Y-77135406D01*
X137294315Y-77067343D01*
X137245512Y-76910730D01*
X137174744Y-76793665D01*
X137156909Y-76726112D01*
X137174745Y-76665367D01*
X137245053Y-76549063D01*
X137293821Y-76392558D01*
X137298142Y-76345000D01*
X133101857Y-76345000D01*
X133106178Y-76392558D01*
X133154947Y-76549065D01*
X133225254Y-76665368D01*
X133227858Y-76675231D01*
X133234179Y-76683242D01*
X133236626Y-76708443D01*
X133243090Y-76732922D01*
X133240127Y-76744480D01*
X133240934Y-76752784D01*
X133232087Y-76775848D01*
X133229446Y-76786156D01*
X133227476Y-76789990D01*
X133154488Y-76910730D01*
X133137514Y-76965198D01*
X133132622Y-76974727D01*
X133122009Y-76985893D01*
X133109994Y-77005769D01*
X129531286Y-80584478D01*
X129419481Y-80696282D01*
X129419479Y-80696284D01*
X129405368Y-80720727D01*
X129388863Y-80749315D01*
X129340423Y-80833215D01*
X129299499Y-80985943D01*
X129299499Y-80985945D01*
X129299499Y-81154046D01*
X129299500Y-81154059D01*
X129299500Y-88933000D01*
X129279815Y-89000039D01*
X129227011Y-89045794D01*
X129175500Y-89057000D01*
X128563750Y-89057000D01*
X128550124Y-89057924D01*
X128522868Y-89059772D01*
X128346185Y-89103711D01*
X128179595Y-89186333D01*
X128110790Y-89198485D01*
X128046338Y-89171508D01*
X128006702Y-89113969D01*
X128000500Y-89075245D01*
X128000500Y-75844999D01*
X133101857Y-75844999D01*
X133101857Y-75845000D01*
X134950000Y-75845000D01*
X135450000Y-75845000D01*
X137298143Y-75845000D01*
X137298142Y-75844999D01*
X137293821Y-75797441D01*
X137245052Y-75640934D01*
X137174454Y-75524149D01*
X137156618Y-75456595D01*
X137174454Y-75395851D01*
X137245052Y-75279065D01*
X137293821Y-75122558D01*
X137298142Y-75075000D01*
X135450000Y-75075000D01*
X135450000Y-75845000D01*
X134950000Y-75845000D01*
X134950000Y-75075000D01*
X133101857Y-75075000D01*
X133106178Y-75122558D01*
X133154947Y-75279065D01*
X133225545Y-75395851D01*
X133243381Y-75463406D01*
X133225545Y-75524149D01*
X133154947Y-75640934D01*
X133106178Y-75797441D01*
X133101857Y-75844999D01*
X128000500Y-75844999D01*
X128000500Y-73761582D01*
X133100001Y-73761582D01*
X133106408Y-73832102D01*
X133106409Y-73832107D01*
X133156981Y-73994396D01*
X133230996Y-74116832D01*
X133248832Y-74184387D01*
X133230997Y-74245131D01*
X133154946Y-74370937D01*
X133106178Y-74527441D01*
X133101857Y-74574999D01*
X133101857Y-74575000D01*
X134950000Y-74575000D01*
X135450000Y-74575000D01*
X137298143Y-74575000D01*
X137298142Y-74574999D01*
X137293821Y-74527441D01*
X137245052Y-74370934D01*
X137169003Y-74245131D01*
X137151167Y-74177576D01*
X137169004Y-74116831D01*
X137243018Y-73994398D01*
X137243019Y-73994396D01*
X137293590Y-73832106D01*
X137300000Y-73761572D01*
X137300000Y-73755000D01*
X135450000Y-73755000D01*
X135450000Y-74575000D01*
X134950000Y-74575000D01*
X134950000Y-73755000D01*
X133100001Y-73755000D01*
X133100001Y-73761582D01*
X128000500Y-73761582D01*
X128000500Y-73248427D01*
X133100000Y-73248427D01*
X133100000Y-73255000D01*
X134950000Y-73255000D01*
X135450000Y-73255000D01*
X137299999Y-73255000D01*
X137299999Y-73248417D01*
X137293591Y-73177897D01*
X137293590Y-73177892D01*
X137243018Y-73015603D01*
X137155072Y-72870122D01*
X137034877Y-72749927D01*
X136889395Y-72661980D01*
X136889396Y-72661980D01*
X136727105Y-72611409D01*
X136727106Y-72611409D01*
X136656572Y-72605000D01*
X135450000Y-72605000D01*
X135450000Y-73255000D01*
X134950000Y-73255000D01*
X134950000Y-72605000D01*
X133743417Y-72605000D01*
X133672897Y-72611408D01*
X133672892Y-72611409D01*
X133510603Y-72661981D01*
X133365122Y-72749927D01*
X133244927Y-72870122D01*
X133156980Y-73015604D01*
X133106409Y-73177893D01*
X133100000Y-73248427D01*
X128000500Y-73248427D01*
X128000500Y-68003750D01*
X128000726Y-67996263D01*
X128005824Y-67911979D01*
X128018271Y-67706201D01*
X128020076Y-67691340D01*
X128055141Y-67500000D01*
X128071780Y-67409197D01*
X128075364Y-67394663D01*
X128152096Y-67148422D01*
X128160696Y-67120822D01*
X128165998Y-67106841D01*
X128283731Y-66845249D01*
X128290676Y-66832016D01*
X128439080Y-66586526D01*
X128447567Y-66574230D01*
X128624480Y-66348417D01*
X128634395Y-66337226D01*
X128837226Y-66134395D01*
X128848417Y-66124480D01*
X129074230Y-65947567D01*
X129086526Y-65939080D01*
X129332016Y-65790676D01*
X129345249Y-65783731D01*
X129606841Y-65665998D01*
X129620822Y-65660696D01*
X129894668Y-65575362D01*
X129909197Y-65571780D01*
X130191344Y-65520075D01*
X130206201Y-65518271D01*
X130496264Y-65500726D01*
X130503751Y-65500500D01*
X130565892Y-65500500D01*
X133762192Y-65500500D01*
X133829231Y-65520185D01*
G37*
%TD.AperFunction*%
%TA.AperFunction,Conductor*%
G36*
X149503736Y-65500726D02*
G01*
X149793796Y-65518271D01*
X149808657Y-65520075D01*
X150090798Y-65571780D01*
X150105335Y-65575363D01*
X150379172Y-65660695D01*
X150393163Y-65666000D01*
X150654743Y-65783727D01*
X150667989Y-65790680D01*
X150913465Y-65939075D01*
X150925776Y-65947573D01*
X151053001Y-66047247D01*
X151151573Y-66124473D01*
X151162781Y-66134403D01*
X151365596Y-66337218D01*
X151375526Y-66348426D01*
X151495481Y-66501538D01*
X151552422Y-66574217D01*
X151560926Y-66586537D01*
X151625281Y-66692993D01*
X151709316Y-66832004D01*
X151716275Y-66845263D01*
X151833997Y-67106831D01*
X151839306Y-67120832D01*
X151924635Y-67394663D01*
X151928219Y-67409201D01*
X151979923Y-67691340D01*
X151981728Y-67706205D01*
X151999274Y-67996263D01*
X151999500Y-68003750D01*
X151999500Y-89075245D01*
X151979815Y-89142284D01*
X151927011Y-89188039D01*
X151857853Y-89197983D01*
X151820405Y-89186333D01*
X151653814Y-89103711D01*
X151477129Y-89059772D01*
X151477133Y-89059772D01*
X151447929Y-89057792D01*
X151436250Y-89057000D01*
X151436248Y-89057000D01*
X150824500Y-89057000D01*
X150757461Y-89037315D01*
X150711706Y-88984511D01*
X150700500Y-88933000D01*
X150700500Y-82255945D01*
X150700500Y-82255943D01*
X150659577Y-82103216D01*
X150659577Y-82103215D01*
X150659577Y-82103214D01*
X150630639Y-82053095D01*
X150630637Y-82053092D01*
X150614707Y-82025500D01*
X150580520Y-81966284D01*
X150468716Y-81854480D01*
X150468715Y-81854479D01*
X150464385Y-81850149D01*
X150464374Y-81850139D01*
X146950442Y-78336207D01*
X147625000Y-78336207D01*
X147627770Y-78377063D01*
X147671684Y-78553641D01*
X147752529Y-78716650D01*
X147752533Y-78716656D01*
X147866527Y-78858471D01*
X147866528Y-78858472D01*
X148008343Y-78972466D01*
X148008349Y-78972470D01*
X148171358Y-79053315D01*
X148347936Y-79097229D01*
X148388792Y-79100000D01*
X148750000Y-79100000D01*
X149250000Y-79100000D01*
X149611208Y-79100000D01*
X149652063Y-79097229D01*
X149828641Y-79053315D01*
X149991650Y-78972470D01*
X149991656Y-78972466D01*
X150133471Y-78858472D01*
X150133472Y-78858471D01*
X150247466Y-78716656D01*
X150247470Y-78716650D01*
X150328315Y-78553641D01*
X150372229Y-78377063D01*
X150375000Y-78336207D01*
X150375000Y-77950000D01*
X149250000Y-77950000D01*
X149250000Y-79100000D01*
X148750000Y-79100000D01*
X148750000Y-77950000D01*
X147625000Y-77950000D01*
X147625000Y-78336207D01*
X146950442Y-78336207D01*
X146890005Y-78275770D01*
X146867367Y-78244708D01*
X146862482Y-78235189D01*
X146845512Y-78180730D01*
X146772804Y-78060455D01*
X146770835Y-78056619D01*
X146765061Y-78026367D01*
X146757201Y-77996595D01*
X146758521Y-77992098D01*
X146757737Y-77987988D01*
X146765099Y-77969694D01*
X146775037Y-77935850D01*
X146836312Y-77834488D01*
X146845512Y-77819270D01*
X146894315Y-77662657D01*
X146900500Y-77594594D01*
X146900500Y-77135406D01*
X146894315Y-77067343D01*
X146893208Y-77063792D01*
X147625000Y-77063792D01*
X147625000Y-77450000D01*
X148750000Y-77450000D01*
X149250000Y-77450000D01*
X150375000Y-77450000D01*
X150375000Y-77063792D01*
X150372229Y-77022936D01*
X150328315Y-76846358D01*
X150247470Y-76683349D01*
X150247466Y-76683343D01*
X150133472Y-76541528D01*
X150133471Y-76541527D01*
X149991656Y-76427533D01*
X149991650Y-76427529D01*
X149828641Y-76346684D01*
X149652063Y-76302770D01*
X149611208Y-76300000D01*
X149250000Y-76300000D01*
X149250000Y-77450000D01*
X148750000Y-77450000D01*
X148750000Y-76300000D01*
X148388792Y-76300000D01*
X148347936Y-76302770D01*
X148171358Y-76346684D01*
X148008349Y-76427529D01*
X148008343Y-76427533D01*
X147866528Y-76541527D01*
X147866527Y-76541528D01*
X147752533Y-76683343D01*
X147752529Y-76683349D01*
X147671684Y-76846358D01*
X147627770Y-77022936D01*
X147625000Y-77063792D01*
X146893208Y-77063792D01*
X146845512Y-76910730D01*
X146775036Y-76794149D01*
X146757201Y-76726595D01*
X146775037Y-76665850D01*
X146845512Y-76549270D01*
X146894315Y-76392657D01*
X146900500Y-76324594D01*
X146900500Y-75865406D01*
X146894315Y-75797343D01*
X146845512Y-75640730D01*
X146775036Y-75524149D01*
X146757201Y-75456595D01*
X146775037Y-75395850D01*
X146845512Y-75279270D01*
X146894315Y-75122657D01*
X146900500Y-75054594D01*
X146900500Y-74595406D01*
X146894315Y-74527343D01*
X146845512Y-74370730D01*
X146844160Y-74366391D01*
X146843008Y-74296530D01*
X146879809Y-74237138D01*
X146942878Y-74207070D01*
X146962545Y-74205500D01*
X147500500Y-74205500D01*
X147567539Y-74225185D01*
X147613294Y-74277989D01*
X147624500Y-74329500D01*
X147624500Y-74736247D01*
X147627272Y-74777131D01*
X147671211Y-74953814D01*
X147752105Y-75116921D01*
X147756722Y-75122664D01*
X147866173Y-75258827D01*
X148008078Y-75372894D01*
X148171187Y-75453789D01*
X148347868Y-75497727D01*
X148347872Y-75497728D01*
X148388750Y-75500500D01*
X148388752Y-75500500D01*
X149611248Y-75500500D01*
X149611250Y-75500500D01*
X149652128Y-75497728D01*
X149828813Y-75453789D01*
X149991922Y-75372894D01*
X150133827Y-75258827D01*
X150247894Y-75116922D01*
X150328789Y-74953813D01*
X150372728Y-74777128D01*
X150375500Y-74736250D01*
X150375500Y-73463750D01*
X150372728Y-73422872D01*
X150328789Y-73246187D01*
X150247894Y-73083078D01*
X150133827Y-72941173D01*
X149991922Y-72827106D01*
X149991920Y-72827105D01*
X149991921Y-72827105D01*
X149828814Y-72746211D01*
X149652129Y-72702272D01*
X149652133Y-72702272D01*
X149622929Y-72700292D01*
X149611250Y-72699500D01*
X148388750Y-72699500D01*
X148375124Y-72700424D01*
X148347868Y-72702272D01*
X148171185Y-72746211D01*
X148099677Y-72781676D01*
X148079692Y-72791588D01*
X148024599Y-72804500D01*
X146741520Y-72804500D01*
X146674481Y-72784815D01*
X146653839Y-72768181D01*
X146635188Y-72749530D01*
X146489606Y-72661522D01*
X146327196Y-72610914D01*
X146327194Y-72610913D01*
X146327192Y-72610913D01*
X146277778Y-72606423D01*
X146256616Y-72604500D01*
X146256613Y-72604500D01*
X145706708Y-72604500D01*
X145639669Y-72584815D01*
X145593914Y-72532011D01*
X145583970Y-72462853D01*
X145585091Y-72456308D01*
X145600500Y-72378844D01*
X145600500Y-72221155D01*
X145600499Y-72221153D01*
X145569738Y-72066510D01*
X145569737Y-72066503D01*
X145569735Y-72066498D01*
X145509397Y-71920827D01*
X145509390Y-71920814D01*
X145421789Y-71789711D01*
X145421786Y-71789707D01*
X145310292Y-71678213D01*
X145310288Y-71678210D01*
X145179185Y-71590609D01*
X145179172Y-71590602D01*
X145033501Y-71530264D01*
X145033489Y-71530261D01*
X144878845Y-71499500D01*
X144878842Y-71499500D01*
X144721158Y-71499500D01*
X144721155Y-71499500D01*
X144566510Y-71530261D01*
X144566498Y-71530264D01*
X144420827Y-71590602D01*
X144420814Y-71590609D01*
X144289711Y-71678210D01*
X144289707Y-71678213D01*
X144178213Y-71789707D01*
X144178210Y-71789711D01*
X144090609Y-71920814D01*
X144090602Y-71920827D01*
X144030264Y-72066498D01*
X144030261Y-72066510D01*
X143999500Y-72221153D01*
X143999500Y-72221158D01*
X143999500Y-72378842D01*
X143999500Y-72378844D01*
X143999499Y-72378844D01*
X144014909Y-72456308D01*
X144008682Y-72525900D01*
X143965819Y-72581077D01*
X143899930Y-72604322D01*
X143893292Y-72604500D01*
X143623500Y-72604500D01*
X143556461Y-72584815D01*
X143510706Y-72532011D01*
X143499500Y-72480500D01*
X143499500Y-69481097D01*
X143519185Y-69414058D01*
X143535819Y-69393416D01*
X143827292Y-69101943D01*
X144218415Y-68710819D01*
X144279736Y-68677336D01*
X144349427Y-68682320D01*
X144378975Y-68698181D01*
X144398390Y-68712287D01*
X144479499Y-68753614D01*
X144580776Y-68805218D01*
X144580778Y-68805218D01*
X144580781Y-68805220D01*
X144655818Y-68829601D01*
X144775465Y-68868477D01*
X144876557Y-68884488D01*
X144977648Y-68900500D01*
X144977649Y-68900500D01*
X145182351Y-68900500D01*
X145182352Y-68900500D01*
X145384534Y-68868477D01*
X145579219Y-68805220D01*
X145761610Y-68712287D01*
X145854590Y-68644732D01*
X145927213Y-68591971D01*
X145927215Y-68591968D01*
X145927219Y-68591966D01*
X146071966Y-68447219D01*
X146071968Y-68447215D01*
X146071971Y-68447213D01*
X146124732Y-68374590D01*
X146192287Y-68281610D01*
X146285220Y-68099219D01*
X146348477Y-67904534D01*
X146380500Y-67702352D01*
X146380500Y-66297648D01*
X146348477Y-66095466D01*
X146346057Y-66088019D01*
X146285218Y-65900776D01*
X146192287Y-65718390D01*
X146177026Y-65697385D01*
X146153547Y-65631578D01*
X146169373Y-65563524D01*
X146219479Y-65514830D01*
X146277345Y-65500500D01*
X149434108Y-65500500D01*
X149496249Y-65500500D01*
X149503736Y-65500726D01*
G37*
%TD.AperFunction*%
%TA.AperFunction,Conductor*%
G36*
X136329694Y-65520185D02*
G01*
X136375449Y-65572989D01*
X136385393Y-65642147D01*
X136362974Y-65697385D01*
X136347712Y-65718390D01*
X136254781Y-65900776D01*
X136207190Y-66047247D01*
X136176940Y-66096609D01*
X135402962Y-66870588D01*
X135385925Y-66807007D01*
X135320099Y-66692993D01*
X135227007Y-66599901D01*
X135112993Y-66534075D01*
X135049410Y-66517037D01*
X135955637Y-65610809D01*
X135955069Y-65606853D01*
X135967994Y-65578550D01*
X135979074Y-65549482D01*
X135982384Y-65547040D01*
X135984094Y-65543297D01*
X136010267Y-65526476D01*
X136035305Y-65508011D01*
X136040402Y-65507110D01*
X136042872Y-65505523D01*
X136077807Y-65500500D01*
X136262655Y-65500500D01*
X136329694Y-65520185D01*
G37*
%TD.AperFunction*%
%TD*%
M02*
