%TF.GenerationSoftware,KiCad,Pcbnew,9.0.6*%
%TF.CreationDate,2026-02-11T17:24:29+00:00*%
%TF.ProjectId,solderbit-segment,736f6c64-6572-4626-9974-2d7365676d65,v0.1*%
%TF.SameCoordinates,Original*%
%TF.FileFunction,Legend,Bot*%
%TF.FilePolarity,Positive*%
%FSLAX46Y46*%
G04 Gerber Fmt 4.6, Leading zero omitted, Abs format (unit mm)*
G04 Created by KiCad (PCBNEW 9.0.6) date 2026-02-11 17:24:29*
%MOMM*%
%LPD*%
G01*
G04 APERTURE LIST*
%ADD10C,0.150000*%
%ADD11C,0.250000*%
%ADD12C,0.120000*%
%ADD13C,0.000000*%
G04 APERTURE END LIST*
D10*
X132375000Y-70500000D02*
X142000000Y-70500000D01*
X142000000Y-73500000D01*
X132375000Y-73500000D01*
X132375000Y-70500000D01*
G36*
X132375000Y-70500000D02*
G01*
X142000000Y-70500000D01*
X142000000Y-73500000D01*
X132375000Y-73500000D01*
X132375000Y-70500000D01*
G37*
D11*
G36*
X146961182Y-71760976D02*
G01*
X147481664Y-73160000D01*
X147973569Y-73160000D01*
X148469504Y-71760976D01*
X148007763Y-71760976D01*
X147764619Y-72623032D01*
X147730928Y-72764638D01*
X147716748Y-72871671D01*
X147711252Y-72871671D01*
X147695221Y-72769676D01*
X147660694Y-72631214D01*
X147412055Y-71760976D01*
X146961182Y-71760976D01*
G37*
G36*
X146267305Y-71178491D02*
G01*
X146390212Y-71211379D01*
X146497452Y-71264369D01*
X146591536Y-71337846D01*
X146673953Y-71433813D01*
X146736868Y-71539621D01*
X146788696Y-71666412D01*
X146828325Y-71817635D01*
X146853944Y-71997276D01*
X146863119Y-72209773D01*
X146851233Y-72448973D01*
X146818622Y-72642427D01*
X146769073Y-72797577D01*
X146705185Y-72920905D01*
X146628194Y-73017730D01*
X146537866Y-73091941D01*
X146432502Y-73145724D01*
X146309101Y-73179375D01*
X146163607Y-73191263D01*
X146026384Y-73179932D01*
X145907043Y-73147489D01*
X145802398Y-73095055D01*
X145710080Y-73022102D01*
X145628715Y-72926503D01*
X145566499Y-72821367D01*
X145515372Y-72696111D01*
X145476375Y-72547499D01*
X145451225Y-72371795D01*
X145442857Y-72179120D01*
X145882117Y-72179120D01*
X145894637Y-72442877D01*
X145926479Y-72622509D01*
X145970591Y-72739339D01*
X146022518Y-72810924D01*
X146081292Y-72850049D01*
X146149930Y-72863000D01*
X146221417Y-72850011D01*
X146282095Y-72811093D01*
X146335155Y-72740693D01*
X146379871Y-72626944D01*
X146411987Y-72453315D01*
X146424581Y-72199637D01*
X146411554Y-71928602D01*
X146378398Y-71743760D01*
X146332402Y-71623300D01*
X146278138Y-71549286D01*
X146216543Y-71508705D01*
X146144434Y-71495240D01*
X146077594Y-71508030D01*
X146020168Y-71546791D01*
X145969238Y-71618012D01*
X145925846Y-71734681D01*
X145894467Y-71914544D01*
X145882117Y-72179120D01*
X145442857Y-72179120D01*
X145442236Y-72164832D01*
X145454055Y-71919598D01*
X145486432Y-71721776D01*
X145535507Y-71563654D01*
X145598568Y-71438489D01*
X145674234Y-71340698D01*
X145762582Y-71266127D01*
X145865143Y-71212334D01*
X145984771Y-71178798D01*
X146125383Y-71166978D01*
X146267305Y-71178491D01*
G37*
G36*
X144974389Y-73191263D02*
G01*
X145042784Y-73183621D01*
X145101232Y-73161636D01*
X145151953Y-73125317D01*
X145191687Y-73077604D01*
X145215055Y-73024260D01*
X145223028Y-72963262D01*
X145214731Y-72900644D01*
X145190658Y-72847408D01*
X145150000Y-72801207D01*
X145098127Y-72766516D01*
X145038052Y-72745340D01*
X144967550Y-72737948D01*
X144896171Y-72745496D01*
X144836650Y-72766938D01*
X144786444Y-72801817D01*
X144747306Y-72848238D01*
X144724093Y-72901317D01*
X144716102Y-72963262D01*
X144724306Y-73026884D01*
X144748038Y-73080803D01*
X144787909Y-73127393D01*
X144839023Y-73162144D01*
X144900273Y-73183652D01*
X144974389Y-73191263D01*
G37*
G36*
X143119120Y-73160000D02*
G01*
X144358286Y-73160000D01*
X144358286Y-72816106D01*
X143952477Y-72816106D01*
X143952477Y-71596845D01*
X144369277Y-71690635D01*
X144369277Y-71338925D01*
X143522121Y-71166978D01*
X143522121Y-72816106D01*
X143119120Y-72816106D01*
X143119120Y-73160000D01*
G37*
D12*
%TO.C,J1*%
X133540000Y-68600000D02*
X133540000Y-65400000D01*
X146460000Y-65400000D02*
X133540000Y-65400000D01*
X146460000Y-68600000D02*
X133540000Y-68600000D01*
X146460000Y-68600000D02*
X146460000Y-65400000D01*
D13*
%TO.C,G\u002A\u002A\u002A*%
G36*
X135443824Y-82057142D02*
G01*
X135443824Y-82971105D01*
X134529861Y-82971105D01*
X133615897Y-82971105D01*
X133615897Y-82057142D01*
X133615897Y-81143178D01*
X134529861Y-81143178D01*
X135443824Y-81143178D01*
X135443824Y-82057142D01*
G37*
G36*
X136644254Y-91155853D02*
G01*
X136644254Y-91455960D01*
X136344146Y-91455960D01*
X136044039Y-91455960D01*
X136044039Y-91155853D01*
X136044039Y-90855746D01*
X136344146Y-90855746D01*
X136644254Y-90855746D01*
X136644254Y-91155853D01*
G37*
G36*
X138472181Y-92970139D02*
G01*
X138472181Y-93283887D01*
X138172073Y-93283887D01*
X137871966Y-93283887D01*
X137871966Y-92970139D01*
X137871966Y-92656390D01*
X138172073Y-92656390D01*
X138472181Y-92656390D01*
X138472181Y-92970139D01*
G37*
G36*
X141500537Y-94784424D02*
G01*
X141500537Y-95084532D01*
X141200430Y-95084532D01*
X140900322Y-95084532D01*
X140900322Y-94784424D01*
X140900322Y-94484317D01*
X141200430Y-94484317D01*
X141500537Y-94484317D01*
X141500537Y-94784424D01*
G37*
G36*
X142728249Y-83871428D02*
G01*
X142728249Y-84171535D01*
X142414501Y-84171535D01*
X142100752Y-84171535D01*
X142100752Y-83871428D01*
X142100752Y-83571320D01*
X142414501Y-83571320D01*
X142728249Y-83571320D01*
X142728249Y-83871428D01*
G37*
G36*
X146356821Y-82057142D02*
G01*
X146356821Y-82971105D01*
X145442857Y-82971105D01*
X144528894Y-82971105D01*
X144528894Y-82057142D01*
X144528894Y-81143178D01*
X145442857Y-81143178D01*
X146356821Y-81143178D01*
X146356821Y-82057142D01*
G37*
G36*
X146356821Y-92970139D02*
G01*
X146356821Y-93884102D01*
X145442857Y-93884102D01*
X144528894Y-93884102D01*
X144528894Y-92970139D01*
X144528894Y-92056175D01*
X145442857Y-92056175D01*
X146356821Y-92056175D01*
X146356821Y-92970139D01*
G37*
G36*
X144528894Y-88427604D02*
G01*
X144528894Y-89027819D01*
X143928679Y-89027819D01*
X143328464Y-89027819D01*
X143328464Y-88727711D01*
X143328464Y-88427604D01*
X143628572Y-88427604D01*
X143928679Y-88427604D01*
X143928679Y-88127496D01*
X143928679Y-87827389D01*
X144228786Y-87827389D01*
X144528894Y-87827389D01*
X144528894Y-88427604D01*
G37*
G36*
X141001534Y-77541934D02*
G01*
X141098312Y-77566230D01*
X141166153Y-77626167D01*
X141199562Y-77708560D01*
X141193046Y-77800226D01*
X141141109Y-77887983D01*
X141126749Y-77901859D01*
X141043811Y-77944416D01*
X140954588Y-77944473D01*
X140873278Y-77907756D01*
X140814080Y-77839989D01*
X140791192Y-77746897D01*
X140792113Y-77726063D01*
X140824684Y-77630567D01*
X140896360Y-77565765D01*
X140996874Y-77541889D01*
X141001534Y-77541934D01*
G37*
G36*
X135179239Y-77553266D02*
G01*
X135240115Y-77625496D01*
X135267857Y-77711371D01*
X135249782Y-77792392D01*
X135179348Y-77868568D01*
X135177634Y-77869908D01*
X135118305Y-77908047D01*
X135073115Y-77923844D01*
X135008973Y-77910973D01*
X134925665Y-77860013D01*
X134870270Y-77785931D01*
X134868311Y-77781050D01*
X134855284Y-77689701D01*
X134883764Y-77612953D01*
X134942076Y-77555870D01*
X135018543Y-77523518D01*
X135101489Y-77520962D01*
X135179239Y-77553266D01*
G37*
G36*
X136644254Y-84171535D02*
G01*
X134529861Y-84171535D01*
X132415467Y-84171535D01*
X132415467Y-82057142D01*
X132415467Y-80542964D01*
X133015682Y-80542964D01*
X133015682Y-82057142D01*
X133015682Y-83571320D01*
X134529861Y-83571320D01*
X136044039Y-83571320D01*
X136044039Y-82057142D01*
X136044039Y-80542964D01*
X134529861Y-80542964D01*
X133015682Y-80542964D01*
X132415467Y-80542964D01*
X132415467Y-79942749D01*
X134529861Y-79942749D01*
X136644254Y-79942749D01*
X136644254Y-82057142D01*
X136644254Y-84171535D01*
G37*
G36*
X137594539Y-77496582D02*
G01*
X137687652Y-77541276D01*
X137738860Y-77598387D01*
X137772326Y-77692228D01*
X137766367Y-77790844D01*
X137722744Y-77878452D01*
X137643220Y-77939276D01*
X137587807Y-77963507D01*
X137549842Y-77973712D01*
X137512778Y-77965785D01*
X137450407Y-77939795D01*
X137377580Y-77898125D01*
X137317820Y-77818719D01*
X137299033Y-77706075D01*
X137300735Y-77679696D01*
X137335530Y-77591024D01*
X137405048Y-77527151D01*
X137495861Y-77493772D01*
X137594539Y-77496582D01*
G37*
G36*
X147557250Y-84171535D02*
G01*
X145442857Y-84171535D01*
X143328464Y-84171535D01*
X143328464Y-82057142D01*
X143328464Y-80542964D01*
X143928679Y-80542964D01*
X143928679Y-82057142D01*
X143928679Y-83571320D01*
X145442857Y-83571320D01*
X146957036Y-83571320D01*
X146957036Y-82057142D01*
X146957036Y-80542964D01*
X145442857Y-80542964D01*
X143928679Y-80542964D01*
X143328464Y-80542964D01*
X143328464Y-79942749D01*
X145442857Y-79942749D01*
X147557250Y-79942749D01*
X147557250Y-82057142D01*
X147557250Y-84171535D01*
G37*
G36*
X147557250Y-95084532D02*
G01*
X145442857Y-95084532D01*
X143328464Y-95084532D01*
X143328464Y-92970139D01*
X143328464Y-91455960D01*
X143928679Y-91455960D01*
X143928679Y-92970139D01*
X143928679Y-94484317D01*
X145442857Y-94484317D01*
X146957036Y-94484317D01*
X146957036Y-92970139D01*
X146957036Y-91455960D01*
X145442857Y-91455960D01*
X143928679Y-91455960D01*
X143328464Y-91455960D01*
X143328464Y-90855746D01*
X145442857Y-90855746D01*
X147557250Y-90855746D01*
X147557250Y-92970139D01*
X147557250Y-95084532D01*
G37*
G36*
X136892588Y-97047082D02*
G01*
X136976502Y-97091738D01*
X137042200Y-97179933D01*
X137043589Y-97182882D01*
X137070749Y-97265206D01*
X137085729Y-97375336D01*
X137090342Y-97526315D01*
X137090207Y-97558311D01*
X137083977Y-97698222D01*
X137065674Y-97801430D01*
X137031473Y-97882504D01*
X136977551Y-97956014D01*
X136946617Y-97981178D01*
X136866729Y-98002949D01*
X136778954Y-97989422D01*
X136704608Y-97941715D01*
X136656922Y-97865791D01*
X136618949Y-97743455D01*
X136599383Y-97597654D01*
X136599104Y-97443564D01*
X136618992Y-97296359D01*
X136659927Y-97171213D01*
X136720358Y-97089527D01*
X136803020Y-97046249D01*
X136892588Y-97047082D01*
G37*
G36*
X133015682Y-85085498D02*
G01*
X133015682Y-85399247D01*
X133315790Y-85399247D01*
X133615897Y-85399247D01*
X133615897Y-85085498D01*
X133615897Y-84771750D01*
X134529861Y-84771750D01*
X135443824Y-84771750D01*
X135443824Y-85085498D01*
X135443824Y-85399247D01*
X134529861Y-85399247D01*
X133615897Y-85399247D01*
X133615897Y-85699355D01*
X133615897Y-85999462D01*
X133315790Y-85999462D01*
X133015682Y-85999462D01*
X133015682Y-85699355D01*
X133015682Y-85399247D01*
X132715575Y-85399247D01*
X132415467Y-85399247D01*
X132415467Y-85085498D01*
X132415467Y-84771750D01*
X132715575Y-84771750D01*
X133015682Y-84771750D01*
X133015682Y-85085498D01*
G37*
G36*
X135743931Y-85399247D02*
G01*
X136044039Y-85399247D01*
X136044039Y-85699355D01*
X136044039Y-85999462D01*
X135743931Y-85999462D01*
X135443824Y-85999462D01*
X135443824Y-85699355D01*
X135443824Y-85399247D01*
X135743931Y-85399247D01*
G37*
G36*
X142728249Y-82057142D02*
G01*
X142728249Y-82971105D01*
X142414501Y-82971105D01*
X142100752Y-82971105D01*
X142100752Y-82670998D01*
X142100752Y-82370891D01*
X141500537Y-82370891D01*
X140900322Y-82370891D01*
X140900322Y-82670998D01*
X140900322Y-82971105D01*
X141200430Y-82971105D01*
X141500537Y-82971105D01*
X141500537Y-83571320D01*
X141500537Y-84485284D01*
X141500537Y-85699355D01*
X141500537Y-85999462D01*
X141800645Y-85999462D01*
X142100752Y-85999462D01*
X142100752Y-86299569D01*
X142100752Y-86599677D01*
X142414501Y-86599677D01*
X142728249Y-86599677D01*
X142728249Y-86299569D01*
X142728249Y-85999462D01*
X142414501Y-85999462D01*
X142100752Y-85999462D01*
X142100752Y-85385606D01*
X142100752Y-84771750D01*
X142414501Y-84771750D01*
X142728249Y-84771750D01*
X142728249Y-85385606D01*
X142728249Y-85999462D01*
X143328464Y-85999462D01*
X143928679Y-85999462D01*
X143928679Y-85699355D01*
X143928679Y-85399247D01*
X143628572Y-85399247D01*
X143328464Y-85399247D01*
X143328464Y-85085498D01*
X143328464Y-84771750D01*
X143628572Y-84771750D01*
X143928679Y-84771750D01*
X143928679Y-85085498D01*
X143928679Y-85399247D01*
X144528894Y-85399247D01*
X145129109Y-85399247D01*
X145129109Y-85085498D01*
X145129109Y-84771750D01*
X146343180Y-84771750D01*
X147557250Y-84771750D01*
X147557250Y-85685713D01*
X147557250Y-86599677D01*
X147257143Y-86599677D01*
X146957036Y-86599677D01*
X146957036Y-86299569D01*
X146957036Y-85999462D01*
X145742965Y-85999462D01*
X144528894Y-85999462D01*
X144528894Y-86299569D01*
X144528894Y-86599677D01*
X145142750Y-86599677D01*
X145756606Y-86599677D01*
X145756606Y-87213533D01*
X145756606Y-87827389D01*
X146056713Y-87827389D01*
X146356821Y-87827389D01*
X146356821Y-87213533D01*
X146356821Y-86599677D01*
X146656928Y-86599677D01*
X146957036Y-86599677D01*
X146957036Y-86899784D01*
X146957036Y-87199892D01*
X147257143Y-87199892D01*
X147557250Y-87199892D01*
X147557250Y-87513640D01*
X147557250Y-87827389D01*
X147257143Y-87827389D01*
X146957036Y-87827389D01*
X146957036Y-88427604D01*
X146957036Y-88727711D01*
X146957036Y-89027819D01*
X146656928Y-89027819D01*
X146356821Y-89027819D01*
X146356821Y-89327926D01*
X146356821Y-89628033D01*
X146056713Y-89628033D01*
X145756606Y-89628033D01*
X145756606Y-89928141D01*
X145756606Y-90228248D01*
X144542535Y-90228248D01*
X143328464Y-90228248D01*
X143328464Y-89928141D01*
X143328464Y-89628033D01*
X143028357Y-89628033D01*
X142728249Y-89628033D01*
X142728249Y-89928141D01*
X142728249Y-90241889D01*
X142728249Y-90855746D01*
X142414501Y-90855746D01*
X142100752Y-90855746D01*
X142100752Y-91756068D01*
X142100752Y-92656390D01*
X141500537Y-92656390D01*
X140900322Y-92656390D01*
X140900322Y-91756068D01*
X140900322Y-90855746D01*
X141200430Y-90855746D01*
X141500537Y-90855746D01*
X141500537Y-90541997D01*
X141500537Y-90228248D01*
X141200430Y-90228248D01*
X140900322Y-90228248D01*
X140900322Y-89928141D01*
X140900322Y-89628033D01*
X141500537Y-89628033D01*
X141500537Y-89928141D01*
X141500537Y-90228248D01*
X141800645Y-90228248D01*
X142100752Y-90228248D01*
X142100752Y-89928141D01*
X142100752Y-89628033D01*
X141800645Y-89628033D01*
X141500537Y-89628033D01*
X140900322Y-89628033D01*
X140600215Y-89628033D01*
X140300108Y-89628033D01*
X140300108Y-89027819D01*
X140300108Y-88427604D01*
X139986359Y-88427604D01*
X139672610Y-88427604D01*
X139672610Y-88127496D01*
X139672610Y-87827389D01*
X139072395Y-87827389D01*
X138472181Y-87827389D01*
X138472181Y-88127496D01*
X138472181Y-88427604D01*
X138172073Y-88427604D01*
X137871966Y-88427604D01*
X137871966Y-88727711D01*
X137871966Y-89027819D01*
X137871966Y-89628033D01*
X138772288Y-89628033D01*
X139672610Y-89628033D01*
X139672610Y-90241889D01*
X139672610Y-90855746D01*
X139986359Y-90855746D01*
X140300108Y-90855746D01*
X140300108Y-91155853D01*
X140300108Y-91455960D01*
X139986359Y-91455960D01*
X139672610Y-91455960D01*
X139672610Y-92056175D01*
X139672610Y-92656390D01*
X139986359Y-92656390D01*
X140300108Y-92656390D01*
X140300108Y-92970139D01*
X140300108Y-93283887D01*
X140600215Y-93283887D01*
X140900322Y-93283887D01*
X140900322Y-93583995D01*
X140900322Y-93884102D01*
X140600215Y-93884102D01*
X140300108Y-93884102D01*
X140300108Y-94184210D01*
X140300108Y-94484317D01*
X139686252Y-94484317D01*
X139072395Y-94484317D01*
X139072395Y-94184210D01*
X139072395Y-93884102D01*
X138772288Y-93884102D01*
X138472181Y-93884102D01*
X138472181Y-94184210D01*
X138472181Y-94484317D01*
X138172073Y-94484317D01*
X137871966Y-94484317D01*
X137871966Y-94184210D01*
X137871966Y-93884102D01*
X137571858Y-93884102D01*
X137271751Y-93884102D01*
X137271751Y-94184210D01*
X137271751Y-94484317D01*
X136958002Y-94484317D01*
X136644254Y-94484317D01*
X136644254Y-94784424D01*
X136644254Y-95084532D01*
X134529861Y-95084532D01*
X132415467Y-95084532D01*
X132415467Y-94784424D01*
X132415467Y-94484317D01*
X133015682Y-94484317D01*
X133615897Y-94484317D01*
X133615897Y-94184210D01*
X133615897Y-93884102D01*
X133315790Y-93884102D01*
X133015682Y-93884102D01*
X133015682Y-93583995D01*
X133015682Y-93283887D01*
X134216112Y-93283887D01*
X134216112Y-93884102D01*
X134216112Y-94484317D01*
X134529861Y-94484317D01*
X134843609Y-94484317D01*
X135443824Y-94484317D01*
X136044039Y-94484317D01*
X136644254Y-94484317D01*
X136644254Y-94184210D01*
X136644254Y-93884102D01*
X136344146Y-93884102D01*
X136044039Y-93884102D01*
X136044039Y-93270246D01*
X136044039Y-92656390D01*
X137271751Y-92656390D01*
X137271751Y-92970139D01*
X137271751Y-93283887D01*
X137571858Y-93283887D01*
X137871966Y-93283887D01*
X137871966Y-93583995D01*
X137871966Y-93884102D01*
X138172073Y-93884102D01*
X138472181Y-93884102D01*
X138472181Y-93583995D01*
X138472181Y-93283887D01*
X138772288Y-93283887D01*
X139072395Y-93283887D01*
X139072395Y-93583995D01*
X139072395Y-93884102D01*
X139372503Y-93884102D01*
X139672610Y-93884102D01*
X139672610Y-93583995D01*
X139672610Y-93283887D01*
X139372503Y-93283887D01*
X139072395Y-93283887D01*
X139072395Y-92970139D01*
X139072395Y-92656390D01*
X138772288Y-92656390D01*
X138472181Y-92656390D01*
X138472181Y-92056175D01*
X138472181Y-91455960D01*
X138772288Y-91455960D01*
X139072395Y-91455960D01*
X139072395Y-90842104D01*
X139072395Y-90228248D01*
X138472181Y-90228248D01*
X137871966Y-90228248D01*
X137871966Y-91142212D01*
X137871966Y-91442319D01*
X137871966Y-92656390D01*
X137571858Y-92656390D01*
X137271751Y-92656390D01*
X136044039Y-92656390D01*
X135743931Y-92656390D01*
X135443824Y-92656390D01*
X135443824Y-93570353D01*
X135443824Y-93884102D01*
X135443824Y-94484317D01*
X134843609Y-94484317D01*
X134843609Y-93884102D01*
X134843609Y-93283887D01*
X134529861Y-93283887D01*
X134216112Y-93283887D01*
X133015682Y-93283887D01*
X132715575Y-93283887D01*
X132415467Y-93283887D01*
X132415467Y-92970139D01*
X132415467Y-92656390D01*
X133315790Y-92656390D01*
X134216112Y-92656390D01*
X134216112Y-92356283D01*
X134216112Y-92056175D01*
X134529861Y-92056175D01*
X134843609Y-92056175D01*
X134843609Y-91142212D01*
X134843609Y-90228248D01*
X135443824Y-90228248D01*
X135443824Y-91142212D01*
X135443824Y-92056175D01*
X136357787Y-92056175D01*
X137271751Y-92056175D01*
X137271751Y-91142212D01*
X137271751Y-90228248D01*
X136357787Y-90228248D01*
X135443824Y-90228248D01*
X134843609Y-90228248D01*
X134529861Y-90228248D01*
X134216112Y-90228248D01*
X134216112Y-90541997D01*
X134216112Y-90842104D01*
X134216112Y-91455960D01*
X133315790Y-91455960D01*
X132415467Y-91455960D01*
X132415467Y-90241889D01*
X132415467Y-90228248D01*
X133015682Y-90228248D01*
X133015682Y-90541997D01*
X133015682Y-90855746D01*
X133315790Y-90855746D01*
X133615897Y-90855746D01*
X133615897Y-90541997D01*
X133615897Y-90228248D01*
X133315790Y-90228248D01*
X133015682Y-90228248D01*
X132415467Y-90228248D01*
X132415467Y-89027819D01*
X132715575Y-89027819D01*
X133015682Y-89027819D01*
X133015682Y-89327926D01*
X133015682Y-89628033D01*
X133929646Y-89628033D01*
X134843609Y-89628033D01*
X134843609Y-88427604D01*
X135443824Y-88427604D01*
X135443824Y-88727711D01*
X135443824Y-89027819D01*
X135743931Y-89027819D01*
X136044039Y-89027819D01*
X136644254Y-89027819D01*
X136958002Y-89027819D01*
X137271751Y-89027819D01*
X137271751Y-88727711D01*
X137271751Y-88427604D01*
X136958002Y-88427604D01*
X136644254Y-88427604D01*
X136644254Y-88727711D01*
X136644254Y-89027819D01*
X136044039Y-89027819D01*
X136044039Y-88727711D01*
X136044039Y-88427604D01*
X135743931Y-88427604D01*
X135443824Y-88427604D01*
X134843609Y-88427604D01*
X134843609Y-88413963D01*
X134843609Y-87199892D01*
X135443824Y-87199892D01*
X135443824Y-87513640D01*
X135443824Y-87827389D01*
X135743931Y-87827389D01*
X136044039Y-87827389D01*
X136044039Y-87513640D01*
X136044039Y-87199892D01*
X135743931Y-87199892D01*
X135443824Y-87199892D01*
X134843609Y-87199892D01*
X134529861Y-87199892D01*
X134216112Y-87199892D01*
X134216112Y-87513640D01*
X134216112Y-87827389D01*
X133615897Y-87827389D01*
X133015682Y-87827389D01*
X133015682Y-88127496D01*
X133015682Y-88427604D01*
X132715575Y-88427604D01*
X132415467Y-88427604D01*
X132415467Y-87813748D01*
X132415467Y-87199892D01*
X133015682Y-87199892D01*
X133615897Y-87199892D01*
X133615897Y-86899784D01*
X133615897Y-86599677D01*
X134229753Y-86599677D01*
X134843609Y-86599677D01*
X134843609Y-86299569D01*
X134843609Y-85999462D01*
X135143717Y-85999462D01*
X135443824Y-85999462D01*
X135443824Y-86299569D01*
X135443824Y-86599677D01*
X136357787Y-86599677D01*
X137271751Y-86599677D01*
X137271751Y-86299569D01*
X137271751Y-85999462D01*
X136958002Y-85999462D01*
X136644254Y-85999462D01*
X136644254Y-85385606D01*
X136644254Y-84771750D01*
X136958002Y-84771750D01*
X137271751Y-84771750D01*
X137271751Y-85085498D01*
X137271751Y-85399247D01*
X137571858Y-85399247D01*
X137871966Y-85399247D01*
X137871966Y-85999462D01*
X137871966Y-86599677D01*
X138172073Y-86599677D01*
X138472181Y-86599677D01*
X138472181Y-85999462D01*
X138472181Y-85399247D01*
X138772288Y-85399247D01*
X139072395Y-85399247D01*
X139072395Y-85999462D01*
X139072395Y-86599677D01*
X138772288Y-86599677D01*
X138472181Y-86599677D01*
X138472181Y-86899784D01*
X138472181Y-87199892D01*
X138172073Y-87199892D01*
X137871966Y-87199892D01*
X137871966Y-86899784D01*
X137871966Y-86599677D01*
X137571858Y-86599677D01*
X137271751Y-86599677D01*
X137271751Y-87213533D01*
X137271751Y-87513640D01*
X137271751Y-87827389D01*
X137871966Y-87827389D01*
X138472181Y-87827389D01*
X138472181Y-87513640D01*
X138472181Y-87199892D01*
X139386144Y-87199892D01*
X140300108Y-87199892D01*
X140300108Y-87513640D01*
X140300108Y-87827389D01*
X140600215Y-87827389D01*
X140900322Y-87827389D01*
X140900322Y-88127496D01*
X140900322Y-88427604D01*
X141814286Y-88427604D01*
X142728249Y-88427604D01*
X142728249Y-88727711D01*
X142728249Y-89027819D01*
X142414501Y-89027819D01*
X142100752Y-89027819D01*
X142100752Y-89327926D01*
X142100752Y-89628033D01*
X142414501Y-89628033D01*
X142728249Y-89628033D01*
X142728249Y-89327926D01*
X142728249Y-89027819D01*
X143028357Y-89027819D01*
X143328464Y-89027819D01*
X143328464Y-89327926D01*
X143328464Y-89628033D01*
X143928679Y-89628033D01*
X144528894Y-89628033D01*
X144528894Y-89327926D01*
X144528894Y-89027819D01*
X144829001Y-89027819D01*
X145129109Y-89027819D01*
X145129109Y-88427604D01*
X145756606Y-88427604D01*
X145756606Y-88727711D01*
X145756606Y-89027819D01*
X146056713Y-89027819D01*
X146356821Y-89027819D01*
X146356821Y-88727711D01*
X146356821Y-88427604D01*
X146056713Y-88427604D01*
X145756606Y-88427604D01*
X145129109Y-88427604D01*
X145129109Y-87827389D01*
X144829001Y-87827389D01*
X144528894Y-87827389D01*
X144528894Y-87513640D01*
X144528894Y-87199892D01*
X144228786Y-87199892D01*
X143928679Y-87199892D01*
X143928679Y-87513640D01*
X143928679Y-87827389D01*
X143628572Y-87827389D01*
X143328464Y-87827389D01*
X143328464Y-88127496D01*
X143328464Y-88427604D01*
X143028357Y-88427604D01*
X142728249Y-88427604D01*
X142728249Y-87813748D01*
X142728249Y-87199892D01*
X142414501Y-87199892D01*
X142100752Y-87199892D01*
X142100752Y-87513640D01*
X142100752Y-87827389D01*
X141500537Y-87827389D01*
X140900322Y-87827389D01*
X140900322Y-87213533D01*
X140900322Y-86899784D01*
X143328464Y-86899784D01*
X143328464Y-87199892D01*
X143628572Y-87199892D01*
X143928679Y-87199892D01*
X143928679Y-86899784D01*
X143928679Y-86599677D01*
X143628572Y-86599677D01*
X143328464Y-86599677D01*
X143328464Y-86899784D01*
X140900322Y-86899784D01*
X140900322Y-86599677D01*
X140286466Y-86599677D01*
X139672610Y-86599677D01*
X139672610Y-85999462D01*
X139672610Y-85399247D01*
X140300108Y-85399247D01*
X140300108Y-85699355D01*
X140300108Y-85999462D01*
X140600215Y-85999462D01*
X140900322Y-85999462D01*
X140900322Y-85699355D01*
X140900322Y-85399247D01*
X140600215Y-85399247D01*
X140300108Y-85399247D01*
X139672610Y-85399247D01*
X139372503Y-85399247D01*
X139072395Y-85399247D01*
X139072395Y-84785391D01*
X139072395Y-84171535D01*
X139372503Y-84171535D01*
X139672610Y-84171535D01*
X139672610Y-83871428D01*
X139672610Y-83571320D01*
X139986359Y-83571320D01*
X140300108Y-83571320D01*
X140300108Y-84171535D01*
X140300108Y-84771750D01*
X140600215Y-84771750D01*
X140900322Y-84771750D01*
X140900322Y-84171535D01*
X140900322Y-83571320D01*
X140600215Y-83571320D01*
X140300108Y-83571320D01*
X140300108Y-83271213D01*
X140300108Y-82971105D01*
X139686252Y-82971105D01*
X139072395Y-82971105D01*
X139072395Y-83571320D01*
X139072395Y-84171535D01*
X138772288Y-84171535D01*
X138472181Y-84171535D01*
X138472181Y-84471642D01*
X138472181Y-84771750D01*
X138172073Y-84771750D01*
X137871966Y-84771750D01*
X137871966Y-84471642D01*
X137871966Y-84171535D01*
X137571858Y-84171535D01*
X137271751Y-84171535D01*
X137271751Y-83271213D01*
X137271751Y-82971105D01*
X137871966Y-82971105D01*
X137871966Y-83571320D01*
X137871966Y-84171535D01*
X138172073Y-84171535D01*
X138472181Y-84171535D01*
X138472181Y-83571320D01*
X138472181Y-82971105D01*
X138172073Y-82971105D01*
X137871966Y-82971105D01*
X137271751Y-82971105D01*
X137271751Y-82370891D01*
X137571858Y-82370891D01*
X137871966Y-82370891D01*
X137871966Y-81757034D01*
X137871966Y-81143178D01*
X137571858Y-81143178D01*
X137271751Y-81143178D01*
X137271751Y-80843071D01*
X137271751Y-80542964D01*
X137571858Y-80542964D01*
X137871966Y-80542964D01*
X137871966Y-80843071D01*
X137871966Y-81143178D01*
X138172073Y-81143178D01*
X138472181Y-81143178D01*
X138472181Y-81443286D01*
X138472181Y-81743393D01*
X138772288Y-81743393D01*
X139072395Y-81743393D01*
X139072395Y-82057142D01*
X139072395Y-82370891D01*
X139372503Y-82370891D01*
X139672610Y-82370891D01*
X139672610Y-82057142D01*
X139672610Y-81743393D01*
X139986359Y-81743393D01*
X140300108Y-81743393D01*
X140300108Y-82057142D01*
X140300108Y-82370891D01*
X140600215Y-82370891D01*
X140900322Y-82370891D01*
X140900322Y-81757034D01*
X140900322Y-81143178D01*
X140286466Y-81143178D01*
X139672610Y-81143178D01*
X139672610Y-81443286D01*
X139672610Y-81743393D01*
X139372503Y-81743393D01*
X139072395Y-81743393D01*
X139072395Y-81443286D01*
X139072395Y-81143178D01*
X138772288Y-81143178D01*
X138472181Y-81143178D01*
X138472181Y-80843071D01*
X138472181Y-80542964D01*
X138772288Y-80542964D01*
X139072395Y-80542964D01*
X139072395Y-80843071D01*
X139072395Y-81143178D01*
X139372503Y-81143178D01*
X139672610Y-81143178D01*
X139672610Y-80542964D01*
X139672610Y-79942749D01*
X139986359Y-79942749D01*
X140300108Y-79942749D01*
X140300108Y-80242856D01*
X140300108Y-80542964D01*
X140600215Y-80542964D01*
X140900322Y-80542964D01*
X140900322Y-80242856D01*
X140900322Y-79942749D01*
X141200430Y-79942749D01*
X141500537Y-79942749D01*
X141500537Y-80242856D01*
X141500537Y-80542964D01*
X141800645Y-80542964D01*
X142100752Y-80542964D01*
X142100752Y-80242856D01*
X142100752Y-79942749D01*
X142414501Y-79942749D01*
X142728249Y-79942749D01*
X142728249Y-80242856D01*
X142728249Y-80542964D01*
X142414501Y-80542964D01*
X142100752Y-80542964D01*
X142100752Y-80843071D01*
X142100752Y-81143178D01*
X142414501Y-81143178D01*
X142728249Y-81143178D01*
X142728249Y-81757034D01*
X142728249Y-82057142D01*
G37*
G36*
X142414501Y-92656390D02*
G01*
X142728249Y-92656390D01*
X142728249Y-93870461D01*
X142728249Y-95084532D01*
X142414501Y-95084532D01*
X142100752Y-95084532D01*
X142100752Y-93870461D01*
X142100752Y-92656390D01*
X142414501Y-92656390D01*
G37*
G36*
X147257143Y-89027819D02*
G01*
X147557250Y-89027819D01*
X147557250Y-89327926D01*
X147557250Y-89628033D01*
X147257143Y-89628033D01*
X146957036Y-89628033D01*
X146957036Y-89327926D01*
X146957036Y-89027819D01*
X147257143Y-89027819D01*
G37*
G36*
X133615897Y-88427604D02*
G01*
X134216112Y-88427604D01*
X134216112Y-88727711D01*
X134216112Y-89027819D01*
X133615897Y-89027819D01*
X133015682Y-89027819D01*
X133015682Y-88727711D01*
X133015682Y-88427604D01*
X133615897Y-88427604D01*
G37*
G36*
X148996605Y-87404071D02*
G01*
X148996608Y-87409469D01*
X148996661Y-87499999D01*
X148997215Y-88451130D01*
X148997649Y-89441916D01*
X148997910Y-90381634D01*
X148998000Y-91270088D01*
X148997918Y-92107086D01*
X148997665Y-92892431D01*
X148997241Y-93625931D01*
X148996646Y-94307391D01*
X148995882Y-94936617D01*
X148994947Y-95513415D01*
X148993843Y-96037590D01*
X148992570Y-96508948D01*
X148991128Y-96927296D01*
X148989518Y-97292438D01*
X148987740Y-97604180D01*
X148985794Y-97862329D01*
X148983681Y-98066691D01*
X148981401Y-98217070D01*
X148978955Y-98313272D01*
X148976342Y-98355105D01*
X148975999Y-98356343D01*
X148924058Y-98543953D01*
X148833390Y-98738015D01*
X148716953Y-98900270D01*
X148715658Y-98901698D01*
X148606765Y-98996014D01*
X148464012Y-99084676D01*
X148307534Y-99156837D01*
X148157465Y-99201651D01*
X148142099Y-99202857D01*
X148073639Y-99204867D01*
X147953703Y-99206791D01*
X147784244Y-99208625D01*
X147567217Y-99210364D01*
X147304573Y-99212003D01*
X146998267Y-99213538D01*
X146650253Y-99214963D01*
X146262482Y-99216274D01*
X145836909Y-99217467D01*
X145375487Y-99218535D01*
X144880170Y-99219475D01*
X144352910Y-99220282D01*
X143795662Y-99220951D01*
X143210378Y-99221477D01*
X142599012Y-99221855D01*
X141963517Y-99222081D01*
X141305847Y-99222150D01*
X140627955Y-99222056D01*
X139931794Y-99221796D01*
X131828894Y-99217829D01*
X131674889Y-99155557D01*
X131489390Y-99064057D01*
X131316318Y-98931789D01*
X131179780Y-98763917D01*
X131072691Y-98553359D01*
X131010419Y-98399355D01*
X131010419Y-97512272D01*
X134625349Y-97512272D01*
X134625350Y-97523459D01*
X134625698Y-97757742D01*
X134626891Y-97943584D01*
X134629222Y-98086856D01*
X134632985Y-98193427D01*
X134638473Y-98269169D01*
X134645980Y-98319952D01*
X134655798Y-98351647D01*
X134668222Y-98370123D01*
X134674280Y-98375493D01*
X134740674Y-98402990D01*
X134831888Y-98412161D01*
X134924546Y-98402705D01*
X134995269Y-98374323D01*
X135008778Y-98362785D01*
X135024357Y-98339440D01*
X135035675Y-98301372D01*
X135043654Y-98240612D01*
X135046064Y-98200997D01*
X135580883Y-98200997D01*
X135599433Y-98293382D01*
X135634801Y-98358431D01*
X135636570Y-98360174D01*
X135706791Y-98400514D01*
X135812138Y-98412996D01*
X135868220Y-98409677D01*
X135966758Y-98376713D01*
X136024934Y-98307484D01*
X136044039Y-98200806D01*
X136027414Y-98092607D01*
X135973216Y-98010094D01*
X135883834Y-97967625D01*
X135825454Y-97962836D01*
X135733691Y-97973626D01*
X135652207Y-98000292D01*
X135603034Y-98037363D01*
X135581654Y-98106596D01*
X135580883Y-98200997D01*
X135046064Y-98200997D01*
X135049215Y-98149193D01*
X135053279Y-98019146D01*
X135056769Y-97842504D01*
X135061629Y-97561877D01*
X136161883Y-97561877D01*
X136178800Y-97732241D01*
X136186393Y-97777663D01*
X136242313Y-97995204D01*
X136324657Y-98167487D01*
X136352990Y-98200806D01*
X136435283Y-98297581D01*
X136576047Y-98388554D01*
X136650424Y-98413797D01*
X136787681Y-98434468D01*
X136935095Y-98433992D01*
X137068217Y-98411242D01*
X137151920Y-98373542D01*
X137262693Y-98289564D01*
X137361328Y-98179958D01*
X137432208Y-98059803D01*
X137470905Y-97949477D01*
X137511475Y-97751804D01*
X137527359Y-97537454D01*
X137516216Y-97326848D01*
X137490424Y-97179215D01*
X137423354Y-96976970D01*
X137325174Y-96818758D01*
X137197005Y-96705659D01*
X137645301Y-96705659D01*
X137649890Y-96722170D01*
X137674868Y-96785248D01*
X137718601Y-96886203D01*
X137777770Y-97018012D01*
X137849054Y-97173653D01*
X137929133Y-97346101D01*
X138014686Y-97528335D01*
X138019009Y-97537454D01*
X138102394Y-97713331D01*
X138188936Y-97894066D01*
X138270992Y-98063517D01*
X138345241Y-98214662D01*
X138408364Y-98340476D01*
X138457039Y-98433937D01*
X138487947Y-98488023D01*
X138527051Y-98526868D01*
X138588760Y-98547663D01*
X138647776Y-98537759D01*
X138732481Y-98503599D01*
X138804245Y-98455951D01*
X138842654Y-98406190D01*
X138843215Y-98403143D01*
X138832904Y-98354583D01*
X138798301Y-98260281D01*
X138740414Y-98122451D01*
X138660252Y-97943309D01*
X138599032Y-97811582D01*
X138954468Y-97811582D01*
X138958858Y-97952548D01*
X139005418Y-98089869D01*
X139091434Y-98215430D01*
X139214194Y-98321118D01*
X139370986Y-98398819D01*
X139384955Y-98403143D01*
X139416471Y-98412899D01*
X139589340Y-98438258D01*
X139769506Y-98427995D01*
X139939104Y-98384357D01*
X140080270Y-98309590D01*
X140091232Y-98301122D01*
X140169988Y-98220047D01*
X140186974Y-98194736D01*
X140422879Y-98194736D01*
X140425750Y-98267311D01*
X140441694Y-98333821D01*
X140475838Y-98374271D01*
X140503819Y-98387271D01*
X140554478Y-98397610D01*
X140633393Y-98404948D01*
X140747136Y-98409688D01*
X140902281Y-98412236D01*
X141105400Y-98412996D01*
X141267547Y-98412891D01*
X141419510Y-98412065D01*
X141530757Y-98409767D01*
X141608860Y-98405242D01*
X141661395Y-98397741D01*
X141695935Y-98386510D01*
X141720053Y-98370798D01*
X141741324Y-98349852D01*
X141784690Y-98279774D01*
X141800645Y-98171906D01*
X141800011Y-98143766D01*
X141788118Y-98075869D01*
X141753795Y-98012751D01*
X141687483Y-97934339D01*
X141665120Y-97911632D01*
X141576213Y-97834835D01*
X141464823Y-97751469D01*
X141349799Y-97675955D01*
X141297096Y-97643210D01*
X141141140Y-97532670D01*
X141025062Y-97427014D01*
X140952845Y-97330301D01*
X140928473Y-97246591D01*
X140942926Y-97169179D01*
X140993677Y-97096094D01*
X141068926Y-97052871D01*
X141156034Y-97040764D01*
X141242361Y-97061022D01*
X141315266Y-97114899D01*
X141362110Y-97203646D01*
X141366607Y-97220369D01*
X141384094Y-97298062D01*
X141391255Y-97352459D01*
X141391260Y-97353175D01*
X141416393Y-97414757D01*
X141487028Y-97452873D01*
X141598261Y-97464861D01*
X141598424Y-97464859D01*
X141701216Y-97455022D01*
X141762819Y-97422592D01*
X141792779Y-97357399D01*
X141800645Y-97249273D01*
X141800456Y-97229612D01*
X141781131Y-97075440D01*
X141724855Y-96941057D01*
X141624225Y-96807936D01*
X141562526Y-96747370D01*
X141506618Y-96711656D01*
X141927187Y-96711656D01*
X141937333Y-96746686D01*
X141969521Y-96826806D01*
X142021001Y-96944099D01*
X142088965Y-97092453D01*
X142162845Y-97249273D01*
X142170609Y-97265752D01*
X142263125Y-97457881D01*
X142363707Y-97662727D01*
X142472779Y-97882637D01*
X142571882Y-98080717D01*
X142652620Y-98237752D01*
X142718136Y-98357805D01*
X142771577Y-98444941D01*
X142816086Y-98503223D01*
X142854807Y-98536715D01*
X142890887Y-98549481D01*
X142927468Y-98545586D01*
X142967696Y-98529092D01*
X143014716Y-98504065D01*
X143023856Y-98499043D01*
X143095546Y-98450121D01*
X143124454Y-98400788D01*
X143119431Y-98336914D01*
X143108577Y-98307057D01*
X143075603Y-98230604D01*
X143024551Y-98118419D01*
X142958861Y-97977594D01*
X142881978Y-97815221D01*
X142797342Y-97638393D01*
X142736438Y-97512272D01*
X143273899Y-97512272D01*
X143273900Y-97523459D01*
X143274248Y-97757742D01*
X143275441Y-97943584D01*
X143277772Y-98086856D01*
X143281535Y-98193427D01*
X143287023Y-98269169D01*
X143294530Y-98319952D01*
X143304348Y-98351647D01*
X143316772Y-98370123D01*
X143322832Y-98375494D01*
X143383906Y-98400788D01*
X143389228Y-98402992D01*
X143480444Y-98412160D01*
X143573100Y-98402701D01*
X143643819Y-98374313D01*
X143657197Y-98362897D01*
X143672830Y-98339561D01*
X143684211Y-98301509D01*
X143692269Y-98240770D01*
X143697934Y-98149375D01*
X143702135Y-98019356D01*
X143705801Y-97842743D01*
X143714825Y-97349856D01*
X143793115Y-97390341D01*
X143815734Y-97401566D01*
X143897864Y-97427238D01*
X143965863Y-97411479D01*
X144039908Y-97351077D01*
X144090304Y-97289918D01*
X144118559Y-97205628D01*
X144094371Y-97120546D01*
X144017347Y-97029066D01*
X143933037Y-96950991D01*
X143787637Y-96820485D01*
X143671671Y-96724567D01*
X143606858Y-96679271D01*
X144205815Y-96679271D01*
X144205832Y-96681819D01*
X144219278Y-96723270D01*
X144253086Y-96805625D01*
X144304023Y-96922062D01*
X144368853Y-97065762D01*
X144433180Y-97205628D01*
X144444344Y-97229903D01*
X144527261Y-97407666D01*
X144614371Y-97592229D01*
X144702440Y-97776772D01*
X144788233Y-97954475D01*
X144868518Y-98118517D01*
X144940059Y-98262077D01*
X144999623Y-98378335D01*
X145043977Y-98460471D01*
X145069886Y-98501664D01*
X145131495Y-98542376D01*
X145217988Y-98538877D01*
X145322872Y-98485935D01*
X145348514Y-98467306D01*
X145398331Y-98413495D01*
X145408038Y-98356343D01*
X145398258Y-98324811D01*
X145366938Y-98247821D01*
X145317474Y-98134960D01*
X145253258Y-97993324D01*
X145177685Y-97830004D01*
X145094146Y-97652094D01*
X145006035Y-97466687D01*
X144916745Y-97280878D01*
X144829669Y-97101758D01*
X144748201Y-96936422D01*
X144675732Y-96791963D01*
X144615658Y-96675474D01*
X144571370Y-96594049D01*
X144546261Y-96554780D01*
X144495662Y-96517058D01*
X144423490Y-96515913D01*
X144394497Y-96524380D01*
X144308535Y-96566416D01*
X144239650Y-96622543D01*
X144205815Y-96679271D01*
X143606858Y-96679271D01*
X143579459Y-96660123D01*
X143505320Y-96624040D01*
X143443573Y-96613205D01*
X143388539Y-96624503D01*
X143334535Y-96654822D01*
X143326781Y-96660348D01*
X143311107Y-96674250D01*
X143298883Y-96694186D01*
X143289680Y-96726223D01*
X143283071Y-96776427D01*
X143278625Y-96850864D01*
X143275914Y-96955601D01*
X143274509Y-97096703D01*
X143273980Y-97280238D01*
X143273899Y-97512272D01*
X142736438Y-97512272D01*
X142708396Y-97454202D01*
X142618583Y-97269740D01*
X142531345Y-97092098D01*
X142450125Y-96928369D01*
X142378363Y-96785646D01*
X142319504Y-96671020D01*
X142276989Y-96591583D01*
X142254260Y-96554428D01*
X142203656Y-96515516D01*
X142132990Y-96515604D01*
X142119615Y-96519006D01*
X142015994Y-96564781D01*
X141948867Y-96631841D01*
X141927187Y-96711656D01*
X141506618Y-96711656D01*
X141433117Y-96664703D01*
X141280210Y-96622381D01*
X141093908Y-96616838D01*
X141041714Y-96620398D01*
X140941332Y-96634639D01*
X140863684Y-96662077D01*
X140786193Y-96709509D01*
X140709189Y-96772621D01*
X140593844Y-96916881D01*
X140521370Y-97084895D01*
X140495496Y-97266279D01*
X140519953Y-97450649D01*
X140536429Y-97495884D01*
X140604374Y-97611253D01*
X140703367Y-97729434D01*
X140820553Y-97836241D01*
X140929873Y-97908737D01*
X140943075Y-97917492D01*
X141050376Y-97974064D01*
X140789586Y-97975270D01*
X140685846Y-97976914D01*
X140568895Y-97985914D01*
X140492478Y-98007196D01*
X140448241Y-98045760D01*
X140427827Y-98106606D01*
X140422879Y-98194736D01*
X140186974Y-98194736D01*
X140238663Y-98117711D01*
X140290042Y-98008983D01*
X140316910Y-97908737D01*
X140312053Y-97831842D01*
X140297966Y-97809549D01*
X140236308Y-97767296D01*
X140148260Y-97740331D01*
X140053048Y-97735784D01*
X139997583Y-97748552D01*
X139940683Y-97788027D01*
X139878384Y-97865377D01*
X139838796Y-97916749D01*
X139748558Y-97994397D01*
X139649178Y-98022826D01*
X139531735Y-98005645D01*
X139501534Y-97994979D01*
X139422701Y-97942392D01*
X139386924Y-97875274D01*
X139391386Y-97804369D01*
X139433271Y-97740420D01*
X139509763Y-97694172D01*
X139618045Y-97676369D01*
X139718153Y-97663001D01*
X139785650Y-97616505D01*
X139819796Y-97532006D01*
X139820227Y-97529684D01*
X139824549Y-97405235D01*
X139786393Y-97314774D01*
X139706641Y-97259402D01*
X139586174Y-97240221D01*
X139523191Y-97235986D01*
X139451006Y-97209749D01*
X139427068Y-97159311D01*
X139428577Y-97142599D01*
X139462722Y-97082675D01*
X139529550Y-97040980D01*
X139612653Y-97021920D01*
X139695626Y-97029902D01*
X139762059Y-97069333D01*
X139805147Y-97115979D01*
X139862321Y-97178463D01*
X139886759Y-97201313D01*
X139972396Y-97237528D01*
X140068695Y-97224723D01*
X140166607Y-97163347D01*
X140220052Y-97108906D01*
X140239659Y-97060821D01*
X140232630Y-96997626D01*
X140210191Y-96934892D01*
X140140596Y-96829048D01*
X140042945Y-96733010D01*
X139932028Y-96663233D01*
X139893894Y-96648446D01*
X139758369Y-96619974D01*
X139604186Y-96613130D01*
X139454278Y-96627879D01*
X139331579Y-96664184D01*
X139282127Y-96690749D01*
X139171753Y-96773946D01*
X139078419Y-96874685D01*
X139019504Y-96975620D01*
X138991894Y-97097756D01*
X138999074Y-97226015D01*
X139041331Y-97336979D01*
X139115496Y-97416102D01*
X139177469Y-97456709D01*
X139086453Y-97547725D01*
X139083044Y-97551166D01*
X138994959Y-97675083D01*
X138954468Y-97811582D01*
X138599032Y-97811582D01*
X138558825Y-97725068D01*
X138437141Y-97469942D01*
X138296210Y-97180146D01*
X138137042Y-96857894D01*
X138104122Y-96791768D01*
X138045650Y-96676348D01*
X138003024Y-96599006D01*
X137970436Y-96552286D01*
X137942078Y-96528734D01*
X137912142Y-96520896D01*
X137874821Y-96521317D01*
X137816701Y-96529808D01*
X137726197Y-96569340D01*
X137664833Y-96631355D01*
X137645301Y-96705659D01*
X137197005Y-96705659D01*
X137196374Y-96705102D01*
X137037444Y-96636525D01*
X136848872Y-96613550D01*
X136727114Y-96622350D01*
X136558727Y-96672571D01*
X136420099Y-96767709D01*
X136310765Y-96908257D01*
X136230262Y-97094707D01*
X136211092Y-97180327D01*
X136178127Y-97327555D01*
X136169004Y-97397550D01*
X136161883Y-97561877D01*
X135061629Y-97561877D01*
X135065309Y-97349356D01*
X135144082Y-97390091D01*
X135167158Y-97401539D01*
X135249364Y-97427221D01*
X135317349Y-97411465D01*
X135391358Y-97351077D01*
X135403853Y-97338187D01*
X135459685Y-97257982D01*
X135468659Y-97180327D01*
X135429646Y-97097282D01*
X135341515Y-97000907D01*
X135326813Y-96987183D01*
X135171644Y-96845578D01*
X135047412Y-96740485D01*
X134948280Y-96668822D01*
X134868410Y-96627506D01*
X134801962Y-96613456D01*
X134743100Y-96623589D01*
X134685985Y-96654822D01*
X134678231Y-96660348D01*
X134662557Y-96674250D01*
X134650333Y-96694186D01*
X134641131Y-96726223D01*
X134634521Y-96776427D01*
X134630075Y-96850864D01*
X134627364Y-96955601D01*
X134625959Y-97096703D01*
X134625430Y-97280238D01*
X134625349Y-97512272D01*
X131010419Y-97512272D01*
X131010419Y-87499999D01*
X131815337Y-87499999D01*
X131815345Y-88124148D01*
X131815381Y-88860762D01*
X131815457Y-89546162D01*
X131815585Y-90182213D01*
X131815776Y-90770781D01*
X131816040Y-91313733D01*
X131816389Y-91812932D01*
X131816834Y-92270247D01*
X131817386Y-92687541D01*
X131818057Y-93066681D01*
X131818857Y-93409533D01*
X131819797Y-93717962D01*
X131820889Y-93993834D01*
X131822144Y-94239015D01*
X131823573Y-94455370D01*
X131825187Y-94644766D01*
X131826997Y-94809067D01*
X131829014Y-94950140D01*
X131831250Y-95069850D01*
X131833715Y-95170064D01*
X131836421Y-95252646D01*
X131839379Y-95319463D01*
X131842600Y-95372380D01*
X131846095Y-95413263D01*
X131849875Y-95443978D01*
X131853952Y-95466390D01*
X131858336Y-95482365D01*
X131863039Y-95493769D01*
X131922471Y-95573693D01*
X132006230Y-95636960D01*
X132014997Y-95640729D01*
X132029888Y-95645178D01*
X132050835Y-95649316D01*
X132079704Y-95653156D01*
X132118360Y-95656709D01*
X132168670Y-95659985D01*
X132232499Y-95662995D01*
X132311713Y-95665752D01*
X132408177Y-95668265D01*
X132523757Y-95670547D01*
X132660320Y-95672608D01*
X132819729Y-95674460D01*
X133003853Y-95676112D01*
X133214555Y-95677578D01*
X133453702Y-95678868D01*
X133723160Y-95679992D01*
X134024794Y-95680962D01*
X134360470Y-95681790D01*
X134732054Y-95682486D01*
X135141411Y-95683061D01*
X135590407Y-95683527D01*
X136080909Y-95683895D01*
X136614781Y-95684176D01*
X137193889Y-95684380D01*
X137820099Y-95684520D01*
X138495278Y-95684606D01*
X139221289Y-95684650D01*
X140000000Y-95684662D01*
X140624149Y-95684654D01*
X141360763Y-95684618D01*
X142046163Y-95684542D01*
X142682214Y-95684414D01*
X143270782Y-95684223D01*
X143813734Y-95683959D01*
X144312934Y-95683610D01*
X144770248Y-95683165D01*
X145187542Y-95682613D01*
X145566682Y-95681942D01*
X145909534Y-95681142D01*
X146217963Y-95680202D01*
X146493835Y-95679110D01*
X146739016Y-95677855D01*
X146955371Y-95676426D01*
X147144767Y-95674813D01*
X147309068Y-95673003D01*
X147450141Y-95670985D01*
X147569851Y-95668750D01*
X147670065Y-95666284D01*
X147752647Y-95663578D01*
X147819464Y-95660620D01*
X147872381Y-95657399D01*
X147913264Y-95653904D01*
X147943979Y-95650124D01*
X147966391Y-95646047D01*
X147982366Y-95641663D01*
X147993770Y-95636960D01*
X148073694Y-95577528D01*
X148136961Y-95493769D01*
X148140730Y-95485003D01*
X148145179Y-95470111D01*
X148149317Y-95449164D01*
X148153157Y-95420295D01*
X148156710Y-95381639D01*
X148159986Y-95331329D01*
X148162996Y-95267500D01*
X148165753Y-95188286D01*
X148168267Y-95091822D01*
X148170548Y-94976242D01*
X148172609Y-94839680D01*
X148174461Y-94680270D01*
X148176114Y-94496146D01*
X148177579Y-94285444D01*
X148178869Y-94046297D01*
X148179993Y-93776839D01*
X148180963Y-93475205D01*
X148181791Y-93139529D01*
X148182487Y-92767945D01*
X148183062Y-92358588D01*
X148183528Y-91909592D01*
X148183896Y-91419090D01*
X148184177Y-90885218D01*
X148184382Y-90306110D01*
X148184521Y-89679900D01*
X148184607Y-89004722D01*
X148184651Y-88278710D01*
X148184663Y-87499999D01*
X148184656Y-86875850D01*
X148184619Y-86139236D01*
X148184543Y-85453836D01*
X148184415Y-84817785D01*
X148184224Y-84229217D01*
X148183960Y-83686266D01*
X148183611Y-83187066D01*
X148183166Y-82729751D01*
X148182614Y-82312457D01*
X148181943Y-81933317D01*
X148181144Y-81590465D01*
X148180203Y-81282036D01*
X148179111Y-81006164D01*
X148177856Y-80760983D01*
X148176428Y-80544628D01*
X148174814Y-80355232D01*
X148173004Y-80190931D01*
X148170986Y-80049858D01*
X148168751Y-79930148D01*
X148166285Y-79829934D01*
X148163579Y-79747352D01*
X148160621Y-79680535D01*
X148157400Y-79627618D01*
X148153905Y-79586735D01*
X148150125Y-79556021D01*
X148146048Y-79533608D01*
X148141664Y-79517633D01*
X148136961Y-79506229D01*
X148077529Y-79426305D01*
X147993770Y-79363038D01*
X147985004Y-79359269D01*
X147970113Y-79354820D01*
X147949165Y-79350682D01*
X147920296Y-79346842D01*
X147881640Y-79343290D01*
X147831330Y-79340014D01*
X147767501Y-79337003D01*
X147688287Y-79334246D01*
X147591823Y-79331733D01*
X147476243Y-79329451D01*
X147339681Y-79327390D01*
X147180271Y-79325539D01*
X146996148Y-79323886D01*
X146785445Y-79322420D01*
X146546298Y-79321131D01*
X146276840Y-79320006D01*
X145975206Y-79319036D01*
X145639530Y-79318208D01*
X145267946Y-79317512D01*
X144858589Y-79316937D01*
X144409593Y-79316471D01*
X143919092Y-79316103D01*
X143385220Y-79315822D01*
X142806111Y-79315618D01*
X142179901Y-79315478D01*
X141504723Y-79315392D01*
X140778711Y-79315348D01*
X140000000Y-79315336D01*
X139375851Y-79315344D01*
X138639237Y-79315380D01*
X137953837Y-79315456D01*
X137317786Y-79315584D01*
X136729218Y-79315775D01*
X136186267Y-79316039D01*
X135687067Y-79316388D01*
X135229752Y-79316833D01*
X134812458Y-79317385D01*
X134433318Y-79318056D01*
X134090466Y-79318856D01*
X133782037Y-79319796D01*
X133506165Y-79320888D01*
X133260984Y-79322143D01*
X133044629Y-79323572D01*
X132855233Y-79325185D01*
X132690932Y-79326995D01*
X132549859Y-79329013D01*
X132430149Y-79331249D01*
X132329935Y-79333714D01*
X132247353Y-79336420D01*
X132180536Y-79339378D01*
X132127619Y-79342599D01*
X132086736Y-79346094D01*
X132056022Y-79349874D01*
X132033610Y-79353951D01*
X132017634Y-79358335D01*
X132006230Y-79363038D01*
X131926307Y-79422470D01*
X131863039Y-79506229D01*
X131859270Y-79514996D01*
X131854821Y-79529887D01*
X131850683Y-79550834D01*
X131846843Y-79579703D01*
X131843291Y-79618359D01*
X131840015Y-79668669D01*
X131837004Y-79732498D01*
X131834247Y-79811712D01*
X131831734Y-79908176D01*
X131829452Y-80023756D01*
X131827391Y-80160318D01*
X131825540Y-80319728D01*
X131823887Y-80503852D01*
X131822421Y-80714554D01*
X131821132Y-80953701D01*
X131820007Y-81223159D01*
X131819037Y-81524793D01*
X131818209Y-81860469D01*
X131817513Y-82232053D01*
X131816938Y-82641410D01*
X131816472Y-83090406D01*
X131816104Y-83580908D01*
X131815823Y-84114780D01*
X131815619Y-84693888D01*
X131815479Y-85320098D01*
X131815393Y-85995276D01*
X131815349Y-86721288D01*
X131815337Y-87499999D01*
X131010419Y-87499999D01*
X131010419Y-77638644D01*
X134408892Y-77638644D01*
X134411661Y-77861102D01*
X134412375Y-77909908D01*
X134415382Y-78098661D01*
X134418698Y-78242551D01*
X134423199Y-78349510D01*
X134429763Y-78427474D01*
X134439265Y-78484376D01*
X134452582Y-78528149D01*
X134470590Y-78566729D01*
X134494165Y-78608048D01*
X134581216Y-78721318D01*
X134721739Y-78832074D01*
X134887025Y-78903384D01*
X134954136Y-78918244D01*
X135139819Y-78923089D01*
X135320845Y-78877735D01*
X135485517Y-78784505D01*
X135547952Y-78726375D01*
X135574904Y-78662148D01*
X135554201Y-78591046D01*
X135485855Y-78503197D01*
X135391473Y-78401288D01*
X135282651Y-78462674D01*
X135200935Y-78500330D01*
X135080858Y-78524750D01*
X134977138Y-78508603D01*
X134900154Y-78452174D01*
X134860799Y-78378769D01*
X134843609Y-78297892D01*
X134845732Y-78243613D01*
X134859934Y-78233862D01*
X134897898Y-78264625D01*
X134980386Y-78308677D01*
X135092646Y-78327667D01*
X135213557Y-78319717D01*
X135323062Y-78283916D01*
X135468656Y-78185766D01*
X135585032Y-78054024D01*
X135658537Y-77903109D01*
X135687762Y-77741267D01*
X135671301Y-77576743D01*
X135607746Y-77417783D01*
X135495689Y-77272633D01*
X135462242Y-77243041D01*
X135719053Y-77243041D01*
X135721173Y-77339404D01*
X135772720Y-77456190D01*
X135774181Y-77458585D01*
X135808163Y-77509484D01*
X135841394Y-77533885D01*
X135892159Y-77538257D01*
X135978742Y-77529065D01*
X136055113Y-77522135D01*
X136134574Y-77527378D01*
X136193414Y-77552577D01*
X136218140Y-77571097D01*
X136237093Y-77596598D01*
X136249625Y-77637304D01*
X136257560Y-77703055D01*
X136259520Y-77741267D01*
X136262722Y-77803687D01*
X136266935Y-77949039D01*
X136271174Y-78067028D01*
X136280351Y-78201376D01*
X136292717Y-78292553D01*
X136307671Y-78334880D01*
X136315655Y-78341730D01*
X136383766Y-78369484D01*
X136475940Y-78380206D01*
X136568415Y-78373018D01*
X136637433Y-78347043D01*
X136651697Y-78336169D01*
X136668833Y-78317531D01*
X136681213Y-78289630D01*
X136689610Y-78244915D01*
X136694797Y-78175836D01*
X136697546Y-78074842D01*
X136698629Y-77934383D01*
X136698819Y-77746910D01*
X136698813Y-77727593D01*
X136862657Y-77727593D01*
X136865523Y-77746910D01*
X136889694Y-77909838D01*
X136943397Y-78029988D01*
X137033325Y-78154520D01*
X137143105Y-78262727D01*
X137257054Y-78336397D01*
X137263367Y-78339182D01*
X137384284Y-78372507D01*
X137527624Y-78385081D01*
X137669282Y-78376459D01*
X137785152Y-78346192D01*
X137817811Y-78331201D01*
X137980404Y-78225621D01*
X138046549Y-78150063D01*
X138337060Y-78150063D01*
X138344784Y-78246096D01*
X138371530Y-78316996D01*
X138376468Y-78322715D01*
X138433152Y-78353510D01*
X138519717Y-78373899D01*
X138615243Y-78380500D01*
X138698810Y-78369928D01*
X138699907Y-78369602D01*
X138749858Y-78328753D01*
X138783800Y-78252839D01*
X138797889Y-78165465D01*
X138900563Y-78165465D01*
X138909651Y-78213363D01*
X138927669Y-78247289D01*
X138989085Y-78314396D01*
X139066406Y-78366617D01*
X139138248Y-78387647D01*
X139142456Y-78387364D01*
X139196142Y-78362496D01*
X139275398Y-78301525D01*
X139372554Y-78210259D01*
X139548365Y-78032871D01*
X139727123Y-78210259D01*
X139754143Y-78236764D01*
X139855981Y-78327379D01*
X139936039Y-78376376D01*
X140003121Y-78385511D01*
X140066035Y-78356537D01*
X140133586Y-78291209D01*
X140158453Y-78261140D01*
X140201307Y-78198234D01*
X140218260Y-78155308D01*
X140212256Y-78138883D01*
X140176297Y-78085643D01*
X140115108Y-78010371D01*
X140037040Y-77923742D01*
X139855821Y-77731640D01*
X140037040Y-77543929D01*
X140081590Y-77496470D01*
X140123781Y-77447721D01*
X140354673Y-77447721D01*
X140354673Y-78304541D01*
X140423455Y-78349609D01*
X140443979Y-78360649D01*
X140524498Y-78380126D01*
X140614902Y-78378965D01*
X140694431Y-78358967D01*
X140742324Y-78321934D01*
X140744785Y-78317669D01*
X140766142Y-78296822D01*
X140801427Y-78301625D01*
X140866881Y-78333600D01*
X140946113Y-78365884D01*
X141087527Y-78381362D01*
X141229764Y-78350678D01*
X141363883Y-78277794D01*
X141480941Y-78166669D01*
X141571996Y-78021266D01*
X141575138Y-78014434D01*
X141630058Y-77833170D01*
X141631334Y-77727006D01*
X141828345Y-77727006D01*
X141828448Y-77771051D01*
X141830186Y-77939363D01*
X141833782Y-78088079D01*
X141838890Y-78208456D01*
X141845163Y-78291755D01*
X141852253Y-78329232D01*
X141870106Y-78346553D01*
X141935714Y-78371296D01*
X142022637Y-78380403D01*
X142109713Y-78372707D01*
X142175779Y-78347043D01*
X142192039Y-78334470D01*
X142208467Y-78315451D01*
X142220330Y-78286492D01*
X142228371Y-78240154D01*
X142233332Y-78169002D01*
X142235956Y-78065597D01*
X142236986Y-77922502D01*
X142237164Y-77732280D01*
X142237166Y-77632151D01*
X142236405Y-77455048D01*
X142232841Y-77322868D01*
X142228591Y-77276013D01*
X142392093Y-77276013D01*
X142404163Y-77329405D01*
X142434737Y-77421892D01*
X142479568Y-77542399D01*
X142515115Y-77632151D01*
X142534477Y-77681039D01*
X142595286Y-77827923D01*
X142657818Y-77973162D01*
X142717895Y-78106868D01*
X142771337Y-78219153D01*
X142813967Y-78300127D01*
X142841608Y-78339902D01*
X142916216Y-78384861D01*
X142998191Y-78387382D01*
X143076214Y-78336571D01*
X143150852Y-78232034D01*
X143222670Y-78073374D01*
X143243058Y-78020327D01*
X143278972Y-77930294D01*
X143305068Y-77869508D01*
X143316757Y-77848920D01*
X143319884Y-77855083D01*
X143338821Y-77900422D01*
X143370287Y-77979547D01*
X143409495Y-78080502D01*
X143423393Y-78115387D01*
X143471307Y-78220358D01*
X143517679Y-78302171D01*
X143554694Y-78346506D01*
X143605433Y-78373621D01*
X143699962Y-78382960D01*
X143787850Y-78339902D01*
X143799210Y-78326929D01*
X143835965Y-78265761D01*
X143884833Y-78168259D01*
X143894025Y-78148243D01*
X144311270Y-78148243D01*
X144314834Y-78222554D01*
X144323800Y-78270932D01*
X144339330Y-78303522D01*
X144362585Y-78330468D01*
X144419316Y-78367505D01*
X144515519Y-78388456D01*
X144614319Y-78377042D01*
X144692589Y-78333082D01*
X144693931Y-78331729D01*
X144717497Y-78301675D01*
X144732950Y-78261313D01*
X144741942Y-78199584D01*
X144746126Y-78105430D01*
X144747154Y-77967791D01*
X144747861Y-77857021D01*
X144751752Y-77750337D01*
X144760423Y-77678428D01*
X144775407Y-77630053D01*
X144798243Y-77593971D01*
X144858315Y-77548210D01*
X144948495Y-77530380D01*
X145042282Y-77550956D01*
X145121521Y-77609088D01*
X145129437Y-77618506D01*
X145154048Y-77654613D01*
X145169870Y-77698266D01*
X145178810Y-77761219D01*
X145182776Y-77855221D01*
X145183674Y-77992025D01*
X145183767Y-78054310D01*
X145185365Y-78169950D01*
X145190384Y-78246168D01*
X145200657Y-78293653D01*
X145218020Y-78323093D01*
X145244309Y-78345176D01*
X145251148Y-78349701D01*
X145333538Y-78379672D01*
X145428441Y-78384094D01*
X145514918Y-78364437D01*
X145572031Y-78322170D01*
X145574622Y-78311069D01*
X145579348Y-78251721D01*
X145583582Y-78148116D01*
X145587169Y-78007042D01*
X145589953Y-77835289D01*
X145591779Y-77639644D01*
X145592493Y-77426899D01*
X145592653Y-77262310D01*
X145592646Y-77045599D01*
X145591221Y-76874610D01*
X145587126Y-76743948D01*
X145579107Y-76648217D01*
X145565910Y-76582018D01*
X145546283Y-76539957D01*
X145518971Y-76516636D01*
X145482721Y-76506660D01*
X145436280Y-76504632D01*
X145378393Y-76505155D01*
X145371150Y-76505177D01*
X145298112Y-76510380D01*
X145246832Y-76530234D01*
X145213529Y-76572707D01*
X145194422Y-76645767D01*
X145185731Y-76757382D01*
X145185455Y-76778618D01*
X145183674Y-76915519D01*
X145183674Y-77240138D01*
X145081364Y-77170254D01*
X145004331Y-77130268D01*
X144872020Y-77106271D01*
X144734869Y-77126698D01*
X144602838Y-77187952D01*
X144559354Y-77224569D01*
X144485886Y-77286436D01*
X144393972Y-77418552D01*
X144379791Y-77446934D01*
X144354765Y-77506637D01*
X144337769Y-77570571D01*
X144326791Y-77651320D01*
X144319818Y-77761466D01*
X144314841Y-77913594D01*
X144311945Y-78037855D01*
X144311270Y-78148243D01*
X143894025Y-78148243D01*
X143941916Y-78043961D01*
X144003313Y-77902402D01*
X144065127Y-77753118D01*
X144123456Y-77605644D01*
X144174402Y-77469516D01*
X144214065Y-77354271D01*
X144238546Y-77269443D01*
X144243945Y-77224569D01*
X144233856Y-77200739D01*
X144180966Y-77147906D01*
X144101941Y-77107286D01*
X144014061Y-77084228D01*
X143934608Y-77084080D01*
X143880861Y-77112190D01*
X143872485Y-77125887D01*
X143844295Y-77185523D01*
X143806114Y-77276366D01*
X143763741Y-77384912D01*
X143741045Y-77444404D01*
X143705149Y-77535058D01*
X143679160Y-77596131D01*
X143667561Y-77616813D01*
X143664383Y-77610535D01*
X143645374Y-77565002D01*
X143613847Y-77485714D01*
X143574583Y-77384609D01*
X143532734Y-77281564D01*
X143491287Y-77199690D01*
X143450814Y-77148331D01*
X143403793Y-77115640D01*
X143348004Y-77090750D01*
X143297185Y-77088358D01*
X143231307Y-77114312D01*
X143219254Y-77120348D01*
X143175627Y-77150897D01*
X143138708Y-77198160D01*
X143100931Y-77273956D01*
X143054728Y-77390102D01*
X143034002Y-77444507D01*
X142997916Y-77536524D01*
X142971570Y-77600045D01*
X142959579Y-77623737D01*
X142957084Y-77620172D01*
X142940160Y-77579948D01*
X142911850Y-77504459D01*
X142876673Y-77405598D01*
X142845029Y-77319980D01*
X142784390Y-77190884D01*
X142722118Y-77111523D01*
X142653656Y-77078863D01*
X142574443Y-77089870D01*
X142479921Y-77141509D01*
X142453931Y-77160407D01*
X142403497Y-77215367D01*
X142392093Y-77276013D01*
X142228591Y-77276013D01*
X142224331Y-77229043D01*
X142208730Y-77167006D01*
X142183894Y-77130188D01*
X142147681Y-77112021D01*
X142097946Y-77105938D01*
X142032546Y-77105370D01*
X142002530Y-77105363D01*
X141943864Y-77107526D01*
X141900073Y-77118081D01*
X141868989Y-77143622D01*
X141848445Y-77190748D01*
X141836276Y-77266052D01*
X141830314Y-77376133D01*
X141828393Y-77527586D01*
X141828363Y-77653403D01*
X141828345Y-77727006D01*
X141631334Y-77727006D01*
X141632219Y-77653403D01*
X141582481Y-77481784D01*
X141481706Y-77324961D01*
X141396777Y-77241488D01*
X141261815Y-77156058D01*
X141119374Y-77112165D01*
X140979586Y-77112470D01*
X140852578Y-77159636D01*
X140763910Y-77213698D01*
X140763910Y-76887669D01*
X140763863Y-76846375D01*
X140761466Y-76707152D01*
X140761279Y-76705277D01*
X141827927Y-76705277D01*
X141830137Y-76759232D01*
X141841991Y-76837143D01*
X141860666Y-76881653D01*
X141880234Y-76892826D01*
X141945963Y-76908315D01*
X142032546Y-76914392D01*
X142082007Y-76912417D01*
X142159654Y-76900596D01*
X142204426Y-76881653D01*
X142220804Y-76853413D01*
X142235322Y-76778618D01*
X142235288Y-76687803D01*
X142221384Y-76603446D01*
X142194292Y-76548027D01*
X142139083Y-76519976D01*
X142051792Y-76506428D01*
X141957841Y-76510537D01*
X141880699Y-76533397D01*
X141849091Y-76561448D01*
X141832436Y-76613977D01*
X141827927Y-76705277D01*
X140761279Y-76705277D01*
X140752003Y-76612058D01*
X140730770Y-76552702D01*
X140693061Y-76520693D01*
X140634171Y-76507641D01*
X140549392Y-76505155D01*
X140527767Y-76505124D01*
X140479941Y-76506499D01*
X140441847Y-76514231D01*
X140412379Y-76533677D01*
X140390430Y-76570194D01*
X140374893Y-76629136D01*
X140364663Y-76715862D01*
X140358632Y-76835727D01*
X140355695Y-76994088D01*
X140354744Y-77196300D01*
X140354711Y-77313550D01*
X140354673Y-77447721D01*
X140123781Y-77447721D01*
X140151830Y-77415313D01*
X140200231Y-77350724D01*
X140218260Y-77313550D01*
X140202646Y-77271980D01*
X140154783Y-77209727D01*
X140089961Y-77146627D01*
X140023900Y-77097730D01*
X139972320Y-77078087D01*
X139955048Y-77082833D01*
X139897794Y-77117037D01*
X139819699Y-77177031D01*
X139732464Y-77254221D01*
X139545752Y-77430356D01*
X139384101Y-77266784D01*
X139360517Y-77243373D01*
X139279490Y-77169243D01*
X139209523Y-77114052D01*
X139163633Y-77088337D01*
X139160734Y-77087655D01*
X139087526Y-77095511D01*
X139011499Y-77139361D01*
X138946200Y-77205608D01*
X138905177Y-77280657D01*
X138901978Y-77350912D01*
X138906779Y-77360619D01*
X138942621Y-77408941D01*
X139003866Y-77479738D01*
X139080645Y-77561385D01*
X139246240Y-77730934D01*
X139238728Y-77738811D01*
X139095707Y-77888775D01*
X139026498Y-77962956D01*
X138953927Y-78049088D01*
X138913635Y-78113649D01*
X138902084Y-78159435D01*
X138900563Y-78165465D01*
X138797889Y-78165465D01*
X138798861Y-78159435D01*
X138792167Y-78066112D01*
X138760846Y-77990444D01*
X138724761Y-77958500D01*
X138665403Y-77942024D01*
X138567669Y-77937486D01*
X138471313Y-77941849D01*
X138411400Y-77958071D01*
X138374493Y-77990444D01*
X138348124Y-78054818D01*
X138337060Y-78150063D01*
X138046549Y-78150063D01*
X138099927Y-78089088D01*
X138173715Y-77925514D01*
X138199100Y-77738811D01*
X138181972Y-77558557D01*
X138126169Y-77406266D01*
X138027457Y-77273494D01*
X137922540Y-77182440D01*
X137769332Y-77100708D01*
X137609352Y-77063296D01*
X137449299Y-77066455D01*
X137295874Y-77106440D01*
X137155776Y-77179503D01*
X137035706Y-77281897D01*
X136942363Y-77409875D01*
X136882446Y-77559689D01*
X136862657Y-77727593D01*
X136698813Y-77727593D01*
X136698795Y-77663087D01*
X136697808Y-77479317D01*
X136693723Y-77341127D01*
X136684326Y-77242021D01*
X136667402Y-77175503D01*
X136640738Y-77135075D01*
X136602118Y-77114241D01*
X136549329Y-77106505D01*
X136480157Y-77105370D01*
X136413379Y-77108086D01*
X136348546Y-77124612D01*
X136308234Y-77161059D01*
X136269228Y-77216748D01*
X136169143Y-77157696D01*
X136114239Y-77129521D01*
X136033171Y-77109518D01*
X135929197Y-77112084D01*
X135857129Y-77124714D01*
X135764869Y-77170384D01*
X135719053Y-77243041D01*
X135462242Y-77243041D01*
X135443156Y-77226155D01*
X135309965Y-77146440D01*
X135169572Y-77107113D01*
X135033524Y-77110433D01*
X134913366Y-77158660D01*
X134898195Y-77168626D01*
X134850561Y-77195637D01*
X134823286Y-77192266D01*
X134795868Y-77158481D01*
X134773063Y-77134306D01*
X134717389Y-77111771D01*
X134624431Y-77105370D01*
X134563233Y-77106662D01*
X134510787Y-77114670D01*
X134471279Y-77135375D01*
X134443026Y-77174758D01*
X134424345Y-77238797D01*
X134413551Y-77333471D01*
X134408961Y-77464761D01*
X134408892Y-77638644D01*
X131010419Y-77638644D01*
X131010419Y-76600644D01*
X131072691Y-76446639D01*
X131164192Y-76261140D01*
X131296460Y-76088068D01*
X131464331Y-75951529D01*
X131674889Y-75844441D01*
X131828894Y-75782169D01*
X140000000Y-75782169D01*
X148171106Y-75782169D01*
X148325111Y-75844441D01*
X148510610Y-75935942D01*
X148683682Y-76068209D01*
X148820221Y-76236081D01*
X148927309Y-76446639D01*
X148989581Y-76600644D01*
X148990011Y-77262310D01*
X148996605Y-87404071D01*
G37*
%TD*%
M02*
