%TF.GenerationSoftware,KiCad,Pcbnew,9.0.6*%
%TF.CreationDate,2026-02-11T20:02:57+00:00*%
%TF.ProjectId,solderbit-segment,736f6c64-6572-4626-9974-2d7365676d65,v0.1*%
%TF.SameCoordinates,Original*%
%TF.FileFunction,Legend,Top*%
%TF.FilePolarity,Positive*%
%FSLAX46Y46*%
G04 Gerber Fmt 4.6, Leading zero omitted, Abs format (unit mm)*
G04 Created by KiCad (PCBNEW 9.0.6) date 2026-02-11 20:02:57*
%MOMM*%
%LPD*%
G01*
G04 APERTURE LIST*
%ADD10C,0.100000*%
%ADD11C,0.450000*%
%ADD12C,0.360000*%
%ADD13C,0.150000*%
%ADD14C,0.120000*%
%ADD15C,0.000000*%
G04 APERTURE END LIST*
D10*
G36*
X144634120Y-63085336D02*
G01*
X144802159Y-63085336D01*
X144802159Y-63167341D01*
X145446960Y-63167341D01*
X145446960Y-63085336D01*
X145615000Y-63085336D01*
X145615000Y-63469958D01*
X145446960Y-63469958D01*
X145446960Y-63387953D01*
X144802159Y-63387953D01*
X144802159Y-63469958D01*
X144634120Y-63469958D01*
X144634120Y-63085336D01*
G37*
G36*
X145615000Y-62063180D02*
G01*
X145615000Y-62285868D01*
X144998714Y-62689663D01*
X144917320Y-62738817D01*
X144917320Y-62741564D01*
X145076017Y-62736069D01*
X145615000Y-62736069D01*
X145615000Y-62944408D01*
X144634120Y-62944408D01*
X144634120Y-62706699D01*
X145231233Y-62317986D01*
X145311284Y-62268832D01*
X145311284Y-62266085D01*
X145268859Y-62269832D01*
X145176523Y-62271580D01*
X144634120Y-62271580D01*
X144634120Y-62063180D01*
X145615000Y-62063180D01*
G37*
G36*
X144813761Y-61150566D02*
G01*
X144813761Y-61429980D01*
X145615000Y-61429980D01*
X145615000Y-61651325D01*
X144813761Y-61651325D01*
X144813761Y-61929335D01*
X144634120Y-61929335D01*
X144634120Y-61150566D01*
X144813761Y-61150566D01*
G37*
X144385000Y-63400000D02*
X144385000Y-61230845D01*
D11*
G36*
X128581113Y-85208059D02*
G01*
X128581113Y-84892290D01*
X128678341Y-84943859D01*
X128772355Y-84979228D01*
X128866838Y-85000944D01*
X128952496Y-85007804D01*
X129049706Y-84999965D01*
X129115382Y-84979887D01*
X129149581Y-84957038D01*
X129168618Y-84929272D01*
X129175062Y-84894928D01*
X129168292Y-84861244D01*
X129148025Y-84833708D01*
X129118194Y-84811391D01*
X129078562Y-84790844D01*
X128985689Y-84757761D01*
X128888529Y-84724678D01*
X128756308Y-84664118D01*
X128702979Y-84628400D01*
X128660357Y-84588720D01*
X128626385Y-84542717D01*
X128601336Y-84489582D01*
X128586504Y-84430182D01*
X128581113Y-84356042D01*
X128593123Y-84256151D01*
X128627165Y-84174802D01*
X128680833Y-84105912D01*
X128750153Y-84050495D01*
X128831400Y-84008962D01*
X128926008Y-83979383D01*
X129026376Y-83962473D01*
X129131978Y-83956742D01*
X129301678Y-83969711D01*
X129471378Y-84007300D01*
X129471378Y-84308452D01*
X129395135Y-84270263D01*
X129313328Y-84242946D01*
X129229205Y-84226449D01*
X129148025Y-84221074D01*
X129076034Y-84227778D01*
X129016353Y-84247122D01*
X128975797Y-84279875D01*
X128964775Y-84301178D01*
X128961069Y-84325378D01*
X128966646Y-84357368D01*
X128983161Y-84384179D01*
X129040973Y-84426494D01*
X129120327Y-84458258D01*
X129207046Y-84487054D01*
X129347180Y-84545856D01*
X129406302Y-84581064D01*
X129454781Y-84620594D01*
X129494468Y-84667115D01*
X129523695Y-84721051D01*
X129541286Y-84782008D01*
X129547655Y-84858218D01*
X129534941Y-84963759D01*
X129499075Y-85048691D01*
X129442666Y-85120130D01*
X129369931Y-85177285D01*
X129284691Y-85219545D01*
X129184185Y-85249495D01*
X129077776Y-85266406D01*
X128966015Y-85272136D01*
X128828608Y-85264769D01*
X128700701Y-85243229D01*
X128581113Y-85208059D01*
G37*
G36*
X130544467Y-83968932D02*
G01*
X130675627Y-84003299D01*
X130786537Y-84057858D01*
X130880525Y-84132487D01*
X130957320Y-84225620D01*
X131012548Y-84332229D01*
X131046798Y-84454930D01*
X131058797Y-84597293D01*
X131046199Y-84751833D01*
X131010516Y-84882985D01*
X130953497Y-84994961D01*
X130874919Y-85090896D01*
X130778000Y-85168014D01*
X130664176Y-85224266D01*
X130530142Y-85259619D01*
X130371535Y-85272136D01*
X130215130Y-85259956D01*
X130083224Y-85225599D01*
X129971485Y-85171033D01*
X129876613Y-85096391D01*
X129799483Y-85003237D01*
X129743645Y-84894844D01*
X129708768Y-84768236D01*
X129696472Y-84619385D01*
X129696885Y-84614439D01*
X130091156Y-84614439D01*
X130101361Y-84736386D01*
X130128534Y-84825864D01*
X130169392Y-84890592D01*
X130223500Y-84935965D01*
X130293337Y-84964340D01*
X130383845Y-84974612D01*
X130468639Y-84964460D01*
X130534700Y-84936206D01*
X130586544Y-84890472D01*
X130626203Y-84824332D01*
X130652842Y-84731817D01*
X130662904Y-84604657D01*
X130653037Y-84485752D01*
X130626785Y-84398618D01*
X130587370Y-84335696D01*
X130535276Y-84291679D01*
X130468166Y-84264202D01*
X130381317Y-84254266D01*
X130293984Y-84265359D01*
X130224031Y-84296713D01*
X130167323Y-84348349D01*
X130126963Y-84415151D01*
X130100773Y-84501988D01*
X130091156Y-84614439D01*
X129696885Y-84614439D01*
X129709305Y-84465594D01*
X129745577Y-84335947D01*
X129803474Y-84225997D01*
X129883318Y-84132487D01*
X129981428Y-84057764D01*
X130096079Y-84003176D01*
X130230452Y-83968872D01*
X130388681Y-83956742D01*
X130544467Y-83968932D01*
G37*
G36*
X131700448Y-85244000D02*
G01*
X131311919Y-85244000D01*
X131311919Y-83379938D01*
X131700448Y-83379938D01*
X131700448Y-85244000D01*
G37*
G36*
X133259731Y-85244000D02*
G01*
X132871202Y-85244000D01*
X132871202Y-85068145D01*
X132866256Y-85068145D01*
X132807620Y-85142160D01*
X132740701Y-85198341D01*
X132664533Y-85238579D01*
X132577306Y-85263445D01*
X132476517Y-85272136D01*
X132361501Y-85261223D01*
X132261689Y-85229856D01*
X132174056Y-85178630D01*
X132096561Y-85106173D01*
X132036385Y-85020000D01*
X131991568Y-84916438D01*
X131962935Y-84792053D01*
X131952690Y-84642576D01*
X131953469Y-84631585D01*
X132347374Y-84631585D01*
X132356275Y-84739459D01*
X132380417Y-84822266D01*
X132417386Y-84885475D01*
X132469659Y-84934669D01*
X132533236Y-84964231D01*
X132611706Y-84974612D01*
X132685898Y-84964066D01*
X132749086Y-84933279D01*
X132804157Y-84880639D01*
X132844169Y-84814169D01*
X132869481Y-84732450D01*
X132878565Y-84631585D01*
X132878565Y-84537503D01*
X132870215Y-84458808D01*
X132846333Y-84392109D01*
X132807234Y-84334830D01*
X132755120Y-84290207D01*
X132694174Y-84263529D01*
X132621598Y-84254266D01*
X132540650Y-84265816D01*
X132474661Y-84298989D01*
X132419914Y-84355053D01*
X132381468Y-84425797D01*
X132356505Y-84516267D01*
X132347374Y-84631585D01*
X131953469Y-84631585D01*
X131963691Y-84487312D01*
X131994801Y-84354854D01*
X132044158Y-84241459D01*
X132111289Y-84144137D01*
X132197015Y-84061943D01*
X132293250Y-84004160D01*
X132402145Y-83968951D01*
X132526966Y-83956742D01*
X132645650Y-83969004D01*
X132738222Y-84002848D01*
X132810595Y-84056393D01*
X132866256Y-84131278D01*
X132871202Y-84131278D01*
X132871202Y-83379938D01*
X133259731Y-83379938D01*
X133259731Y-85244000D01*
G37*
G36*
X134278441Y-83968015D02*
G01*
X134392273Y-83999735D01*
X134487761Y-84050116D01*
X134567981Y-84119298D01*
X134631893Y-84204400D01*
X134678719Y-84304249D01*
X134708218Y-84421683D01*
X134718667Y-84560364D01*
X134718667Y-84722810D01*
X133897315Y-84722810D01*
X133912769Y-84807753D01*
X133943524Y-84873568D01*
X133988875Y-84924436D01*
X134050749Y-84962483D01*
X134133397Y-84987446D01*
X134242869Y-84996704D01*
X134378631Y-84985401D01*
X134499473Y-84952710D01*
X134608098Y-84899324D01*
X134608098Y-85178933D01*
X134488005Y-85228312D01*
X134338871Y-85260458D01*
X134154392Y-85272136D01*
X134002582Y-85260354D01*
X133875893Y-85227272D01*
X133769813Y-85174988D01*
X133680903Y-85103755D01*
X133609523Y-85014870D01*
X133557251Y-84909332D01*
X133524253Y-84783830D01*
X133512522Y-84634003D01*
X133524593Y-84484307D01*
X133894897Y-84484307D01*
X134358494Y-84484307D01*
X134347772Y-84379740D01*
X134319672Y-84307684D01*
X134277243Y-84259229D01*
X134219049Y-84229488D01*
X134139555Y-84218656D01*
X134080577Y-84226956D01*
X134027314Y-84251712D01*
X133977878Y-84294713D01*
X133938850Y-84348660D01*
X133911150Y-84411279D01*
X133894897Y-84484307D01*
X133524593Y-84484307D01*
X133524987Y-84479421D01*
X133560303Y-84348029D01*
X133616725Y-84235690D01*
X133694422Y-84139301D01*
X133791054Y-84059162D01*
X133896475Y-84002736D01*
X134012591Y-83968508D01*
X134142083Y-83956742D01*
X134278441Y-83968015D01*
G37*
G36*
X135771707Y-84332412D02*
G01*
X135697372Y-84304270D01*
X135608162Y-84294383D01*
X135528344Y-84305177D01*
X135463582Y-84335987D01*
X135410216Y-84387476D01*
X135372191Y-84453184D01*
X135347760Y-84536166D01*
X135338885Y-84640927D01*
X135338885Y-85244000D01*
X134950355Y-85244000D01*
X134950355Y-83984879D01*
X135338885Y-83984879D01*
X135338885Y-84215688D01*
X135343831Y-84215688D01*
X135389745Y-84117226D01*
X135445110Y-84046014D01*
X135509834Y-83996898D01*
X135585626Y-83967136D01*
X135675757Y-83956742D01*
X135733647Y-83960987D01*
X135771707Y-83971690D01*
X135771707Y-84332412D01*
G37*
G36*
X136226292Y-84378794D02*
G01*
X136164707Y-84371960D01*
X136112103Y-84352311D01*
X136066484Y-84319882D01*
X136030758Y-84277203D01*
X136009712Y-84229243D01*
X136002517Y-84174143D01*
X136009986Y-84117633D01*
X136031655Y-84069574D01*
X136068243Y-84027853D01*
X136114935Y-83996568D01*
X136169003Y-83977475D01*
X136232447Y-83970810D01*
X136296673Y-83977626D01*
X136350241Y-83996993D01*
X136395443Y-84028513D01*
X136430659Y-84070363D01*
X136451555Y-84118242D01*
X136458750Y-84174143D01*
X136451348Y-84231606D01*
X136429975Y-84280080D01*
X136394124Y-84321751D01*
X136348154Y-84352772D01*
X136293027Y-84371990D01*
X136226292Y-84378794D01*
G37*
G36*
X136226292Y-85272136D02*
G01*
X136164736Y-85265259D01*
X136112134Y-85245472D01*
X136066484Y-85212785D01*
X136030724Y-85169843D01*
X136009693Y-85121834D01*
X136002517Y-85066936D01*
X136009984Y-85010580D01*
X136031650Y-84962667D01*
X136068243Y-84921086D01*
X136114928Y-84889865D01*
X136168996Y-84870806D01*
X136232447Y-84864153D01*
X136296689Y-84870947D01*
X136350257Y-84890244D01*
X136395443Y-84921636D01*
X136430667Y-84963414D01*
X136451559Y-85011185D01*
X136458750Y-85066936D01*
X136451366Y-85124196D01*
X136430008Y-85172723D01*
X136394124Y-85214654D01*
X136348122Y-85245930D01*
X136292996Y-85265287D01*
X136226292Y-85272136D01*
G37*
G36*
X137123811Y-84176780D02*
G01*
X137128757Y-84176780D01*
X137192400Y-84096287D01*
X137263862Y-84035586D01*
X137344033Y-83992425D01*
X137434654Y-83965944D01*
X137538169Y-83956742D01*
X137657271Y-83968010D01*
X137757144Y-83999933D01*
X137841630Y-84051348D01*
X137913290Y-84123364D01*
X137968226Y-84209107D01*
X138009263Y-84311407D01*
X138035485Y-84433411D01*
X138044851Y-84578938D01*
X138034144Y-84735813D01*
X138003892Y-84869651D01*
X137956000Y-84984156D01*
X137891088Y-85082323D01*
X137807568Y-85165554D01*
X137712987Y-85224042D01*
X137605107Y-85259730D01*
X137480467Y-85272136D01*
X137367988Y-85260343D01*
X137274280Y-85226868D01*
X137195335Y-85172488D01*
X137128757Y-85095182D01*
X137123811Y-85095182D01*
X137123811Y-85244000D01*
X136735282Y-85244000D01*
X136735282Y-84566848D01*
X137117657Y-84566848D01*
X137117657Y-84695003D01*
X137125870Y-84772950D01*
X137149330Y-84838844D01*
X137187669Y-84895257D01*
X137238843Y-84939378D01*
X137297850Y-84965573D01*
X137367260Y-84974612D01*
X137450627Y-84962858D01*
X137517967Y-84929252D01*
X137573230Y-84872726D01*
X137611724Y-84800967D01*
X137637059Y-84706726D01*
X137646430Y-84583884D01*
X137638002Y-84482504D01*
X137614962Y-84403320D01*
X137579385Y-84341644D01*
X137529098Y-84293617D01*
X137466638Y-84264552D01*
X137388143Y-84254266D01*
X137314204Y-84264055D01*
X137250527Y-84292595D01*
X137194483Y-84340985D01*
X137152719Y-84402725D01*
X137126829Y-84476900D01*
X137117657Y-84566848D01*
X136735282Y-84566848D01*
X136735282Y-83379938D01*
X137123811Y-83379938D01*
X137123811Y-84176780D01*
G37*
G36*
X138493611Y-83780887D02*
G01*
X138430343Y-83774001D01*
X138377384Y-83754379D01*
X138332484Y-83722306D01*
X138297472Y-83679960D01*
X138276867Y-83632634D01*
X138269836Y-83578544D01*
X138277002Y-83522962D01*
X138297712Y-83475959D01*
X138332484Y-83435442D01*
X138377161Y-83405165D01*
X138430128Y-83386510D01*
X138493611Y-83379938D01*
X138557893Y-83386552D01*
X138610994Y-83405242D01*
X138655287Y-83435442D01*
X138689729Y-83475918D01*
X138710272Y-83522922D01*
X138717386Y-83578544D01*
X138710267Y-83635014D01*
X138689709Y-83682865D01*
X138655287Y-83724174D01*
X138610906Y-83755077D01*
X138557807Y-83774149D01*
X138493611Y-83780887D01*
G37*
G36*
X138685403Y-85244000D02*
G01*
X138296873Y-85244000D01*
X138296873Y-83984879D01*
X138685403Y-83984879D01*
X138685403Y-85244000D01*
G37*
G36*
X139773724Y-85229272D02*
G01*
X139714411Y-85251086D01*
X139630336Y-85266304D01*
X139514338Y-85272136D01*
X139398955Y-85262302D01*
X139308240Y-85235313D01*
X139237012Y-85193416D01*
X139181606Y-85136658D01*
X139140277Y-85062889D01*
X139113435Y-84968045D01*
X139103607Y-84846568D01*
X139103607Y-84271412D01*
X138899506Y-84271412D01*
X138899506Y-83984879D01*
X139103607Y-83984879D01*
X139103607Y-83714942D01*
X139490928Y-83605032D01*
X139490928Y-83984879D01*
X139773724Y-83984879D01*
X139773724Y-84271412D01*
X139490928Y-84271412D01*
X139490928Y-84778644D01*
X139498692Y-84856289D01*
X139518966Y-84909528D01*
X139549390Y-84945083D01*
X139590823Y-84966754D01*
X139647109Y-84974612D01*
X139708106Y-84966697D01*
X139773724Y-84941529D01*
X139773724Y-85229272D01*
G37*
D12*
G36*
X144618473Y-84125918D02*
G01*
X144681674Y-84150741D01*
X144733793Y-84191388D01*
X144774548Y-84247241D01*
X144774548Y-84810306D01*
X144733907Y-84865297D01*
X144681674Y-84906257D01*
X144618126Y-84931424D01*
X144533517Y-84940659D01*
X144464548Y-84932659D01*
X144408110Y-84909994D01*
X144360063Y-84873754D01*
X144320842Y-84825803D01*
X144291363Y-84768842D01*
X144269844Y-84700397D01*
X144257527Y-84626704D01*
X144253248Y-84544765D01*
X144253248Y-84518937D01*
X144257650Y-84436883D01*
X144270394Y-84362206D01*
X144292552Y-84292455D01*
X144322601Y-84234272D01*
X144362416Y-84185094D01*
X144410528Y-84148213D01*
X144467103Y-84125046D01*
X144536045Y-84116889D01*
X144618473Y-84125918D01*
G37*
G36*
X143101690Y-84121012D02*
G01*
X143153935Y-84136013D01*
X143200340Y-84160250D01*
X143238126Y-84191297D01*
X143268388Y-84229275D01*
X143290992Y-84274279D01*
X143305379Y-84323413D01*
X143311875Y-84376274D01*
X143311875Y-84403312D01*
X142751228Y-84403312D01*
X142766887Y-84340258D01*
X142788047Y-84285270D01*
X142815969Y-84235533D01*
X142848937Y-84194375D01*
X142888180Y-84160673D01*
X142933128Y-84136013D01*
X142982935Y-84120892D01*
X143038970Y-84115680D01*
X143101690Y-84121012D01*
G37*
G36*
X147633469Y-84121012D02*
G01*
X147685715Y-84136013D01*
X147732120Y-84160250D01*
X147769905Y-84191297D01*
X147800168Y-84229275D01*
X147822772Y-84274279D01*
X147837158Y-84323413D01*
X147843654Y-84376274D01*
X147843654Y-84403312D01*
X147283007Y-84403312D01*
X147298666Y-84340258D01*
X147319827Y-84285270D01*
X147347749Y-84235533D01*
X147380717Y-84194375D01*
X147419960Y-84160673D01*
X147464907Y-84136013D01*
X147514714Y-84120892D01*
X147570750Y-84115680D01*
X147633469Y-84121012D01*
G37*
G36*
X151368630Y-85917827D02*
G01*
X140659469Y-85917827D01*
X140659469Y-84638188D01*
X140859469Y-84638188D01*
X140866602Y-84733796D01*
X140887056Y-84817780D01*
X140920275Y-84895178D01*
X140963333Y-84962860D01*
X141016220Y-85022620D01*
X141078299Y-85074748D01*
X141147155Y-85118606D01*
X141221510Y-85154652D01*
X141300002Y-85182410D01*
X141382637Y-85202023D01*
X141467080Y-85213571D01*
X141551678Y-85217410D01*
X141684956Y-85209014D01*
X141803700Y-85184877D01*
X141913001Y-85143759D01*
X142002965Y-85088926D01*
X142077659Y-85018299D01*
X142133867Y-84933954D01*
X142168996Y-84837446D01*
X142181238Y-84724247D01*
X142170657Y-84617311D01*
X142141024Y-84526301D01*
X142398309Y-84526301D01*
X142398309Y-84575540D01*
X142410609Y-84706198D01*
X142446889Y-84827012D01*
X142505898Y-84936954D01*
X142585155Y-85031114D01*
X142682801Y-85108011D01*
X142800357Y-85168171D01*
X142930631Y-85205602D01*
X143079527Y-85218619D01*
X143175863Y-85213215D01*
X143262745Y-85197627D01*
X143344948Y-85173103D01*
X143417058Y-85143002D01*
X143482970Y-85106017D01*
X143537519Y-85065516D01*
X143584831Y-85020323D01*
X143620500Y-84976379D01*
X143449591Y-84791951D01*
X143380788Y-84858337D01*
X143295938Y-84905707D01*
X143200647Y-84934614D01*
X143100409Y-84944396D01*
X143030998Y-84938728D01*
X142968848Y-84922304D01*
X142911758Y-84895373D01*
X142861906Y-84859546D01*
X142819444Y-84815303D01*
X142784970Y-84763045D01*
X142760118Y-84704717D01*
X142745073Y-84639397D01*
X143647648Y-84639397D01*
X143647648Y-84518937D01*
X143910111Y-84518937D01*
X143910111Y-84544765D01*
X143919751Y-84686409D01*
X143947590Y-84813494D01*
X143994123Y-84930251D01*
X144055191Y-85026827D01*
X144132741Y-85107059D01*
X144224232Y-85167621D01*
X144328052Y-85205524D01*
X144447458Y-85218619D01*
X144548955Y-85208974D01*
X144633754Y-85181690D01*
X144709137Y-85137467D01*
X144774548Y-85078375D01*
X144774548Y-85154652D01*
X144764715Y-85245600D01*
X144737457Y-85316857D01*
X144693984Y-85372932D01*
X144635875Y-85414274D01*
X144562545Y-85440348D01*
X144469659Y-85449758D01*
X144376524Y-85439936D01*
X144291277Y-85410960D01*
X144213952Y-85364048D01*
X144143778Y-85298523D01*
X143990015Y-85506362D01*
X144037198Y-85557625D01*
X144093330Y-85601543D01*
X144155395Y-85638003D01*
X144221154Y-85667379D01*
X144357662Y-85705517D01*
X144486805Y-85717827D01*
X144623239Y-85708103D01*
X144743224Y-85680238D01*
X144852347Y-85633302D01*
X144942379Y-85570219D01*
X145015771Y-85489873D01*
X145071413Y-85391946D01*
X145105571Y-85281213D01*
X145117575Y-85150915D01*
X145117575Y-83863548D01*
X145373993Y-83863548D01*
X145373993Y-85194000D01*
X145685146Y-85194000D01*
X145685146Y-84198002D01*
X145701719Y-84164087D01*
X145722625Y-84138980D01*
X145749663Y-84122684D01*
X145785933Y-84116889D01*
X145822752Y-84122384D01*
X145852868Y-84141508D01*
X145873201Y-84179647D01*
X145880565Y-84242295D01*
X145880565Y-85194000D01*
X146181826Y-85194000D01*
X146181826Y-84178328D01*
X146198246Y-84152846D01*
X146219965Y-84133485D01*
X146246641Y-84121231D01*
X146280195Y-84116889D01*
X146316465Y-84122384D01*
X146347899Y-84142058D01*
X146369331Y-84180856D01*
X146377355Y-84243504D01*
X146377355Y-85194000D01*
X146688508Y-85194000D01*
X146688508Y-84526301D01*
X146930088Y-84526301D01*
X146930088Y-84575540D01*
X146942389Y-84706198D01*
X146978668Y-84827012D01*
X147037677Y-84936954D01*
X147116934Y-85031114D01*
X147214580Y-85108011D01*
X147332137Y-85168171D01*
X147462411Y-85205602D01*
X147611306Y-85218619D01*
X147707642Y-85213215D01*
X147794525Y-85197627D01*
X147876728Y-85173103D01*
X147948838Y-85143002D01*
X148014749Y-85106017D01*
X148069298Y-85065516D01*
X148116610Y-85020323D01*
X148152280Y-84976379D01*
X147981371Y-84791951D01*
X147912568Y-84858337D01*
X147827718Y-84905707D01*
X147732426Y-84934614D01*
X147632189Y-84944396D01*
X147562777Y-84938728D01*
X147500628Y-84922304D01*
X147443538Y-84895373D01*
X147393686Y-84859546D01*
X147351224Y-84815303D01*
X147316749Y-84763045D01*
X147291897Y-84704717D01*
X147276852Y-84639397D01*
X148179427Y-84639397D01*
X148179427Y-84494317D01*
X148168916Y-84352075D01*
X148138761Y-84226908D01*
X148088120Y-84113357D01*
X148020059Y-84019729D01*
X147933975Y-83943748D01*
X147829476Y-83886299D01*
X147753072Y-83863548D01*
X148476292Y-83863548D01*
X148476292Y-85194000D01*
X148819429Y-85194000D01*
X148819429Y-84248450D01*
X148863540Y-84193408D01*
X148919007Y-84151950D01*
X148984946Y-84126129D01*
X149067824Y-84116889D01*
X149173557Y-84128539D01*
X149217280Y-84144871D01*
X149253461Y-84169755D01*
X149282166Y-84203619D01*
X149304459Y-84250318D01*
X149317359Y-84305030D01*
X149322264Y-84380011D01*
X149322264Y-85194000D01*
X149664192Y-85194000D01*
X149664192Y-84375065D01*
X149655038Y-84235981D01*
X149630340Y-84128539D01*
X149588612Y-84034382D01*
X149535598Y-83962576D01*
X149469099Y-83906739D01*
X149391177Y-83868494D01*
X149371683Y-83863548D01*
X149968531Y-83863548D01*
X149968531Y-84115680D01*
X150272210Y-84115680D01*
X150272210Y-84720620D01*
X150281429Y-84846787D01*
X150306612Y-84946264D01*
X150349037Y-85033308D01*
X150404321Y-85101236D01*
X150473565Y-85153692D01*
X150556875Y-85190922D01*
X150649163Y-85212317D01*
X150755481Y-85219828D01*
X150870336Y-85214223D01*
X150982883Y-85198836D01*
X151084989Y-85173776D01*
X151168630Y-85137396D01*
X151135437Y-84902630D01*
X151079384Y-84914830D01*
X151009371Y-84926590D01*
X150930676Y-84935823D01*
X150850113Y-84939450D01*
X150797554Y-84936233D01*
X150752404Y-84927140D01*
X150711651Y-84910524D01*
X150677995Y-84886034D01*
X150651350Y-84853160D01*
X150630624Y-84808548D01*
X150618564Y-84756727D01*
X150614028Y-84687428D01*
X150614028Y-84115680D01*
X151110818Y-84115680D01*
X151110818Y-83863548D01*
X150614028Y-83863548D01*
X150614028Y-83537667D01*
X150272210Y-83537667D01*
X150272210Y-83863548D01*
X149968531Y-83863548D01*
X149371683Y-83863548D01*
X149304704Y-83846554D01*
X149206749Y-83838928D01*
X149125347Y-83845176D01*
X149050299Y-83863479D01*
X148980446Y-83893663D01*
X148886717Y-83959075D01*
X148807119Y-84047975D01*
X148786236Y-83863548D01*
X148476292Y-83863548D01*
X147753072Y-83863548D01*
X147711816Y-83851263D01*
X147573168Y-83838928D01*
X147438223Y-83851785D01*
X147316200Y-83889376D01*
X147205848Y-83950175D01*
X147112098Y-84030830D01*
X147036160Y-84129527D01*
X146978009Y-84247790D01*
X146942433Y-84378348D01*
X146940350Y-84403312D01*
X146930088Y-84526301D01*
X146688508Y-84526301D01*
X146688508Y-84244713D01*
X146682646Y-84138455D01*
X146666966Y-84057208D01*
X146640141Y-83985446D01*
X146606625Y-83931801D01*
X146564027Y-83889454D01*
X146515621Y-83861130D01*
X146461817Y-83844560D01*
X146403183Y-83838928D01*
X146321710Y-83848768D01*
X146256235Y-83876517D01*
X146201202Y-83920736D01*
X146155997Y-83980381D01*
X146124033Y-83917947D01*
X146079987Y-83875050D01*
X146022074Y-83848523D01*
X145945741Y-83838928D01*
X145855691Y-83851838D01*
X145782855Y-83888827D01*
X145723821Y-83946675D01*
X145677672Y-84024675D01*
X145667890Y-83863548D01*
X145373993Y-83863548D01*
X145117575Y-83863548D01*
X144806531Y-83863548D01*
X144793012Y-83990163D01*
X144727735Y-83925842D01*
X144650350Y-83878275D01*
X144561405Y-83849357D01*
X144449986Y-83838928D01*
X144329255Y-83851613D01*
X144224891Y-83888167D01*
X144132944Y-83947246D01*
X144055191Y-84027093D01*
X143994219Y-84123931D01*
X143947590Y-84242295D01*
X143919823Y-84371661D01*
X143910111Y-84518937D01*
X143647648Y-84518937D01*
X143647648Y-84494317D01*
X143637137Y-84352075D01*
X143606981Y-84226908D01*
X143556340Y-84113357D01*
X143488279Y-84019729D01*
X143402195Y-83943748D01*
X143297697Y-83886299D01*
X143180036Y-83851263D01*
X143041388Y-83838928D01*
X142906443Y-83851785D01*
X142784420Y-83889376D01*
X142674069Y-83950175D01*
X142580319Y-84030830D01*
X142504380Y-84129527D01*
X142446229Y-84247790D01*
X142410654Y-84378348D01*
X142408571Y-84403312D01*
X142398309Y-84526301D01*
X142141024Y-84526301D01*
X142140022Y-84523223D01*
X142090824Y-84438121D01*
X142024508Y-84362206D01*
X141944157Y-84297119D01*
X141846784Y-84239877D01*
X141740110Y-84192775D01*
X141620591Y-84152499D01*
X141466278Y-84102161D01*
X141401279Y-84072738D01*
X141349994Y-84042480D01*
X141306870Y-84006961D01*
X141276905Y-83969280D01*
X141258114Y-83926563D01*
X141251735Y-83878275D01*
X141256552Y-83831736D01*
X141270750Y-83789139D01*
X141294077Y-83750910D01*
X141326693Y-83717808D01*
X141366843Y-83691541D01*
X141417039Y-83671096D01*
X141472780Y-83658870D01*
X141539368Y-83654500D01*
X141611599Y-83659890D01*
X141670380Y-83674833D01*
X141722467Y-83699529D01*
X141763803Y-83731327D01*
X141796551Y-83770966D01*
X141820296Y-83818045D01*
X141835123Y-83870184D01*
X141841948Y-83928724D01*
X142178820Y-83928724D01*
X142166909Y-83812084D01*
X142132109Y-83707476D01*
X142076157Y-83613521D01*
X142001756Y-83533490D01*
X141911228Y-83469162D01*
X141801941Y-83419734D01*
X141681820Y-83389565D01*
X141545523Y-83379068D01*
X141413489Y-83388077D01*
X141294710Y-83414129D01*
X141185278Y-83457472D01*
X141094235Y-83514366D01*
X141018448Y-83586568D01*
X140961465Y-83671756D01*
X140925776Y-83768122D01*
X140913545Y-83877066D01*
X140926100Y-83988871D01*
X140962124Y-84083696D01*
X141018561Y-84167550D01*
X141091817Y-84241086D01*
X141178169Y-84303088D01*
X141279323Y-84356711D01*
X141387826Y-84400441D01*
X141502548Y-84436505D01*
X141594036Y-84464656D01*
X141662906Y-84492558D01*
X141723252Y-84525428D01*
X141767430Y-84558944D01*
X141802233Y-84597488D01*
X141824033Y-84636979D01*
X141836413Y-84679948D01*
X141840629Y-84726775D01*
X141835623Y-84773106D01*
X141820956Y-84814703D01*
X141797126Y-84851524D01*
X141764352Y-84882956D01*
X141724411Y-84907633D01*
X141674007Y-84927250D01*
X141618382Y-84938982D01*
X141551678Y-84943187D01*
X141476106Y-84938710D01*
X141409675Y-84925931D01*
X141348907Y-84903372D01*
X141298996Y-84871855D01*
X141258303Y-84830131D01*
X141227116Y-84777224D01*
X141207572Y-84715777D01*
X141198759Y-84638188D01*
X140859469Y-84638188D01*
X140659469Y-84638188D01*
X140659469Y-83179068D01*
X151368630Y-83179068D01*
X151368630Y-85917827D01*
G37*
D10*
G36*
X137034120Y-63199520D02*
G01*
X138015000Y-63537003D01*
X138015000Y-63786985D01*
X137034120Y-64120377D01*
X137034120Y-63882667D01*
X137716779Y-63678419D01*
X137770896Y-63664850D01*
X137814598Y-63658575D01*
X137814598Y-63654483D01*
X137767947Y-63647102D01*
X137714031Y-63633295D01*
X137034120Y-63430391D01*
X137034120Y-63199520D01*
G37*
G36*
X137603881Y-62219476D02*
G01*
X137684847Y-62237284D01*
X137756741Y-62265920D01*
X137820880Y-62305237D01*
X137878224Y-62355722D01*
X137926336Y-62414812D01*
X137964077Y-62481124D01*
X137991720Y-62555679D01*
X138008974Y-62639819D01*
X138015000Y-62735153D01*
X138015000Y-63082161D01*
X137034120Y-63082161D01*
X137034120Y-62753594D01*
X137213761Y-62753594D01*
X137213761Y-62861549D01*
X137836031Y-62861549D01*
X137836031Y-62752250D01*
X137830118Y-62681341D01*
X137813394Y-62621441D01*
X137786677Y-62570528D01*
X137749813Y-62527120D01*
X137704516Y-62492455D01*
X137651367Y-62467096D01*
X137588844Y-62451134D01*
X137514973Y-62445481D01*
X137445427Y-62451062D01*
X137386665Y-62466830D01*
X137336753Y-62491948D01*
X137294239Y-62526448D01*
X137260195Y-62569147D01*
X137235204Y-62620059D01*
X137219392Y-62680824D01*
X137213761Y-62753594D01*
X137034120Y-62753594D01*
X137034120Y-62735153D01*
X137040005Y-62625778D01*
X137056434Y-62534021D01*
X137081940Y-62457250D01*
X137115605Y-62393194D01*
X137157109Y-62340014D01*
X137206751Y-62296397D01*
X137265430Y-62261637D01*
X137334584Y-62235685D01*
X137416098Y-62219150D01*
X137512226Y-62213267D01*
X137603881Y-62219476D01*
G37*
G36*
X137603881Y-61187794D02*
G01*
X137684847Y-61205602D01*
X137756741Y-61234238D01*
X137820880Y-61273555D01*
X137878224Y-61324040D01*
X137926336Y-61383130D01*
X137964077Y-61449442D01*
X137991720Y-61523997D01*
X138008974Y-61608137D01*
X138015000Y-61703472D01*
X138015000Y-62050480D01*
X137034120Y-62050480D01*
X137034120Y-61721912D01*
X137213761Y-61721912D01*
X137213761Y-61829867D01*
X137836031Y-61829867D01*
X137836031Y-61720569D01*
X137830118Y-61649660D01*
X137813394Y-61589759D01*
X137786677Y-61538846D01*
X137749813Y-61495438D01*
X137704516Y-61460773D01*
X137651367Y-61435414D01*
X137588844Y-61419452D01*
X137514973Y-61413800D01*
X137445427Y-61419380D01*
X137386665Y-61435148D01*
X137336753Y-61460266D01*
X137294239Y-61494766D01*
X137260195Y-61537465D01*
X137235204Y-61588377D01*
X137219392Y-61649142D01*
X137213761Y-61721912D01*
X137034120Y-61721912D01*
X137034120Y-61703472D01*
X137040005Y-61594096D01*
X137056434Y-61502339D01*
X137081940Y-61425569D01*
X137115605Y-61361512D01*
X137157109Y-61308332D01*
X137206751Y-61264715D01*
X137265430Y-61229956D01*
X137334584Y-61204003D01*
X137416098Y-61187468D01*
X137512226Y-61181586D01*
X137603881Y-61187794D01*
G37*
G36*
X135348077Y-63346982D02*
G01*
X135382825Y-63419533D01*
X135408636Y-63502100D01*
X135424912Y-63596201D01*
X135430631Y-63703576D01*
X135424778Y-63799123D01*
X135408104Y-63882565D01*
X135381560Y-63955636D01*
X135345560Y-64019796D01*
X135299961Y-64076169D01*
X135245343Y-64124053D01*
X135183278Y-64161603D01*
X135112697Y-64189152D01*
X135032152Y-64206406D01*
X134939886Y-64212456D01*
X134848153Y-64206088D01*
X134766013Y-64187705D01*
X134691995Y-64157928D01*
X134624901Y-64116749D01*
X134563874Y-64063529D01*
X134512623Y-64001594D01*
X134472499Y-63932220D01*
X134443160Y-63854358D01*
X134424871Y-63766613D01*
X134418489Y-63667306D01*
X134423627Y-63564112D01*
X134438279Y-63473087D01*
X134461536Y-63392716D01*
X134668593Y-63392716D01*
X134640820Y-63450173D01*
X134620310Y-63514809D01*
X134607450Y-63587693D01*
X134602953Y-63670054D01*
X134608853Y-63737384D01*
X134625800Y-63796121D01*
X134653349Y-63847869D01*
X134691980Y-63893780D01*
X134738895Y-63930749D01*
X134793136Y-63957554D01*
X134856111Y-63974291D01*
X134929689Y-63980181D01*
X135005137Y-63974688D01*
X135067746Y-63959330D01*
X135119777Y-63935229D01*
X135163002Y-63902695D01*
X135198500Y-63861394D01*
X135224041Y-63813644D01*
X135239916Y-63758183D01*
X135245495Y-63693257D01*
X135239224Y-63618715D01*
X135223025Y-63567594D01*
X135032393Y-63567594D01*
X135032393Y-63763660D01*
X134856172Y-63763660D01*
X134856172Y-63346982D01*
X135348077Y-63346982D01*
G37*
G36*
X135415000Y-62275183D02*
G01*
X135415000Y-62497871D01*
X134798714Y-62901666D01*
X134717320Y-62950820D01*
X134717320Y-62953568D01*
X134876017Y-62948072D01*
X135415000Y-62948072D01*
X135415000Y-63156411D01*
X134434120Y-63156411D01*
X134434120Y-62918702D01*
X135031233Y-62529989D01*
X135111284Y-62480836D01*
X135111284Y-62478088D01*
X135068859Y-62481835D01*
X134976523Y-62483583D01*
X134434120Y-62483583D01*
X134434120Y-62275183D01*
X135415000Y-62275183D01*
G37*
G36*
X135003881Y-61187794D02*
G01*
X135084847Y-61205602D01*
X135156741Y-61234238D01*
X135220880Y-61273555D01*
X135278224Y-61324040D01*
X135326336Y-61383130D01*
X135364077Y-61449442D01*
X135391720Y-61523997D01*
X135408974Y-61608137D01*
X135415000Y-61703472D01*
X135415000Y-62050480D01*
X134434120Y-62050480D01*
X134434120Y-61721912D01*
X134613761Y-61721912D01*
X134613761Y-61829867D01*
X135236031Y-61829867D01*
X135236031Y-61720569D01*
X135230118Y-61649660D01*
X135213394Y-61589759D01*
X135186677Y-61538846D01*
X135149813Y-61495438D01*
X135104516Y-61460773D01*
X135051367Y-61435414D01*
X134988844Y-61419452D01*
X134914973Y-61413800D01*
X134845427Y-61419380D01*
X134786665Y-61435148D01*
X134736753Y-61460266D01*
X134694239Y-61494766D01*
X134660195Y-61537465D01*
X134635204Y-61588377D01*
X134619392Y-61649142D01*
X134613761Y-61721912D01*
X134434120Y-61721912D01*
X134434120Y-61703472D01*
X134440005Y-61594096D01*
X134456434Y-61502339D01*
X134481940Y-61425569D01*
X134515605Y-61361512D01*
X134557109Y-61308332D01*
X134606751Y-61264715D01*
X134665430Y-61229956D01*
X134734584Y-61204003D01*
X134816098Y-61187468D01*
X134912226Y-61181586D01*
X135003881Y-61187794D01*
G37*
G36*
X142975615Y-63436985D02*
G01*
X142755491Y-63436985D01*
X142800187Y-63374596D01*
X142831695Y-63307903D01*
X142850814Y-63237475D01*
X142857096Y-63167158D01*
X142855101Y-63126835D01*
X142849647Y-63094373D01*
X142840338Y-63064995D01*
X142828825Y-63042472D01*
X142813993Y-63023950D01*
X142797501Y-63011392D01*
X142778704Y-63003709D01*
X142758300Y-63001134D01*
X142731104Y-63005267D01*
X142707131Y-63017559D01*
X142686001Y-63036346D01*
X142665488Y-63062316D01*
X142628668Y-63129605D01*
X142592459Y-63213564D01*
X142556065Y-63287401D01*
X142517086Y-63343431D01*
X142475772Y-63384717D01*
X142427213Y-63415749D01*
X142372287Y-63434564D01*
X142309260Y-63441076D01*
X142259067Y-63437420D01*
X142215636Y-63427011D01*
X142177857Y-63410362D01*
X142127837Y-63374107D01*
X142087426Y-63326648D01*
X142057014Y-63270410D01*
X142035219Y-63204038D01*
X142022758Y-63133064D01*
X142018489Y-63056455D01*
X142020931Y-62982101D01*
X142027648Y-62920900D01*
X142039466Y-62863322D01*
X142055797Y-62811906D01*
X142258457Y-62811906D01*
X142229270Y-62865579D01*
X142208326Y-62925357D01*
X142196053Y-62986479D01*
X142192023Y-63044181D01*
X142193889Y-63080797D01*
X142199167Y-63112508D01*
X142208073Y-63141639D01*
X142219256Y-63164410D01*
X142233764Y-63183496D01*
X142250275Y-63197200D01*
X142269334Y-63205868D01*
X142290819Y-63208801D01*
X142314231Y-63205526D01*
X142334844Y-63195856D01*
X142353204Y-63180685D01*
X142371664Y-63158976D01*
X142405797Y-63100907D01*
X142440296Y-63023665D01*
X142466166Y-62966818D01*
X142492503Y-62918152D01*
X142522363Y-62874072D01*
X142554907Y-62837857D01*
X142592212Y-62808311D01*
X142634469Y-62786627D01*
X142681445Y-62773541D01*
X142738517Y-62768859D01*
X142792381Y-62772631D01*
X142837741Y-62783232D01*
X142876025Y-62799939D01*
X142926389Y-62836593D01*
X142966151Y-62884324D01*
X142995333Y-62940932D01*
X143015610Y-63008278D01*
X143026798Y-63080189D01*
X143030631Y-63157571D01*
X143027109Y-63237016D01*
X143016831Y-63310956D01*
X142999098Y-63380525D01*
X142975615Y-63436985D01*
G37*
G36*
X142978607Y-61905094D02*
G01*
X143006033Y-61978487D01*
X143024050Y-62070519D01*
X143030631Y-62185179D01*
X143024749Y-62275939D01*
X143007974Y-62355226D01*
X142981196Y-62424746D01*
X142944719Y-62485907D01*
X142898251Y-62539759D01*
X142843193Y-62585235D01*
X142781466Y-62620856D01*
X142712130Y-62646916D01*
X142633936Y-62663168D01*
X142545382Y-62668841D01*
X142451615Y-62662571D01*
X142368020Y-62644516D01*
X142293084Y-62615381D01*
X142225564Y-62575273D01*
X142164546Y-62523700D01*
X142112506Y-62462913D01*
X142072132Y-62395879D01*
X142042868Y-62321716D01*
X142024767Y-62239214D01*
X142018489Y-62146894D01*
X142022996Y-62051515D01*
X142035536Y-61971668D01*
X142054881Y-61905094D01*
X142268593Y-61905094D01*
X142235455Y-61972888D01*
X142215307Y-62047088D01*
X142208387Y-62129187D01*
X142214189Y-62197011D01*
X142230782Y-62255693D01*
X142257613Y-62306908D01*
X142295033Y-62351875D01*
X142340703Y-62387994D01*
X142393975Y-62414277D01*
X142456321Y-62430749D01*
X142529689Y-62436566D01*
X142600085Y-62431081D01*
X142660114Y-62415532D01*
X142711579Y-62390716D01*
X142755858Y-62356638D01*
X142792088Y-62314115D01*
X142818163Y-62265017D01*
X142834367Y-62208057D01*
X142840061Y-62141460D01*
X142832891Y-62057111D01*
X142811770Y-61978757D01*
X142776618Y-61905094D01*
X142978607Y-61905094D01*
G37*
G36*
X143015000Y-61150567D02*
G01*
X143015000Y-61733941D01*
X142034120Y-61733941D01*
X142034120Y-61513328D01*
X142836031Y-61513328D01*
X142836031Y-61150567D01*
X143015000Y-61150567D01*
G37*
G36*
X140475615Y-63842428D02*
G01*
X140255491Y-63842428D01*
X140300187Y-63780039D01*
X140331695Y-63713346D01*
X140350814Y-63642918D01*
X140357096Y-63572601D01*
X140355101Y-63532278D01*
X140349647Y-63499816D01*
X140340338Y-63470438D01*
X140328825Y-63447915D01*
X140313993Y-63429393D01*
X140297501Y-63416835D01*
X140278704Y-63409152D01*
X140258300Y-63406577D01*
X140231104Y-63410710D01*
X140207131Y-63423002D01*
X140186001Y-63441789D01*
X140165488Y-63467759D01*
X140128668Y-63535048D01*
X140092459Y-63619007D01*
X140056065Y-63692844D01*
X140017086Y-63748874D01*
X139975772Y-63790160D01*
X139927213Y-63821192D01*
X139872287Y-63840007D01*
X139809260Y-63846519D01*
X139759067Y-63842863D01*
X139715636Y-63832454D01*
X139677857Y-63815805D01*
X139627837Y-63779550D01*
X139587426Y-63732091D01*
X139557014Y-63675853D01*
X139535219Y-63609481D01*
X139522758Y-63538507D01*
X139518489Y-63461898D01*
X139520931Y-63387544D01*
X139527648Y-63326343D01*
X139539466Y-63268765D01*
X139555797Y-63217349D01*
X139758457Y-63217349D01*
X139729270Y-63271022D01*
X139708326Y-63330800D01*
X139696053Y-63391922D01*
X139692023Y-63449624D01*
X139693889Y-63486240D01*
X139699167Y-63517951D01*
X139708073Y-63547082D01*
X139719256Y-63569853D01*
X139733764Y-63588939D01*
X139750275Y-63602643D01*
X139769334Y-63611311D01*
X139790819Y-63614244D01*
X139814231Y-63610969D01*
X139834844Y-63601299D01*
X139853204Y-63586128D01*
X139871664Y-63564419D01*
X139905797Y-63506350D01*
X139940296Y-63429108D01*
X139966166Y-63372261D01*
X139992503Y-63323595D01*
X140022363Y-63279515D01*
X140054907Y-63243300D01*
X140092212Y-63213754D01*
X140134469Y-63192070D01*
X140181445Y-63178984D01*
X140238517Y-63174302D01*
X140292381Y-63178074D01*
X140337741Y-63188675D01*
X140376025Y-63205382D01*
X140426389Y-63242036D01*
X140466151Y-63289767D01*
X140495333Y-63346375D01*
X140515610Y-63413721D01*
X140526798Y-63485632D01*
X140530631Y-63563014D01*
X140527109Y-63642459D01*
X140516831Y-63716399D01*
X140499098Y-63785968D01*
X140475615Y-63842428D01*
G37*
G36*
X140103881Y-62150110D02*
G01*
X140184847Y-62167919D01*
X140256741Y-62196555D01*
X140320880Y-62235872D01*
X140378224Y-62286357D01*
X140426336Y-62345446D01*
X140464077Y-62411759D01*
X140491720Y-62486313D01*
X140508974Y-62570454D01*
X140515000Y-62665788D01*
X140515000Y-63012796D01*
X139534120Y-63012796D01*
X139534120Y-62684228D01*
X139713761Y-62684228D01*
X139713761Y-62792184D01*
X140336031Y-62792184D01*
X140336031Y-62682885D01*
X140330118Y-62611976D01*
X140313394Y-62552076D01*
X140286677Y-62501162D01*
X140249813Y-62457754D01*
X140204516Y-62423090D01*
X140151367Y-62397730D01*
X140088844Y-62381769D01*
X140014973Y-62376116D01*
X139945427Y-62381696D01*
X139886665Y-62397464D01*
X139836753Y-62422582D01*
X139794239Y-62457083D01*
X139760195Y-62499782D01*
X139735204Y-62550693D01*
X139719392Y-62611459D01*
X139713761Y-62684228D01*
X139534120Y-62684228D01*
X139534120Y-62665788D01*
X139540005Y-62556413D01*
X139556434Y-62464655D01*
X139581940Y-62387885D01*
X139615605Y-62323829D01*
X139657109Y-62270649D01*
X139706751Y-62227032D01*
X139765430Y-62192272D01*
X139834584Y-62166319D01*
X139916098Y-62149784D01*
X140012226Y-62143902D01*
X140103881Y-62150110D01*
G37*
G36*
X140515000Y-61381681D02*
G01*
X140297562Y-61451352D01*
X140297562Y-61799764D01*
X140515000Y-61868702D01*
X140515000Y-62107815D01*
X139534120Y-61751221D01*
X139534120Y-61623482D01*
X139709242Y-61623482D01*
X139709242Y-61628977D01*
X139751967Y-61634915D01*
X139794666Y-61646013D01*
X140128119Y-61752625D01*
X140128119Y-61501910D01*
X139797353Y-61607117D01*
X139758547Y-61616697D01*
X139709242Y-61623482D01*
X139534120Y-61623482D01*
X139534120Y-61489576D01*
X140515000Y-61141224D01*
X140515000Y-61381681D01*
G37*
D13*
X148833333Y-90822319D02*
X148500000Y-90346128D01*
X148261905Y-90822319D02*
X148261905Y-89822319D01*
X148261905Y-89822319D02*
X148642857Y-89822319D01*
X148642857Y-89822319D02*
X148738095Y-89869938D01*
X148738095Y-89869938D02*
X148785714Y-89917557D01*
X148785714Y-89917557D02*
X148833333Y-90012795D01*
X148833333Y-90012795D02*
X148833333Y-90155652D01*
X148833333Y-90155652D02*
X148785714Y-90250890D01*
X148785714Y-90250890D02*
X148738095Y-90298509D01*
X148738095Y-90298509D02*
X148642857Y-90346128D01*
X148642857Y-90346128D02*
X148261905Y-90346128D01*
X149738095Y-89822319D02*
X149261905Y-89822319D01*
X149261905Y-89822319D02*
X149214286Y-90298509D01*
X149214286Y-90298509D02*
X149261905Y-90250890D01*
X149261905Y-90250890D02*
X149357143Y-90203271D01*
X149357143Y-90203271D02*
X149595238Y-90203271D01*
X149595238Y-90203271D02*
X149690476Y-90250890D01*
X149690476Y-90250890D02*
X149738095Y-90298509D01*
X149738095Y-90298509D02*
X149785714Y-90393747D01*
X149785714Y-90393747D02*
X149785714Y-90631842D01*
X149785714Y-90631842D02*
X149738095Y-90727080D01*
X149738095Y-90727080D02*
X149690476Y-90774700D01*
X149690476Y-90774700D02*
X149595238Y-90822319D01*
X149595238Y-90822319D02*
X149357143Y-90822319D01*
X149357143Y-90822319D02*
X149261905Y-90774700D01*
X149261905Y-90774700D02*
X149214286Y-90727080D01*
X130833333Y-94887319D02*
X130500000Y-94411128D01*
X130261905Y-94887319D02*
X130261905Y-93887319D01*
X130261905Y-93887319D02*
X130642857Y-93887319D01*
X130642857Y-93887319D02*
X130738095Y-93934938D01*
X130738095Y-93934938D02*
X130785714Y-93982557D01*
X130785714Y-93982557D02*
X130833333Y-94077795D01*
X130833333Y-94077795D02*
X130833333Y-94220652D01*
X130833333Y-94220652D02*
X130785714Y-94315890D01*
X130785714Y-94315890D02*
X130738095Y-94363509D01*
X130738095Y-94363509D02*
X130642857Y-94411128D01*
X130642857Y-94411128D02*
X130261905Y-94411128D01*
X131214286Y-93982557D02*
X131261905Y-93934938D01*
X131261905Y-93934938D02*
X131357143Y-93887319D01*
X131357143Y-93887319D02*
X131595238Y-93887319D01*
X131595238Y-93887319D02*
X131690476Y-93934938D01*
X131690476Y-93934938D02*
X131738095Y-93982557D01*
X131738095Y-93982557D02*
X131785714Y-94077795D01*
X131785714Y-94077795D02*
X131785714Y-94173033D01*
X131785714Y-94173033D02*
X131738095Y-94315890D01*
X131738095Y-94315890D02*
X131166667Y-94887319D01*
X131166667Y-94887319D02*
X131785714Y-94887319D01*
X148833333Y-94822319D02*
X148500000Y-94346128D01*
X148261905Y-94822319D02*
X148261905Y-93822319D01*
X148261905Y-93822319D02*
X148642857Y-93822319D01*
X148642857Y-93822319D02*
X148738095Y-93869938D01*
X148738095Y-93869938D02*
X148785714Y-93917557D01*
X148785714Y-93917557D02*
X148833333Y-94012795D01*
X148833333Y-94012795D02*
X148833333Y-94155652D01*
X148833333Y-94155652D02*
X148785714Y-94250890D01*
X148785714Y-94250890D02*
X148738095Y-94298509D01*
X148738095Y-94298509D02*
X148642857Y-94346128D01*
X148642857Y-94346128D02*
X148261905Y-94346128D01*
X149690476Y-93822319D02*
X149500000Y-93822319D01*
X149500000Y-93822319D02*
X149404762Y-93869938D01*
X149404762Y-93869938D02*
X149357143Y-93917557D01*
X149357143Y-93917557D02*
X149261905Y-94060414D01*
X149261905Y-94060414D02*
X149214286Y-94250890D01*
X149214286Y-94250890D02*
X149214286Y-94631842D01*
X149214286Y-94631842D02*
X149261905Y-94727080D01*
X149261905Y-94727080D02*
X149309524Y-94774700D01*
X149309524Y-94774700D02*
X149404762Y-94822319D01*
X149404762Y-94822319D02*
X149595238Y-94822319D01*
X149595238Y-94822319D02*
X149690476Y-94774700D01*
X149690476Y-94774700D02*
X149738095Y-94727080D01*
X149738095Y-94727080D02*
X149785714Y-94631842D01*
X149785714Y-94631842D02*
X149785714Y-94393747D01*
X149785714Y-94393747D02*
X149738095Y-94298509D01*
X149738095Y-94298509D02*
X149690476Y-94250890D01*
X149690476Y-94250890D02*
X149595238Y-94203271D01*
X149595238Y-94203271D02*
X149404762Y-94203271D01*
X149404762Y-94203271D02*
X149309524Y-94250890D01*
X149309524Y-94250890D02*
X149261905Y-94298509D01*
X149261905Y-94298509D02*
X149214286Y-94393747D01*
X130833333Y-90887319D02*
X130500000Y-90411128D01*
X130261905Y-90887319D02*
X130261905Y-89887319D01*
X130261905Y-89887319D02*
X130642857Y-89887319D01*
X130642857Y-89887319D02*
X130738095Y-89934938D01*
X130738095Y-89934938D02*
X130785714Y-89982557D01*
X130785714Y-89982557D02*
X130833333Y-90077795D01*
X130833333Y-90077795D02*
X130833333Y-90220652D01*
X130833333Y-90220652D02*
X130785714Y-90315890D01*
X130785714Y-90315890D02*
X130738095Y-90363509D01*
X130738095Y-90363509D02*
X130642857Y-90411128D01*
X130642857Y-90411128D02*
X130261905Y-90411128D01*
X131785714Y-90887319D02*
X131214286Y-90887319D01*
X131500000Y-90887319D02*
X131500000Y-89887319D01*
X131500000Y-89887319D02*
X131404762Y-90030176D01*
X131404762Y-90030176D02*
X131309524Y-90125414D01*
X131309524Y-90125414D02*
X131214286Y-90173033D01*
X139285714Y-94637319D02*
X139285714Y-93637319D01*
X139285714Y-93637319D02*
X139523809Y-93637319D01*
X139523809Y-93637319D02*
X139666666Y-93684938D01*
X139666666Y-93684938D02*
X139761904Y-93780176D01*
X139761904Y-93780176D02*
X139809523Y-93875414D01*
X139809523Y-93875414D02*
X139857142Y-94065890D01*
X139857142Y-94065890D02*
X139857142Y-94208747D01*
X139857142Y-94208747D02*
X139809523Y-94399223D01*
X139809523Y-94399223D02*
X139761904Y-94494461D01*
X139761904Y-94494461D02*
X139666666Y-94589700D01*
X139666666Y-94589700D02*
X139523809Y-94637319D01*
X139523809Y-94637319D02*
X139285714Y-94637319D01*
X140238095Y-94589700D02*
X140380952Y-94637319D01*
X140380952Y-94637319D02*
X140619047Y-94637319D01*
X140619047Y-94637319D02*
X140714285Y-94589700D01*
X140714285Y-94589700D02*
X140761904Y-94542080D01*
X140761904Y-94542080D02*
X140809523Y-94446842D01*
X140809523Y-94446842D02*
X140809523Y-94351604D01*
X140809523Y-94351604D02*
X140761904Y-94256366D01*
X140761904Y-94256366D02*
X140714285Y-94208747D01*
X140714285Y-94208747D02*
X140619047Y-94161128D01*
X140619047Y-94161128D02*
X140428571Y-94113509D01*
X140428571Y-94113509D02*
X140333333Y-94065890D01*
X140333333Y-94065890D02*
X140285714Y-94018271D01*
X140285714Y-94018271D02*
X140238095Y-93923033D01*
X140238095Y-93923033D02*
X140238095Y-93827795D01*
X140238095Y-93827795D02*
X140285714Y-93732557D01*
X140285714Y-93732557D02*
X140333333Y-93684938D01*
X140333333Y-93684938D02*
X140428571Y-93637319D01*
X140428571Y-93637319D02*
X140666666Y-93637319D01*
X140666666Y-93637319D02*
X140809523Y-93684938D01*
X141761904Y-94637319D02*
X141190476Y-94637319D01*
X141476190Y-94637319D02*
X141476190Y-93637319D01*
X141476190Y-93637319D02*
X141380952Y-93780176D01*
X141380952Y-93780176D02*
X141285714Y-93875414D01*
X141285714Y-93875414D02*
X141190476Y-93923033D01*
X130833333Y-98887319D02*
X130500000Y-98411128D01*
X130261905Y-98887319D02*
X130261905Y-97887319D01*
X130261905Y-97887319D02*
X130642857Y-97887319D01*
X130642857Y-97887319D02*
X130738095Y-97934938D01*
X130738095Y-97934938D02*
X130785714Y-97982557D01*
X130785714Y-97982557D02*
X130833333Y-98077795D01*
X130833333Y-98077795D02*
X130833333Y-98220652D01*
X130833333Y-98220652D02*
X130785714Y-98315890D01*
X130785714Y-98315890D02*
X130738095Y-98363509D01*
X130738095Y-98363509D02*
X130642857Y-98411128D01*
X130642857Y-98411128D02*
X130261905Y-98411128D01*
X131166667Y-97887319D02*
X131785714Y-97887319D01*
X131785714Y-97887319D02*
X131452381Y-98268271D01*
X131452381Y-98268271D02*
X131595238Y-98268271D01*
X131595238Y-98268271D02*
X131690476Y-98315890D01*
X131690476Y-98315890D02*
X131738095Y-98363509D01*
X131738095Y-98363509D02*
X131785714Y-98458747D01*
X131785714Y-98458747D02*
X131785714Y-98696842D01*
X131785714Y-98696842D02*
X131738095Y-98792080D01*
X131738095Y-98792080D02*
X131690476Y-98839700D01*
X131690476Y-98839700D02*
X131595238Y-98887319D01*
X131595238Y-98887319D02*
X131309524Y-98887319D01*
X131309524Y-98887319D02*
X131214286Y-98839700D01*
X131214286Y-98839700D02*
X131166667Y-98792080D01*
X131484580Y-67166666D02*
X131532200Y-67214285D01*
X131532200Y-67214285D02*
X131579819Y-67357142D01*
X131579819Y-67357142D02*
X131579819Y-67452380D01*
X131579819Y-67452380D02*
X131532200Y-67595237D01*
X131532200Y-67595237D02*
X131436961Y-67690475D01*
X131436961Y-67690475D02*
X131341723Y-67738094D01*
X131341723Y-67738094D02*
X131151247Y-67785713D01*
X131151247Y-67785713D02*
X131008390Y-67785713D01*
X131008390Y-67785713D02*
X130817914Y-67738094D01*
X130817914Y-67738094D02*
X130722676Y-67690475D01*
X130722676Y-67690475D02*
X130627438Y-67595237D01*
X130627438Y-67595237D02*
X130579819Y-67452380D01*
X130579819Y-67452380D02*
X130579819Y-67357142D01*
X130579819Y-67357142D02*
X130627438Y-67214285D01*
X130627438Y-67214285D02*
X130675057Y-67166666D01*
X131579819Y-66214285D02*
X131579819Y-66785713D01*
X131579819Y-66499999D02*
X130579819Y-66499999D01*
X130579819Y-66499999D02*
X130722676Y-66595237D01*
X130722676Y-66595237D02*
X130817914Y-66690475D01*
X130817914Y-66690475D02*
X130865533Y-66785713D01*
X148833333Y-98822319D02*
X148500000Y-98346128D01*
X148261905Y-98822319D02*
X148261905Y-97822319D01*
X148261905Y-97822319D02*
X148642857Y-97822319D01*
X148642857Y-97822319D02*
X148738095Y-97869938D01*
X148738095Y-97869938D02*
X148785714Y-97917557D01*
X148785714Y-97917557D02*
X148833333Y-98012795D01*
X148833333Y-98012795D02*
X148833333Y-98155652D01*
X148833333Y-98155652D02*
X148785714Y-98250890D01*
X148785714Y-98250890D02*
X148738095Y-98298509D01*
X148738095Y-98298509D02*
X148642857Y-98346128D01*
X148642857Y-98346128D02*
X148261905Y-98346128D01*
X149166667Y-97822319D02*
X149833333Y-97822319D01*
X149833333Y-97822319D02*
X149404762Y-98822319D01*
X139238095Y-69504819D02*
X139238095Y-70314342D01*
X139238095Y-70314342D02*
X139285714Y-70409580D01*
X139285714Y-70409580D02*
X139333333Y-70457200D01*
X139333333Y-70457200D02*
X139428571Y-70504819D01*
X139428571Y-70504819D02*
X139619047Y-70504819D01*
X139619047Y-70504819D02*
X139714285Y-70457200D01*
X139714285Y-70457200D02*
X139761904Y-70409580D01*
X139761904Y-70409580D02*
X139809523Y-70314342D01*
X139809523Y-70314342D02*
X139809523Y-69504819D01*
X140809523Y-70504819D02*
X140238095Y-70504819D01*
X140523809Y-70504819D02*
X140523809Y-69504819D01*
X140523809Y-69504819D02*
X140428571Y-69647676D01*
X140428571Y-69647676D02*
X140333333Y-69742914D01*
X140333333Y-69742914D02*
X140238095Y-69790533D01*
X130833333Y-102887319D02*
X130500000Y-102411128D01*
X130261905Y-102887319D02*
X130261905Y-101887319D01*
X130261905Y-101887319D02*
X130642857Y-101887319D01*
X130642857Y-101887319D02*
X130738095Y-101934938D01*
X130738095Y-101934938D02*
X130785714Y-101982557D01*
X130785714Y-101982557D02*
X130833333Y-102077795D01*
X130833333Y-102077795D02*
X130833333Y-102220652D01*
X130833333Y-102220652D02*
X130785714Y-102315890D01*
X130785714Y-102315890D02*
X130738095Y-102363509D01*
X130738095Y-102363509D02*
X130642857Y-102411128D01*
X130642857Y-102411128D02*
X130261905Y-102411128D01*
X131690476Y-102220652D02*
X131690476Y-102887319D01*
X131452381Y-101839700D02*
X131214286Y-102553985D01*
X131214286Y-102553985D02*
X131833333Y-102553985D01*
X148833333Y-102822319D02*
X148500000Y-102346128D01*
X148261905Y-102822319D02*
X148261905Y-101822319D01*
X148261905Y-101822319D02*
X148642857Y-101822319D01*
X148642857Y-101822319D02*
X148738095Y-101869938D01*
X148738095Y-101869938D02*
X148785714Y-101917557D01*
X148785714Y-101917557D02*
X148833333Y-102012795D01*
X148833333Y-102012795D02*
X148833333Y-102155652D01*
X148833333Y-102155652D02*
X148785714Y-102250890D01*
X148785714Y-102250890D02*
X148738095Y-102298509D01*
X148738095Y-102298509D02*
X148642857Y-102346128D01*
X148642857Y-102346128D02*
X148261905Y-102346128D01*
X149404762Y-102250890D02*
X149309524Y-102203271D01*
X149309524Y-102203271D02*
X149261905Y-102155652D01*
X149261905Y-102155652D02*
X149214286Y-102060414D01*
X149214286Y-102060414D02*
X149214286Y-102012795D01*
X149214286Y-102012795D02*
X149261905Y-101917557D01*
X149261905Y-101917557D02*
X149309524Y-101869938D01*
X149309524Y-101869938D02*
X149404762Y-101822319D01*
X149404762Y-101822319D02*
X149595238Y-101822319D01*
X149595238Y-101822319D02*
X149690476Y-101869938D01*
X149690476Y-101869938D02*
X149738095Y-101917557D01*
X149738095Y-101917557D02*
X149785714Y-102012795D01*
X149785714Y-102012795D02*
X149785714Y-102060414D01*
X149785714Y-102060414D02*
X149738095Y-102155652D01*
X149738095Y-102155652D02*
X149690476Y-102203271D01*
X149690476Y-102203271D02*
X149595238Y-102250890D01*
X149595238Y-102250890D02*
X149404762Y-102250890D01*
X149404762Y-102250890D02*
X149309524Y-102298509D01*
X149309524Y-102298509D02*
X149261905Y-102346128D01*
X149261905Y-102346128D02*
X149214286Y-102441366D01*
X149214286Y-102441366D02*
X149214286Y-102631842D01*
X149214286Y-102631842D02*
X149261905Y-102727080D01*
X149261905Y-102727080D02*
X149309524Y-102774700D01*
X149309524Y-102774700D02*
X149404762Y-102822319D01*
X149404762Y-102822319D02*
X149595238Y-102822319D01*
X149595238Y-102822319D02*
X149690476Y-102774700D01*
X149690476Y-102774700D02*
X149738095Y-102727080D01*
X149738095Y-102727080D02*
X149785714Y-102631842D01*
X149785714Y-102631842D02*
X149785714Y-102441366D01*
X149785714Y-102441366D02*
X149738095Y-102346128D01*
X149738095Y-102346128D02*
X149690476Y-102298509D01*
X149690476Y-102298509D02*
X149595238Y-102250890D01*
X146738095Y-76004819D02*
X146738095Y-76814342D01*
X146738095Y-76814342D02*
X146785714Y-76909580D01*
X146785714Y-76909580D02*
X146833333Y-76957200D01*
X146833333Y-76957200D02*
X146928571Y-77004819D01*
X146928571Y-77004819D02*
X147119047Y-77004819D01*
X147119047Y-77004819D02*
X147214285Y-76957200D01*
X147214285Y-76957200D02*
X147261904Y-76909580D01*
X147261904Y-76909580D02*
X147309523Y-76814342D01*
X147309523Y-76814342D02*
X147309523Y-76004819D01*
X147738095Y-76100057D02*
X147785714Y-76052438D01*
X147785714Y-76052438D02*
X147880952Y-76004819D01*
X147880952Y-76004819D02*
X148119047Y-76004819D01*
X148119047Y-76004819D02*
X148214285Y-76052438D01*
X148214285Y-76052438D02*
X148261904Y-76100057D01*
X148261904Y-76100057D02*
X148309523Y-76195295D01*
X148309523Y-76195295D02*
X148309523Y-76290533D01*
X148309523Y-76290533D02*
X148261904Y-76433390D01*
X148261904Y-76433390D02*
X147690476Y-77004819D01*
X147690476Y-77004819D02*
X148309523Y-77004819D01*
D14*
%TO.C,R5*%
X149727064Y-89457500D02*
X148272936Y-89457500D01*
X149727064Y-91277500D02*
X148272936Y-91277500D01*
%TO.C,R2*%
X130272936Y-93522500D02*
X131727064Y-93522500D01*
X130272936Y-95342500D02*
X131727064Y-95342500D01*
%TO.C,R6*%
X149727064Y-93457500D02*
X148272936Y-93457500D01*
X149727064Y-95277500D02*
X148272936Y-95277500D01*
%TO.C,R1*%
X130272936Y-89522500D02*
X131727064Y-89522500D01*
X130272936Y-91342500D02*
X131727064Y-91342500D01*
D13*
%TO.C,DS1*%
X135100000Y-102932500D02*
X135100000Y-89932500D01*
X144900000Y-89932500D02*
X144900000Y-102932500D01*
D15*
G36*
X141489382Y-100368063D02*
G01*
X141587498Y-100486267D01*
X141676575Y-100595012D01*
X141751948Y-100688489D01*
X141808953Y-100760887D01*
X141842925Y-100806398D01*
X141849478Y-100816599D01*
X141860114Y-100843519D01*
X141858708Y-100870762D01*
X141840999Y-100903460D01*
X141802725Y-100946744D01*
X141739625Y-101005744D01*
X141647437Y-101085593D01*
X141575742Y-101146188D01*
X141356179Y-101330941D01*
X139239294Y-101331370D01*
X137122409Y-101331800D01*
X136932478Y-101110667D01*
X136849978Y-101010618D01*
X136789939Y-100929379D01*
X136755954Y-100872116D01*
X136754754Y-100867469D01*
X136976585Y-100867469D01*
X136990190Y-100890765D01*
X137026002Y-100939681D01*
X137076696Y-101004279D01*
X137084567Y-101014011D01*
X137192435Y-101146905D01*
X139241890Y-101146905D01*
X141291345Y-101146905D01*
X141468830Y-100995466D01*
X141646316Y-100844027D01*
X141489691Y-100653553D01*
X141406369Y-100552213D01*
X141316624Y-100443045D01*
X141235147Y-100343920D01*
X141205951Y-100308395D01*
X141078836Y-100153710D01*
X139445323Y-100153401D01*
X137811810Y-100153092D01*
X137394140Y-100503457D01*
X137276570Y-100602639D01*
X137171813Y-100692080D01*
X137084775Y-100767505D01*
X137020361Y-100824636D01*
X136983478Y-100859197D01*
X136976585Y-100867469D01*
X136754754Y-100867469D01*
X136749727Y-100848007D01*
X136768738Y-100822859D01*
X136818842Y-100772525D01*
X136895439Y-100701186D01*
X136993925Y-100613025D01*
X137109699Y-100512222D01*
X137238158Y-100402958D01*
X137256757Y-100387338D01*
X137756607Y-99968197D01*
X139455970Y-99968197D01*
X141155333Y-99968197D01*
X141489382Y-100368063D01*
G37*
G36*
X143714656Y-99976274D02*
G01*
X143794246Y-99989171D01*
X143800474Y-99990379D01*
X143933915Y-100026284D01*
X144041525Y-100081355D01*
X144140455Y-100165549D01*
X144184984Y-100213626D01*
X144279747Y-100352468D01*
X144333244Y-100508628D01*
X144347414Y-100671449D01*
X144337975Y-100799799D01*
X144308681Y-100903690D01*
X144252557Y-101001307D01*
X144191389Y-101078182D01*
X144094392Y-101176433D01*
X143995241Y-101242342D01*
X143880803Y-101281954D01*
X143737949Y-101301311D01*
X143702038Y-101303421D01*
X143601962Y-101306877D01*
X143531745Y-101303603D01*
X143475187Y-101290731D01*
X143416086Y-101265390D01*
X143378565Y-101246120D01*
X143241080Y-101149630D01*
X143134136Y-101025314D01*
X143060172Y-100880942D01*
X143021628Y-100724288D01*
X143021478Y-100688961D01*
X143194826Y-100688961D01*
X143227408Y-100814796D01*
X143262188Y-100884429D01*
X143355805Y-101006122D01*
X143472637Y-101090519D01*
X143606668Y-101135073D01*
X143751879Y-101137233D01*
X143824008Y-101122403D01*
X143942181Y-101066823D01*
X144041383Y-100975877D01*
X144115169Y-100858694D01*
X144157095Y-100724402D01*
X144164277Y-100640416D01*
X144147154Y-100501799D01*
X144092813Y-100385079D01*
X143996799Y-100280695D01*
X143996487Y-100280428D01*
X143871641Y-100200723D01*
X143738502Y-100162984D01*
X143604543Y-100165722D01*
X143477233Y-100207449D01*
X143364043Y-100286679D01*
X143272443Y-100401923D01*
X143258257Y-100427460D01*
X143205134Y-100562714D01*
X143194826Y-100688961D01*
X143021478Y-100688961D01*
X143020943Y-100563123D01*
X143060557Y-100405219D01*
X143092891Y-100335988D01*
X143187117Y-100201364D01*
X143307853Y-100099616D01*
X143461737Y-100025438D01*
X143495481Y-100013954D01*
X143585207Y-99987125D01*
X143651620Y-99975078D01*
X143714656Y-99976274D01*
G37*
G36*
X142172511Y-95998724D02*
G01*
X142259156Y-96104332D01*
X142332892Y-96199332D01*
X142388997Y-96277248D01*
X142422748Y-96331605D01*
X142430559Y-96352613D01*
X142413241Y-96397460D01*
X142370394Y-96444706D01*
X142363016Y-96450444D01*
X142323278Y-96481762D01*
X142255720Y-96537079D01*
X142167637Y-96610337D01*
X142066324Y-96695477D01*
X141982143Y-96766801D01*
X141669137Y-97032983D01*
X139952603Y-97032500D01*
X138236069Y-97032018D01*
X137993394Y-96739853D01*
X137895080Y-96621293D01*
X137822789Y-96533025D01*
X137772972Y-96469812D01*
X137742083Y-96426416D01*
X137730968Y-96405762D01*
X137968553Y-96405762D01*
X137972643Y-96423343D01*
X137976845Y-96429049D01*
X138004075Y-96461546D01*
X138053413Y-96520675D01*
X138117423Y-96597517D01*
X138176875Y-96668970D01*
X138345050Y-96871199D01*
X139966174Y-96870880D01*
X141587298Y-96870561D01*
X141899309Y-96605960D01*
X141999520Y-96519657D01*
X142085518Y-96443064D01*
X142151802Y-96381290D01*
X142192872Y-96339445D01*
X142203788Y-96323159D01*
X142186829Y-96299213D01*
X142146234Y-96247495D01*
X142088094Y-96175630D01*
X142018893Y-96091712D01*
X141841529Y-95878467D01*
X140200583Y-95878343D01*
X138559636Y-95878220D01*
X138252314Y-96134789D01*
X138140711Y-96228657D01*
X138060820Y-96298109D01*
X138008355Y-96347724D01*
X137979028Y-96382082D01*
X137968553Y-96405762D01*
X137730968Y-96405762D01*
X137726576Y-96397602D01*
X137722901Y-96378131D01*
X137727514Y-96362767D01*
X137732237Y-96354273D01*
X137754857Y-96330533D01*
X137807548Y-96282167D01*
X137884780Y-96214034D01*
X137981025Y-96130992D01*
X138090752Y-96037898D01*
X138126836Y-96007594D01*
X138502952Y-95692492D01*
X140208870Y-95692492D01*
X141914787Y-95692492D01*
X142172511Y-95998724D01*
G37*
G36*
X141238691Y-91416192D02*
G01*
X141535038Y-91416337D01*
X141814754Y-91416602D01*
X142074610Y-91416977D01*
X142311372Y-91417453D01*
X142521811Y-91418023D01*
X142702695Y-91418675D01*
X142850792Y-91419403D01*
X142962871Y-91420196D01*
X143035700Y-91421045D01*
X143066049Y-91421943D01*
X143066745Y-91422089D01*
X143082584Y-91441265D01*
X143122018Y-91488940D01*
X143179168Y-91558007D01*
X143248155Y-91641360D01*
X143250743Y-91644487D01*
X143329506Y-91742054D01*
X143380361Y-91811715D01*
X143406949Y-91859344D01*
X143412910Y-91890820D01*
X143409841Y-91901264D01*
X143386675Y-91927829D01*
X143333394Y-91978622D01*
X143255643Y-92048586D01*
X143159069Y-92132666D01*
X143049320Y-92225804D01*
X143020237Y-92250119D01*
X142900473Y-92350113D01*
X142784920Y-92446902D01*
X142681198Y-92534081D01*
X142596923Y-92605245D01*
X142539714Y-92653990D01*
X142535283Y-92657809D01*
X142420121Y-92757278D01*
X140715398Y-92757278D01*
X139010675Y-92757278D01*
X138954946Y-92693720D01*
X138866778Y-92591936D01*
X138771138Y-92479443D01*
X138672986Y-92362302D01*
X138577282Y-92246573D01*
X138488985Y-92138319D01*
X138413054Y-92043600D01*
X138354450Y-91968477D01*
X138318132Y-91919012D01*
X138309353Y-91904726D01*
X138307568Y-91899663D01*
X138529695Y-91899663D01*
X138546042Y-91921468D01*
X138587371Y-91972795D01*
X138648892Y-92047808D01*
X138725819Y-92140668D01*
X138811839Y-92243719D01*
X139087154Y-92572382D01*
X140724675Y-92572382D01*
X142362196Y-92572382D01*
X142777886Y-92222891D01*
X142895086Y-92123892D01*
X142999492Y-92034811D01*
X143086197Y-91959911D01*
X143150292Y-91903451D01*
X143186870Y-91869691D01*
X143193576Y-91862017D01*
X143179511Y-91840404D01*
X143142232Y-91793366D01*
X143089118Y-91730129D01*
X143075730Y-91714602D01*
X142957883Y-91578570D01*
X140918800Y-91578570D01*
X138879716Y-91578570D01*
X138701291Y-91731421D01*
X138627424Y-91796651D01*
X138569879Y-91851215D01*
X138535791Y-91888115D01*
X138529695Y-91899663D01*
X138307568Y-91899663D01*
X138300988Y-91880995D01*
X138302306Y-91857175D01*
X138317514Y-91828672D01*
X138350823Y-91790889D01*
X138406441Y-91739231D01*
X138488578Y-91669102D01*
X138601442Y-91575905D01*
X138637713Y-91546205D01*
X138796234Y-91416514D01*
X140928946Y-91416175D01*
X141238691Y-91416192D01*
G37*
G36*
X143542922Y-92010023D02*
G01*
X143587980Y-92046280D01*
X143596439Y-92055694D01*
X143725249Y-92208840D01*
X143822143Y-92328903D01*
X143887277Y-92416088D01*
X143920806Y-92470601D01*
X143925359Y-92490034D01*
X143919718Y-92516706D01*
X143906735Y-92585115D01*
X143887096Y-92691475D01*
X143861481Y-92832001D01*
X143830576Y-93002910D01*
X143795062Y-93200414D01*
X143755624Y-93420729D01*
X143712945Y-93660070D01*
X143667708Y-93914652D01*
X143642016Y-94059622D01*
X143368759Y-95602925D01*
X142991390Y-95925051D01*
X142877780Y-96020384D01*
X142773827Y-96104518D01*
X142685312Y-96173021D01*
X142618019Y-96221460D01*
X142577728Y-96245404D01*
X142571152Y-96247178D01*
X142539382Y-96229319D01*
X142482828Y-96177897D01*
X142404687Y-96096140D01*
X142308154Y-95987278D01*
X142271576Y-95944503D01*
X142166330Y-95817887D01*
X142090730Y-95720767D01*
X142042201Y-95649499D01*
X142018167Y-95600436D01*
X142014434Y-95580491D01*
X142015719Y-95569414D01*
X142191615Y-95569414D01*
X142383462Y-95793703D01*
X142457131Y-95877566D01*
X142521015Y-95946066D01*
X142568831Y-95992765D01*
X142594296Y-96011224D01*
X142595716Y-96011190D01*
X142619462Y-95994642D01*
X142671981Y-95953273D01*
X142746883Y-95892266D01*
X142837778Y-95816803D01*
X142903221Y-95761770D01*
X143000633Y-95678599D01*
X143085175Y-95604803D01*
X143150654Y-95545916D01*
X143190875Y-95507475D01*
X143200557Y-95496040D01*
X143206268Y-95469838D01*
X143219313Y-95401983D01*
X143238989Y-95296343D01*
X143264593Y-95156785D01*
X143295425Y-94987178D01*
X143330781Y-94791388D01*
X143369959Y-94573284D01*
X143412258Y-94336732D01*
X143456974Y-94085601D01*
X143472162Y-94000072D01*
X143525212Y-93701850D01*
X143570807Y-93445669D01*
X143609194Y-93227996D01*
X143640621Y-93045296D01*
X143665336Y-92894032D01*
X143683586Y-92770671D01*
X143695619Y-92671678D01*
X143701684Y-92593516D01*
X143702027Y-92532652D01*
X143696896Y-92485549D01*
X143686540Y-92448674D01*
X143671205Y-92418491D01*
X143651140Y-92391465D01*
X143626592Y-92364061D01*
X143597809Y-92332744D01*
X143589653Y-92323513D01*
X143503610Y-92224871D01*
X143088584Y-92573031D01*
X142969905Y-92674148D01*
X142863091Y-92768127D01*
X142773368Y-92850126D01*
X142705963Y-92915305D01*
X142666104Y-92958821D01*
X142657696Y-92972127D01*
X142650804Y-93003891D01*
X142636698Y-93076886D01*
X142616161Y-93186818D01*
X142589975Y-93329391D01*
X142558921Y-93500311D01*
X142523780Y-93695281D01*
X142485335Y-93910007D01*
X142444367Y-94140193D01*
X142416725Y-94296239D01*
X142191615Y-95569414D01*
X142015719Y-95569414D01*
X142018316Y-95547024D01*
X142029648Y-95472279D01*
X142047714Y-95360478D01*
X142071800Y-95215838D01*
X142101190Y-95042581D01*
X142135170Y-94844927D01*
X142173024Y-94627094D01*
X142214037Y-94393303D01*
X142251331Y-94182466D01*
X142488663Y-92845779D01*
X142982065Y-92430139D01*
X143111828Y-92321342D01*
X143231135Y-92222292D01*
X143335129Y-92136940D01*
X143418958Y-92069240D01*
X143477766Y-92023144D01*
X143506700Y-92002604D01*
X143507798Y-92002094D01*
X143542922Y-92010023D01*
G37*
G36*
X142574751Y-96491322D02*
G01*
X142582517Y-96495985D01*
X142609491Y-96522030D01*
X142657711Y-96575459D01*
X142721272Y-96649092D01*
X142794270Y-96735750D01*
X142870799Y-96828253D01*
X142944954Y-96919422D01*
X143010829Y-97002076D01*
X143062521Y-97069038D01*
X143094123Y-97113126D01*
X143101129Y-97126520D01*
X143097237Y-97152815D01*
X143085992Y-97220914D01*
X143068033Y-97327090D01*
X143044005Y-97467622D01*
X143014548Y-97638783D01*
X142980304Y-97836851D01*
X142941917Y-98058101D01*
X142900027Y-98298808D01*
X142855277Y-98555249D01*
X142823199Y-98738666D01*
X142545269Y-100326431D01*
X142459186Y-100402498D01*
X142342260Y-100503357D01*
X142233139Y-100592881D01*
X142137635Y-100666666D01*
X142061556Y-100720310D01*
X142010713Y-100749411D01*
X141996163Y-100753382D01*
X141968936Y-100736172D01*
X141918419Y-100688938D01*
X141850354Y-100617627D01*
X141770484Y-100528185D01*
X141709135Y-100456190D01*
X141616360Y-100345097D01*
X141524715Y-100235136D01*
X141442323Y-100136069D01*
X141377310Y-100057660D01*
X141353301Y-100028574D01*
X141245419Y-99897531D01*
X141262690Y-99798402D01*
X141448579Y-99798402D01*
X141451676Y-99825540D01*
X141472523Y-99867711D01*
X141514147Y-99929229D01*
X141579577Y-100014412D01*
X141671841Y-100127573D01*
X141720312Y-100185662D01*
X141821297Y-100303653D01*
X141906754Y-100398601D01*
X141973244Y-100466923D01*
X142017324Y-100505039D01*
X142033557Y-100511668D01*
X142064654Y-100492284D01*
X142120477Y-100450961D01*
X142190461Y-100395612D01*
X142211203Y-100378639D01*
X142281156Y-100318082D01*
X142336387Y-100264901D01*
X142367416Y-100228393D01*
X142370475Y-100222428D01*
X142376409Y-100194159D01*
X142389533Y-100124263D01*
X142409153Y-100016659D01*
X142434568Y-99875263D01*
X142465083Y-99703996D01*
X142500000Y-99506775D01*
X142538622Y-99287518D01*
X142580250Y-99050145D01*
X142624189Y-98798573D01*
X142637849Y-98720153D01*
X142682363Y-98464669D01*
X142724732Y-98221891D01*
X142764260Y-97995777D01*
X142800252Y-97790286D01*
X142832012Y-97609375D01*
X142858847Y-97457004D01*
X142880060Y-97337131D01*
X142894955Y-97253714D01*
X142902839Y-97210711D01*
X142903725Y-97206322D01*
X142896932Y-97170474D01*
X142863423Y-97112248D01*
X142800889Y-97028133D01*
X142728999Y-96940535D01*
X142656770Y-96856727D01*
X142594251Y-96787669D01*
X142547831Y-96740178D01*
X142523899Y-96721071D01*
X142523192Y-96720972D01*
X142500443Y-96734875D01*
X142449647Y-96772627D01*
X142378105Y-96828296D01*
X142293119Y-96895945D01*
X142201992Y-96969643D01*
X142112024Y-97043454D01*
X142030518Y-97111444D01*
X141964776Y-97167680D01*
X141922100Y-97206228D01*
X141909976Y-97219316D01*
X141904151Y-97244620D01*
X141891172Y-97311287D01*
X141871795Y-97415141D01*
X141846775Y-97552001D01*
X141816868Y-97717690D01*
X141782830Y-97908031D01*
X141745416Y-98118843D01*
X141705383Y-98345950D01*
X141679701Y-98492407D01*
X141638298Y-98728722D01*
X141599034Y-98952324D01*
X141562676Y-99158892D01*
X141529987Y-99344102D01*
X141501733Y-99503630D01*
X141478679Y-99633153D01*
X141461590Y-99728350D01*
X141451230Y-99784895D01*
X141448579Y-99798402D01*
X141262690Y-99798402D01*
X141483887Y-98528815D01*
X141541984Y-98197977D01*
X141593134Y-97912279D01*
X141637443Y-97671180D01*
X141675017Y-97474137D01*
X141705961Y-97320607D01*
X141730381Y-97210049D01*
X141748382Y-97141921D01*
X141758831Y-97116827D01*
X141792922Y-97082557D01*
X141853539Y-97027623D01*
X141934245Y-96957349D01*
X142028601Y-96877059D01*
X142130171Y-96792076D01*
X142232516Y-96707725D01*
X142329199Y-96629328D01*
X142413781Y-96562209D01*
X142479826Y-96511692D01*
X142520896Y-96483101D01*
X142530550Y-96478651D01*
X142574751Y-96491322D01*
G37*
G36*
X138173341Y-91974809D02*
G01*
X138195794Y-91987339D01*
X138226181Y-92012840D01*
X138268052Y-92055088D01*
X138324955Y-92117863D01*
X138400439Y-92204941D01*
X138498054Y-92320102D01*
X138621348Y-92467121D01*
X138624902Y-92471371D01*
X138917278Y-92821043D01*
X138673702Y-94204765D01*
X138619540Y-94510856D01*
X138572366Y-94773850D01*
X138531678Y-94996263D01*
X138496976Y-95180611D01*
X138467759Y-95329410D01*
X138443527Y-95445177D01*
X138423779Y-95530427D01*
X138408015Y-95587678D01*
X138395734Y-95619444D01*
X138390877Y-95626430D01*
X138323193Y-95689147D01*
X138236531Y-95765441D01*
X138137275Y-95850128D01*
X138031808Y-95938023D01*
X137926514Y-96023943D01*
X137827777Y-96102703D01*
X137741981Y-96169120D01*
X137675508Y-96218010D01*
X137634743Y-96244188D01*
X137626481Y-96247178D01*
X137595337Y-96229221D01*
X137539698Y-96177553D01*
X137462756Y-96095474D01*
X137367707Y-95986284D01*
X137326548Y-95937220D01*
X137242397Y-95833964D01*
X137169763Y-95740997D01*
X137113494Y-95664839D01*
X137078436Y-95612007D01*
X137068917Y-95590734D01*
X137071916Y-95569904D01*
X137263908Y-95569904D01*
X137282760Y-95599039D01*
X137325231Y-95655293D01*
X137385017Y-95730553D01*
X137455515Y-95816356D01*
X137531324Y-95906447D01*
X137584028Y-95965646D01*
X137619813Y-95998823D01*
X137644861Y-96010847D01*
X137665357Y-96006588D01*
X137682340Y-95994956D01*
X137716143Y-95967486D01*
X137777679Y-95916364D01*
X137859452Y-95847860D01*
X137953963Y-95768245D01*
X138000129Y-95729213D01*
X138093585Y-95649180D01*
X138173068Y-95579351D01*
X138232493Y-95525211D01*
X138265776Y-95492249D01*
X138270737Y-95485202D01*
X138274608Y-95460263D01*
X138285737Y-95393979D01*
X138303402Y-95290535D01*
X138326880Y-95154114D01*
X138355449Y-94988902D01*
X138388384Y-94799083D01*
X138424963Y-94588842D01*
X138464463Y-94362362D01*
X138488717Y-94223549D01*
X138529858Y-93988085D01*
X138568729Y-93765284D01*
X138604577Y-93559494D01*
X138636647Y-93375064D01*
X138664183Y-93216343D01*
X138686431Y-93087677D01*
X138702636Y-92993417D01*
X138712043Y-92937909D01*
X138714059Y-92925385D01*
X138707361Y-92894014D01*
X138679122Y-92842858D01*
X138626854Y-92768360D01*
X138548067Y-92666963D01*
X138444077Y-92539697D01*
X138355868Y-92434628D01*
X138276946Y-92342948D01*
X138212275Y-92270238D01*
X138166820Y-92222076D01*
X138145544Y-92204042D01*
X138145415Y-92204028D01*
X138119122Y-92217800D01*
X138065793Y-92256607D01*
X137992786Y-92314601D01*
X137907455Y-92385936D01*
X137817160Y-92464762D01*
X137815205Y-92466507D01*
X137806684Y-92492834D01*
X137791286Y-92560168D01*
X137769823Y-92663934D01*
X137743108Y-92799559D01*
X137711954Y-92962470D01*
X137677172Y-93148094D01*
X137639576Y-93351856D01*
X137599977Y-93569184D01*
X137559189Y-93795503D01*
X137518023Y-94026241D01*
X137477292Y-94256824D01*
X137437809Y-94482678D01*
X137400386Y-94699230D01*
X137365835Y-94901906D01*
X137334969Y-95086133D01*
X137308600Y-95247338D01*
X137287541Y-95380946D01*
X137272604Y-95482385D01*
X137264602Y-95547081D01*
X137263908Y-95569904D01*
X137071916Y-95569904D01*
X137072783Y-95563885D01*
X137083853Y-95496051D01*
X137101339Y-95391771D01*
X137124452Y-95255588D01*
X137152403Y-95092042D01*
X137184405Y-94905675D01*
X137219667Y-94701029D01*
X137257401Y-94482643D01*
X137296819Y-94255061D01*
X137337132Y-94022822D01*
X137377550Y-93790469D01*
X137417286Y-93562542D01*
X137455550Y-93343583D01*
X137491553Y-93138133D01*
X137524508Y-92950733D01*
X137553625Y-92785925D01*
X137578115Y-92648250D01*
X137597189Y-92542248D01*
X137610060Y-92472462D01*
X137614268Y-92450873D01*
X137635565Y-92408316D01*
X137687063Y-92348148D01*
X137771559Y-92267429D01*
X137872782Y-92179308D01*
X137964603Y-92103713D01*
X138046359Y-92040408D01*
X138110546Y-91994913D01*
X138149662Y-91972748D01*
X138155273Y-91971472D01*
X138173341Y-91974809D01*
G37*
G36*
X137645203Y-96491635D02*
G01*
X137700728Y-96552602D01*
X137769730Y-96632470D01*
X137846529Y-96724169D01*
X137925449Y-96820634D01*
X138000809Y-96914796D01*
X138066931Y-96999587D01*
X138118137Y-97067941D01*
X138148747Y-97112788D01*
X138154910Y-97126009D01*
X138150993Y-97159149D01*
X138139644Y-97232010D01*
X138121732Y-97339795D01*
X138098126Y-97477707D01*
X138069696Y-97640948D01*
X138037311Y-97824721D01*
X138001840Y-98024229D01*
X137964152Y-98234675D01*
X137925117Y-98451261D01*
X137885603Y-98669191D01*
X137846480Y-98883666D01*
X137808617Y-99089890D01*
X137772883Y-99283065D01*
X137740148Y-99458394D01*
X137711281Y-99611080D01*
X137687151Y-99736326D01*
X137668627Y-99829334D01*
X137656578Y-99885308D01*
X137652261Y-99900151D01*
X137571623Y-99968885D01*
X137472423Y-100052598D01*
X137360424Y-100146514D01*
X137241388Y-100245856D01*
X137121078Y-100345849D01*
X137005256Y-100441716D01*
X136899685Y-100528682D01*
X136810127Y-100601969D01*
X136742345Y-100656802D01*
X136702100Y-100688405D01*
X136695435Y-100693195D01*
X136647897Y-100716790D01*
X136613304Y-100709448D01*
X136602987Y-100701876D01*
X136574382Y-100672987D01*
X136524112Y-100616915D01*
X136459759Y-100542273D01*
X136401807Y-100473264D01*
X136235925Y-100273418D01*
X136254557Y-100168467D01*
X136433451Y-100168467D01*
X136437583Y-100209353D01*
X136468492Y-100266876D01*
X136529842Y-100347613D01*
X136540401Y-100360344D01*
X136599629Y-100430286D01*
X136637841Y-100469724D01*
X136663589Y-100483684D01*
X136685423Y-100477192D01*
X136707911Y-100458801D01*
X136740122Y-100431173D01*
X136801682Y-100379154D01*
X136886420Y-100307929D01*
X136988163Y-100222684D01*
X137100739Y-100128605D01*
X137126697Y-100106945D01*
X137237242Y-100014790D01*
X137335013Y-99933400D01*
X137414727Y-99867163D01*
X137471101Y-99820469D01*
X137498850Y-99797707D01*
X137500800Y-99796202D01*
X137505526Y-99773692D01*
X137517606Y-99709691D01*
X137536312Y-99608219D01*
X137560914Y-99473296D01*
X137590684Y-99308942D01*
X137624894Y-99119178D01*
X137662814Y-98908023D01*
X137703717Y-98679499D01*
X137739126Y-98481107D01*
X137789513Y-98197497D01*
X137831999Y-97956007D01*
X137867085Y-97753305D01*
X137895275Y-97586058D01*
X137917071Y-97450932D01*
X137932976Y-97344594D01*
X137943493Y-97263712D01*
X137949125Y-97204953D01*
X137950375Y-97164983D01*
X137947744Y-97140470D01*
X137943009Y-97129520D01*
X137900132Y-97076055D01*
X137842885Y-97006930D01*
X137778242Y-96930276D01*
X137713172Y-96854223D01*
X137654646Y-96786901D01*
X137609637Y-96736439D01*
X137585114Y-96710968D01*
X137582798Y-96709416D01*
X137561972Y-96723431D01*
X137513201Y-96761587D01*
X137443459Y-96818045D01*
X137359717Y-96886971D01*
X137268948Y-96962526D01*
X137178124Y-97038875D01*
X137094218Y-97110181D01*
X137024201Y-97170608D01*
X136975046Y-97214319D01*
X136953725Y-97235478D01*
X136953358Y-97236323D01*
X136949437Y-97261015D01*
X136938225Y-97326542D01*
X136920551Y-97428233D01*
X136897243Y-97561419D01*
X136869129Y-97721428D01*
X136837037Y-97903591D01*
X136801796Y-98103237D01*
X136764232Y-98315696D01*
X136725175Y-98536296D01*
X136685453Y-98760369D01*
X136645893Y-98983244D01*
X136607324Y-99200249D01*
X136570574Y-99406716D01*
X136536472Y-99597972D01*
X136505844Y-99769349D01*
X136479519Y-99916176D01*
X136458326Y-100033782D01*
X136443093Y-100117496D01*
X136434647Y-100162650D01*
X136433451Y-100168467D01*
X136254557Y-100168467D01*
X136513750Y-98708437D01*
X136560343Y-98445870D01*
X136604485Y-98196902D01*
X136645524Y-97965230D01*
X136682805Y-97754552D01*
X136715677Y-97568565D01*
X136743484Y-97410968D01*
X136765576Y-97285457D01*
X136781297Y-97195731D01*
X136789995Y-97145487D01*
X136791574Y-97135769D01*
X136808582Y-97117109D01*
X136855369Y-97074853D01*
X136925584Y-97014233D01*
X137012874Y-96940480D01*
X137110887Y-96858828D01*
X137213270Y-96774509D01*
X137313671Y-96692754D01*
X137405738Y-96618796D01*
X137483118Y-96557868D01*
X137539459Y-96515202D01*
X137568101Y-96496166D01*
X137621010Y-96483015D01*
X137645203Y-96491635D01*
G37*
D14*
%TO.C,R3*%
X130272936Y-97522500D02*
X131727064Y-97522500D01*
X130272936Y-99342500D02*
X131727064Y-99342500D01*
%TO.C,C1*%
X130215000Y-67711252D02*
X130215000Y-66288748D01*
X130215000Y-67727064D02*
X130215000Y-66272936D01*
X132035000Y-67711252D02*
X132035000Y-66288748D01*
X132035000Y-67727064D02*
X132035000Y-66272936D01*
%TO.C,R7*%
X149727064Y-97457500D02*
X148272936Y-97457500D01*
X149727064Y-99277500D02*
X148272936Y-99277500D01*
%TO.C,U1*%
X134790000Y-68650000D02*
X134995000Y-68650000D01*
X134790000Y-74850000D02*
X134790000Y-68650000D01*
X134995000Y-74850000D02*
X134790000Y-74850000D01*
X145005000Y-68650000D02*
X145210000Y-68650000D01*
X145210000Y-74850000D02*
X145005000Y-74850000D01*
X145210000Y-74850000D02*
X145210000Y-68650000D01*
X134984815Y-76516304D02*
X134514815Y-76856304D01*
X134514815Y-76176304D01*
X134984815Y-76516304D01*
G36*
X134984815Y-76516304D02*
G01*
X134514815Y-76856304D01*
X134514815Y-76176304D01*
X134984815Y-76516304D01*
G37*
%TO.C,R4*%
X130272936Y-101522500D02*
X131727064Y-101522500D01*
X130272936Y-103342500D02*
X131727064Y-103342500D01*
%TO.C,R8*%
X149727064Y-101457500D02*
X148272936Y-101457500D01*
X149727064Y-103277500D02*
X148272936Y-103277500D01*
%TO.C,U2*%
X129780000Y-74300000D02*
X129780000Y-75550000D01*
X129780000Y-77550000D02*
X129780000Y-78800000D01*
X129780000Y-78800000D02*
X150220000Y-78800000D01*
X150220000Y-74300000D02*
X129780000Y-74300000D01*
X150220000Y-78800000D02*
X150220000Y-74300000D01*
X129780000Y-75550000D02*
G75*
G02*
X129780000Y-77550000I0J-1000000D01*
G01*
%TD*%
M02*
