%TF.GenerationSoftware,KiCad,Pcbnew,9.0.6*%
%TF.CreationDate,2026-02-11T20:02:57+00:00*%
%TF.ProjectId,solderbit-segment,736f6c64-6572-4626-9974-2d7365676d65,v0.1*%
%TF.SameCoordinates,Original*%
%TF.FileFunction,Soldermask,Top*%
%TF.FilePolarity,Negative*%
%FSLAX46Y46*%
G04 Gerber Fmt 4.6, Leading zero omitted, Abs format (unit mm)*
G04 Created by KiCad (PCBNEW 9.0.6) date 2026-02-11 20:02:57*
%MOMM*%
%LPD*%
G01*
G04 APERTURE LIST*
G04 Aperture macros list*
%AMRoundRect*
0 Rectangle with rounded corners*
0 $1 Rounding radius*
0 $2 $3 $4 $5 $6 $7 $8 $9 X,Y pos of 4 corners*
0 Add a 4 corners polygon primitive as box body*
4,1,4,$2,$3,$4,$5,$6,$7,$8,$9,$2,$3,0*
0 Add four circle primitives for the rounded corners*
1,1,$1+$1,$2,$3*
1,1,$1+$1,$4,$5*
1,1,$1+$1,$6,$7*
1,1,$1+$1,$8,$9*
0 Add four rect primitives between the rounded corners*
20,1,$1+$1,$2,$3,$4,$5,0*
20,1,$1+$1,$4,$5,$6,$7,0*
20,1,$1+$1,$6,$7,$8,$9,0*
20,1,$1+$1,$8,$9,$2,$3,0*%
G04 Aperture macros list end*
%ADD10RoundRect,0.336539X0.563461X0.538461X-0.563461X0.538461X-0.563461X-0.538461X0.563461X-0.538461X0*%
%ADD11RoundRect,0.336539X-0.563461X-0.538461X0.563461X-0.538461X0.563461X0.538461X-0.563461X0.538461X0*%
%ADD12RoundRect,0.195000X-0.455000X-1.555000X0.455000X-1.555000X0.455000X1.555000X-0.455000X1.555000X0*%
%ADD13RoundRect,0.336539X0.538461X-0.563461X0.538461X0.563461X-0.538461X0.563461X-0.538461X-0.563461X0*%
%ADD14RoundRect,0.175000X0.175000X-1.425000X0.175000X1.425000X-0.175000X1.425000X-0.175000X-1.425000X0*%
%ADD15RoundRect,0.125000X0.125000X-1.475000X0.125000X1.475000X-0.125000X1.475000X-0.125000X-1.475000X0*%
%ADD16RoundRect,0.250000X0.550000X-1.150000X0.550000X1.150000X-0.550000X1.150000X-0.550000X-1.150000X0*%
%ADD17O,1.600000X2.800000*%
G04 APERTURE END LIST*
D10*
%TO.C,R5*%
X150800000Y-90367500D03*
X147200000Y-90367500D03*
%TD*%
D11*
%TO.C,R2*%
X129200000Y-94432500D03*
X132800000Y-94432500D03*
%TD*%
D10*
%TO.C,R6*%
X150800000Y-94367500D03*
X147200000Y-94367500D03*
%TD*%
D11*
%TO.C,R1*%
X129200000Y-90432500D03*
X132800000Y-90432500D03*
%TD*%
D12*
%TO.C,DS1*%
X136200000Y-103682500D03*
X138100000Y-103682500D03*
X140000000Y-103682500D03*
X141900000Y-103682500D03*
X143800000Y-103682500D03*
X143800000Y-89182500D03*
X141900000Y-89182500D03*
X140000000Y-89182500D03*
X138100000Y-89182500D03*
X136200000Y-89182500D03*
%TD*%
D11*
%TO.C,R3*%
X129200000Y-98432500D03*
X132800000Y-98432500D03*
%TD*%
D13*
%TO.C,C1*%
X131125000Y-68800000D03*
X131125000Y-65200000D03*
%TD*%
D10*
%TO.C,R7*%
X150800000Y-98367500D03*
X147200000Y-98367500D03*
%TD*%
D14*
%TO.C,U1*%
X135455000Y-76550000D03*
D15*
X136825000Y-76550000D03*
X138095000Y-76550000D03*
X139365000Y-76550000D03*
X140635000Y-76550000D03*
X141905000Y-76550000D03*
X143175000Y-76550000D03*
D14*
X144545000Y-76550000D03*
X144545000Y-66950000D03*
D15*
X143175000Y-66950000D03*
X141905000Y-66950000D03*
X140635000Y-66950000D03*
X139365000Y-66950000D03*
X138095000Y-66950000D03*
X136825000Y-66950000D03*
D14*
X135455000Y-66950000D03*
%TD*%
D11*
%TO.C,R4*%
X129200000Y-102432500D03*
X132800000Y-102432500D03*
%TD*%
D10*
%TO.C,R8*%
X150800000Y-102367500D03*
X147200000Y-102367500D03*
%TD*%
D16*
%TO.C,U2*%
X131110000Y-80360000D03*
D17*
X133650000Y-80360000D03*
X136190000Y-80360000D03*
X138730000Y-80360000D03*
X141270000Y-80360000D03*
X143810000Y-80360000D03*
X146350000Y-80360000D03*
X148890000Y-80360000D03*
X148890000Y-72740000D03*
X146350000Y-72740000D03*
X143810000Y-72740000D03*
X141270000Y-72740000D03*
X138730000Y-72740000D03*
X136190000Y-72740000D03*
X133650000Y-72740000D03*
X131110000Y-72740000D03*
%TD*%
%TO.C,J1*%
X145080000Y-59000000D03*
X142540000Y-59000000D03*
X140000000Y-59000000D03*
X137460000Y-59000000D03*
X134920000Y-59000000D03*
%TD*%
M02*
