%TF.GenerationSoftware,KiCad,Pcbnew,9.0.6*%
%TF.CreationDate,2026-02-11T20:02:57+00:00*%
%TF.ProjectId,solderbit-segment,736f6c64-6572-4626-9974-2d7365676d65,v0.1*%
%TF.SameCoordinates,Original*%
%TF.FileFunction,Soldermask,Bot*%
%TF.FilePolarity,Negative*%
%FSLAX46Y46*%
G04 Gerber Fmt 4.6, Leading zero omitted, Abs format (unit mm)*
G04 Created by KiCad (PCBNEW 9.0.6) date 2026-02-11 20:02:57*
%MOMM*%
%LPD*%
G01*
G04 APERTURE LIST*
G04 Aperture macros list*
%AMRoundRect*
0 Rectangle with rounded corners*
0 $1 Rounding radius*
0 $2 $3 $4 $5 $6 $7 $8 $9 X,Y pos of 4 corners*
0 Add a 4 corners polygon primitive as box body*
4,1,4,$2,$3,$4,$5,$6,$7,$8,$9,$2,$3,0*
0 Add four circle primitives for the rounded corners*
1,1,$1+$1,$2,$3*
1,1,$1+$1,$4,$5*
1,1,$1+$1,$6,$7*
1,1,$1+$1,$8,$9*
0 Add four rect primitives between the rounded corners*
20,1,$1+$1,$2,$3,$4,$5,0*
20,1,$1+$1,$4,$5,$6,$7,0*
20,1,$1+$1,$6,$7,$8,$9,0*
20,1,$1+$1,$8,$9,$2,$3,0*%
G04 Aperture macros list end*
%ADD10C,0.000000*%
%ADD11RoundRect,0.250000X0.550000X-1.150000X0.550000X1.150000X-0.550000X1.150000X-0.550000X-1.150000X0*%
%ADD12O,1.600000X2.800000*%
G04 APERTURE END LIST*
D10*
%TO.C,G\u002A\u002A\u002A*%
G36*
X140418901Y-102836594D02*
G01*
X140429882Y-102836630D01*
X140438702Y-102836708D01*
X140445682Y-102836845D01*
X140451143Y-102837055D01*
X140455407Y-102837355D01*
X140458794Y-102837761D01*
X140461625Y-102838288D01*
X140464223Y-102838952D01*
X140466908Y-102839769D01*
X140474929Y-102842830D01*
X140487513Y-102849963D01*
X140498596Y-102859292D01*
X140507909Y-102870527D01*
X140515182Y-102883375D01*
X140520149Y-102897546D01*
X140520183Y-102897684D01*
X140520834Y-102900753D01*
X140521360Y-102904415D01*
X140521775Y-102908998D01*
X140522094Y-102914825D01*
X140522330Y-102922221D01*
X140522497Y-102931512D01*
X140522608Y-102943022D01*
X140522677Y-102957076D01*
X140522851Y-103007281D01*
X140517721Y-103018039D01*
X140514329Y-103024492D01*
X140505574Y-103037051D01*
X140495051Y-103047613D01*
X140483018Y-103055986D01*
X140469727Y-103061974D01*
X140455432Y-103065387D01*
X140453107Y-103065596D01*
X140447766Y-103065841D01*
X140440258Y-103066040D01*
X140430986Y-103066186D01*
X140420354Y-103066273D01*
X140408765Y-103066296D01*
X140396621Y-103066249D01*
X140386343Y-103066175D01*
X140374870Y-103066070D01*
X140365679Y-103065942D01*
X140358435Y-103065767D01*
X140352804Y-103065529D01*
X140348449Y-103065204D01*
X140345036Y-103064775D01*
X140342228Y-103064219D01*
X140339692Y-103063517D01*
X140337092Y-103062649D01*
X140328410Y-103059109D01*
X140315949Y-103051752D01*
X140305102Y-103042159D01*
X140295600Y-103030117D01*
X140292890Y-103025990D01*
X140289881Y-103021019D01*
X140287483Y-103016281D01*
X140285620Y-103011389D01*
X140284216Y-103005955D01*
X140283197Y-102999591D01*
X140282489Y-102991908D01*
X140282015Y-102982519D01*
X140281701Y-102971038D01*
X140281473Y-102957076D01*
X140281341Y-102944296D01*
X140281344Y-102929751D01*
X140281548Y-102918068D01*
X140281952Y-102909246D01*
X140282560Y-102903285D01*
X140282948Y-102901027D01*
X140286971Y-102887031D01*
X140293469Y-102874140D01*
X140302193Y-102862633D01*
X140312896Y-102852791D01*
X140325329Y-102844893D01*
X140339243Y-102839221D01*
X140340231Y-102838929D01*
X140342761Y-102838297D01*
X140345655Y-102837788D01*
X140349222Y-102837390D01*
X140353779Y-102837089D01*
X140359637Y-102836873D01*
X140367111Y-102836726D01*
X140376513Y-102836639D01*
X140388158Y-102836595D01*
X140402358Y-102836584D01*
X140405437Y-102836584D01*
X140418901Y-102836594D01*
G37*
G36*
X147916632Y-103543947D02*
G01*
X147916632Y-104177438D01*
X147878261Y-104176673D01*
X147868147Y-104176449D01*
X147856897Y-104176100D01*
X147847753Y-104175628D01*
X147840276Y-104174965D01*
X147834030Y-104174043D01*
X147828580Y-104172793D01*
X147823489Y-104171146D01*
X147818319Y-104169036D01*
X147812636Y-104166392D01*
X147806931Y-104163335D01*
X147800202Y-104159163D01*
X147794569Y-104155115D01*
X147792630Y-104153554D01*
X147790557Y-104151837D01*
X147788567Y-104150070D01*
X147786594Y-104148139D01*
X147784579Y-104145929D01*
X147782458Y-104143326D01*
X147780172Y-104140215D01*
X147777656Y-104136483D01*
X147774849Y-104132014D01*
X147771690Y-104126696D01*
X147768115Y-104120412D01*
X147764064Y-104113049D01*
X147759473Y-104104491D01*
X147754281Y-104094628D01*
X147748427Y-104083340D01*
X147741848Y-104070517D01*
X147734481Y-104056041D01*
X147726266Y-104039801D01*
X147717140Y-104021681D01*
X147707041Y-104001566D01*
X147695907Y-103979344D01*
X147683677Y-103954898D01*
X147670288Y-103928114D01*
X147655678Y-103898880D01*
X147652041Y-103891602D01*
X147640052Y-103867588D01*
X147628364Y-103844148D01*
X147617048Y-103821424D01*
X147606174Y-103799559D01*
X147595810Y-103778693D01*
X147586029Y-103758971D01*
X147576901Y-103740534D01*
X147568496Y-103723524D01*
X147560883Y-103708083D01*
X147554134Y-103694354D01*
X147548318Y-103682479D01*
X147543506Y-103672599D01*
X147539769Y-103664858D01*
X147537176Y-103659398D01*
X147535798Y-103656360D01*
X147533703Y-103651313D01*
X147524857Y-103628274D01*
X147517931Y-103606803D01*
X147512874Y-103586491D01*
X147509631Y-103566921D01*
X147508147Y-103547681D01*
X147508370Y-103528359D01*
X147510243Y-103508541D01*
X147513714Y-103487816D01*
X147513892Y-103486922D01*
X147514743Y-103482703D01*
X147515592Y-103478702D01*
X147516490Y-103474795D01*
X147517497Y-103470863D01*
X147518669Y-103466785D01*
X147520058Y-103462439D01*
X147521723Y-103457704D01*
X147523720Y-103452460D01*
X147526104Y-103446586D01*
X147528930Y-103439960D01*
X147532254Y-103432461D01*
X147536133Y-103423968D01*
X147540622Y-103414360D01*
X147545778Y-103403517D01*
X147551655Y-103391316D01*
X147558310Y-103377638D01*
X147565799Y-103362360D01*
X147574177Y-103345363D01*
X147583500Y-103326524D01*
X147593825Y-103305723D01*
X147605205Y-103282840D01*
X147617700Y-103257752D01*
X147631362Y-103230338D01*
X147646249Y-103200478D01*
X147653833Y-103185274D01*
X147665886Y-103161138D01*
X147677614Y-103137688D01*
X147688949Y-103115058D01*
X147699822Y-103093383D01*
X147710166Y-103072799D01*
X147719912Y-103053436D01*
X147728993Y-103035433D01*
X147737342Y-103018923D01*
X147744888Y-103004041D01*
X147751567Y-102990920D01*
X147757308Y-102979696D01*
X147762043Y-102970503D01*
X147765706Y-102963474D01*
X147768227Y-102958746D01*
X147769540Y-102956453D01*
X147772186Y-102952663D01*
X147783002Y-102940135D01*
X147795552Y-102929563D01*
X147809393Y-102921341D01*
X147811908Y-102920145D01*
X147818372Y-102917312D01*
X147824543Y-102915080D01*
X147830874Y-102913381D01*
X147837815Y-102912144D01*
X147845817Y-102911303D01*
X147855334Y-102910787D01*
X147866815Y-102910528D01*
X147880711Y-102910456D01*
X147916632Y-102910456D01*
X147916632Y-103543947D01*
G37*
G36*
X135861155Y-103449962D02*
G01*
X135880340Y-103449993D01*
X135897596Y-103450046D01*
X135913033Y-103450121D01*
X135926764Y-103450224D01*
X135938902Y-103450357D01*
X135949558Y-103450521D01*
X135958845Y-103450720D01*
X135966874Y-103450957D01*
X135973759Y-103451233D01*
X135979611Y-103451553D01*
X135984543Y-103451916D01*
X135988667Y-103452330D01*
X135992095Y-103452793D01*
X135994938Y-103453310D01*
X135997311Y-103453882D01*
X135999324Y-103454513D01*
X136001091Y-103455206D01*
X136002723Y-103455962D01*
X136004332Y-103456786D01*
X136006031Y-103457679D01*
X136007931Y-103458644D01*
X136009985Y-103459704D01*
X136020744Y-103467018D01*
X136030421Y-103476510D01*
X136038615Y-103487652D01*
X136044926Y-103499918D01*
X136048953Y-103512775D01*
X136049418Y-103515921D01*
X136049936Y-103522167D01*
X136050357Y-103530423D01*
X136050680Y-103540208D01*
X136050903Y-103551038D01*
X136051023Y-103562431D01*
X136051037Y-103573904D01*
X136050944Y-103584975D01*
X136050741Y-103595159D01*
X136050424Y-103603976D01*
X136049994Y-103610942D01*
X136049447Y-103615575D01*
X136046584Y-103626602D01*
X136040694Y-103639912D01*
X136032599Y-103651885D01*
X136022589Y-103662235D01*
X136010948Y-103670678D01*
X135997967Y-103676928D01*
X135983931Y-103680698D01*
X135983695Y-103680728D01*
X135980866Y-103680866D01*
X135975358Y-103680996D01*
X135967330Y-103681117D01*
X135956941Y-103681232D01*
X135944348Y-103681337D01*
X135929710Y-103681436D01*
X135913185Y-103681526D01*
X135894931Y-103681608D01*
X135875108Y-103681682D01*
X135853871Y-103681749D01*
X135831381Y-103681807D01*
X135807795Y-103681858D01*
X135783272Y-103681900D01*
X135757970Y-103681934D01*
X135732046Y-103681960D01*
X135705660Y-103681980D01*
X135678969Y-103681990D01*
X135652133Y-103681993D01*
X135625308Y-103681988D01*
X135598654Y-103681974D01*
X135572328Y-103681953D01*
X135546488Y-103681925D01*
X135521294Y-103681887D01*
X135496904Y-103681842D01*
X135473474Y-103681790D01*
X135451165Y-103681729D01*
X135430133Y-103681660D01*
X135410538Y-103681584D01*
X135392536Y-103681500D01*
X135376289Y-103681407D01*
X135361952Y-103681307D01*
X135349684Y-103681199D01*
X135339643Y-103681082D01*
X135331988Y-103680959D01*
X135326878Y-103680827D01*
X135324469Y-103680688D01*
X135318947Y-103679644D01*
X135306112Y-103675271D01*
X135293968Y-103668473D01*
X135282930Y-103659565D01*
X135273413Y-103648857D01*
X135265833Y-103636661D01*
X135263925Y-103632741D01*
X135262216Y-103628725D01*
X135260854Y-103624634D01*
X135259801Y-103620120D01*
X135259018Y-103614833D01*
X135258463Y-103608424D01*
X135258100Y-103600544D01*
X135257890Y-103590843D01*
X135257792Y-103578973D01*
X135257768Y-103564582D01*
X135257774Y-103555697D01*
X135257814Y-103543981D01*
X135257905Y-103534563D01*
X135258064Y-103527095D01*
X135258306Y-103521230D01*
X135258647Y-103516619D01*
X135259104Y-103512917D01*
X135259693Y-103509773D01*
X135260429Y-103506843D01*
X135264460Y-103495930D01*
X135271678Y-103483898D01*
X135281436Y-103473174D01*
X135284825Y-103470174D01*
X135293124Y-103463793D01*
X135301804Y-103458730D01*
X135312105Y-103454219D01*
X135321600Y-103450521D01*
X135649703Y-103450138D01*
X135663378Y-103450121D01*
X135699219Y-103450077D01*
X135732343Y-103450036D01*
X135762864Y-103450000D01*
X135790893Y-103449972D01*
X135816544Y-103449955D01*
X135839927Y-103449950D01*
X135861155Y-103449962D01*
G37*
G36*
X140517762Y-103248984D02*
G01*
X140536483Y-103248997D01*
X140552833Y-103249033D01*
X140566997Y-103249102D01*
X140579162Y-103249215D01*
X140589515Y-103249383D01*
X140598243Y-103249616D01*
X140605531Y-103249924D01*
X140611568Y-103250319D01*
X140616538Y-103250810D01*
X140620630Y-103251409D01*
X140624028Y-103252127D01*
X140626920Y-103252972D01*
X140629493Y-103253957D01*
X140631935Y-103255091D01*
X140634429Y-103256387D01*
X140637164Y-103257852D01*
X140641898Y-103260748D01*
X140647972Y-103265183D01*
X140653290Y-103269753D01*
X140654349Y-103270788D01*
X140664314Y-103282563D01*
X140671844Y-103295516D01*
X140676879Y-103309329D01*
X140679365Y-103323689D01*
X140679242Y-103338282D01*
X140676455Y-103352792D01*
X140670946Y-103366905D01*
X140669890Y-103368867D01*
X140664925Y-103376147D01*
X140658406Y-103383770D01*
X140651051Y-103391017D01*
X140643576Y-103397159D01*
X140636699Y-103401477D01*
X140636291Y-103401681D01*
X140632863Y-103403381D01*
X140629744Y-103404837D01*
X140626692Y-103406067D01*
X140623460Y-103407094D01*
X140619806Y-103407938D01*
X140615483Y-103408620D01*
X140610248Y-103409160D01*
X140603856Y-103409578D01*
X140596062Y-103409896D01*
X140586623Y-103410134D01*
X140575292Y-103410312D01*
X140561827Y-103410453D01*
X140545982Y-103410575D01*
X140527512Y-103410700D01*
X140441805Y-103411274D01*
X140441805Y-103706666D01*
X140441805Y-104002058D01*
X140525456Y-104002058D01*
X140538255Y-104002070D01*
X140556859Y-104002133D01*
X140573212Y-104002251D01*
X140587212Y-104002423D01*
X140598756Y-104002645D01*
X140607740Y-104002916D01*
X140614062Y-104003236D01*
X140617618Y-104003601D01*
X140626161Y-104005925D01*
X140635913Y-104009978D01*
X140645263Y-104015115D01*
X140653043Y-104020775D01*
X140658610Y-104026250D01*
X140665904Y-104035310D01*
X140672197Y-104045236D01*
X140676723Y-104054923D01*
X140676855Y-104055286D01*
X140679473Y-104065218D01*
X140680932Y-104076541D01*
X140681140Y-104088035D01*
X140680006Y-104098476D01*
X140676447Y-104110908D01*
X140670164Y-104123636D01*
X140661717Y-104135013D01*
X140651417Y-104144751D01*
X140639574Y-104152563D01*
X140626500Y-104158157D01*
X140612503Y-104161246D01*
X140612249Y-104161270D01*
X140609283Y-104161389D01*
X140603631Y-104161502D01*
X140595449Y-104161609D01*
X140584889Y-104161708D01*
X140572105Y-104161800D01*
X140557249Y-104161884D01*
X140540478Y-104161959D01*
X140521943Y-104162025D01*
X140501799Y-104162081D01*
X140480199Y-104162127D01*
X140457297Y-104162162D01*
X140433245Y-104162185D01*
X140408200Y-104162196D01*
X140382313Y-104162194D01*
X140355739Y-104162180D01*
X140349293Y-104162175D01*
X140318346Y-104162147D01*
X140290115Y-104162118D01*
X140264474Y-104162084D01*
X140241296Y-104162044D01*
X140220455Y-104161999D01*
X140201822Y-104161946D01*
X140185271Y-104161884D01*
X140170677Y-104161812D01*
X140157910Y-104161728D01*
X140146845Y-104161633D01*
X140137354Y-104161523D01*
X140129310Y-104161399D01*
X140122587Y-104161258D01*
X140117059Y-104161100D01*
X140112596Y-104160923D01*
X140109074Y-104160726D01*
X140106365Y-104160509D01*
X140104341Y-104160268D01*
X140102877Y-104160004D01*
X140101844Y-104159715D01*
X140095416Y-104157208D01*
X140081420Y-104149772D01*
X140069263Y-104140376D01*
X140059143Y-104129219D01*
X140051253Y-104116504D01*
X140045792Y-104102431D01*
X140044499Y-104095672D01*
X140043881Y-104086442D01*
X140044115Y-104076478D01*
X140045173Y-104066829D01*
X140047022Y-104058546D01*
X140048773Y-104053563D01*
X140055194Y-104040992D01*
X140063971Y-104029554D01*
X140074783Y-104019626D01*
X140087305Y-104011584D01*
X140089813Y-104010279D01*
X140093289Y-104008570D01*
X140096683Y-104007119D01*
X140100243Y-104005901D01*
X140104214Y-104004899D01*
X140108842Y-104004091D01*
X140114373Y-104003455D01*
X140121052Y-104002971D01*
X140129126Y-104002617D01*
X140138839Y-104002375D01*
X140150438Y-104002220D01*
X140164169Y-104002134D01*
X140180276Y-104002096D01*
X140199007Y-104002083D01*
X140281108Y-104002058D01*
X140281486Y-103658153D01*
X140281865Y-103314250D01*
X140285073Y-103304822D01*
X140289965Y-103293576D01*
X140297449Y-103281879D01*
X140306680Y-103271390D01*
X140317231Y-103262524D01*
X140328670Y-103255696D01*
X140340565Y-103251321D01*
X140341462Y-103251110D01*
X140343486Y-103250732D01*
X140345998Y-103250399D01*
X140349181Y-103250112D01*
X140353220Y-103249865D01*
X140358296Y-103249656D01*
X140364593Y-103249482D01*
X140372293Y-103249340D01*
X140381580Y-103249227D01*
X140392637Y-103249140D01*
X140405648Y-103249076D01*
X140420795Y-103249030D01*
X140438262Y-103249002D01*
X140458232Y-103248987D01*
X140480886Y-103248983D01*
X140496481Y-103248982D01*
X140517762Y-103248984D01*
G37*
G36*
X141237457Y-103252350D02*
G01*
X141250835Y-103256300D01*
X141263344Y-103262440D01*
X141274673Y-103270639D01*
X141284508Y-103280762D01*
X141292539Y-103292679D01*
X141298454Y-103306257D01*
X141298797Y-103307312D01*
X141299461Y-103309569D01*
X141300017Y-103311975D01*
X141300478Y-103314804D01*
X141300859Y-103318326D01*
X141301173Y-103322815D01*
X141301432Y-103328542D01*
X141301652Y-103335778D01*
X141301845Y-103344795D01*
X141302026Y-103355866D01*
X141302207Y-103369262D01*
X141302403Y-103385254D01*
X141303231Y-103454823D01*
X141420595Y-103723779D01*
X141427664Y-103739975D01*
X141439013Y-103765971D01*
X141450030Y-103791194D01*
X141460658Y-103815518D01*
X141470846Y-103838820D01*
X141480537Y-103860977D01*
X141489679Y-103881865D01*
X141498216Y-103901360D01*
X141506095Y-103919338D01*
X141513260Y-103935677D01*
X141519659Y-103950250D01*
X141525237Y-103962937D01*
X141529939Y-103973612D01*
X141533712Y-103982152D01*
X141536501Y-103988433D01*
X141538252Y-103992332D01*
X141538911Y-103993725D01*
X141539259Y-103993153D01*
X141540698Y-103990187D01*
X141543199Y-103984800D01*
X141546707Y-103977116D01*
X141551169Y-103967257D01*
X141556528Y-103955342D01*
X141562732Y-103941496D01*
X141569726Y-103925840D01*
X141577457Y-103908495D01*
X141585868Y-103889582D01*
X141594907Y-103869225D01*
X141604520Y-103847544D01*
X141614651Y-103824661D01*
X141625247Y-103800699D01*
X141636253Y-103775778D01*
X141647616Y-103750021D01*
X141659279Y-103723550D01*
X141778696Y-103452386D01*
X141778721Y-103387621D01*
X141778734Y-103376090D01*
X141778785Y-103361527D01*
X141778884Y-103349389D01*
X141779035Y-103339416D01*
X141779248Y-103331344D01*
X141779529Y-103324910D01*
X141779886Y-103319853D01*
X141780326Y-103315908D01*
X141780857Y-103312816D01*
X141785074Y-103299151D01*
X141791652Y-103286638D01*
X141800248Y-103275691D01*
X141810565Y-103266491D01*
X141822309Y-103259222D01*
X141835182Y-103254067D01*
X141848890Y-103251207D01*
X141863136Y-103250824D01*
X141877625Y-103253103D01*
X141877807Y-103253149D01*
X141891803Y-103258157D01*
X141904383Y-103265643D01*
X141915461Y-103275544D01*
X141924950Y-103287797D01*
X141926071Y-103289553D01*
X141928440Y-103293514D01*
X141930471Y-103297454D01*
X141932190Y-103301616D01*
X141933623Y-103306238D01*
X141934796Y-103311562D01*
X141935733Y-103317829D01*
X141936463Y-103325279D01*
X141937009Y-103334154D01*
X141937399Y-103344693D01*
X141937658Y-103357138D01*
X141937812Y-103371731D01*
X141937886Y-103388710D01*
X141937907Y-103408316D01*
X141937918Y-103482301D01*
X141801540Y-103795611D01*
X141790564Y-103820821D01*
X141778331Y-103848902D01*
X141766416Y-103876241D01*
X141754870Y-103902722D01*
X141743741Y-103928224D01*
X141733086Y-103952631D01*
X141722954Y-103975825D01*
X141713396Y-103997686D01*
X141704465Y-104018097D01*
X141696213Y-104036941D01*
X141688690Y-104054099D01*
X141681950Y-104069452D01*
X141676043Y-104082882D01*
X141671021Y-104094273D01*
X141666936Y-104103505D01*
X141663841Y-104110460D01*
X141661784Y-104115020D01*
X141660820Y-104117068D01*
X141659167Y-104120042D01*
X141650275Y-104132836D01*
X141639647Y-104143711D01*
X141627580Y-104152444D01*
X141614375Y-104158807D01*
X141600329Y-104162579D01*
X141599765Y-104162662D01*
X141595512Y-104163014D01*
X141588905Y-104163313D01*
X141580348Y-104163556D01*
X141570244Y-104163744D01*
X141558991Y-104163877D01*
X141546994Y-104163955D01*
X141534651Y-104163978D01*
X141522366Y-104163946D01*
X141510540Y-104163859D01*
X141499575Y-104163716D01*
X141489871Y-104163517D01*
X141481832Y-104163264D01*
X141475857Y-104162954D01*
X141472350Y-104162590D01*
X141461495Y-104159312D01*
X141450464Y-104153290D01*
X141440036Y-104144842D01*
X141430488Y-104134190D01*
X141422095Y-104121563D01*
X141421115Y-104119619D01*
X141418953Y-104115004D01*
X141415747Y-104107981D01*
X141411548Y-104098670D01*
X141406410Y-104087192D01*
X141400386Y-104073666D01*
X141393531Y-104058214D01*
X141385896Y-104040954D01*
X141377535Y-104022008D01*
X141368500Y-104001497D01*
X141358845Y-103979539D01*
X141348624Y-103956256D01*
X141337887Y-103931769D01*
X141326690Y-103906196D01*
X141315083Y-103879660D01*
X141303123Y-103852280D01*
X141290860Y-103824176D01*
X141278348Y-103795469D01*
X141141808Y-103482015D01*
X141141829Y-103401001D01*
X141141833Y-103391294D01*
X141141855Y-103374203D01*
X141141912Y-103359607D01*
X141142026Y-103347259D01*
X141142216Y-103336911D01*
X141142503Y-103328313D01*
X141142909Y-103321220D01*
X141143453Y-103315384D01*
X141144155Y-103310556D01*
X141145037Y-103306488D01*
X141146118Y-103302933D01*
X141147420Y-103299643D01*
X141148962Y-103296370D01*
X141150765Y-103292867D01*
X141152447Y-103289903D01*
X141159159Y-103280676D01*
X141167578Y-103271861D01*
X141176889Y-103264243D01*
X141186276Y-103258612D01*
X141195221Y-103254965D01*
X141209338Y-103251549D01*
X141223520Y-103250721D01*
X141237457Y-103252350D01*
G37*
G36*
X134577108Y-102906389D02*
G01*
X134602233Y-102906455D01*
X134732048Y-102906871D01*
X134741373Y-102910190D01*
X134749345Y-102913503D01*
X134762197Y-102921228D01*
X134773450Y-102931331D01*
X134783080Y-102943792D01*
X134788145Y-102952749D01*
X134791948Y-102962794D01*
X134794063Y-102973760D01*
X134794717Y-102986482D01*
X134794238Y-102996730D01*
X134791683Y-103010572D01*
X134786797Y-103023003D01*
X134779436Y-103034354D01*
X134769458Y-103044955D01*
X134766103Y-103047923D01*
X134758072Y-103054045D01*
X134749764Y-103058732D01*
X134739938Y-103062729D01*
X134739182Y-103062996D01*
X134737259Y-103063642D01*
X134735305Y-103064192D01*
X134733085Y-103064654D01*
X134730363Y-103065037D01*
X134726901Y-103065353D01*
X134722462Y-103065608D01*
X134716811Y-103065814D01*
X134709710Y-103065979D01*
X134700925Y-103066113D01*
X134690216Y-103066225D01*
X134677349Y-103066324D01*
X134662085Y-103066420D01*
X134644190Y-103066523D01*
X134557765Y-103067009D01*
X134557765Y-103534532D01*
X134557765Y-104002058D01*
X134639265Y-104002058D01*
X134650271Y-104002067D01*
X134668716Y-104002127D01*
X134684961Y-104002245D01*
X134698893Y-104002415D01*
X134710401Y-104002638D01*
X134719376Y-104002912D01*
X134725704Y-104003233D01*
X134729275Y-104003601D01*
X134735469Y-104005058D01*
X134747931Y-104010008D01*
X134759625Y-104017262D01*
X134770151Y-104026444D01*
X134779113Y-104037178D01*
X134786113Y-104049086D01*
X134790753Y-104061794D01*
X134791314Y-104064259D01*
X134792577Y-104073710D01*
X134792917Y-104084161D01*
X134792332Y-104094374D01*
X134790820Y-104103111D01*
X134789781Y-104106710D01*
X134784310Y-104119702D01*
X134776609Y-104131666D01*
X134767054Y-104142239D01*
X134756010Y-104151058D01*
X134743847Y-104157760D01*
X134730936Y-104161982D01*
X134730442Y-104162062D01*
X134726945Y-104162330D01*
X134720816Y-104162580D01*
X134712238Y-104162814D01*
X134701394Y-104163029D01*
X134688468Y-104163228D01*
X134673642Y-104163408D01*
X134657100Y-104163570D01*
X134639026Y-104163716D01*
X134619602Y-104163843D01*
X134599013Y-104163953D01*
X134577440Y-104164045D01*
X134555069Y-104164119D01*
X134532081Y-104164175D01*
X134508660Y-104164213D01*
X134484991Y-104164233D01*
X134461255Y-104164236D01*
X134437635Y-104164220D01*
X134414317Y-104164186D01*
X134391483Y-104164134D01*
X134369316Y-104164064D01*
X134347999Y-104163976D01*
X134327716Y-104163870D01*
X134308650Y-104163745D01*
X134290983Y-104163602D01*
X134274901Y-104163440D01*
X134260587Y-104163261D01*
X134248221Y-104163063D01*
X134237991Y-104162846D01*
X134230077Y-104162612D01*
X134224663Y-104162358D01*
X134221933Y-104162086D01*
X134215558Y-104160460D01*
X134204235Y-104155897D01*
X134193705Y-104149171D01*
X134183378Y-104139941D01*
X134173963Y-104128660D01*
X134166511Y-104115789D01*
X134161571Y-104102142D01*
X134159194Y-104088025D01*
X134159430Y-104073747D01*
X134162331Y-104059617D01*
X134167946Y-104045942D01*
X134168623Y-104044706D01*
X134173656Y-104037338D01*
X134180360Y-104029533D01*
X134187993Y-104022031D01*
X134195812Y-104015575D01*
X134203073Y-104010906D01*
X134205075Y-104009869D01*
X134208371Y-104008261D01*
X134211630Y-104006892D01*
X134215093Y-104005743D01*
X134219003Y-104004794D01*
X134223603Y-104004025D01*
X134229134Y-104003418D01*
X134235838Y-104002954D01*
X134243958Y-104002614D01*
X134253736Y-104002376D01*
X134265413Y-104002223D01*
X134279234Y-104002137D01*
X134295439Y-104002097D01*
X134314270Y-104002083D01*
X134397108Y-104002058D01*
X134397130Y-103489609D01*
X134397131Y-103460886D01*
X134397129Y-103416558D01*
X134397128Y-103374957D01*
X134397126Y-103335992D01*
X134397126Y-103299574D01*
X134397129Y-103265617D01*
X134397138Y-103234029D01*
X134397152Y-103204723D01*
X134397174Y-103177610D01*
X134397205Y-103152602D01*
X134397247Y-103129609D01*
X134397299Y-103108543D01*
X134397366Y-103089314D01*
X134397447Y-103071835D01*
X134397545Y-103056017D01*
X134397660Y-103041769D01*
X134397794Y-103029006D01*
X134397950Y-103017637D01*
X134398126Y-103007573D01*
X134398326Y-102998725D01*
X134398552Y-102991007D01*
X134398804Y-102984327D01*
X134399083Y-102978598D01*
X134399391Y-102973730D01*
X134399730Y-102969637D01*
X134400102Y-102966226D01*
X134400506Y-102963413D01*
X134400946Y-102961106D01*
X134401422Y-102959217D01*
X134401936Y-102957658D01*
X134402490Y-102956338D01*
X134403085Y-102955171D01*
X134403720Y-102954068D01*
X134404400Y-102952938D01*
X134405125Y-102951695D01*
X134405897Y-102950247D01*
X134410146Y-102943313D01*
X134417014Y-102934844D01*
X134425200Y-102926724D01*
X134433960Y-102919677D01*
X134442552Y-102914432D01*
X134448456Y-102911860D01*
X134455952Y-102909294D01*
X134462634Y-102907678D01*
X134463698Y-102907535D01*
X134467472Y-102907242D01*
X134473221Y-102906992D01*
X134481045Y-102906784D01*
X134491043Y-102906619D01*
X134503312Y-102906495D01*
X134517954Y-102906410D01*
X134535069Y-102906366D01*
X134554753Y-102906358D01*
X134577108Y-102906389D01*
G37*
G36*
X139051978Y-103250186D02*
G01*
X139073015Y-103250219D01*
X139093779Y-103250279D01*
X139114057Y-103250364D01*
X139133642Y-103250475D01*
X139152323Y-103250613D01*
X139169890Y-103250776D01*
X139186133Y-103250964D01*
X139200845Y-103251179D01*
X139213813Y-103251418D01*
X139224829Y-103251684D01*
X139233685Y-103251976D01*
X139240168Y-103252292D01*
X139244069Y-103252634D01*
X139257008Y-103254828D01*
X139279225Y-103260571D01*
X139300735Y-103268787D01*
X139321853Y-103279606D01*
X139342891Y-103293155D01*
X139345546Y-103295161D01*
X139350569Y-103299192D01*
X139357324Y-103304766D01*
X139365583Y-103311687D01*
X139375119Y-103319758D01*
X139385703Y-103328778D01*
X139397108Y-103338551D01*
X139409105Y-103348880D01*
X139421468Y-103359566D01*
X139433966Y-103370412D01*
X139446373Y-103381218D01*
X139458462Y-103391788D01*
X139470003Y-103401925D01*
X139480768Y-103411428D01*
X139490531Y-103420102D01*
X139499061Y-103427748D01*
X139506134Y-103434168D01*
X139511519Y-103439164D01*
X139514989Y-103442539D01*
X139520765Y-103448631D01*
X139536952Y-103467959D01*
X139550471Y-103487981D01*
X139561463Y-103508944D01*
X139570062Y-103531098D01*
X139576406Y-103554695D01*
X139576550Y-103555378D01*
X139576974Y-103557622D01*
X139577346Y-103560112D01*
X139577670Y-103563035D01*
X139577949Y-103566579D01*
X139578187Y-103570931D01*
X139578385Y-103576278D01*
X139578549Y-103582809D01*
X139578681Y-103590709D01*
X139578785Y-103600166D01*
X139578863Y-103611369D01*
X139578920Y-103624503D01*
X139578958Y-103639758D01*
X139578981Y-103657319D01*
X139578993Y-103677374D01*
X139578995Y-103700110D01*
X139578995Y-103705087D01*
X139578993Y-103727931D01*
X139578979Y-103748144D01*
X139578946Y-103765929D01*
X139578886Y-103781484D01*
X139578790Y-103795009D01*
X139578650Y-103806701D01*
X139578456Y-103816763D01*
X139578201Y-103825392D01*
X139577876Y-103832789D01*
X139577474Y-103839153D01*
X139576985Y-103844684D01*
X139576401Y-103849579D01*
X139575714Y-103854040D01*
X139574915Y-103858266D01*
X139573997Y-103862455D01*
X139572949Y-103866808D01*
X139571765Y-103871525D01*
X139564778Y-103893810D01*
X139555271Y-103914995D01*
X139543273Y-103934824D01*
X139528726Y-103953393D01*
X139511578Y-103970793D01*
X139509944Y-103972271D01*
X139505359Y-103976376D01*
X139499057Y-103981977D01*
X139491266Y-103988877D01*
X139482214Y-103996873D01*
X139472128Y-104005767D01*
X139461236Y-104015360D01*
X139449765Y-104025451D01*
X139437942Y-104035841D01*
X139425996Y-104046329D01*
X139414154Y-104056718D01*
X139402642Y-104066806D01*
X139391689Y-104076394D01*
X139381523Y-104085281D01*
X139372371Y-104093269D01*
X139364459Y-104100159D01*
X139358016Y-104105749D01*
X139353269Y-104109840D01*
X139350446Y-104112234D01*
X139343771Y-104117551D01*
X139323024Y-104131659D01*
X139300938Y-104143248D01*
X139277604Y-104152282D01*
X139253114Y-104158723D01*
X139227560Y-104162533D01*
X139225095Y-104162667D01*
X139219720Y-104162822D01*
X139211828Y-104162971D01*
X139201608Y-104163115D01*
X139189248Y-104163252D01*
X139174940Y-104163381D01*
X139158869Y-104163500D01*
X139141228Y-104163607D01*
X139122204Y-104163702D01*
X139101987Y-104163784D01*
X139080764Y-104163850D01*
X139058727Y-104163899D01*
X139036063Y-104163930D01*
X139019244Y-104163947D01*
X138993782Y-104163971D01*
X138970939Y-104163987D01*
X138950556Y-104163988D01*
X138932480Y-104163966D01*
X138916551Y-104163916D01*
X138902617Y-104163832D01*
X138890519Y-104163708D01*
X138880102Y-104163536D01*
X138871209Y-104163310D01*
X138863684Y-104163025D01*
X138857372Y-104162672D01*
X138852115Y-104162247D01*
X138847758Y-104161744D01*
X138844144Y-104161153D01*
X138841118Y-104160471D01*
X138838523Y-104159691D01*
X138836203Y-104158806D01*
X138834001Y-104157809D01*
X138831762Y-104156695D01*
X138829329Y-104155456D01*
X138829299Y-104155440D01*
X138818491Y-104148519D01*
X138808544Y-104139353D01*
X138799931Y-104128535D01*
X138793128Y-104116662D01*
X138788608Y-104104329D01*
X138787777Y-104100397D01*
X138786771Y-104091235D01*
X138786586Y-104081156D01*
X138787218Y-104071367D01*
X138788668Y-104063082D01*
X138791410Y-104054742D01*
X138797877Y-104042166D01*
X138806646Y-104030795D01*
X138817424Y-104020927D01*
X138829923Y-104012859D01*
X138843848Y-104006887D01*
X138844063Y-104006817D01*
X138845376Y-104006438D01*
X138846940Y-104006096D01*
X138848908Y-104005789D01*
X138851437Y-104005515D01*
X138854677Y-104005270D01*
X138858785Y-104005051D01*
X138863915Y-104004858D01*
X138870219Y-104004683D01*
X138877852Y-104004528D01*
X138886967Y-104004388D01*
X138897720Y-104004261D01*
X138910264Y-104004144D01*
X138924753Y-104004033D01*
X138941340Y-104003928D01*
X138960181Y-104003823D01*
X138981428Y-104003718D01*
X139005236Y-104003608D01*
X139031760Y-104003492D01*
X139052549Y-104003401D01*
X139077025Y-104003288D01*
X139098905Y-104003180D01*
X139118343Y-104003073D01*
X139135493Y-104002965D01*
X139150508Y-104002852D01*
X139163542Y-104002733D01*
X139174750Y-104002604D01*
X139184284Y-104002464D01*
X139192301Y-104002308D01*
X139198951Y-104002134D01*
X139204391Y-104001941D01*
X139208774Y-104001725D01*
X139212252Y-104001483D01*
X139214981Y-104001213D01*
X139217114Y-104000912D01*
X139218806Y-104000577D01*
X139220210Y-104000206D01*
X139221905Y-103999695D01*
X139225656Y-103998488D01*
X139229227Y-103997162D01*
X139232797Y-103995582D01*
X139236548Y-103993613D01*
X139240662Y-103991119D01*
X139245317Y-103987966D01*
X139250696Y-103984018D01*
X139256979Y-103979140D01*
X139264347Y-103973197D01*
X139272981Y-103966053D01*
X139283061Y-103957574D01*
X139294770Y-103947624D01*
X139308287Y-103936068D01*
X139323792Y-103922771D01*
X139329163Y-103918161D01*
X139344094Y-103905324D01*
X139357048Y-103894142D01*
X139368178Y-103884459D01*
X139377644Y-103876122D01*
X139385600Y-103868978D01*
X139392204Y-103862873D01*
X139397610Y-103857651D01*
X139401975Y-103853162D01*
X139405458Y-103849250D01*
X139408213Y-103845761D01*
X139410395Y-103842542D01*
X139412163Y-103839439D01*
X139413672Y-103836298D01*
X139415079Y-103832966D01*
X139418340Y-103824906D01*
X139418740Y-103714207D01*
X139418758Y-103709315D01*
X139418831Y-103688334D01*
X139418880Y-103669969D01*
X139418889Y-103654012D01*
X139418846Y-103640253D01*
X139418737Y-103628488D01*
X139418547Y-103618504D01*
X139418261Y-103610097D01*
X139417869Y-103603057D01*
X139417353Y-103597177D01*
X139416701Y-103592247D01*
X139415898Y-103588061D01*
X139414931Y-103584410D01*
X139413786Y-103581085D01*
X139412448Y-103577879D01*
X139410905Y-103574584D01*
X139409141Y-103570992D01*
X139408714Y-103570136D01*
X139404506Y-103562749D01*
X139399543Y-103556166D01*
X139392976Y-103549246D01*
X139390670Y-103547053D01*
X139385622Y-103542434D01*
X139378966Y-103536484D01*
X139370936Y-103529404D01*
X139361768Y-103521395D01*
X139351700Y-103512657D01*
X139340964Y-103503393D01*
X139329798Y-103493804D01*
X139318438Y-103484088D01*
X139307120Y-103474449D01*
X139296077Y-103465086D01*
X139285548Y-103456201D01*
X139275767Y-103447996D01*
X139266970Y-103440670D01*
X139259392Y-103434426D01*
X139253270Y-103429463D01*
X139248839Y-103425985D01*
X139246334Y-103424189D01*
X139242392Y-103421940D01*
X139235698Y-103418488D01*
X139229394Y-103415586D01*
X139220388Y-103411791D01*
X139034629Y-103411030D01*
X139020613Y-103410972D01*
X138995053Y-103410864D01*
X138972133Y-103410760D01*
X138951702Y-103410659D01*
X138933609Y-103410559D01*
X138917703Y-103410454D01*
X138903831Y-103410345D01*
X138891843Y-103410227D01*
X138881587Y-103410100D01*
X138872912Y-103409958D01*
X138865666Y-103409801D01*
X138859697Y-103409624D01*
X138854856Y-103409427D01*
X138850988Y-103409205D01*
X138847945Y-103408957D01*
X138845575Y-103408679D01*
X138843724Y-103408369D01*
X138842244Y-103408026D01*
X138840980Y-103407644D01*
X138836492Y-103406026D01*
X138822583Y-103399187D01*
X138810514Y-103390291D01*
X138800455Y-103379508D01*
X138792578Y-103367013D01*
X138787053Y-103352980D01*
X138785770Y-103347193D01*
X138784727Y-103337476D01*
X138784598Y-103327031D01*
X138785381Y-103317008D01*
X138787075Y-103308555D01*
X138790743Y-103298440D01*
X138797953Y-103285259D01*
X138807268Y-103273898D01*
X138818503Y-103264536D01*
X138831475Y-103257345D01*
X138846001Y-103252501D01*
X138848863Y-103252163D01*
X138854396Y-103251850D01*
X138862379Y-103251565D01*
X138872604Y-103251306D01*
X138884859Y-103251074D01*
X138898937Y-103250869D01*
X138914626Y-103250691D01*
X138931718Y-103250540D01*
X138950002Y-103250415D01*
X138969270Y-103250316D01*
X138989311Y-103250244D01*
X139009915Y-103250198D01*
X139030875Y-103250179D01*
X139051978Y-103250186D01*
G37*
G36*
X136756350Y-103250587D02*
G01*
X136780169Y-103250632D01*
X136806549Y-103250696D01*
X136835643Y-103250774D01*
X136848460Y-103250810D01*
X136875296Y-103250888D01*
X136899477Y-103250966D01*
X136921152Y-103251045D01*
X136940470Y-103251127D01*
X136957578Y-103251214D01*
X136972626Y-103251310D01*
X136985762Y-103251413D01*
X136997134Y-103251530D01*
X137006890Y-103251659D01*
X137015180Y-103251805D01*
X137022152Y-103251969D01*
X137027953Y-103252153D01*
X137032733Y-103252359D01*
X137036640Y-103252591D01*
X137039822Y-103252848D01*
X137042428Y-103253135D01*
X137044606Y-103253452D01*
X137046505Y-103253802D01*
X137047367Y-103253980D01*
X137063970Y-103258292D01*
X137080911Y-103264217D01*
X137096711Y-103271240D01*
X137100203Y-103273049D01*
X137118225Y-103284132D01*
X137135510Y-103297638D01*
X137151713Y-103313212D01*
X137166491Y-103330495D01*
X137179501Y-103349129D01*
X137190398Y-103368758D01*
X137197464Y-103385376D01*
X137204077Y-103406934D01*
X137208431Y-103429415D01*
X137210454Y-103452276D01*
X137210074Y-103474964D01*
X137207220Y-103496933D01*
X137205514Y-103504428D01*
X137201101Y-103518710D01*
X137195161Y-103533823D01*
X137188030Y-103549019D01*
X137180040Y-103563548D01*
X137171526Y-103576665D01*
X137160819Y-103590197D01*
X137145450Y-103605966D01*
X137127904Y-103620581D01*
X137108529Y-103633725D01*
X137106122Y-103635002D01*
X137101210Y-103637416D01*
X137093969Y-103640881D01*
X137084543Y-103645331D01*
X137073077Y-103650700D01*
X137059715Y-103656920D01*
X137044601Y-103663926D01*
X137027879Y-103671649D01*
X137009695Y-103680024D01*
X136990190Y-103688984D01*
X136969510Y-103698463D01*
X136947800Y-103708395D01*
X136925203Y-103718710D01*
X136901864Y-103729344D01*
X136877928Y-103740231D01*
X136854253Y-103750995D01*
X136830968Y-103761597D01*
X136808445Y-103771866D01*
X136786824Y-103781737D01*
X136766249Y-103791145D01*
X136746862Y-103800025D01*
X136728806Y-103808309D01*
X136712223Y-103815934D01*
X136697256Y-103822834D01*
X136684047Y-103828942D01*
X136672738Y-103834195D01*
X136663473Y-103838525D01*
X136656394Y-103841868D01*
X136651643Y-103844157D01*
X136649363Y-103845330D01*
X136646715Y-103846961D01*
X136634817Y-103856176D01*
X136624978Y-103867149D01*
X136617416Y-103879588D01*
X136612360Y-103893203D01*
X136611756Y-103895717D01*
X136610130Y-103907470D01*
X136609967Y-103920245D01*
X136611233Y-103932895D01*
X136613895Y-103944271D01*
X136614464Y-103945974D01*
X136620428Y-103959495D01*
X136628387Y-103971771D01*
X136638011Y-103982482D01*
X136648967Y-103991308D01*
X136660925Y-103997925D01*
X136673553Y-104002015D01*
X136674914Y-104002213D01*
X136678178Y-104002463D01*
X136683117Y-104002680D01*
X136689840Y-104002864D01*
X136698458Y-104003018D01*
X136709077Y-104003141D01*
X136721805Y-104003233D01*
X136736752Y-104003297D01*
X136754025Y-104003332D01*
X136773734Y-104003339D01*
X136795985Y-104003321D01*
X136820889Y-104003274D01*
X136848553Y-104003203D01*
X137015665Y-104002722D01*
X137027857Y-103999411D01*
X137033399Y-103997791D01*
X137051282Y-103990798D01*
X137067539Y-103981500D01*
X137082366Y-103969793D01*
X137092510Y-103960915D01*
X137103806Y-103952185D01*
X137114267Y-103945566D01*
X137124251Y-103940866D01*
X137134108Y-103937895D01*
X137144195Y-103936462D01*
X137152531Y-103936331D01*
X137166836Y-103938241D01*
X137180457Y-103942706D01*
X137193062Y-103949525D01*
X137204317Y-103958505D01*
X137213888Y-103969446D01*
X137221441Y-103982151D01*
X137225743Y-103992941D01*
X137228845Y-104007017D01*
X137229084Y-104021052D01*
X137226458Y-104035049D01*
X137220967Y-104049009D01*
X137212609Y-104062936D01*
X137201384Y-104076833D01*
X137187292Y-104090702D01*
X137180130Y-104096909D01*
X137157261Y-104114450D01*
X137133419Y-104129422D01*
X137108724Y-104141770D01*
X137083296Y-104151441D01*
X137057257Y-104158376D01*
X137030727Y-104162522D01*
X137028973Y-104162643D01*
X137023956Y-104162827D01*
X137016433Y-104162997D01*
X137006628Y-104163152D01*
X136994763Y-104163294D01*
X136981064Y-104163421D01*
X136965754Y-104163533D01*
X136949056Y-104163631D01*
X136931194Y-104163715D01*
X136912391Y-104163783D01*
X136892872Y-104163836D01*
X136872861Y-104163873D01*
X136852581Y-104163896D01*
X136832254Y-104163903D01*
X136812107Y-104163895D01*
X136792361Y-104163870D01*
X136773242Y-104163830D01*
X136754971Y-104163774D01*
X136737774Y-104163702D01*
X136721874Y-104163614D01*
X136707495Y-104163509D01*
X136694860Y-104163388D01*
X136684194Y-104163250D01*
X136675719Y-104163095D01*
X136669661Y-104162924D01*
X136666240Y-104162736D01*
X136654668Y-104161326D01*
X136631377Y-104156620D01*
X136609049Y-104149459D01*
X136587514Y-104139758D01*
X136566605Y-104127438D01*
X136546152Y-104112414D01*
X136525987Y-104094607D01*
X136521840Y-104090549D01*
X136504332Y-104071134D01*
X136489355Y-104050422D01*
X136476874Y-104028348D01*
X136466857Y-104004846D01*
X136459269Y-103979848D01*
X136454077Y-103953287D01*
X136453339Y-103946498D01*
X136452774Y-103936429D01*
X136452541Y-103924960D01*
X136452633Y-103912880D01*
X136453045Y-103900976D01*
X136453766Y-103890036D01*
X136454790Y-103880849D01*
X136455399Y-103876868D01*
X136460972Y-103850750D01*
X136469109Y-103825853D01*
X136479842Y-103802116D01*
X136493201Y-103779482D01*
X136509214Y-103757891D01*
X136527913Y-103737283D01*
X136538845Y-103726840D01*
X136555400Y-103713123D01*
X136572397Y-103701618D01*
X136590356Y-103691950D01*
X136591105Y-103691599D01*
X136594776Y-103689918D01*
X136600852Y-103687162D01*
X136609186Y-103683400D01*
X136619623Y-103678700D01*
X136632011Y-103673129D01*
X136646198Y-103666756D01*
X136662033Y-103659650D01*
X136679364Y-103651878D01*
X136698039Y-103643509D01*
X136717904Y-103634611D01*
X136738809Y-103625253D01*
X136760600Y-103615501D01*
X136783128Y-103605426D01*
X136806238Y-103595094D01*
X136815900Y-103590775D01*
X136838715Y-103580572D01*
X136860851Y-103570668D01*
X136882158Y-103561130D01*
X136902487Y-103552026D01*
X136921689Y-103543421D01*
X136939614Y-103535382D01*
X136956114Y-103527978D01*
X136971038Y-103521274D01*
X136984239Y-103515338D01*
X136995566Y-103510237D01*
X137004870Y-103506037D01*
X137012003Y-103502807D01*
X137016814Y-103500611D01*
X137019156Y-103499520D01*
X137026381Y-103495273D01*
X137034641Y-103488664D01*
X137041592Y-103481156D01*
X137046477Y-103473472D01*
X137047202Y-103471887D01*
X137048851Y-103467120D01*
X137049694Y-103461817D01*
X137049945Y-103454823D01*
X137049945Y-103454226D01*
X137049701Y-103447833D01*
X137049102Y-103441862D01*
X137048265Y-103437534D01*
X137047046Y-103434318D01*
X137042517Y-103427209D01*
X137036022Y-103420820D01*
X137028178Y-103415822D01*
X137019968Y-103411791D01*
X136825273Y-103411407D01*
X136820298Y-103411398D01*
X136793244Y-103411344D01*
X136768884Y-103411300D01*
X136747071Y-103411265D01*
X136727654Y-103411242D01*
X136710485Y-103411232D01*
X136695416Y-103411239D01*
X136682297Y-103411263D01*
X136670981Y-103411306D01*
X136661317Y-103411371D01*
X136653158Y-103411458D01*
X136646354Y-103411571D01*
X136640757Y-103411711D01*
X136636219Y-103411881D01*
X136632590Y-103412082D01*
X136629722Y-103412315D01*
X136627465Y-103412584D01*
X136625671Y-103412888D01*
X136624192Y-103413232D01*
X136622880Y-103413616D01*
X136621584Y-103414044D01*
X136620181Y-103414528D01*
X136612450Y-103417729D01*
X136604940Y-103421889D01*
X136597167Y-103427341D01*
X136588644Y-103434419D01*
X136578887Y-103443459D01*
X136575877Y-103446315D01*
X136569460Y-103452178D01*
X136563351Y-103457488D01*
X136558124Y-103461753D01*
X136554350Y-103464481D01*
X136543705Y-103470350D01*
X136529454Y-103475664D01*
X136515205Y-103478128D01*
X136501060Y-103477748D01*
X136487120Y-103474528D01*
X136473486Y-103468474D01*
X136460258Y-103459592D01*
X136456117Y-103456071D01*
X136446621Y-103445537D01*
X136439572Y-103433526D01*
X136435005Y-103420103D01*
X136432953Y-103405336D01*
X136432851Y-103402427D01*
X136433733Y-103388548D01*
X136436961Y-103375004D01*
X136442629Y-103361611D01*
X136450828Y-103348182D01*
X136461650Y-103334533D01*
X136475188Y-103320480D01*
X136479924Y-103316041D01*
X136500572Y-103298921D01*
X136522364Y-103284290D01*
X136545150Y-103272231D01*
X136568781Y-103262825D01*
X136593106Y-103256154D01*
X136594199Y-103255920D01*
X136598019Y-103255133D01*
X136601784Y-103254422D01*
X136605649Y-103253784D01*
X136609766Y-103253215D01*
X136614292Y-103252712D01*
X136619377Y-103252272D01*
X136625177Y-103251891D01*
X136631847Y-103251566D01*
X136639539Y-103251293D01*
X136648407Y-103251069D01*
X136658606Y-103250891D01*
X136670290Y-103250755D01*
X136683610Y-103250658D01*
X136698723Y-103250596D01*
X136715782Y-103250565D01*
X136734939Y-103250564D01*
X136756350Y-103250587D01*
G37*
G36*
X143114151Y-103677601D02*
G01*
X143114152Y-103704893D01*
X143114150Y-103717575D01*
X143114129Y-103748256D01*
X143114084Y-103776319D01*
X143114016Y-103801738D01*
X143113924Y-103824488D01*
X143113810Y-103844546D01*
X143113672Y-103861884D01*
X143113511Y-103876479D01*
X143113329Y-103888306D01*
X143113122Y-103897339D01*
X143112895Y-103903553D01*
X143112646Y-103906924D01*
X143109770Y-103922623D01*
X143104489Y-103941718D01*
X143097402Y-103961043D01*
X143088795Y-103979983D01*
X143078949Y-103997925D01*
X143068150Y-104014254D01*
X143056679Y-104028355D01*
X143054369Y-104030739D01*
X143049628Y-104035339D01*
X143043278Y-104041304D01*
X143035630Y-104048356D01*
X143026993Y-104056220D01*
X143017677Y-104064622D01*
X143007991Y-104073284D01*
X142998246Y-104081932D01*
X142988750Y-104090289D01*
X142979816Y-104098080D01*
X142971751Y-104105028D01*
X142964865Y-104110860D01*
X142959469Y-104115299D01*
X142955873Y-104118067D01*
X142951214Y-104121131D01*
X142942610Y-104126087D01*
X142932350Y-104131412D01*
X142921068Y-104136806D01*
X142909399Y-104141968D01*
X142897978Y-104146600D01*
X142887438Y-104150400D01*
X142874751Y-104154390D01*
X142860737Y-104158099D01*
X142847391Y-104160751D01*
X142833721Y-104162570D01*
X142833453Y-104162594D01*
X142830241Y-104162732D01*
X142824357Y-104162868D01*
X142815966Y-104163001D01*
X142805239Y-104163128D01*
X142792344Y-104163250D01*
X142777447Y-104163366D01*
X142760716Y-104163474D01*
X142742320Y-104163575D01*
X142722426Y-104163665D01*
X142701202Y-104163744D01*
X142678816Y-104163812D01*
X142655435Y-104163868D01*
X142631229Y-104163910D01*
X142606363Y-104163937D01*
X142604914Y-104163938D01*
X142575288Y-104163964D01*
X142548382Y-104163988D01*
X142524058Y-104164006D01*
X142502173Y-104164011D01*
X142482585Y-104163998D01*
X142465154Y-104163962D01*
X142449740Y-104163898D01*
X142436202Y-104163800D01*
X142424397Y-104163662D01*
X142414184Y-104163480D01*
X142405425Y-104163247D01*
X142397976Y-104162960D01*
X142391697Y-104162611D01*
X142386448Y-104162196D01*
X142382086Y-104161709D01*
X142378471Y-104161145D01*
X142375463Y-104160498D01*
X142372919Y-104159764D01*
X142370699Y-104158935D01*
X142368661Y-104158010D01*
X142366666Y-104156979D01*
X142364572Y-104155838D01*
X142362238Y-104154583D01*
X142357410Y-104151714D01*
X142348908Y-104145306D01*
X142340729Y-104137638D01*
X142333654Y-104129474D01*
X142328470Y-104121585D01*
X142323417Y-104110033D01*
X142319821Y-104095865D01*
X142318790Y-104081512D01*
X142320310Y-104067363D01*
X142324370Y-104053812D01*
X142330955Y-104041249D01*
X142339526Y-104030449D01*
X142349975Y-104021020D01*
X142361711Y-104013395D01*
X142374197Y-104007921D01*
X142386896Y-104004949D01*
X142387198Y-104004916D01*
X142390555Y-104004738D01*
X142396629Y-104004568D01*
X142405289Y-104004408D01*
X142416406Y-104004257D01*
X142429851Y-104004119D01*
X142445494Y-104003992D01*
X142463204Y-104003878D01*
X142482854Y-104003779D01*
X142504312Y-104003693D01*
X142527451Y-104003623D01*
X142552139Y-104003570D01*
X142578248Y-104003534D01*
X142605646Y-104003515D01*
X142616650Y-104003513D01*
X142644728Y-104003506D01*
X142670136Y-104003498D01*
X142693018Y-104003484D01*
X142713520Y-104003458D01*
X142731786Y-104003416D01*
X142747962Y-104003350D01*
X142762191Y-104003259D01*
X142774621Y-104003134D01*
X142785394Y-104002971D01*
X142794658Y-104002766D01*
X142802555Y-104002512D01*
X142809233Y-104002205D01*
X142814833Y-104001838D01*
X142819505Y-104001409D01*
X142823391Y-104000910D01*
X142826635Y-104000336D01*
X142829385Y-103999684D01*
X142831785Y-103998946D01*
X142833979Y-103998119D01*
X142836111Y-103997196D01*
X142838329Y-103996172D01*
X142840777Y-103995043D01*
X142841155Y-103994871D01*
X142847426Y-103991796D01*
X142853717Y-103988235D01*
X142860374Y-103983942D01*
X142867741Y-103978671D01*
X142876162Y-103972173D01*
X142885985Y-103964205D01*
X142897553Y-103954520D01*
X142899694Y-103952706D01*
X142909997Y-103943886D01*
X142918382Y-103936506D01*
X142925123Y-103930275D01*
X142930500Y-103924907D01*
X142934789Y-103920109D01*
X142938269Y-103915596D01*
X142941216Y-103911078D01*
X142943908Y-103906264D01*
X142944098Y-103905903D01*
X142947103Y-103899719D01*
X142949405Y-103893781D01*
X142951096Y-103887571D01*
X142952260Y-103880572D01*
X142952986Y-103872264D01*
X142953363Y-103862130D01*
X142953475Y-103849650D01*
X142953495Y-103821320D01*
X142670983Y-103821320D01*
X142647523Y-103821318D01*
X142612163Y-103821305D01*
X142579576Y-103821280D01*
X142549700Y-103821243D01*
X142522476Y-103821194D01*
X142497843Y-103821132D01*
X142475742Y-103821057D01*
X142456113Y-103820968D01*
X142438895Y-103820866D01*
X142424030Y-103820748D01*
X142411456Y-103820618D01*
X142401114Y-103820472D01*
X142392945Y-103820311D01*
X142386888Y-103820135D01*
X142382883Y-103819943D01*
X142380870Y-103819734D01*
X142378642Y-103819224D01*
X142366433Y-103814808D01*
X142354755Y-103807996D01*
X142344039Y-103799192D01*
X142334716Y-103788794D01*
X142327217Y-103777207D01*
X142321972Y-103764832D01*
X142318760Y-103754618D01*
X142318760Y-103659229D01*
X142474082Y-103659229D01*
X142713148Y-103659229D01*
X142952214Y-103659229D01*
X142951737Y-103590018D01*
X142951656Y-103578593D01*
X142951547Y-103564539D01*
X142951432Y-103552898D01*
X142951300Y-103543399D01*
X142951136Y-103535776D01*
X142950929Y-103529758D01*
X142950667Y-103525077D01*
X142950335Y-103521463D01*
X142949922Y-103518649D01*
X142949415Y-103516366D01*
X142948802Y-103514344D01*
X142948068Y-103512316D01*
X142946564Y-103508446D01*
X142944509Y-103503771D01*
X142942201Y-103499474D01*
X142939395Y-103495278D01*
X142935841Y-103490911D01*
X142931296Y-103486100D01*
X142925512Y-103480569D01*
X142918244Y-103474047D01*
X142909245Y-103466258D01*
X142898270Y-103456930D01*
X142892079Y-103451721D01*
X142881764Y-103443231D01*
X142873003Y-103436344D01*
X142865443Y-103430819D01*
X142858734Y-103426421D01*
X142852526Y-103422911D01*
X142846463Y-103420050D01*
X142840199Y-103417600D01*
X142827984Y-103413225D01*
X142712511Y-103413225D01*
X142597039Y-103413225D01*
X142586079Y-103417673D01*
X142581280Y-103419748D01*
X142574542Y-103423156D01*
X142567616Y-103427320D01*
X142560136Y-103432496D01*
X142551735Y-103438940D01*
X142542049Y-103446912D01*
X142530713Y-103456668D01*
X142522732Y-103463679D01*
X142512690Y-103472683D01*
X142504478Y-103480378D01*
X142497861Y-103487059D01*
X142492605Y-103493024D01*
X142488471Y-103498570D01*
X142485227Y-103503993D01*
X142482634Y-103509593D01*
X142480458Y-103515666D01*
X142478462Y-103522507D01*
X142478069Y-103523994D01*
X142477397Y-103526851D01*
X142476841Y-103529885D01*
X142476385Y-103533398D01*
X142476016Y-103537688D01*
X142475715Y-103543053D01*
X142475472Y-103549793D01*
X142475268Y-103558205D01*
X142475092Y-103568590D01*
X142474925Y-103581246D01*
X142474754Y-103596472D01*
X142474082Y-103659229D01*
X142318760Y-103659229D01*
X142318760Y-103639864D01*
X142318760Y-103635244D01*
X142318770Y-103613535D01*
X142318800Y-103594427D01*
X142318861Y-103577704D01*
X142318960Y-103563142D01*
X142319108Y-103550521D01*
X142319314Y-103539621D01*
X142319586Y-103530219D01*
X142319933Y-103522096D01*
X142320364Y-103515029D01*
X142320891Y-103508798D01*
X142321519Y-103503182D01*
X142322259Y-103497963D01*
X142323121Y-103492913D01*
X142324112Y-103487815D01*
X142325243Y-103482448D01*
X142325468Y-103481423D01*
X142331431Y-103459475D01*
X142339318Y-103438692D01*
X142348925Y-103419537D01*
X142360054Y-103402467D01*
X142363330Y-103398491D01*
X142368451Y-103392828D01*
X142375095Y-103385802D01*
X142382965Y-103377704D01*
X142391767Y-103368824D01*
X142401201Y-103359452D01*
X142410974Y-103349879D01*
X142420787Y-103340396D01*
X142430343Y-103331294D01*
X142439347Y-103322862D01*
X142447504Y-103315389D01*
X142454515Y-103309169D01*
X142460083Y-103304490D01*
X142474038Y-103293894D01*
X142494876Y-103280359D01*
X142516092Y-103269368D01*
X142538061Y-103260734D01*
X142561162Y-103254268D01*
X142562721Y-103253919D01*
X142565041Y-103253448D01*
X142567513Y-103253036D01*
X142570330Y-103252676D01*
X142573687Y-103252366D01*
X142577778Y-103252098D01*
X142582797Y-103251871D01*
X142588938Y-103251677D01*
X142596396Y-103251512D01*
X142605363Y-103251372D01*
X142616035Y-103251251D01*
X142628605Y-103251146D01*
X142643269Y-103251050D01*
X142660218Y-103250959D01*
X142679648Y-103250868D01*
X142701753Y-103250772D01*
X142715076Y-103250719D01*
X142737181Y-103250642D01*
X142756724Y-103250597D01*
X142773901Y-103250591D01*
X142788911Y-103250630D01*
X142801951Y-103250718D01*
X142813217Y-103250861D01*
X142822908Y-103251067D01*
X142831222Y-103251339D01*
X142838355Y-103251684D01*
X142844506Y-103252109D01*
X142849872Y-103252617D01*
X142854650Y-103253215D01*
X142859037Y-103253911D01*
X142863231Y-103254707D01*
X142867430Y-103255611D01*
X142876096Y-103257793D01*
X142892057Y-103262861D01*
X142908054Y-103269143D01*
X142923118Y-103276244D01*
X142936283Y-103283769D01*
X142941719Y-103287437D01*
X142949218Y-103292814D01*
X142958174Y-103299457D01*
X142968211Y-103307070D01*
X142978950Y-103315354D01*
X142990017Y-103324014D01*
X143001034Y-103332752D01*
X143011625Y-103341273D01*
X143021413Y-103349277D01*
X143030022Y-103356472D01*
X143037074Y-103362556D01*
X143042194Y-103367236D01*
X143048172Y-103373353D01*
X143060021Y-103387594D01*
X143071359Y-103403954D01*
X143081926Y-103421932D01*
X143091463Y-103441029D01*
X143099709Y-103460743D01*
X143106404Y-103480573D01*
X143111286Y-103500022D01*
X143111433Y-103500748D01*
X143111829Y-103502824D01*
X143112184Y-103504986D01*
X143112501Y-103507392D01*
X143112782Y-103510194D01*
X143113029Y-103513547D01*
X143113244Y-103517606D01*
X143113431Y-103522525D01*
X143113589Y-103528459D01*
X143113724Y-103535562D01*
X143113834Y-103543988D01*
X143113924Y-103553894D01*
X143113996Y-103565431D01*
X143114050Y-103578757D01*
X143114090Y-103594024D01*
X143114118Y-103611387D01*
X143114137Y-103631001D01*
X143114147Y-103653021D01*
X143114149Y-103659229D01*
X143114151Y-103677601D01*
G37*
G36*
X138406052Y-103700828D02*
G01*
X138406053Y-103701156D01*
X138406115Y-103729848D01*
X138406172Y-103755826D01*
X138406215Y-103779247D01*
X138406239Y-103800265D01*
X138406237Y-103819034D01*
X138406202Y-103835709D01*
X138406130Y-103850445D01*
X138406012Y-103863396D01*
X138405843Y-103874717D01*
X138405618Y-103884562D01*
X138405329Y-103893088D01*
X138404970Y-103900447D01*
X138404534Y-103906794D01*
X138404017Y-103912284D01*
X138403410Y-103917073D01*
X138402709Y-103921313D01*
X138401905Y-103925162D01*
X138400994Y-103928771D01*
X138399969Y-103932296D01*
X138398824Y-103935894D01*
X138397552Y-103939716D01*
X138396147Y-103943919D01*
X138395033Y-103947206D01*
X138387766Y-103965856D01*
X138379197Y-103983875D01*
X138369640Y-104000703D01*
X138359410Y-104015782D01*
X138348815Y-104028550D01*
X138347629Y-104029799D01*
X138342302Y-104035098D01*
X138334906Y-104042127D01*
X138325534Y-104050795D01*
X138314285Y-104061014D01*
X138301256Y-104072695D01*
X138286544Y-104085752D01*
X138270247Y-104100095D01*
X138265989Y-104103751D01*
X138258419Y-104109947D01*
X138250918Y-104115758D01*
X138244163Y-104120662D01*
X138238835Y-104124140D01*
X138238052Y-104124600D01*
X138220701Y-104133844D01*
X138201884Y-104142243D01*
X138182300Y-104149558D01*
X138162645Y-104155552D01*
X138143618Y-104159986D01*
X138125915Y-104162624D01*
X138125690Y-104162644D01*
X138122542Y-104162775D01*
X138116717Y-104162904D01*
X138108383Y-104163030D01*
X138097711Y-104163151D01*
X138084865Y-104163269D01*
X138070017Y-104163379D01*
X138053333Y-104163483D01*
X138034982Y-104163578D01*
X138015131Y-104163665D01*
X137993949Y-104163741D01*
X137971605Y-104163808D01*
X137948265Y-104163861D01*
X137924100Y-104163902D01*
X137899275Y-104163929D01*
X137879381Y-104163945D01*
X137851424Y-104163968D01*
X137826103Y-104163986D01*
X137803277Y-104163992D01*
X137782804Y-104163983D01*
X137764546Y-104163953D01*
X137748360Y-104163898D01*
X137734105Y-104163812D01*
X137721641Y-104163692D01*
X137710828Y-104163532D01*
X137701524Y-104163328D01*
X137693589Y-104163075D01*
X137686883Y-104162767D01*
X137681263Y-104162401D01*
X137676589Y-104161972D01*
X137672722Y-104161473D01*
X137669519Y-104160901D01*
X137666841Y-104160252D01*
X137664547Y-104159520D01*
X137662495Y-104158701D01*
X137660545Y-104157789D01*
X137658557Y-104156780D01*
X137656388Y-104155668D01*
X137654343Y-104154584D01*
X137644094Y-104147659D01*
X137634434Y-104138806D01*
X137625917Y-104128665D01*
X137619095Y-104117877D01*
X137614520Y-104107083D01*
X137612943Y-104100176D01*
X137611867Y-104090466D01*
X137611668Y-104080167D01*
X137612362Y-104070379D01*
X137613960Y-104062206D01*
X137615807Y-104056685D01*
X137622283Y-104043409D01*
X137631082Y-104031551D01*
X137641969Y-104021350D01*
X137654704Y-104013045D01*
X137669049Y-104006875D01*
X137669235Y-104006813D01*
X137670428Y-104006466D01*
X137671849Y-104006149D01*
X137673639Y-104005861D01*
X137675935Y-104005602D01*
X137678876Y-104005368D01*
X137682602Y-104005158D01*
X137687252Y-104004969D01*
X137692965Y-104004799D01*
X137699879Y-104004646D01*
X137708134Y-104004507D01*
X137717868Y-104004383D01*
X137729220Y-104004269D01*
X137742330Y-104004164D01*
X137757335Y-104004065D01*
X137774376Y-104003973D01*
X137793592Y-104003882D01*
X137815120Y-104003791D01*
X137839100Y-104003699D01*
X137865671Y-104003603D01*
X137894972Y-104003503D01*
X137914993Y-104003436D01*
X137942776Y-104003350D01*
X137967927Y-104003273D01*
X137990588Y-104003198D01*
X138010899Y-104003120D01*
X138029006Y-104003031D01*
X138045048Y-104002924D01*
X138059167Y-104002793D01*
X138071507Y-104002631D01*
X138082208Y-104002431D01*
X138091413Y-104002187D01*
X138099264Y-104001891D01*
X138105903Y-104001537D01*
X138111471Y-104001119D01*
X138116112Y-104000630D01*
X138119966Y-104000062D01*
X138123177Y-103999409D01*
X138125885Y-103998664D01*
X138128233Y-103997821D01*
X138130363Y-103996873D01*
X138132417Y-103995814D01*
X138134537Y-103994635D01*
X138136865Y-103993331D01*
X138139543Y-103991894D01*
X138145145Y-103988810D01*
X138150978Y-103985194D01*
X138157308Y-103980836D01*
X138164457Y-103975492D01*
X138172746Y-103968923D01*
X138182500Y-103960889D01*
X138194038Y-103951148D01*
X138200408Y-103945677D01*
X138210343Y-103936870D01*
X138218374Y-103929296D01*
X138224769Y-103922668D01*
X138229800Y-103916698D01*
X138233737Y-103911096D01*
X138236852Y-103905576D01*
X138237439Y-103904394D01*
X138240129Y-103898511D01*
X138242176Y-103892888D01*
X138243663Y-103887002D01*
X138244676Y-103880333D01*
X138245295Y-103872361D01*
X138245606Y-103862565D01*
X138245691Y-103850424D01*
X138245691Y-103821320D01*
X137962692Y-103821320D01*
X137933502Y-103821319D01*
X137901885Y-103821312D01*
X137872920Y-103821301D01*
X137846489Y-103821283D01*
X137822475Y-103821258D01*
X137800762Y-103821225D01*
X137781233Y-103821183D01*
X137763769Y-103821132D01*
X137748254Y-103821070D01*
X137734572Y-103820996D01*
X137722606Y-103820910D01*
X137712236Y-103820810D01*
X137703347Y-103820697D01*
X137695822Y-103820570D01*
X137689543Y-103820425D01*
X137684394Y-103820265D01*
X137680258Y-103820088D01*
X137677016Y-103819891D01*
X137674553Y-103819676D01*
X137672751Y-103819440D01*
X137671492Y-103819184D01*
X137662506Y-103816227D01*
X137649574Y-103809600D01*
X137637980Y-103800703D01*
X137628015Y-103789819D01*
X137619971Y-103777232D01*
X137614136Y-103763225D01*
X137613919Y-103762540D01*
X137613366Y-103760713D01*
X137612887Y-103758857D01*
X137612475Y-103756771D01*
X137612127Y-103754250D01*
X137611836Y-103751093D01*
X137611597Y-103747097D01*
X137611407Y-103742058D01*
X137611258Y-103735774D01*
X137611146Y-103728041D01*
X137611066Y-103718657D01*
X137611012Y-103707419D01*
X137610979Y-103694123D01*
X137610962Y-103678567D01*
X137610956Y-103660549D01*
X137610956Y-103659229D01*
X137768025Y-103659229D01*
X138006140Y-103659229D01*
X138244256Y-103659229D01*
X138244235Y-103593604D01*
X138244225Y-103581926D01*
X138244179Y-103566943D01*
X138244072Y-103554361D01*
X138243883Y-103543900D01*
X138243586Y-103535283D01*
X138243158Y-103528229D01*
X138242575Y-103522461D01*
X138241814Y-103517700D01*
X138240849Y-103513666D01*
X138239658Y-103510081D01*
X138238217Y-103506666D01*
X138236502Y-103503142D01*
X138234580Y-103499687D01*
X138231856Y-103495665D01*
X138228345Y-103491351D01*
X138223801Y-103486501D01*
X138217981Y-103480867D01*
X138210638Y-103474201D01*
X138201527Y-103466259D01*
X138190405Y-103456795D01*
X138188128Y-103454874D01*
X138177459Y-103445979D01*
X138168504Y-103438740D01*
X138160923Y-103432924D01*
X138154373Y-103428303D01*
X138148513Y-103424645D01*
X138143000Y-103421721D01*
X138137495Y-103419298D01*
X138131654Y-103417146D01*
X138120178Y-103413225D01*
X138009084Y-103412824D01*
X137990331Y-103412768D01*
X137968211Y-103412738D01*
X137948907Y-103412760D01*
X137932390Y-103412831D01*
X137918630Y-103412954D01*
X137907597Y-103413128D01*
X137899264Y-103413355D01*
X137893598Y-103413632D01*
X137890572Y-103413962D01*
X137888494Y-103414460D01*
X137880747Y-103417077D01*
X137871914Y-103420962D01*
X137862862Y-103425708D01*
X137854462Y-103430906D01*
X137851145Y-103433347D01*
X137845750Y-103437635D01*
X137839028Y-103443184D01*
X137831396Y-103449634D01*
X137823271Y-103456621D01*
X137815071Y-103463783D01*
X137807213Y-103470759D01*
X137800115Y-103477187D01*
X137794194Y-103482704D01*
X137789865Y-103486949D01*
X137786204Y-103491163D01*
X137781256Y-103498054D01*
X137777296Y-103504898D01*
X137776093Y-103507378D01*
X137774210Y-103511552D01*
X137772646Y-103515635D01*
X137771372Y-103519927D01*
X137770357Y-103524720D01*
X137769573Y-103530312D01*
X137768990Y-103536997D01*
X137768578Y-103545073D01*
X137768308Y-103554834D01*
X137768150Y-103566577D01*
X137768073Y-103580597D01*
X137768050Y-103597190D01*
X137768025Y-103659229D01*
X137610956Y-103659229D01*
X137610954Y-103639864D01*
X137610957Y-103629994D01*
X137610981Y-103608233D01*
X137611036Y-103589114D01*
X137611123Y-103572480D01*
X137611243Y-103558169D01*
X137611399Y-103546024D01*
X137611596Y-103535885D01*
X137611832Y-103527592D01*
X137612112Y-103520987D01*
X137612438Y-103515909D01*
X137612812Y-103512200D01*
X137613722Y-103505540D01*
X137617476Y-103483853D01*
X137622235Y-103464366D01*
X137628158Y-103446650D01*
X137635405Y-103430276D01*
X137644136Y-103414815D01*
X137654510Y-103399834D01*
X137656864Y-103397007D01*
X137661315Y-103392131D01*
X137667312Y-103385837D01*
X137674565Y-103378418D01*
X137682774Y-103370162D01*
X137691646Y-103361362D01*
X137700884Y-103352309D01*
X137710193Y-103343293D01*
X137719278Y-103334607D01*
X137727843Y-103326541D01*
X137735593Y-103319386D01*
X137742231Y-103313433D01*
X137752125Y-103305036D01*
X137771539Y-103290355D01*
X137790964Y-103278154D01*
X137810808Y-103268218D01*
X137831476Y-103260332D01*
X137853374Y-103254278D01*
X137855168Y-103253876D01*
X137857474Y-103253411D01*
X137859946Y-103253005D01*
X137862778Y-103252651D01*
X137866161Y-103252345D01*
X137870291Y-103252082D01*
X137875357Y-103251858D01*
X137881557Y-103251668D01*
X137889079Y-103251507D01*
X137898120Y-103251370D01*
X137908870Y-103251252D01*
X137921524Y-103251150D01*
X137936276Y-103251057D01*
X137953316Y-103250970D01*
X137972840Y-103250883D01*
X137995038Y-103250792D01*
X138008480Y-103250740D01*
X138029762Y-103250668D01*
X138048480Y-103250623D01*
X138064828Y-103250606D01*
X138079001Y-103250619D01*
X138091195Y-103250664D01*
X138101602Y-103250745D01*
X138110417Y-103250863D01*
X138117834Y-103251021D01*
X138124048Y-103251221D01*
X138129252Y-103251464D01*
X138133640Y-103251754D01*
X138137408Y-103252092D01*
X138140749Y-103252482D01*
X138142150Y-103252668D01*
X138166794Y-103257467D01*
X138190613Y-103264992D01*
X138213426Y-103275176D01*
X138235055Y-103287950D01*
X138237360Y-103289528D01*
X138244007Y-103294309D01*
X138252126Y-103300393D01*
X138261377Y-103307500D01*
X138271418Y-103315355D01*
X138281907Y-103323685D01*
X138292503Y-103332210D01*
X138302863Y-103340657D01*
X138312647Y-103348748D01*
X138321513Y-103356208D01*
X138329118Y-103362762D01*
X138335122Y-103368133D01*
X138339181Y-103372045D01*
X138342702Y-103375852D01*
X138349061Y-103383291D01*
X138355233Y-103391101D01*
X138360269Y-103398109D01*
X138364535Y-103404779D01*
X138373385Y-103420300D01*
X138381923Y-103437401D01*
X138389759Y-103455221D01*
X138396501Y-103472900D01*
X138401759Y-103489575D01*
X138405630Y-103503593D01*
X138405962Y-103659229D01*
X138406052Y-103700828D01*
G37*
G36*
X133701097Y-103908029D02*
G01*
X133700819Y-103920935D01*
X133700435Y-103932094D01*
X133699947Y-103940944D01*
X133699465Y-103946881D01*
X133696185Y-103971354D01*
X133690865Y-103994170D01*
X133683361Y-104015752D01*
X133673534Y-104036525D01*
X133661241Y-104056913D01*
X133654354Y-104066727D01*
X133637711Y-104086991D01*
X133619319Y-104105083D01*
X133599325Y-104120917D01*
X133577880Y-104134407D01*
X133555127Y-104145465D01*
X133531216Y-104154005D01*
X133506293Y-104159942D01*
X133480506Y-104163186D01*
X133479962Y-104163212D01*
X133476612Y-104163281D01*
X133470677Y-104163352D01*
X133462366Y-104163423D01*
X133451885Y-104163495D01*
X133439443Y-104163564D01*
X133425246Y-104163632D01*
X133409503Y-104163696D01*
X133392421Y-104163757D01*
X133374206Y-104163810D01*
X133355067Y-104163859D01*
X133335211Y-104163898D01*
X133196370Y-104164149D01*
X133130298Y-104124702D01*
X133123906Y-104120888D01*
X133111740Y-104113637D01*
X133100443Y-104106915D01*
X133090243Y-104100858D01*
X133081366Y-104095600D01*
X133074042Y-104091276D01*
X133068497Y-104088022D01*
X133064959Y-104085969D01*
X133063655Y-104085256D01*
X133063480Y-104085576D01*
X133063198Y-104087928D01*
X133063087Y-104091816D01*
X133062645Y-104096624D01*
X133060887Y-104104333D01*
X133058094Y-104112726D01*
X133054597Y-104120846D01*
X133050724Y-104127732D01*
X133045301Y-104134928D01*
X133035020Y-104144988D01*
X133023144Y-104153081D01*
X133010084Y-104159034D01*
X132996255Y-104162676D01*
X132982072Y-104163834D01*
X132967945Y-104162334D01*
X132961970Y-104160911D01*
X132949370Y-104156317D01*
X132938130Y-104149640D01*
X132927525Y-104140484D01*
X132921265Y-104133663D01*
X132913383Y-104122418D01*
X132907975Y-104110385D01*
X132904862Y-104097120D01*
X132903864Y-104082179D01*
X132903869Y-104081285D01*
X132903950Y-104076771D01*
X132904123Y-104069628D01*
X132904382Y-104060028D01*
X132904722Y-104048141D01*
X132905136Y-104034142D01*
X132905620Y-104018201D01*
X132906167Y-104000489D01*
X132906772Y-103981179D01*
X132907429Y-103960442D01*
X132908132Y-103938451D01*
X132908875Y-103915376D01*
X132909614Y-103892579D01*
X133070149Y-103892579D01*
X133070171Y-103896004D01*
X133070401Y-103898221D01*
X133070841Y-103899566D01*
X133071495Y-103900377D01*
X133072367Y-103900992D01*
X133072891Y-103901313D01*
X133075709Y-103902999D01*
X133080686Y-103905956D01*
X133087610Y-103910060D01*
X133096270Y-103915183D01*
X133106454Y-103921204D01*
X133117949Y-103927995D01*
X133130546Y-103935431D01*
X133144032Y-103943388D01*
X133158196Y-103951740D01*
X133241113Y-104000625D01*
X133355431Y-104000510D01*
X133376132Y-104000487D01*
X133395287Y-104000455D01*
X133411965Y-104000401D01*
X133426369Y-104000318D01*
X133438699Y-104000192D01*
X133449157Y-104000013D01*
X133457943Y-103999771D01*
X133465260Y-103999455D01*
X133471309Y-103999053D01*
X133476289Y-103998554D01*
X133480404Y-103997949D01*
X133483854Y-103997225D01*
X133486840Y-103996371D01*
X133489564Y-103995377D01*
X133492228Y-103994232D01*
X133495030Y-103992924D01*
X133498777Y-103990974D01*
X133509017Y-103983898D01*
X133518621Y-103974851D01*
X133526959Y-103964481D01*
X133533398Y-103953439D01*
X133534143Y-103951832D01*
X133535836Y-103947803D01*
X133537224Y-103943690D01*
X133538332Y-103939185D01*
X133539186Y-103933977D01*
X133539813Y-103927757D01*
X133540240Y-103920218D01*
X133540492Y-103911047D01*
X133540596Y-103899937D01*
X133540579Y-103886577D01*
X133540467Y-103870659D01*
X133540436Y-103867005D01*
X133540309Y-103853682D01*
X133540178Y-103842832D01*
X133540023Y-103834139D01*
X133539826Y-103827284D01*
X133539568Y-103821950D01*
X133539229Y-103817819D01*
X133538791Y-103814573D01*
X133538235Y-103811896D01*
X133537543Y-103809470D01*
X133536695Y-103806976D01*
X133532381Y-103797109D01*
X133524763Y-103785211D01*
X133515254Y-103774740D01*
X133504254Y-103766056D01*
X133492157Y-103759514D01*
X133479360Y-103755467D01*
X133479044Y-103755411D01*
X133476012Y-103755141D01*
X133470593Y-103754900D01*
X133462738Y-103754686D01*
X133452400Y-103754499D01*
X133439531Y-103754338D01*
X133424082Y-103754203D01*
X133406004Y-103754093D01*
X133385251Y-103754009D01*
X133361773Y-103753949D01*
X133335524Y-103753914D01*
X133306454Y-103753902D01*
X133284773Y-103753900D01*
X133261154Y-103753900D01*
X133240104Y-103753908D01*
X133221459Y-103753931D01*
X133205053Y-103753975D01*
X133190724Y-103754050D01*
X133178306Y-103754159D01*
X133167637Y-103754313D01*
X133158549Y-103754516D01*
X133150883Y-103754777D01*
X133144472Y-103755104D01*
X133139152Y-103755502D01*
X133134759Y-103755978D01*
X133131128Y-103756539D01*
X133128096Y-103757194D01*
X133125501Y-103757949D01*
X133123174Y-103758810D01*
X133120954Y-103759786D01*
X133118677Y-103760883D01*
X133116177Y-103762108D01*
X133115937Y-103762225D01*
X133108891Y-103766659D01*
X133101396Y-103772941D01*
X133094175Y-103780339D01*
X133087943Y-103788118D01*
X133083420Y-103795545D01*
X133083313Y-103795766D01*
X133080998Y-103800884D01*
X133079079Y-103806083D01*
X133077486Y-103811765D01*
X133076149Y-103818323D01*
X133075000Y-103826158D01*
X133073970Y-103835667D01*
X133072990Y-103847248D01*
X133071990Y-103861299D01*
X133071298Y-103871679D01*
X133070715Y-103880754D01*
X133070332Y-103887609D01*
X133070149Y-103892579D01*
X132909614Y-103892579D01*
X132909653Y-103891390D01*
X132910461Y-103866665D01*
X132911291Y-103841372D01*
X132912139Y-103815682D01*
X132913000Y-103789769D01*
X132913865Y-103763803D01*
X132914732Y-103737957D01*
X132915593Y-103712400D01*
X132916444Y-103687308D01*
X132917278Y-103662848D01*
X132918088Y-103639197D01*
X132918871Y-103616522D01*
X132919620Y-103594998D01*
X132920329Y-103574795D01*
X132920993Y-103556085D01*
X132921606Y-103539041D01*
X132922162Y-103523833D01*
X132922655Y-103510634D01*
X132923080Y-103499617D01*
X132923432Y-103490951D01*
X132923703Y-103484808D01*
X132923888Y-103481360D01*
X132924371Y-103474965D01*
X132926230Y-103457278D01*
X132928836Y-103441361D01*
X132932364Y-103426424D01*
X132936994Y-103411678D01*
X132942899Y-103396332D01*
X132947592Y-103385865D01*
X132959190Y-103364834D01*
X132973106Y-103344856D01*
X132989059Y-103326184D01*
X133006775Y-103309079D01*
X133025972Y-103293793D01*
X133046372Y-103280584D01*
X133067695Y-103269707D01*
X133089665Y-103261420D01*
X133090402Y-103261191D01*
X133095550Y-103259616D01*
X133100420Y-103258201D01*
X133105191Y-103256941D01*
X133110034Y-103255824D01*
X133115127Y-103254842D01*
X133120642Y-103253987D01*
X133126754Y-103253250D01*
X133133639Y-103252622D01*
X133141471Y-103252095D01*
X133150426Y-103251660D01*
X133160676Y-103251307D01*
X133172398Y-103251030D01*
X133185766Y-103250818D01*
X133200953Y-103250664D01*
X133218137Y-103250557D01*
X133237491Y-103250490D01*
X133259189Y-103250455D01*
X133283408Y-103250442D01*
X133310319Y-103250443D01*
X133323341Y-103250446D01*
X133347483Y-103250461D01*
X133368989Y-103250488D01*
X133388014Y-103250530D01*
X133404711Y-103250588D01*
X133419237Y-103250664D01*
X133431745Y-103250761D01*
X133442392Y-103250879D01*
X133451333Y-103251021D01*
X133458721Y-103251189D01*
X133464712Y-103251384D01*
X133469462Y-103251610D01*
X133473126Y-103251866D01*
X133475857Y-103252156D01*
X133477812Y-103252480D01*
X133480614Y-103253129D01*
X133493170Y-103257571D01*
X133504769Y-103264429D01*
X133515809Y-103273926D01*
X133519202Y-103277483D01*
X133528163Y-103289179D01*
X133534431Y-103301665D01*
X133538114Y-103315197D01*
X133539318Y-103330028D01*
X133539077Y-103336990D01*
X133536870Y-103350886D01*
X133532237Y-103363574D01*
X133525032Y-103375394D01*
X133515110Y-103386688D01*
X133509887Y-103391535D01*
X133502306Y-103397539D01*
X133495568Y-103401626D01*
X133495083Y-103401863D01*
X133492531Y-103403140D01*
X133490259Y-103404281D01*
X133488104Y-103405294D01*
X133485895Y-103406187D01*
X133483471Y-103406969D01*
X133480664Y-103407649D01*
X133477309Y-103408234D01*
X133473239Y-103408733D01*
X133468289Y-103409155D01*
X133462294Y-103409506D01*
X133455088Y-103409796D01*
X133446505Y-103410034D01*
X133436379Y-103410227D01*
X133424544Y-103410384D01*
X133410835Y-103410512D01*
X133395087Y-103410622D01*
X133377131Y-103410720D01*
X133356805Y-103410815D01*
X133333941Y-103410916D01*
X133308375Y-103411030D01*
X133294118Y-103411095D01*
X133270330Y-103411207D01*
X133249162Y-103411310D01*
X133230448Y-103411410D01*
X133214031Y-103411510D01*
X133199746Y-103411613D01*
X133187432Y-103411722D01*
X133176928Y-103411842D01*
X133168072Y-103411977D01*
X133160701Y-103412128D01*
X133154655Y-103412301D01*
X133149771Y-103412498D01*
X133145888Y-103412725D01*
X133142844Y-103412982D01*
X133140478Y-103413275D01*
X133138628Y-103413607D01*
X133137131Y-103413983D01*
X133135826Y-103414403D01*
X133134551Y-103414873D01*
X133128030Y-103417701D01*
X133115735Y-103425218D01*
X133105018Y-103434797D01*
X133096186Y-103446082D01*
X133089541Y-103458720D01*
X133085390Y-103472350D01*
X133085117Y-103474169D01*
X133084670Y-103479043D01*
X133084235Y-103485936D01*
X133083817Y-103494497D01*
X133083426Y-103504378D01*
X133083068Y-103515230D01*
X133082749Y-103526705D01*
X133082477Y-103538454D01*
X133082258Y-103550128D01*
X133082100Y-103561376D01*
X133082009Y-103571851D01*
X133081994Y-103581205D01*
X133082060Y-103589087D01*
X133082215Y-103595149D01*
X133082465Y-103599042D01*
X133082819Y-103600417D01*
X133083741Y-103600302D01*
X133087070Y-103599710D01*
X133092107Y-103598728D01*
X133098182Y-103597487D01*
X133102217Y-103596642D01*
X133106846Y-103595688D01*
X133111193Y-103594835D01*
X133115434Y-103594080D01*
X133119743Y-103593416D01*
X133124296Y-103592836D01*
X133129267Y-103592336D01*
X133134832Y-103591908D01*
X133141164Y-103591549D01*
X133148441Y-103591251D01*
X133156837Y-103591010D01*
X133166526Y-103590817D01*
X133177684Y-103590670D01*
X133190485Y-103590561D01*
X133205105Y-103590483D01*
X133221719Y-103590433D01*
X133240501Y-103590404D01*
X133261627Y-103590391D01*
X133285272Y-103590386D01*
X133311611Y-103590385D01*
X133327471Y-103590384D01*
X133352605Y-103590386D01*
X133375137Y-103590398D01*
X133395236Y-103590425D01*
X133413069Y-103590472D01*
X133428808Y-103590547D01*
X133442619Y-103590653D01*
X133454672Y-103590797D01*
X133465133Y-103590985D01*
X133474176Y-103591221D01*
X133481966Y-103591513D01*
X133488672Y-103591865D01*
X133494463Y-103592285D01*
X133499508Y-103592775D01*
X133503977Y-103593344D01*
X133508036Y-103593996D01*
X133511856Y-103594738D01*
X133515605Y-103595574D01*
X133519452Y-103596511D01*
X133523565Y-103597555D01*
X133524287Y-103597741D01*
X133547792Y-103605306D01*
X133570353Y-103615567D01*
X133591924Y-103628500D01*
X133612464Y-103644079D01*
X133631928Y-103662277D01*
X133644606Y-103676194D01*
X133660253Y-103696480D01*
X133673216Y-103717558D01*
X133683581Y-103739617D01*
X133691434Y-103762851D01*
X133696860Y-103787450D01*
X133699948Y-103813608D01*
X133700086Y-103815656D01*
X133700547Y-103825157D01*
X133700903Y-103836823D01*
X133701152Y-103850090D01*
X133701296Y-103864404D01*
X133701336Y-103879205D01*
X133701268Y-103893933D01*
X133701195Y-103899937D01*
X133701097Y-103908029D01*
G37*
G36*
X144294032Y-103777458D02*
G01*
X144293942Y-103796846D01*
X144293829Y-103815287D01*
X144293691Y-103832566D01*
X144293531Y-103848471D01*
X144293347Y-103862789D01*
X144293140Y-103875304D01*
X144292908Y-103885805D01*
X144292653Y-103894077D01*
X144292375Y-103899907D01*
X144292073Y-103903082D01*
X144289442Y-103916089D01*
X144284647Y-103934620D01*
X144278721Y-103953188D01*
X144271867Y-103971308D01*
X144264286Y-103988496D01*
X144256182Y-104004268D01*
X144247754Y-104018141D01*
X144239207Y-104029630D01*
X144237329Y-104031638D01*
X144233116Y-104035713D01*
X144227227Y-104041142D01*
X144219972Y-104047663D01*
X144211659Y-104055004D01*
X144202598Y-104062901D01*
X144193095Y-104071086D01*
X144183459Y-104079293D01*
X144173998Y-104087255D01*
X144165023Y-104094706D01*
X144156840Y-104101377D01*
X144149758Y-104107003D01*
X144133340Y-104119030D01*
X144111709Y-104132620D01*
X144089867Y-104143884D01*
X144068060Y-104152713D01*
X144046533Y-104158996D01*
X144025530Y-104162624D01*
X144023136Y-104162793D01*
X144017663Y-104162997D01*
X144009844Y-104163175D01*
X143999975Y-104163324D01*
X143988358Y-104163440D01*
X143975287Y-104163522D01*
X143961063Y-104163567D01*
X143945983Y-104163571D01*
X143930344Y-104163532D01*
X143918884Y-104163486D01*
X143902857Y-104163413D01*
X143889284Y-104163332D01*
X143877910Y-104163232D01*
X143868482Y-104163107D01*
X143860744Y-104162946D01*
X143854441Y-104162741D01*
X143849320Y-104162482D01*
X143845125Y-104162162D01*
X143841602Y-104161770D01*
X143838495Y-104161298D01*
X143835552Y-104160736D01*
X143832518Y-104160077D01*
X143811169Y-104154115D01*
X143788189Y-104145278D01*
X143764868Y-104133930D01*
X143741430Y-104120205D01*
X143718094Y-104104232D01*
X143695085Y-104086140D01*
X143672621Y-104066062D01*
X143670820Y-104064354D01*
X143665748Y-104059599D01*
X143661569Y-104055762D01*
X143658676Y-104053198D01*
X143657459Y-104052264D01*
X143657283Y-104052911D01*
X143656972Y-104055954D01*
X143656624Y-104061063D01*
X143656270Y-104067761D01*
X143655942Y-104075573D01*
X143655676Y-104081626D01*
X143654929Y-104092504D01*
X143653934Y-104100959D01*
X143652716Y-104106773D01*
X143647644Y-104119691D01*
X143640173Y-104131927D01*
X143630888Y-104142377D01*
X143620087Y-104150913D01*
X143608071Y-104157405D01*
X143595140Y-104161729D01*
X143581593Y-104163754D01*
X143567729Y-104163353D01*
X143553848Y-104160399D01*
X143540250Y-104154764D01*
X143530935Y-104148780D01*
X143521357Y-104140443D01*
X143512928Y-104130889D01*
X143506482Y-104120948D01*
X143506301Y-104120610D01*
X143505524Y-104119254D01*
X143504793Y-104118084D01*
X143504106Y-104117016D01*
X143503462Y-104115964D01*
X143502858Y-104114844D01*
X143502294Y-104113573D01*
X143501769Y-104112061D01*
X143501280Y-104110228D01*
X143500827Y-104107986D01*
X143500409Y-104105253D01*
X143500024Y-104101942D01*
X143499671Y-104097969D01*
X143499348Y-104093248D01*
X143499053Y-104087695D01*
X143498787Y-104081226D01*
X143498546Y-104073755D01*
X143498332Y-104065197D01*
X143498140Y-104055467D01*
X143497971Y-104044482D01*
X143497822Y-104032155D01*
X143497693Y-104018402D01*
X143497582Y-104003138D01*
X143497489Y-103986278D01*
X143497410Y-103967737D01*
X143497346Y-103947432D01*
X143497295Y-103925275D01*
X143497256Y-103901183D01*
X143497226Y-103875071D01*
X143497206Y-103846854D01*
X143497192Y-103816447D01*
X143497185Y-103783765D01*
X143497183Y-103748723D01*
X143497183Y-103724419D01*
X143656284Y-103724419D01*
X143656303Y-103740090D01*
X143656362Y-103755223D01*
X143656462Y-103769527D01*
X143656605Y-103782708D01*
X143656790Y-103794478D01*
X143657017Y-103804544D01*
X143657289Y-103812615D01*
X143657604Y-103818400D01*
X143657964Y-103821608D01*
X143660298Y-103829656D01*
X143664379Y-103839410D01*
X143669481Y-103848901D01*
X143675039Y-103856958D01*
X143675117Y-103857053D01*
X143677259Y-103859201D01*
X143681361Y-103862966D01*
X143687194Y-103868155D01*
X143694525Y-103874570D01*
X143703121Y-103882016D01*
X143712755Y-103890296D01*
X143723192Y-103899217D01*
X143734203Y-103908583D01*
X143745554Y-103918197D01*
X143757017Y-103927865D01*
X143768357Y-103937389D01*
X143779345Y-103946576D01*
X143789750Y-103955230D01*
X143799340Y-103963154D01*
X143807881Y-103970154D01*
X143815147Y-103976034D01*
X143820902Y-103980598D01*
X143824916Y-103983650D01*
X143829614Y-103986821D01*
X143837211Y-103991271D01*
X143845193Y-103995337D01*
X143852670Y-103998571D01*
X143858745Y-104000528D01*
X143859249Y-104000626D01*
X143863129Y-104001016D01*
X143869441Y-104001341D01*
X143877832Y-104001600D01*
X143887948Y-104001798D01*
X143899437Y-104001934D01*
X143911945Y-104002009D01*
X143925117Y-104002027D01*
X143938601Y-104001988D01*
X143952045Y-104001894D01*
X143965094Y-104001747D01*
X143977393Y-104001547D01*
X143988591Y-104001298D01*
X143998336Y-104000999D01*
X144006271Y-104000653D01*
X144012045Y-104000262D01*
X144015302Y-103999828D01*
X144017060Y-103999392D01*
X144021354Y-103998195D01*
X144025367Y-103996781D01*
X144029368Y-103994961D01*
X144033627Y-103992550D01*
X144038415Y-103989359D01*
X144044000Y-103985202D01*
X144050654Y-103979891D01*
X144058645Y-103973241D01*
X144068245Y-103965063D01*
X144079722Y-103955170D01*
X144079966Y-103954959D01*
X144091231Y-103945092D01*
X144100460Y-103936708D01*
X144107892Y-103929557D01*
X144113768Y-103923387D01*
X144118327Y-103917945D01*
X144121808Y-103912981D01*
X144124452Y-103908244D01*
X144125035Y-103907064D01*
X144126160Y-103904804D01*
X144127169Y-103902684D01*
X144128065Y-103900546D01*
X144128858Y-103898231D01*
X144129552Y-103895582D01*
X144130155Y-103892439D01*
X144130674Y-103888645D01*
X144131113Y-103884040D01*
X144131481Y-103878468D01*
X144131782Y-103871768D01*
X144132024Y-103863784D01*
X144132214Y-103854357D01*
X144132357Y-103843326D01*
X144132460Y-103830536D01*
X144132530Y-103815828D01*
X144132571Y-103799042D01*
X144132593Y-103780021D01*
X144132602Y-103758606D01*
X144132601Y-103734639D01*
X144132599Y-103707962D01*
X144132596Y-103691679D01*
X144132574Y-103663113D01*
X144132528Y-103637345D01*
X144132459Y-103614327D01*
X144132367Y-103594013D01*
X144132252Y-103576357D01*
X144132111Y-103561312D01*
X144131946Y-103548831D01*
X144131756Y-103538867D01*
X144131541Y-103531374D01*
X144131300Y-103526306D01*
X144131033Y-103523615D01*
X144130370Y-103520562D01*
X144127132Y-103510603D01*
X144122502Y-103500587D01*
X144117075Y-103491866D01*
X144116826Y-103491542D01*
X144114102Y-103488546D01*
X144109564Y-103484029D01*
X144103533Y-103478282D01*
X144096326Y-103471596D01*
X144088262Y-103464261D01*
X144079663Y-103456568D01*
X144070845Y-103448809D01*
X144062129Y-103441274D01*
X144053834Y-103434253D01*
X144041828Y-103425381D01*
X144028545Y-103418062D01*
X144015362Y-103413326D01*
X144013082Y-103412912D01*
X144007492Y-103412358D01*
X143999638Y-103411890D01*
X143989883Y-103411505D01*
X143978591Y-103411205D01*
X143966125Y-103410990D01*
X143952848Y-103410858D01*
X143939124Y-103410810D01*
X143925315Y-103410844D01*
X143911785Y-103410963D01*
X143898896Y-103411165D01*
X143887013Y-103411450D01*
X143876498Y-103411817D01*
X143867715Y-103412267D01*
X143861026Y-103412799D01*
X143856795Y-103413412D01*
X143854657Y-103413915D01*
X143844010Y-103417061D01*
X143834973Y-103421076D01*
X143826490Y-103426411D01*
X143826116Y-103426688D01*
X143823066Y-103429107D01*
X143818160Y-103433154D01*
X143811638Y-103438622D01*
X143803737Y-103445310D01*
X143794693Y-103453009D01*
X143784744Y-103461515D01*
X143774128Y-103470623D01*
X143763083Y-103480127D01*
X143751846Y-103489823D01*
X143740655Y-103499505D01*
X143729747Y-103508968D01*
X143719359Y-103518006D01*
X143709730Y-103526416D01*
X143701098Y-103533992D01*
X143693698Y-103540526D01*
X143687770Y-103545817D01*
X143683550Y-103549657D01*
X143681276Y-103551842D01*
X143676844Y-103556970D01*
X143668733Y-103569504D01*
X143662569Y-103584029D01*
X143658416Y-103600417D01*
X143658194Y-103602143D01*
X143657840Y-103607183D01*
X143657521Y-103614599D01*
X143657237Y-103624096D01*
X143656989Y-103635385D01*
X143656777Y-103648173D01*
X143656602Y-103662169D01*
X143656464Y-103677084D01*
X143656365Y-103692624D01*
X143656305Y-103708500D01*
X143656284Y-103724419D01*
X143497183Y-103724419D01*
X143497183Y-103711237D01*
X143497187Y-103671222D01*
X143497191Y-103628592D01*
X143497194Y-103583263D01*
X143497196Y-103535151D01*
X143497194Y-103487467D01*
X143497192Y-103442156D01*
X143497189Y-103399545D01*
X143497186Y-103359549D01*
X143497186Y-103322082D01*
X143497189Y-103287060D01*
X143497197Y-103254397D01*
X143497211Y-103224010D01*
X143497233Y-103195812D01*
X143497262Y-103169720D01*
X143497302Y-103145648D01*
X143497351Y-103123510D01*
X143497414Y-103103223D01*
X143497489Y-103084699D01*
X143497580Y-103067858D01*
X143497686Y-103052610D01*
X143497809Y-103038873D01*
X143497951Y-103026562D01*
X143498113Y-103015591D01*
X143498295Y-103005875D01*
X143498501Y-102997330D01*
X143498729Y-102989869D01*
X143498981Y-102983409D01*
X143499260Y-102977865D01*
X143499567Y-102973151D01*
X143499902Y-102969184D01*
X143500266Y-102965876D01*
X143500661Y-102963144D01*
X143501089Y-102960903D01*
X143501550Y-102959068D01*
X143502045Y-102957553D01*
X143502578Y-102956275D01*
X143503146Y-102955148D01*
X143503754Y-102954085D01*
X143504401Y-102953005D01*
X143505089Y-102951820D01*
X143505820Y-102950446D01*
X143510254Y-102943257D01*
X143517061Y-102934919D01*
X143525110Y-102926946D01*
X143533648Y-102920074D01*
X143541919Y-102915045D01*
X143551699Y-102910942D01*
X143566118Y-102907278D01*
X143580462Y-102906343D01*
X143594476Y-102908098D01*
X143607904Y-102912503D01*
X143620491Y-102919519D01*
X143631982Y-102929104D01*
X143639178Y-102937247D01*
X143647371Y-102950105D01*
X143653060Y-102964365D01*
X143653246Y-102965028D01*
X143653589Y-102966510D01*
X143653899Y-102968341D01*
X143654178Y-102970669D01*
X143654428Y-102973644D01*
X143654654Y-102977412D01*
X143654855Y-102982124D01*
X143655036Y-102987925D01*
X143655198Y-102994966D01*
X143655345Y-103003393D01*
X143655477Y-103013355D01*
X143655599Y-103025001D01*
X143655711Y-103038477D01*
X143655816Y-103053934D01*
X143655918Y-103071519D01*
X143656018Y-103091379D01*
X143656119Y-103113664D01*
X143656223Y-103138521D01*
X143656332Y-103166099D01*
X143657085Y-103359343D01*
X143680753Y-103339120D01*
X143686974Y-103333818D01*
X143700321Y-103322570D01*
X143711990Y-103312961D01*
X143722283Y-103304773D01*
X143731500Y-103297791D01*
X143739945Y-103291796D01*
X143747916Y-103286572D01*
X143755717Y-103281901D01*
X143763647Y-103277568D01*
X143772009Y-103273352D01*
X143786499Y-103266781D01*
X143804741Y-103260058D01*
X143823540Y-103254967D01*
X143843966Y-103251181D01*
X143848421Y-103250698D01*
X143855907Y-103250211D01*
X143865588Y-103249797D01*
X143877102Y-103249457D01*
X143890092Y-103249188D01*
X143904196Y-103248994D01*
X143919055Y-103248872D01*
X143934310Y-103248824D01*
X143949599Y-103248851D01*
X143964564Y-103248950D01*
X143978846Y-103249123D01*
X143992083Y-103249372D01*
X144003917Y-103249694D01*
X144013987Y-103250091D01*
X144021933Y-103250562D01*
X144027396Y-103251107D01*
X144030929Y-103251634D01*
X144057083Y-103257130D01*
X144082145Y-103265267D01*
X144106039Y-103276011D01*
X144128688Y-103289326D01*
X144150015Y-103305179D01*
X144159124Y-103312792D01*
X144169729Y-103321786D01*
X144180441Y-103330995D01*
X144190974Y-103340162D01*
X144201036Y-103349032D01*
X144210339Y-103357345D01*
X144218596Y-103364849D01*
X144225515Y-103371285D01*
X144230810Y-103376396D01*
X144234190Y-103379927D01*
X144237544Y-103383871D01*
X144250273Y-103401148D01*
X144261824Y-103420554D01*
X144271986Y-103441618D01*
X144280550Y-103463869D01*
X144287307Y-103486837D01*
X144292047Y-103510048D01*
X144292292Y-103512553D01*
X144292575Y-103518073D01*
X144292836Y-103526059D01*
X144293073Y-103536301D01*
X144293287Y-103548583D01*
X144293478Y-103562693D01*
X144293645Y-103578417D01*
X144293789Y-103595542D01*
X144293910Y-103613852D01*
X144294007Y-103633136D01*
X144294081Y-103653182D01*
X144294132Y-103673772D01*
X144294158Y-103694698D01*
X144294162Y-103715742D01*
X144294143Y-103736692D01*
X144294098Y-103757335D01*
X144294095Y-103758606D01*
X144294032Y-103777458D01*
G37*
G36*
X132516543Y-103738515D02*
G01*
X132516537Y-103773578D01*
X132516529Y-103806267D01*
X132516518Y-103836666D01*
X132516503Y-103864863D01*
X132516484Y-103890944D01*
X132516461Y-103914992D01*
X132516433Y-103937094D01*
X132516400Y-103957336D01*
X132516360Y-103975805D01*
X132516316Y-103992584D01*
X132516263Y-104007759D01*
X132516204Y-104021419D01*
X132516138Y-104033645D01*
X132516064Y-104044527D01*
X132515982Y-104054149D01*
X132515891Y-104062596D01*
X132515790Y-104069954D01*
X132515680Y-104076309D01*
X132515561Y-104081748D01*
X132515430Y-104086355D01*
X132515289Y-104090215D01*
X132515137Y-104093416D01*
X132514973Y-104096042D01*
X132514797Y-104098180D01*
X132514609Y-104099915D01*
X132514407Y-104101333D01*
X132514192Y-104102518D01*
X132513963Y-104103558D01*
X132513720Y-104104538D01*
X132512491Y-104108911D01*
X132507832Y-104120573D01*
X132501249Y-104131074D01*
X132492285Y-104141198D01*
X132481021Y-104150493D01*
X132468265Y-104157540D01*
X132454528Y-104161974D01*
X132453717Y-104162145D01*
X132438901Y-104163832D01*
X132424495Y-104162822D01*
X132410780Y-104159276D01*
X132398037Y-104153356D01*
X132386545Y-104145221D01*
X132376588Y-104135032D01*
X132368443Y-104122952D01*
X132362394Y-104109141D01*
X132361061Y-104104937D01*
X132360047Y-104100882D01*
X132359384Y-104096617D01*
X132359001Y-104091476D01*
X132358823Y-104084797D01*
X132358780Y-104075914D01*
X132358780Y-104053453D01*
X132346229Y-104064757D01*
X132337596Y-104072424D01*
X132317552Y-104089293D01*
X132298347Y-104104040D01*
X132279592Y-104116939D01*
X132260898Y-104128266D01*
X132241875Y-104138294D01*
X132231789Y-104143102D01*
X132219973Y-104148236D01*
X132208727Y-104152434D01*
X132197028Y-104156066D01*
X132183848Y-104159507D01*
X132168718Y-104163192D01*
X132087673Y-104163791D01*
X132075638Y-104163874D01*
X132058059Y-104163967D01*
X132042920Y-104163995D01*
X132029955Y-104163942D01*
X132018898Y-104163796D01*
X132009484Y-104163542D01*
X132001445Y-104163168D01*
X131994518Y-104162661D01*
X131988433Y-104162005D01*
X131982927Y-104161187D01*
X131977734Y-104160194D01*
X131972586Y-104159013D01*
X131967218Y-104157629D01*
X131964663Y-104156930D01*
X131946693Y-104151262D01*
X131928418Y-104144283D01*
X131910472Y-104136290D01*
X131893488Y-104127586D01*
X131878101Y-104118468D01*
X131864943Y-104109236D01*
X131864497Y-104108881D01*
X131861272Y-104106113D01*
X131856318Y-104101668D01*
X131849912Y-104095802D01*
X131842331Y-104088773D01*
X131833852Y-104080836D01*
X131824754Y-104072249D01*
X131815312Y-104063270D01*
X131808017Y-104056289D01*
X131798225Y-104046851D01*
X131790157Y-104038960D01*
X131783580Y-104032369D01*
X131778261Y-104026838D01*
X131773967Y-104022119D01*
X131770464Y-104017970D01*
X131767520Y-104014144D01*
X131764902Y-104010400D01*
X131760292Y-104003151D01*
X131750235Y-103984669D01*
X131741240Y-103964341D01*
X131733551Y-103942816D01*
X131727412Y-103920745D01*
X131723068Y-103898779D01*
X131722893Y-103897465D01*
X131722619Y-103894447D01*
X131722372Y-103890332D01*
X131722154Y-103884986D01*
X131721963Y-103878271D01*
X131721794Y-103870052D01*
X131721651Y-103860191D01*
X131721528Y-103848552D01*
X131721426Y-103834999D01*
X131721344Y-103819395D01*
X131721280Y-103801606D01*
X131721233Y-103781492D01*
X131721199Y-103758919D01*
X131721182Y-103733749D01*
X131721176Y-103708000D01*
X131881150Y-103708000D01*
X131881151Y-103713064D01*
X131881152Y-103739469D01*
X131881159Y-103763189D01*
X131881178Y-103784382D01*
X131881214Y-103803204D01*
X131881274Y-103819809D01*
X131881364Y-103834355D01*
X131881492Y-103846999D01*
X131881662Y-103857897D01*
X131881883Y-103867205D01*
X131882160Y-103875079D01*
X131882500Y-103881676D01*
X131882909Y-103887150D01*
X131883395Y-103891661D01*
X131883961Y-103895364D01*
X131884616Y-103898415D01*
X131885368Y-103900970D01*
X131886218Y-103903184D01*
X131887178Y-103905217D01*
X131888252Y-103907222D01*
X131889448Y-103909357D01*
X131889829Y-103910005D01*
X131891840Y-103912803D01*
X131894949Y-103916405D01*
X131899335Y-103920991D01*
X131905177Y-103926740D01*
X131912656Y-103933827D01*
X131921949Y-103942432D01*
X131933237Y-103952730D01*
X131933331Y-103952816D01*
X131944895Y-103963262D01*
X131954641Y-103971925D01*
X131962833Y-103978997D01*
X131969737Y-103984667D01*
X131975615Y-103989124D01*
X131980733Y-103992557D01*
X131985353Y-103995157D01*
X131989741Y-103997112D01*
X131994158Y-103998613D01*
X131998871Y-103999849D01*
X131999126Y-103999906D01*
X132003196Y-104000437D01*
X132009736Y-104000894D01*
X132018390Y-104001280D01*
X132028802Y-104001594D01*
X132040617Y-104001835D01*
X132053477Y-104002005D01*
X132067029Y-104002103D01*
X132080915Y-104002129D01*
X132094780Y-104002084D01*
X132108268Y-104001968D01*
X132121024Y-104001781D01*
X132132690Y-104001522D01*
X132142913Y-104001193D01*
X132151335Y-104000794D01*
X132157600Y-104000323D01*
X132161353Y-103999782D01*
X132162563Y-103999488D01*
X132165273Y-103998786D01*
X132167884Y-103997993D01*
X132170526Y-103997005D01*
X132173334Y-103995718D01*
X132176444Y-103994027D01*
X132179989Y-103991826D01*
X132184103Y-103989014D01*
X132188920Y-103985484D01*
X132194575Y-103981132D01*
X132201201Y-103975855D01*
X132208934Y-103969546D01*
X132217906Y-103962103D01*
X132228253Y-103953421D01*
X132240108Y-103943394D01*
X132253606Y-103931920D01*
X132268881Y-103918893D01*
X132286066Y-103904209D01*
X132305296Y-103887764D01*
X132315349Y-103879090D01*
X132324052Y-103871357D01*
X132331042Y-103864818D01*
X132336595Y-103859171D01*
X132340991Y-103854117D01*
X132344506Y-103849357D01*
X132347417Y-103844590D01*
X132350004Y-103839518D01*
X132350393Y-103838693D01*
X132351825Y-103835598D01*
X132353066Y-103832667D01*
X132354131Y-103829683D01*
X132355033Y-103826427D01*
X132355785Y-103822686D01*
X132356401Y-103818242D01*
X132356895Y-103812878D01*
X132357279Y-103806378D01*
X132357569Y-103798525D01*
X132357776Y-103789102D01*
X132357916Y-103777894D01*
X132358001Y-103764682D01*
X132358044Y-103749252D01*
X132358060Y-103731387D01*
X132358063Y-103710869D01*
X132358063Y-103707538D01*
X132358056Y-103688114D01*
X132358036Y-103671305D01*
X132357996Y-103656890D01*
X132357934Y-103644651D01*
X132357842Y-103634366D01*
X132357717Y-103625818D01*
X132357553Y-103618785D01*
X132357345Y-103613048D01*
X132357090Y-103608387D01*
X132356781Y-103604583D01*
X132356414Y-103601416D01*
X132355984Y-103598666D01*
X132355485Y-103596114D01*
X132353439Y-103588109D01*
X132349114Y-103576288D01*
X132343676Y-103565720D01*
X132337494Y-103557200D01*
X132335799Y-103555492D01*
X132331929Y-103551886D01*
X132326291Y-103546786D01*
X132319114Y-103540389D01*
X132310626Y-103532893D01*
X132301058Y-103524499D01*
X132290641Y-103515401D01*
X132279601Y-103505801D01*
X132268170Y-103495896D01*
X132256576Y-103485884D01*
X132245050Y-103475961D01*
X132233822Y-103466329D01*
X132223119Y-103457184D01*
X132213173Y-103448725D01*
X132204213Y-103441149D01*
X132196468Y-103434656D01*
X132190166Y-103429442D01*
X132185540Y-103425707D01*
X132182817Y-103423649D01*
X132178578Y-103421075D01*
X132171835Y-103417680D01*
X132165381Y-103415074D01*
X132165226Y-103415022D01*
X132163022Y-103414310D01*
X132160839Y-103413712D01*
X132158417Y-103413214D01*
X132155491Y-103412807D01*
X132151798Y-103412479D01*
X132147077Y-103412217D01*
X132141064Y-103412010D01*
X132133495Y-103411847D01*
X132124110Y-103411715D01*
X132112644Y-103411603D01*
X132098834Y-103411500D01*
X132082419Y-103411393D01*
X132072164Y-103411331D01*
X132056983Y-103411258D01*
X132044259Y-103411229D01*
X132033736Y-103411248D01*
X132025155Y-103411323D01*
X132018261Y-103411459D01*
X132012793Y-103411661D01*
X132008495Y-103411938D01*
X132005109Y-103412292D01*
X132002377Y-103412731D01*
X132000042Y-103413259D01*
X131993333Y-103415310D01*
X131981186Y-103420685D01*
X131968615Y-103428433D01*
X131966192Y-103430180D01*
X131960582Y-103434501D01*
X131953763Y-103440003D01*
X131946079Y-103446387D01*
X131937871Y-103453353D01*
X131929484Y-103460600D01*
X131921260Y-103467830D01*
X131913541Y-103474742D01*
X131906670Y-103481036D01*
X131900991Y-103486412D01*
X131896845Y-103490570D01*
X131894576Y-103493210D01*
X131890982Y-103499189D01*
X131885861Y-103511308D01*
X131882600Y-103524698D01*
X131882548Y-103525077D01*
X131882311Y-103528630D01*
X131882095Y-103534979D01*
X131881900Y-103544065D01*
X131881726Y-103555825D01*
X131881573Y-103570202D01*
X131881444Y-103587133D01*
X131881338Y-103606558D01*
X131881254Y-103628418D01*
X131881196Y-103652652D01*
X131881160Y-103679199D01*
X131881150Y-103708000D01*
X131721176Y-103708000D01*
X131721175Y-103705848D01*
X131721176Y-103682655D01*
X131721184Y-103658333D01*
X131721199Y-103636584D01*
X131721222Y-103617248D01*
X131721258Y-103600167D01*
X131721307Y-103585180D01*
X131721373Y-103572129D01*
X131721456Y-103560855D01*
X131721559Y-103551199D01*
X131721685Y-103543001D01*
X131721834Y-103536102D01*
X131722010Y-103530343D01*
X131722215Y-103525566D01*
X131722450Y-103521610D01*
X131722717Y-103518318D01*
X131723019Y-103515530D01*
X131723358Y-103513085D01*
X131723736Y-103510827D01*
X131726604Y-103496545D01*
X131732562Y-103473493D01*
X131739895Y-103451513D01*
X131748451Y-103430951D01*
X131758081Y-103412153D01*
X131768634Y-103395466D01*
X131779962Y-103381232D01*
X131780039Y-103381149D01*
X131782728Y-103378459D01*
X131787317Y-103374149D01*
X131793540Y-103368451D01*
X131801133Y-103361601D01*
X131809831Y-103353834D01*
X131819367Y-103345385D01*
X131829477Y-103336488D01*
X131839897Y-103327380D01*
X131850359Y-103318293D01*
X131860601Y-103309465D01*
X131870357Y-103301128D01*
X131885289Y-103289374D01*
X131906043Y-103275974D01*
X131927680Y-103265274D01*
X131950293Y-103257229D01*
X131973978Y-103251793D01*
X131975631Y-103251516D01*
X131979153Y-103250978D01*
X131982783Y-103250521D01*
X131986773Y-103250140D01*
X131991375Y-103249826D01*
X131996838Y-103249575D01*
X132003415Y-103249378D01*
X132011354Y-103249231D01*
X132020908Y-103249124D01*
X132032327Y-103249054D01*
X132045861Y-103249011D01*
X132061764Y-103248992D01*
X132080284Y-103248987D01*
X132081150Y-103248987D01*
X132100050Y-103248999D01*
X132116325Y-103249034D01*
X132130206Y-103249098D01*
X132141926Y-103249195D01*
X132151718Y-103249331D01*
X132159813Y-103249509D01*
X132166446Y-103249737D01*
X132171848Y-103250019D01*
X132176253Y-103250360D01*
X132179892Y-103250765D01*
X132182998Y-103251239D01*
X132203098Y-103255964D01*
X132224025Y-103263320D01*
X132244521Y-103272942D01*
X132263972Y-103284578D01*
X132266931Y-103286657D01*
X132272415Y-103290712D01*
X132279493Y-103296089D01*
X132287809Y-103302514D01*
X132297011Y-103309711D01*
X132306743Y-103317409D01*
X132316651Y-103325332D01*
X132325923Y-103332773D01*
X132334525Y-103339646D01*
X132342163Y-103345719D01*
X132348584Y-103350791D01*
X132353532Y-103354663D01*
X132356756Y-103357132D01*
X132358002Y-103358000D01*
X132358054Y-103357510D01*
X132358146Y-103354495D01*
X132358240Y-103348873D01*
X132358333Y-103340804D01*
X132358427Y-103330458D01*
X132358520Y-103317995D01*
X132358610Y-103303581D01*
X132358699Y-103287380D01*
X132358784Y-103269556D01*
X132358862Y-103250274D01*
X132358937Y-103229696D01*
X132359004Y-103207989D01*
X132359062Y-103185316D01*
X132359113Y-103161841D01*
X132359498Y-102965682D01*
X132362714Y-102957794D01*
X132363438Y-102956078D01*
X132370370Y-102943448D01*
X132379439Y-102932007D01*
X132390154Y-102922288D01*
X132402032Y-102914826D01*
X132410142Y-102911308D01*
X132424080Y-102907571D01*
X132438140Y-102906465D01*
X132452005Y-102907885D01*
X132465351Y-102911724D01*
X132477859Y-102917880D01*
X132489209Y-102926247D01*
X132499079Y-102936720D01*
X132507148Y-102949192D01*
X132507374Y-102949615D01*
X132508154Y-102950970D01*
X132508888Y-102952140D01*
X132509579Y-102953211D01*
X132510227Y-102954268D01*
X132510834Y-102955394D01*
X132511400Y-102956676D01*
X132511928Y-102958197D01*
X132512419Y-102960044D01*
X132512874Y-102962299D01*
X132513294Y-102965049D01*
X132513681Y-102968378D01*
X132514036Y-102972370D01*
X132514361Y-102977112D01*
X132514657Y-102982686D01*
X132514925Y-102989179D01*
X132515167Y-102996675D01*
X132515382Y-103005258D01*
X132515575Y-103015016D01*
X132515745Y-103026029D01*
X132515895Y-103038386D01*
X132516025Y-103052170D01*
X132516136Y-103067465D01*
X132516231Y-103084357D01*
X132516310Y-103102931D01*
X132516375Y-103123272D01*
X132516428Y-103145463D01*
X132516468Y-103169590D01*
X132516498Y-103195738D01*
X132516521Y-103223992D01*
X132516535Y-103254435D01*
X132516544Y-103287155D01*
X132516547Y-103322234D01*
X132516547Y-103359758D01*
X132516546Y-103399811D01*
X132516544Y-103442480D01*
X132516543Y-103487848D01*
X132516544Y-103535998D01*
X132516544Y-103572804D01*
X132516546Y-103618222D01*
X132516547Y-103660923D01*
X132516545Y-103700992D01*
X132516544Y-103707538D01*
X132516543Y-103738515D01*
G37*
G36*
X149090253Y-104308200D02*
G01*
X149090193Y-104322705D01*
X149090128Y-104335933D01*
X149090059Y-104347950D01*
X149089985Y-104358825D01*
X149089905Y-104368624D01*
X149089819Y-104377418D01*
X149089727Y-104385272D01*
X149089629Y-104392254D01*
X149089526Y-104398434D01*
X149089416Y-104403878D01*
X149089299Y-104408653D01*
X149089176Y-104412829D01*
X149089045Y-104416473D01*
X149088908Y-104419652D01*
X149088762Y-104422434D01*
X149088610Y-104424888D01*
X149088449Y-104427080D01*
X149088282Y-104429079D01*
X149088105Y-104430953D01*
X149086732Y-104444049D01*
X149080378Y-104490510D01*
X149071840Y-104535359D01*
X149061044Y-104578875D01*
X149047912Y-104621337D01*
X149032370Y-104663023D01*
X149014343Y-104704213D01*
X148995404Y-104741883D01*
X148971805Y-104782938D01*
X148945958Y-104822342D01*
X148917962Y-104860019D01*
X148887920Y-104895894D01*
X148855930Y-104929894D01*
X148822093Y-104961944D01*
X148786507Y-104991969D01*
X148749275Y-105019895D01*
X148710494Y-105045648D01*
X148670266Y-105069151D01*
X148628692Y-105090332D01*
X148585870Y-105109116D01*
X148541900Y-105125430D01*
X148496883Y-105139195D01*
X148450919Y-105150340D01*
X148404108Y-105158790D01*
X148395011Y-105160069D01*
X148381396Y-105161749D01*
X148366811Y-105163334D01*
X148352015Y-105164751D01*
X148337769Y-105165929D01*
X148324833Y-105166795D01*
X148313969Y-105167278D01*
X148313556Y-105167281D01*
X148310572Y-105167289D01*
X148304755Y-105167295D01*
X148296133Y-105167302D01*
X148284729Y-105167309D01*
X148270568Y-105167316D01*
X148253677Y-105167323D01*
X148234080Y-105167329D01*
X148211802Y-105167335D01*
X148186869Y-105167342D01*
X148159307Y-105167348D01*
X148129139Y-105167355D01*
X148096393Y-105167362D01*
X148061092Y-105167368D01*
X148023263Y-105167374D01*
X147982930Y-105167380D01*
X147940119Y-105167386D01*
X147894855Y-105167392D01*
X147847163Y-105167397D01*
X147797070Y-105167403D01*
X147744599Y-105167409D01*
X147689775Y-105167414D01*
X147632626Y-105167420D01*
X147573176Y-105167425D01*
X147511449Y-105167431D01*
X147447472Y-105167437D01*
X147381269Y-105167441D01*
X147312866Y-105167447D01*
X147242288Y-105167451D01*
X147169560Y-105167456D01*
X147094709Y-105167460D01*
X147017758Y-105167465D01*
X146938733Y-105167471D01*
X146857659Y-105167475D01*
X146774563Y-105167479D01*
X146689469Y-105167484D01*
X146602402Y-105167488D01*
X146513387Y-105167492D01*
X146422451Y-105167496D01*
X146329617Y-105167500D01*
X146234912Y-105167505D01*
X146138360Y-105167508D01*
X146039988Y-105167511D01*
X145939821Y-105167515D01*
X145837882Y-105167518D01*
X145734198Y-105167522D01*
X145628795Y-105167525D01*
X145521696Y-105167528D01*
X145412928Y-105167532D01*
X145302516Y-105167534D01*
X145190485Y-105167537D01*
X145076862Y-105167540D01*
X144961669Y-105167542D01*
X144844933Y-105167545D01*
X144726680Y-105167548D01*
X144606935Y-105167550D01*
X144485722Y-105167552D01*
X144363067Y-105167554D01*
X144238996Y-105167556D01*
X144113534Y-105167558D01*
X143986705Y-105167560D01*
X143858535Y-105167561D01*
X143729051Y-105167562D01*
X143598276Y-105167564D01*
X143466236Y-105167566D01*
X143332956Y-105167567D01*
X143198462Y-105167567D01*
X143062778Y-105167569D01*
X142925932Y-105167569D01*
X142787945Y-105167570D01*
X142648846Y-105167571D01*
X142508660Y-105167571D01*
X142367409Y-105167572D01*
X142225122Y-105167572D01*
X142081823Y-105167572D01*
X141937536Y-105167572D01*
X141792288Y-105167572D01*
X141646104Y-105167571D01*
X141499009Y-105167571D01*
X141351027Y-105167570D01*
X141202185Y-105167569D01*
X141052508Y-105167568D01*
X140902020Y-105167567D01*
X140750749Y-105167566D01*
X140598717Y-105167565D01*
X140445952Y-105167563D01*
X140292479Y-105167562D01*
X140138320Y-105167561D01*
X139983505Y-105167559D01*
X131666667Y-105167458D01*
X131638695Y-105164358D01*
X131636596Y-105164124D01*
X131604832Y-105160127D01*
X131575139Y-105155459D01*
X131546813Y-105149974D01*
X131519148Y-105143521D01*
X131491438Y-105135949D01*
X131462977Y-105127111D01*
X131423838Y-105113132D01*
X131380440Y-105094816D01*
X131338296Y-105074006D01*
X131297509Y-105050792D01*
X131258181Y-105025264D01*
X131220415Y-104997513D01*
X131184313Y-104967630D01*
X131149979Y-104935705D01*
X131117514Y-104901829D01*
X131087022Y-104866095D01*
X131058604Y-104828589D01*
X131032365Y-104789406D01*
X131008406Y-104748634D01*
X130986829Y-104706365D01*
X130980414Y-104692497D01*
X130963078Y-104651167D01*
X130948216Y-104609324D01*
X130935748Y-104566675D01*
X130925593Y-104522927D01*
X130917673Y-104477784D01*
X130911907Y-104430953D01*
X130911812Y-104429972D01*
X130911639Y-104428045D01*
X130911475Y-104425963D01*
X130911318Y-104423656D01*
X130911169Y-104421058D01*
X130911027Y-104418100D01*
X130910893Y-104414715D01*
X130910765Y-104410835D01*
X130910645Y-104406391D01*
X130910531Y-104401316D01*
X130910424Y-104395543D01*
X130910323Y-104389003D01*
X130910229Y-104381629D01*
X130910140Y-104373353D01*
X130910057Y-104364107D01*
X130909979Y-104353822D01*
X130909908Y-104342433D01*
X130909840Y-104329870D01*
X130909778Y-104316066D01*
X130909721Y-104300952D01*
X130909669Y-104284462D01*
X130909620Y-104266527D01*
X130909576Y-104247080D01*
X130909536Y-104226052D01*
X130909500Y-104203377D01*
X130909467Y-104178985D01*
X130909438Y-104152809D01*
X130909412Y-104124782D01*
X130909390Y-104094836D01*
X130909370Y-104062902D01*
X130909353Y-104028913D01*
X130909338Y-103992801D01*
X130909326Y-103954499D01*
X130909316Y-103913938D01*
X130909307Y-103871051D01*
X130909301Y-103825769D01*
X130909296Y-103778027D01*
X130909292Y-103727753D01*
X130909289Y-103674882D01*
X130909288Y-103619347D01*
X130909286Y-103561078D01*
X130909286Y-103514805D01*
X131089822Y-103514805D01*
X131089825Y-103559586D01*
X131089834Y-103604241D01*
X131089847Y-103648674D01*
X131089864Y-103692794D01*
X131089886Y-103736504D01*
X131089912Y-103779710D01*
X131089943Y-103822317D01*
X131089978Y-103864230D01*
X131090017Y-103905357D01*
X131090062Y-103945599D01*
X131090111Y-103984866D01*
X131090164Y-104023059D01*
X131090221Y-104060088D01*
X131090284Y-104095855D01*
X131090351Y-104130267D01*
X131090422Y-104163230D01*
X131090498Y-104194646D01*
X131090578Y-104224424D01*
X131090663Y-104252469D01*
X131090753Y-104278685D01*
X131090846Y-104302978D01*
X131090944Y-104325254D01*
X131091048Y-104345418D01*
X131091155Y-104363374D01*
X131091267Y-104379030D01*
X131091383Y-104392289D01*
X131091504Y-104403059D01*
X131091630Y-104411243D01*
X131091760Y-104416747D01*
X131091894Y-104419478D01*
X131096055Y-104452281D01*
X131103687Y-104494225D01*
X131113799Y-104534790D01*
X131126435Y-104574082D01*
X131141637Y-104612206D01*
X131159450Y-104649267D01*
X131179915Y-104685373D01*
X131203077Y-104720626D01*
X131228977Y-104755136D01*
X131232197Y-104759060D01*
X131239969Y-104767988D01*
X131249277Y-104778142D01*
X131259694Y-104789099D01*
X131270796Y-104800431D01*
X131282157Y-104811715D01*
X131293353Y-104822524D01*
X131303956Y-104832431D01*
X131313542Y-104841014D01*
X131321686Y-104847844D01*
X131350116Y-104869445D01*
X131383710Y-104892162D01*
X131418002Y-104912328D01*
X131453190Y-104930021D01*
X131489470Y-104945327D01*
X131527039Y-104958325D01*
X131566095Y-104969099D01*
X131606834Y-104977730D01*
X131649453Y-104984301D01*
X131649761Y-104984335D01*
X131650491Y-104984394D01*
X131651485Y-104984453D01*
X131652767Y-104984511D01*
X131654360Y-104984568D01*
X131656289Y-104984623D01*
X131658577Y-104984677D01*
X131661250Y-104984731D01*
X131664331Y-104984784D01*
X131667844Y-104984836D01*
X131671814Y-104984887D01*
X131676264Y-104984937D01*
X131681218Y-104984986D01*
X131686702Y-104985034D01*
X131692738Y-104985082D01*
X131699352Y-104985129D01*
X131706566Y-104985174D01*
X131714405Y-104985219D01*
X131722895Y-104985263D01*
X131732058Y-104985306D01*
X131741918Y-104985349D01*
X131752500Y-104985390D01*
X131763828Y-104985431D01*
X131775926Y-104985471D01*
X131788818Y-104985510D01*
X131802528Y-104985548D01*
X131817081Y-104985587D01*
X131832500Y-104985623D01*
X131848811Y-104985660D01*
X131866035Y-104985695D01*
X131884198Y-104985730D01*
X131903325Y-104985764D01*
X131923438Y-104985798D01*
X131944563Y-104985831D01*
X131966724Y-104985863D01*
X131989943Y-104985894D01*
X132014247Y-104985925D01*
X132039658Y-104985955D01*
X132066201Y-104985984D01*
X132093900Y-104986013D01*
X132122779Y-104986041D01*
X132152863Y-104986069D01*
X132184174Y-104986097D01*
X132216738Y-104986123D01*
X132250579Y-104986149D01*
X132285721Y-104986175D01*
X132322188Y-104986200D01*
X132360003Y-104986223D01*
X132399193Y-104986247D01*
X132439778Y-104986271D01*
X132481785Y-104986293D01*
X132525238Y-104986315D01*
X132570161Y-104986337D01*
X132616577Y-104986359D01*
X132664512Y-104986380D01*
X132713987Y-104986400D01*
X132765029Y-104986420D01*
X132817662Y-104986439D01*
X132871908Y-104986458D01*
X132927794Y-104986477D01*
X132985342Y-104986495D01*
X133044577Y-104986513D01*
X133105522Y-104986530D01*
X133168203Y-104986547D01*
X133232642Y-104986564D01*
X133298866Y-104986580D01*
X133366896Y-104986596D01*
X133436758Y-104986612D01*
X133508476Y-104986628D01*
X133582073Y-104986642D01*
X133657573Y-104986658D01*
X133735002Y-104986672D01*
X133814384Y-104986686D01*
X133895742Y-104986699D01*
X133979099Y-104986713D01*
X134064482Y-104986727D01*
X134151913Y-104986740D01*
X134241416Y-104986753D01*
X134333017Y-104986765D01*
X134426738Y-104986778D01*
X134522605Y-104986789D01*
X134620641Y-104986801D01*
X134720871Y-104986813D01*
X134823318Y-104986825D01*
X134928005Y-104986836D01*
X135034960Y-104986848D01*
X135144204Y-104986859D01*
X135255762Y-104986870D01*
X135369658Y-104986881D01*
X135485917Y-104986892D01*
X135604561Y-104986902D01*
X135725617Y-104986914D01*
X135849106Y-104986924D01*
X135975055Y-104986934D01*
X136103487Y-104986944D01*
X136234425Y-104986954D01*
X136367894Y-104986965D01*
X136503920Y-104986975D01*
X136642523Y-104986985D01*
X136783731Y-104986995D01*
X136927567Y-104987005D01*
X137074053Y-104987016D01*
X137223217Y-104987026D01*
X137375079Y-104987036D01*
X137529667Y-104987047D01*
X137687002Y-104987057D01*
X137847109Y-104987067D01*
X138010014Y-104987078D01*
X138175738Y-104987089D01*
X138344308Y-104987099D01*
X145020513Y-104987518D01*
X145020513Y-104312899D01*
X145617500Y-104312899D01*
X145619958Y-104331353D01*
X145620721Y-104334773D01*
X145626165Y-104351517D01*
X145634098Y-104367362D01*
X145644253Y-104382044D01*
X145656365Y-104395303D01*
X145670168Y-104406877D01*
X145685395Y-104416502D01*
X145701781Y-104423919D01*
X145719058Y-104428865D01*
X145720570Y-104429152D01*
X145727050Y-104430113D01*
X145734654Y-104430942D01*
X145742033Y-104431488D01*
X145743943Y-104431500D01*
X145748646Y-104431464D01*
X145755981Y-104431380D01*
X145765822Y-104431249D01*
X145778049Y-104431075D01*
X145792537Y-104430857D01*
X145809164Y-104430600D01*
X145827807Y-104430306D01*
X145848342Y-104429977D01*
X145870647Y-104429613D01*
X145894599Y-104429218D01*
X145920074Y-104428795D01*
X145946951Y-104428345D01*
X145975106Y-104427869D01*
X146004417Y-104427371D01*
X146034759Y-104426852D01*
X146066010Y-104426316D01*
X146098047Y-104425762D01*
X146130749Y-104425195D01*
X146163990Y-104424616D01*
X146197649Y-104424027D01*
X146231602Y-104423431D01*
X146265726Y-104422829D01*
X146299899Y-104422223D01*
X146333998Y-104421616D01*
X146367899Y-104421011D01*
X146401480Y-104420409D01*
X146434619Y-104419811D01*
X146467191Y-104419221D01*
X146499073Y-104418641D01*
X146530143Y-104418073D01*
X146560279Y-104417518D01*
X146589357Y-104416978D01*
X146617253Y-104416458D01*
X146643846Y-104415958D01*
X146669012Y-104415480D01*
X146692628Y-104415027D01*
X146714572Y-104414600D01*
X146734720Y-104414202D01*
X146752949Y-104413835D01*
X146757611Y-104413741D01*
X146757611Y-103588881D01*
X146757611Y-103566084D01*
X146757610Y-103551130D01*
X147254676Y-103551130D01*
X147254937Y-103566084D01*
X147254937Y-103566125D01*
X147255464Y-103580106D01*
X147256256Y-103592459D01*
X147257311Y-103602570D01*
X147260147Y-103621338D01*
X147267699Y-103658884D01*
X147277718Y-103695766D01*
X147290323Y-103732386D01*
X147305628Y-103769147D01*
X147306689Y-103771445D01*
X147309435Y-103777222D01*
X147313298Y-103785208D01*
X147318199Y-103795246D01*
X147324059Y-103807176D01*
X147330795Y-103820838D01*
X147338329Y-103836072D01*
X147346581Y-103852721D01*
X147355472Y-103870625D01*
X147364921Y-103889622D01*
X147374849Y-103909556D01*
X147385176Y-103930267D01*
X147395822Y-103951596D01*
X147406707Y-103973381D01*
X147417752Y-103995466D01*
X147428877Y-104017689D01*
X147440002Y-104039893D01*
X147451046Y-104061917D01*
X147461932Y-104083603D01*
X147472577Y-104104790D01*
X147482904Y-104125321D01*
X147492831Y-104145035D01*
X147502280Y-104163773D01*
X147511169Y-104181375D01*
X147519420Y-104197683D01*
X147526954Y-104212538D01*
X147533689Y-104225779D01*
X147539545Y-104237248D01*
X147544446Y-104246785D01*
X147548307Y-104254230D01*
X147551053Y-104259425D01*
X147552601Y-104262210D01*
X147562778Y-104278336D01*
X147573223Y-104293194D01*
X147584241Y-104307029D01*
X147596474Y-104320648D01*
X147610568Y-104334858D01*
X147628290Y-104350975D01*
X147653044Y-104370241D01*
X147679019Y-104386912D01*
X147706187Y-104400975D01*
X147734521Y-104412421D01*
X147763996Y-104421238D01*
X147794585Y-104427411D01*
X147826263Y-104430932D01*
X147826380Y-104430940D01*
X147830489Y-104431111D01*
X147837188Y-104431269D01*
X147846284Y-104431415D01*
X147857580Y-104431547D01*
X147870881Y-104431666D01*
X147885994Y-104431773D01*
X147902722Y-104431867D01*
X147920872Y-104431949D01*
X147940247Y-104432017D01*
X147960653Y-104432073D01*
X147981895Y-104432116D01*
X148003778Y-104432147D01*
X148026107Y-104432165D01*
X148048686Y-104432171D01*
X148071322Y-104432165D01*
X148093819Y-104432146D01*
X148115981Y-104432115D01*
X148137615Y-104432072D01*
X148158525Y-104432017D01*
X148178515Y-104431949D01*
X148197392Y-104431870D01*
X148214960Y-104431779D01*
X148231023Y-104431676D01*
X148245388Y-104431560D01*
X148257859Y-104431433D01*
X148268241Y-104431295D01*
X148276339Y-104431144D01*
X148281958Y-104430982D01*
X148284904Y-104430808D01*
X148285153Y-104430779D01*
X148301996Y-104427369D01*
X148318296Y-104421346D01*
X148333766Y-104412949D01*
X148348118Y-104402422D01*
X148361066Y-104390003D01*
X148372323Y-104375933D01*
X148381601Y-104360452D01*
X148388615Y-104343803D01*
X148390280Y-104338705D01*
X148391680Y-104333720D01*
X148392632Y-104328963D01*
X148393253Y-104323657D01*
X148393659Y-104317031D01*
X148393965Y-104308310D01*
X148394081Y-104298713D01*
X148393507Y-104286236D01*
X148391918Y-104275071D01*
X148389175Y-104264352D01*
X148385140Y-104253216D01*
X148378739Y-104240166D01*
X148369149Y-104225846D01*
X148357540Y-104212526D01*
X148344364Y-104200657D01*
X148330068Y-104190690D01*
X148315103Y-104183075D01*
X148311415Y-104181578D01*
X148306431Y-104179728D01*
X148301547Y-104178212D01*
X148296436Y-104177000D01*
X148290764Y-104176055D01*
X148284206Y-104175347D01*
X148276427Y-104174843D01*
X148267100Y-104174507D01*
X148255896Y-104174309D01*
X148242482Y-104174215D01*
X148226530Y-104174190D01*
X148170527Y-104174190D01*
X148170527Y-103542322D01*
X148170527Y-102910456D01*
X148216787Y-102910420D01*
X148223540Y-102910408D01*
X148240114Y-102910294D01*
X148254261Y-102910030D01*
X148266308Y-102909577D01*
X148276577Y-102908895D01*
X148285392Y-102907941D01*
X148293078Y-102906678D01*
X148299956Y-102905064D01*
X148306353Y-102903059D01*
X148312589Y-102900623D01*
X148318990Y-102897715D01*
X148332719Y-102889959D01*
X148347330Y-102878780D01*
X148360414Y-102865464D01*
X148371686Y-102850307D01*
X148380858Y-102833604D01*
X148382688Y-102829417D01*
X148388199Y-102812546D01*
X148391323Y-102794769D01*
X148392063Y-102776591D01*
X148390423Y-102758515D01*
X148386408Y-102741050D01*
X148380021Y-102724697D01*
X148373065Y-102712334D01*
X148362811Y-102698432D01*
X148350818Y-102685767D01*
X148337527Y-102674744D01*
X148323384Y-102665774D01*
X148308832Y-102659263D01*
X148308016Y-102658974D01*
X148305601Y-102658113D01*
X148303335Y-102657330D01*
X148301081Y-102656619D01*
X148298700Y-102655980D01*
X148296057Y-102655407D01*
X148293014Y-102654897D01*
X148289433Y-102654446D01*
X148285178Y-102654050D01*
X148280112Y-102653707D01*
X148274098Y-102653412D01*
X148266996Y-102653161D01*
X148258672Y-102652951D01*
X148248989Y-102652780D01*
X148237807Y-102652641D01*
X148224991Y-102652532D01*
X148210404Y-102652451D01*
X148193908Y-102652391D01*
X148175365Y-102652351D01*
X148154640Y-102652327D01*
X148131594Y-102652314D01*
X148106092Y-102652310D01*
X148077995Y-102652310D01*
X148047165Y-102652310D01*
X148041719Y-102652310D01*
X148011063Y-102652310D01*
X147983112Y-102652313D01*
X147957722Y-102652322D01*
X147934755Y-102652342D01*
X147914066Y-102652374D01*
X147895517Y-102652424D01*
X147878964Y-102652496D01*
X147864268Y-102652592D01*
X147851287Y-102652716D01*
X147839879Y-102652872D01*
X147829904Y-102653064D01*
X147821219Y-102653295D01*
X147813684Y-102653569D01*
X147807158Y-102653890D01*
X147801498Y-102654261D01*
X147796565Y-102654686D01*
X147792216Y-102655168D01*
X147788311Y-102655712D01*
X147784708Y-102656321D01*
X147781264Y-102656998D01*
X147777840Y-102657748D01*
X147774296Y-102658574D01*
X147770488Y-102659478D01*
X147760637Y-102661994D01*
X147732773Y-102671011D01*
X147705346Y-102682636D01*
X147678625Y-102696674D01*
X147652874Y-102712936D01*
X147628361Y-102731224D01*
X147605351Y-102751348D01*
X147584108Y-102773115D01*
X147564902Y-102796332D01*
X147547997Y-102820805D01*
X147547437Y-102821718D01*
X147544608Y-102826648D01*
X147540898Y-102833452D01*
X147536602Y-102841573D01*
X147532017Y-102850453D01*
X147527439Y-102859534D01*
X147525428Y-102863583D01*
X147520709Y-102873105D01*
X147515047Y-102884558D01*
X147508524Y-102897776D01*
X147501221Y-102912591D01*
X147493220Y-102928838D01*
X147484605Y-102946347D01*
X147475455Y-102964954D01*
X147465852Y-102984490D01*
X147455880Y-103004790D01*
X147445619Y-103025686D01*
X147435150Y-103047011D01*
X147424557Y-103068600D01*
X147413921Y-103090282D01*
X147403324Y-103111895D01*
X147392847Y-103133268D01*
X147382573Y-103154238D01*
X147372582Y-103174635D01*
X147362959Y-103194294D01*
X147353782Y-103213046D01*
X147345135Y-103230726D01*
X147337099Y-103247168D01*
X147329758Y-103262202D01*
X147323191Y-103275664D01*
X147317480Y-103287385D01*
X147312709Y-103297199D01*
X147308958Y-103304940D01*
X147306310Y-103310440D01*
X147304846Y-103313532D01*
X147298302Y-103328300D01*
X147284109Y-103365303D01*
X147272526Y-103403444D01*
X147263580Y-103442638D01*
X147257294Y-103482795D01*
X147256276Y-103493284D01*
X147255478Y-103506197D01*
X147254946Y-103520551D01*
X147254678Y-103535733D01*
X147254676Y-103551130D01*
X146757610Y-103551130D01*
X146757609Y-103508638D01*
X146757607Y-103453968D01*
X146757604Y-103402001D01*
X146757599Y-103352670D01*
X146757592Y-103305907D01*
X146757584Y-103261641D01*
X146757573Y-103219804D01*
X146757560Y-103180329D01*
X146757545Y-103143145D01*
X146757526Y-103108183D01*
X146757505Y-103075377D01*
X146757481Y-103044655D01*
X146757454Y-103015950D01*
X146757422Y-102989193D01*
X146757388Y-102964313D01*
X146757350Y-102941244D01*
X146757307Y-102919916D01*
X146757262Y-102900261D01*
X146757211Y-102882208D01*
X146757155Y-102865690D01*
X146757096Y-102850638D01*
X146757030Y-102836982D01*
X146756960Y-102824656D01*
X146756885Y-102813587D01*
X146756804Y-102803710D01*
X146756718Y-102794953D01*
X146756626Y-102787250D01*
X146756527Y-102780530D01*
X146756423Y-102774725D01*
X146756311Y-102769767D01*
X146756194Y-102765586D01*
X146756069Y-102762113D01*
X146755937Y-102759280D01*
X146755800Y-102757018D01*
X146755653Y-102755257D01*
X146755499Y-102753930D01*
X146755338Y-102752967D01*
X146754815Y-102750541D01*
X146749992Y-102734499D01*
X146742919Y-102719514D01*
X146733391Y-102705213D01*
X146721199Y-102691223D01*
X146707711Y-102678786D01*
X146693170Y-102668477D01*
X146677910Y-102660814D01*
X146661654Y-102655684D01*
X146644124Y-102652977D01*
X146625042Y-102652580D01*
X146616570Y-102652973D01*
X146610025Y-102653545D01*
X146604482Y-102654449D01*
X146599012Y-102655837D01*
X146592681Y-102657863D01*
X146591682Y-102658203D01*
X146581028Y-102662268D01*
X146571757Y-102666812D01*
X146562806Y-102672419D01*
X146553116Y-102679674D01*
X146548472Y-102683547D01*
X146535225Y-102696947D01*
X146524098Y-102712022D01*
X146515269Y-102728453D01*
X146508920Y-102745920D01*
X146505231Y-102764107D01*
X146505176Y-102764757D01*
X146505048Y-102767975D01*
X146504925Y-102773552D01*
X146504810Y-102781511D01*
X146504700Y-102791875D01*
X146504597Y-102804669D01*
X146504500Y-102819914D01*
X146504408Y-102837634D01*
X146504323Y-102857852D01*
X146504243Y-102880592D01*
X146504169Y-102905876D01*
X146504101Y-102933728D01*
X146504038Y-102964170D01*
X146503981Y-102997228D01*
X146503930Y-103032921D01*
X146503885Y-103071275D01*
X146503845Y-103112313D01*
X146503810Y-103156057D01*
X146503781Y-103202532D01*
X146503758Y-103251758D01*
X146503740Y-103303762D01*
X146503727Y-103358565D01*
X146503718Y-103416190D01*
X146503716Y-103476662D01*
X146503716Y-103500009D01*
X146503716Y-104177059D01*
X146117076Y-104177059D01*
X146083385Y-104177057D01*
X146045775Y-104177055D01*
X146010844Y-104177051D01*
X145978486Y-104177051D01*
X145948600Y-104177054D01*
X145921077Y-104177064D01*
X145895818Y-104177083D01*
X145872717Y-104177112D01*
X145851670Y-104177154D01*
X145832573Y-104177210D01*
X145815322Y-104177285D01*
X145799814Y-104177378D01*
X145785944Y-104177493D01*
X145773609Y-104177630D01*
X145762705Y-104177793D01*
X145753127Y-104177984D01*
X145744773Y-104178205D01*
X145737537Y-104178457D01*
X145731316Y-104178744D01*
X145726005Y-104179067D01*
X145721503Y-104179427D01*
X145717702Y-104179828D01*
X145714503Y-104180272D01*
X145711797Y-104180760D01*
X145709484Y-104181295D01*
X145707457Y-104181879D01*
X145705614Y-104182514D01*
X145703851Y-104183202D01*
X145702064Y-104183945D01*
X145700148Y-104184745D01*
X145698000Y-104185605D01*
X145689265Y-104189568D01*
X145676508Y-104197212D01*
X145663978Y-104206710D01*
X145652283Y-104217538D01*
X145642032Y-104229167D01*
X145633838Y-104241070D01*
X145632865Y-104242759D01*
X145625375Y-104258891D01*
X145620273Y-104276242D01*
X145617627Y-104294387D01*
X145617500Y-104312899D01*
X145020513Y-104312899D01*
X145020513Y-103500009D01*
X145020513Y-102012498D01*
X138344308Y-102012917D01*
X138217513Y-102012924D01*
X138051103Y-102012934D01*
X137887518Y-102012946D01*
X137726738Y-102012956D01*
X137568734Y-102012966D01*
X137413485Y-102012976D01*
X137260966Y-102012986D01*
X137111154Y-102012997D01*
X136964022Y-102013007D01*
X136819550Y-102013017D01*
X136677710Y-102013027D01*
X136538479Y-102013037D01*
X136401834Y-102013048D01*
X136267750Y-102013058D01*
X136136203Y-102013068D01*
X136007169Y-102013079D01*
X135880623Y-102013089D01*
X135756542Y-102013099D01*
X135634901Y-102013110D01*
X135515677Y-102013121D01*
X135398845Y-102013132D01*
X135284382Y-102013142D01*
X135172261Y-102013153D01*
X135062460Y-102013165D01*
X134954956Y-102013176D01*
X134849722Y-102013187D01*
X134746736Y-102013199D01*
X134645974Y-102013210D01*
X134547410Y-102013223D01*
X134451021Y-102013235D01*
X134356783Y-102013247D01*
X134264672Y-102013259D01*
X134174663Y-102013272D01*
X134086733Y-102013285D01*
X134000857Y-102013298D01*
X133917011Y-102013312D01*
X133835171Y-102013325D01*
X133755313Y-102013339D01*
X133677412Y-102013354D01*
X133601446Y-102013368D01*
X133527388Y-102013383D01*
X133455216Y-102013399D01*
X133384906Y-102013414D01*
X133316432Y-102013430D01*
X133249771Y-102013446D01*
X133184899Y-102013462D01*
X133121791Y-102013479D01*
X133060425Y-102013496D01*
X133000773Y-102013514D01*
X132942815Y-102013533D01*
X132886525Y-102013551D01*
X132831878Y-102013570D01*
X132778852Y-102013590D01*
X132727421Y-102013609D01*
X132677561Y-102013629D01*
X132629249Y-102013650D01*
X132582460Y-102013671D01*
X132537171Y-102013693D01*
X132493356Y-102013715D01*
X132450992Y-102013737D01*
X132410056Y-102013761D01*
X132370521Y-102013784D01*
X132332366Y-102013808D01*
X132295564Y-102013833D01*
X132260092Y-102013858D01*
X132225927Y-102013884D01*
X132193044Y-102013910D01*
X132161418Y-102013937D01*
X132131025Y-102013965D01*
X132101843Y-102013993D01*
X132073846Y-102014022D01*
X132047010Y-102014051D01*
X132021311Y-102014080D01*
X131996725Y-102014111D01*
X131973228Y-102014142D01*
X131950795Y-102014175D01*
X131929404Y-102014207D01*
X131909028Y-102014240D01*
X131889645Y-102014274D01*
X131871230Y-102014309D01*
X131853759Y-102014345D01*
X131837208Y-102014380D01*
X131821553Y-102014417D01*
X131806769Y-102014454D01*
X131792833Y-102014493D01*
X131779719Y-102014532D01*
X131767405Y-102014572D01*
X131755867Y-102014612D01*
X131745079Y-102014654D01*
X131735019Y-102014696D01*
X131725659Y-102014739D01*
X131716980Y-102014783D01*
X131708955Y-102014827D01*
X131701559Y-102014872D01*
X131694770Y-102014919D01*
X131688563Y-102014967D01*
X131682914Y-102015015D01*
X131677798Y-102015064D01*
X131673192Y-102015114D01*
X131669071Y-102015164D01*
X131665411Y-102015216D01*
X131662190Y-102015269D01*
X131659381Y-102015321D01*
X131656960Y-102015376D01*
X131654905Y-102015432D01*
X131653190Y-102015488D01*
X131651791Y-102015546D01*
X131650685Y-102015603D01*
X131649847Y-102015663D01*
X131649254Y-102015723D01*
X131611161Y-102021449D01*
X131570456Y-102029769D01*
X131531458Y-102040208D01*
X131493959Y-102052850D01*
X131457750Y-102067787D01*
X131422627Y-102085099D01*
X131388379Y-102104877D01*
X131354802Y-102127206D01*
X131321686Y-102152171D01*
X131317761Y-102155392D01*
X131308833Y-102163163D01*
X131298678Y-102172471D01*
X131287722Y-102182889D01*
X131276389Y-102193991D01*
X131265106Y-102205352D01*
X131254298Y-102216547D01*
X131244389Y-102227151D01*
X131235808Y-102236737D01*
X131228976Y-102244880D01*
X131210451Y-102269124D01*
X131186418Y-102304326D01*
X131165083Y-102340436D01*
X131146411Y-102377532D01*
X131130370Y-102415693D01*
X131116931Y-102454996D01*
X131106060Y-102495519D01*
X131097727Y-102537340D01*
X131091898Y-102580537D01*
X131091808Y-102582026D01*
X131091677Y-102586599D01*
X131091549Y-102593884D01*
X131091427Y-102603786D01*
X131091309Y-102616210D01*
X131091196Y-102631063D01*
X131091087Y-102648248D01*
X131090982Y-102667673D01*
X131090883Y-102689242D01*
X131090787Y-102712861D01*
X131090696Y-102738434D01*
X131090609Y-102765868D01*
X131090527Y-102795068D01*
X131090450Y-102825939D01*
X131090376Y-102858388D01*
X131090308Y-102892317D01*
X131090244Y-102927636D01*
X131090185Y-102964246D01*
X131090130Y-103002055D01*
X131090079Y-103040968D01*
X131090034Y-103080890D01*
X131089992Y-103121726D01*
X131089955Y-103163382D01*
X131089923Y-103205765D01*
X131089895Y-103248778D01*
X131089871Y-103292327D01*
X131089853Y-103336318D01*
X131089838Y-103380656D01*
X131089829Y-103425247D01*
X131089823Y-103469994D01*
X131089822Y-103514805D01*
X130909286Y-103514805D01*
X130909286Y-103500009D01*
X130909286Y-103471541D01*
X130909287Y-103411762D01*
X130909289Y-103354754D01*
X130909290Y-103300446D01*
X130909293Y-103248773D01*
X130909298Y-103199667D01*
X130909303Y-103153060D01*
X130909311Y-103108882D01*
X130909320Y-103067068D01*
X130909331Y-103027549D01*
X130909345Y-102990258D01*
X130909361Y-102955125D01*
X130909380Y-102922086D01*
X130909401Y-102891069D01*
X130909425Y-102862010D01*
X130909452Y-102834839D01*
X130909483Y-102809487D01*
X130909517Y-102785890D01*
X130909556Y-102763976D01*
X130909597Y-102743679D01*
X130909643Y-102724933D01*
X130909693Y-102707668D01*
X130909749Y-102691816D01*
X130909808Y-102677311D01*
X130909873Y-102664083D01*
X130909942Y-102652066D01*
X130910016Y-102641191D01*
X130910097Y-102631391D01*
X130910183Y-102622598D01*
X130910274Y-102614744D01*
X130910372Y-102607761D01*
X130910475Y-102601582D01*
X130910586Y-102596138D01*
X130910702Y-102591363D01*
X130910826Y-102587187D01*
X130910956Y-102583543D01*
X130911094Y-102580364D01*
X130911239Y-102577582D01*
X130911392Y-102575128D01*
X130911551Y-102572935D01*
X130911720Y-102570936D01*
X130911896Y-102569062D01*
X130913315Y-102555469D01*
X130917933Y-102519699D01*
X130923729Y-102485623D01*
X130930855Y-102452501D01*
X130939465Y-102419597D01*
X130949710Y-102386172D01*
X130963690Y-102347033D01*
X130982005Y-102303634D01*
X131002815Y-102261491D01*
X131026029Y-102220704D01*
X131051557Y-102181376D01*
X131079308Y-102143610D01*
X131109192Y-102107508D01*
X131141116Y-102073173D01*
X131174991Y-102040709D01*
X131210727Y-102010216D01*
X131248231Y-101981799D01*
X131287415Y-101955559D01*
X131328187Y-101931600D01*
X131370456Y-101910023D01*
X131384323Y-101903609D01*
X131425654Y-101886273D01*
X131467497Y-101871411D01*
X131510145Y-101858943D01*
X131553894Y-101848788D01*
X131599037Y-101840867D01*
X131645867Y-101835101D01*
X131646209Y-101835069D01*
X131646921Y-101835010D01*
X131647759Y-101834952D01*
X131648745Y-101834895D01*
X131649899Y-101834839D01*
X131651244Y-101834785D01*
X131652802Y-101834730D01*
X131654596Y-101834677D01*
X131656644Y-101834624D01*
X131658972Y-101834572D01*
X131661598Y-101834521D01*
X131664547Y-101834472D01*
X131667838Y-101834422D01*
X131671495Y-101834373D01*
X131675539Y-101834326D01*
X131679991Y-101834280D01*
X131684874Y-101834234D01*
X131690209Y-101834188D01*
X131696018Y-101834144D01*
X131702323Y-101834100D01*
X131709146Y-101834057D01*
X131716507Y-101834015D01*
X131724429Y-101833974D01*
X131732935Y-101833933D01*
X131742045Y-101833894D01*
X131751782Y-101833854D01*
X131762166Y-101833816D01*
X131773221Y-101833778D01*
X131784967Y-101833741D01*
X131797427Y-101833705D01*
X131810622Y-101833669D01*
X131824574Y-101833635D01*
X131839304Y-101833601D01*
X131854836Y-101833567D01*
X131871190Y-101833533D01*
X131888388Y-101833502D01*
X131906451Y-101833471D01*
X131925403Y-101833439D01*
X131945263Y-101833409D01*
X131966055Y-101833380D01*
X131987799Y-101833351D01*
X132010519Y-101833323D01*
X132034236Y-101833295D01*
X132058970Y-101833268D01*
X132084744Y-101833241D01*
X132111580Y-101833216D01*
X132139501Y-101833190D01*
X132168525Y-101833165D01*
X132198678Y-101833142D01*
X132229979Y-101833118D01*
X132262451Y-101833095D01*
X132296115Y-101833073D01*
X132330994Y-101833051D01*
X132367108Y-101833029D01*
X132404480Y-101833008D01*
X132443132Y-101832989D01*
X132483085Y-101832969D01*
X132524361Y-101832949D01*
X132566983Y-101832931D01*
X132610970Y-101832912D01*
X132656346Y-101832894D01*
X132703132Y-101832877D01*
X132751351Y-101832860D01*
X132801022Y-101832844D01*
X132852169Y-101832829D01*
X132904814Y-101832814D01*
X132958978Y-101832799D01*
X133014683Y-101832784D01*
X133071950Y-101832770D01*
X133130801Y-101832757D01*
X133191258Y-101832744D01*
X133253344Y-101832731D01*
X133317078Y-101832718D01*
X133382484Y-101832706D01*
X133449584Y-101832695D01*
X133518399Y-101832683D01*
X133588950Y-101832673D01*
X133661260Y-101832663D01*
X133735350Y-101832653D01*
X133811242Y-101832644D01*
X133888958Y-101832634D01*
X133968519Y-101832626D01*
X134049948Y-101832617D01*
X134133266Y-101832609D01*
X134218495Y-101832601D01*
X134305657Y-101832593D01*
X134394772Y-101832586D01*
X134485865Y-101832579D01*
X134578955Y-101832573D01*
X134674065Y-101832566D01*
X134771217Y-101832561D01*
X134870432Y-101832554D01*
X134971732Y-101832549D01*
X135075139Y-101832544D01*
X135180675Y-101832539D01*
X135288360Y-101832535D01*
X135398219Y-101832530D01*
X135510271Y-101832526D01*
X135624538Y-101832522D01*
X135741043Y-101832519D01*
X135859808Y-101832515D01*
X135980854Y-101832512D01*
X136104201Y-101832508D01*
X136229874Y-101832506D01*
X136357894Y-101832503D01*
X136488281Y-101832501D01*
X136621058Y-101832499D01*
X136756247Y-101832496D01*
X136893869Y-101832495D01*
X137033947Y-101832493D01*
X137176502Y-101832491D01*
X137321554Y-101832490D01*
X137469128Y-101832489D01*
X137619244Y-101832487D01*
X137771924Y-101832486D01*
X137927190Y-101832485D01*
X138085064Y-101832485D01*
X138245567Y-101832484D01*
X138408721Y-101832483D01*
X138574548Y-101832483D01*
X138743069Y-101832482D01*
X138914307Y-101832482D01*
X139088285Y-101832482D01*
X139265020Y-101832481D01*
X139444539Y-101832481D01*
X139626861Y-101832481D01*
X139812008Y-101832481D01*
X140000000Y-101832481D01*
X140064290Y-101832481D01*
X140251324Y-101832481D01*
X140435518Y-101832481D01*
X140616895Y-101832481D01*
X140795475Y-101832481D01*
X140971281Y-101832482D01*
X141144333Y-101832482D01*
X141314655Y-101832483D01*
X141482269Y-101832483D01*
X141647195Y-101832483D01*
X141809456Y-101832484D01*
X141969072Y-101832485D01*
X142126066Y-101832486D01*
X142280461Y-101832486D01*
X142432276Y-101832488D01*
X142581535Y-101832489D01*
X142728260Y-101832491D01*
X142872471Y-101832492D01*
X143014190Y-101832493D01*
X143153440Y-101832496D01*
X143290242Y-101832497D01*
X143424619Y-101832500D01*
X143556591Y-101832502D01*
X143686179Y-101832504D01*
X143813407Y-101832507D01*
X143938297Y-101832510D01*
X144060869Y-101832513D01*
X144181145Y-101832517D01*
X144299148Y-101832520D01*
X144414900Y-101832524D01*
X144528420Y-101832528D01*
X144639732Y-101832532D01*
X144748858Y-101832537D01*
X144855819Y-101832542D01*
X144960636Y-101832547D01*
X145063332Y-101832552D01*
X145163929Y-101832558D01*
X145262448Y-101832564D01*
X145358910Y-101832570D01*
X145453339Y-101832576D01*
X145545756Y-101832582D01*
X145636180Y-101832589D01*
X145724637Y-101832597D01*
X145811146Y-101832604D01*
X145895730Y-101832612D01*
X145978410Y-101832621D01*
X146059208Y-101832629D01*
X146138146Y-101832638D01*
X146215245Y-101832648D01*
X146290529Y-101832657D01*
X146364018Y-101832667D01*
X146435732Y-101832678D01*
X146505696Y-101832689D01*
X146573931Y-101832700D01*
X146640457Y-101832712D01*
X146705298Y-101832724D01*
X146768474Y-101832736D01*
X146830008Y-101832749D01*
X146889921Y-101832763D01*
X146948236Y-101832776D01*
X147004973Y-101832791D01*
X147060155Y-101832805D01*
X147113803Y-101832819D01*
X147165939Y-101832836D01*
X147216585Y-101832852D01*
X147265763Y-101832868D01*
X147313496Y-101832885D01*
X147359802Y-101832902D01*
X147404705Y-101832921D01*
X147448227Y-101832938D01*
X147490391Y-101832958D01*
X147531215Y-101832977D01*
X147570725Y-101832996D01*
X147608940Y-101833018D01*
X147645883Y-101833038D01*
X147681575Y-101833060D01*
X147716039Y-101833082D01*
X147749295Y-101833105D01*
X147781366Y-101833128D01*
X147812273Y-101833152D01*
X147842038Y-101833176D01*
X147870684Y-101833200D01*
X147898231Y-101833227D01*
X147924702Y-101833252D01*
X147950118Y-101833278D01*
X147974501Y-101833306D01*
X147997873Y-101833335D01*
X148020255Y-101833363D01*
X148041670Y-101833392D01*
X148062139Y-101833421D01*
X148081685Y-101833452D01*
X148100327Y-101833483D01*
X148118089Y-101833515D01*
X148134992Y-101833547D01*
X148151058Y-101833580D01*
X148166309Y-101833614D01*
X148180766Y-101833649D01*
X148194452Y-101833683D01*
X148207387Y-101833720D01*
X148219595Y-101833756D01*
X148231096Y-101833793D01*
X148241912Y-101833831D01*
X148252066Y-101833870D01*
X148261578Y-101833909D01*
X148270471Y-101833949D01*
X148278767Y-101833990D01*
X148286486Y-101834032D01*
X148293651Y-101834074D01*
X148300284Y-101834117D01*
X148306408Y-101834161D01*
X148312042Y-101834206D01*
X148317209Y-101834251D01*
X148321930Y-101834298D01*
X148326229Y-101834344D01*
X148330125Y-101834392D01*
X148333642Y-101834441D01*
X148336800Y-101834491D01*
X148339622Y-101834541D01*
X148342131Y-101834592D01*
X148344345Y-101834644D01*
X148346290Y-101834696D01*
X148347983Y-101834751D01*
X148349451Y-101834805D01*
X148350711Y-101834859D01*
X148351788Y-101834916D01*
X148352704Y-101834973D01*
X148353478Y-101835031D01*
X148354134Y-101835091D01*
X148367727Y-101836509D01*
X148403496Y-101841127D01*
X148437573Y-101846924D01*
X148470695Y-101854050D01*
X148503598Y-101862660D01*
X148537024Y-101872905D01*
X148576163Y-101886884D01*
X148619561Y-101905199D01*
X148661704Y-101926010D01*
X148702492Y-101949224D01*
X148741820Y-101974752D01*
X148779586Y-102002503D01*
X148815688Y-102032386D01*
X148850023Y-102064310D01*
X148882487Y-102098186D01*
X148912980Y-102133921D01*
X148941397Y-102171426D01*
X148967636Y-102210610D01*
X148991596Y-102251382D01*
X149013173Y-102293651D01*
X149019587Y-102307518D01*
X149036922Y-102348849D01*
X149051785Y-102390691D01*
X149064253Y-102433340D01*
X149074407Y-102477089D01*
X149082329Y-102522231D01*
X149088095Y-102569062D01*
X149088190Y-102570043D01*
X149088363Y-102571970D01*
X149088527Y-102574053D01*
X149088683Y-102576359D01*
X149088833Y-102578957D01*
X149088975Y-102581915D01*
X149089108Y-102585301D01*
X149089236Y-102589181D01*
X149089356Y-102593625D01*
X149089469Y-102598700D01*
X149089577Y-102604473D01*
X149089678Y-102611012D01*
X149089773Y-102618386D01*
X149089861Y-102626663D01*
X149089945Y-102635910D01*
X149090022Y-102646193D01*
X149090094Y-102657582D01*
X149090161Y-102670145D01*
X149090223Y-102683950D01*
X149090280Y-102699063D01*
X149090333Y-102715553D01*
X149090381Y-102733488D01*
X149090425Y-102752935D01*
X149090465Y-102773963D01*
X149090501Y-102796639D01*
X149090534Y-102821030D01*
X149090563Y-102847206D01*
X149090589Y-102875233D01*
X149090611Y-102905179D01*
X149090631Y-102937113D01*
X149090648Y-102971102D01*
X149090663Y-103007213D01*
X149090676Y-103045516D01*
X149090686Y-103086077D01*
X149090694Y-103128964D01*
X149090701Y-103174245D01*
X149090706Y-103221989D01*
X149090710Y-103272262D01*
X149090712Y-103325133D01*
X149090714Y-103380669D01*
X149090715Y-103438939D01*
X149090715Y-103500009D01*
X149090715Y-103528473D01*
X149090715Y-103588252D01*
X149090713Y-103645262D01*
X149090711Y-103699569D01*
X149090708Y-103751241D01*
X149090704Y-103800348D01*
X149090698Y-103846956D01*
X149090690Y-103891133D01*
X149090682Y-103932948D01*
X149090670Y-103972466D01*
X149090656Y-104009758D01*
X149090641Y-104044889D01*
X149090621Y-104077929D01*
X149090601Y-104108945D01*
X149090576Y-104138006D01*
X149090549Y-104165178D01*
X149090518Y-104190528D01*
X149090484Y-104214127D01*
X149090446Y-104236040D01*
X149090404Y-104256336D01*
X149090358Y-104275083D01*
X149090308Y-104292348D01*
X149090285Y-104298713D01*
X149090253Y-104308200D01*
G37*
%TD*%
D11*
%TO.C,U2*%
X131110000Y-80360000D03*
D12*
X133650000Y-80360000D03*
X136190000Y-80360000D03*
X138730000Y-80360000D03*
X141270000Y-80360000D03*
X143810000Y-80360000D03*
X146350000Y-80360000D03*
X148890000Y-80360000D03*
X148890000Y-72740000D03*
X146350000Y-72740000D03*
X143810000Y-72740000D03*
X141270000Y-72740000D03*
X138730000Y-72740000D03*
X136190000Y-72740000D03*
X133650000Y-72740000D03*
X131110000Y-72740000D03*
%TD*%
%TO.C,J1*%
X145080000Y-59000000D03*
X142540000Y-59000000D03*
X140000000Y-59000000D03*
X137460000Y-59000000D03*
X134920000Y-59000000D03*
%TD*%
M02*
