M48
; DRILL file {KiCad 9.0.6} date 2026-02-11T20:03:13+0000
; FORMAT={-:-/ absolute / metric / decimal}
; #@! TF.CreationDate,2026-02-11T20:03:13+00:00
; #@! TF.GenerationSoftware,Kicad,Pcbnew,9.0.6
; #@! TF.FileFunction,Plated,1,2,PTH
FMAT,2
METRIC
; #@! TA.AperFunction,Plated,PTH,ViaDrill
T1C0.300
; #@! TA.AperFunction,Plated,PTH,ComponentDrill
T2C0.800
; #@! TA.AperFunction,Plated,PTH,ComponentDrill
T3C1.000
%
G90
G05
T1
X129.0Y-65.75
X129.2Y-92.432
X129.2Y-96.432
X129.2Y-100.532
X129.9Y-104.7
X132.5Y-59.0
X132.5Y-70.75
X132.8Y-87.8
X132.8Y-92.432
X132.8Y-100.5
X136.0Y-95.0
X136.2Y-101.0
X140.0Y-87.05
X140.0Y-100.125
X146.0Y-76.5
X146.375Y-70.625
X147.0Y-96.432
X147.0Y-100.6
X147.2Y-87.5
X147.2Y-92.0
X150.1Y-104.7
X150.625Y-65.75
X150.8Y-92.432
X150.8Y-96.432
X150.8Y-100.432
T2
X131.11Y-72.74
X131.11Y-80.36
X133.65Y-72.74
X133.65Y-80.36
X136.19Y-72.74
X136.19Y-80.36
X138.73Y-72.74
X138.73Y-80.36
X141.27Y-72.74
X141.27Y-80.36
X143.81Y-72.74
X143.81Y-80.36
X146.35Y-72.74
X146.35Y-80.36
X148.89Y-72.74
X148.89Y-80.36
T3
X134.92Y-59.0
X137.46Y-59.0
X140.0Y-59.0
X142.54Y-59.0
X145.08Y-59.0
M30
